<svg width="56" height="56" viewBox="0 0 56 56" xmlns="http://www.w3.org/2000/svg"><title>sharing-linkedin-icon-@2x</title><desc>Created with Sketch.</desc><g fill="none" fill-rule="evenodd"><g fill="#fff"><g><path d="M14.726 24.2h5.422v17.663h-5.422V24.2zm2.57-2.21h-.036c-1.966 0-3.237-1.348-3.237-3.06 0-1.743 1.312-3.066 3.315-3.066 1.998 0 3.23 1.32 3.27 3.063 0 1.71-1.272 3.063-3.31 3.063zm24.55 19.873h-6.15v-9.14c0-2.392-.957-4.025-3.074-4.025-1.62 0-2.518 1.1-2.936 2.162-.16.38-.134.913-.134 1.446v9.557H23.46s.08-16.19 0-17.662h6.092v2.77c.36-1.21 2.307-2.94 5.414-2.94 3.855 0 6.88 2.54 6.88 8.012v9.82z"/></g></g></g></svg>