<svg width="56" height="56" viewBox="0 0 56 56" xmlns="http://www.w3.org/2000/svg"><title>sharing-twitter-icon-@2xsharing-twitter-icon-@2xsharing-twitter-icon-@2x</title><desc>Created with Sketch.</desc><g fill="none" fill-rule="evenodd"><g fill="#fff"><g><path d="M42.104 21.676c-1.024.463-2.125.777-3.282.917 1.182-.72 2.087-1.86 2.514-3.22-1.105.67-2.328 1.154-3.635 1.414-1.04-1.132-2.526-1.84-4.17-1.84-3.157 0-5.716 2.61-5.716 5.82 0 .455.05.902.146 1.327-4.752-.244-8.964-2.558-11.787-6.084-.492.864-.776 1.864-.776 2.93 0 2.018 1.01 3.8 2.547 4.84-.94-.028-1.82-.29-2.592-.723v.07c0 2.82 1.97 5.17 4.59 5.705-.483.136-.987.206-1.507.206-.37 0-.73-.037-1.076-.103.726 2.31 2.838 3.993 5.34 4.038-1.958 1.563-4.423 2.493-7.104 2.493-.46 0-.918-.025-1.365-.083C16.767 41.033 19.773 42 22.998 42c10.52 0 16.27-8.867 16.27-16.56 0-.25-.003-.503-.015-.75 1.117-.82 2.088-1.845 2.852-3.014"/></g></g></g></svg>