<?xml version="1.0" encoding="UTF-8" standalone="no"?>
<svg
   xmlns:dc="http://purl.org/dc/elements/1.1/"
   xmlns:cc="http://creativecommons.org/ns#"
   xmlns:rdf="http://www.w3.org/1999/02/22-rdf-syntax-ns#"
   xmlns:svg="http://www.w3.org/2000/svg"
   xmlns="http://www.w3.org/2000/svg"
   xmlns:sodipodi="http://sodipodi.sourceforge.net/DTD/sodipodi-0.dtd"
   xmlns:inkscape="http://www.inkscape.org/namespaces/inkscape"
   width="18"
   height="18"
   viewBox="0 0 18 18"
   id="svg2"
   version="1.1"
   inkscape:version="0.91 r13725"
   sodipodi:docname="icon-search-99cae8.svg">
  <metadata
     id="metadata12">
    <rdf:RDF>
      <cc:Work
         rdf:about="">
        <dc:format>image/svg+xml</dc:format>
        <dc:type
           rdf:resource="http://purl.org/dc/dcmitype/StillImage" />
        <dc:title>Search</dc:title>
      </cc:Work>
    </rdf:RDF>
  </metadata>
  <defs
     id="defs10" />
  <sodipodi:namedview
     pagecolor="#ffffff"
     bordercolor="#666666"
     borderopacity="1"
     objecttolerance="10"
     gridtolerance="10"
     guidetolerance="10"
     inkscape:pageopacity="0"
     inkscape:pageshadow="2"
     inkscape:window-width="999"
     inkscape:window-height="712"
     id="namedview8"
     showgrid="false"
     inkscape:zoom="13.111111"
     inkscape:cx="9.2669492"
     inkscape:cy="9"
     inkscape:window-x="0"
     inkscape:window-y="0"
     inkscape:window-maximized="0"
     inkscape:current-layer="svg2" />
  <title
     id="title4">Search</title>
  <path
     d="M6.908 13.717C3.1 13.717 0 10.64 0 6.86 0 3.075 3.1 0 6.908 0c3.81 0 6.907 3.076 6.907 6.86 0 3.78-3.097 6.857-6.907 6.857zm0-11.376c-2.51 0-4.55 2.028-4.55 4.52 0 2.49 2.042 4.516 4.55 4.516 2.51 0 4.55-2.027 4.55-4.517 0-2.492-2.04-4.518-4.55-4.518zm6.998 9.335c-.62.88-1.4 1.642-2.3 2.235l4.12 4.09L18 15.74l-4.094-4.065z"
     fill="#11252F"
     fill-rule="evenodd"
     id="path6"
     style="fill:#99cae8;fill-opacity:1;opacity:1" />
</svg>
