<svg xmlns="http://www.w3.org/2000/svg" viewBox="-27.887 92.064 103.773 17.787" enable-background="new -27.887 92.064 103.773 17.787"><style type="text/css">.st0{fill:#fff;}</style><g id="Page-1"><g id="Group"><path id="Shape" class="st0" d="M60.02 106.678h8.848c1.375 0 2.128-.134 2.568-.428.544-.347.854-.934.854-1.627 0-.827-.414-1.545-1.114-1.893-.364-.214-1.037-.32-1.868-.32h-3.693c-2.074 0-3.423-.373-4.33-1.173-1.038-.934-1.634-2.373-1.634-3.92 0-2.267 1.22-4.24 3.008-4.88.78-.294 1.685-.374 3.71-.374h9.02v3.173h-8.19c-1.635.027-2.266.027-2.81.16-.727.187-1.168.88-1.168 1.813 0 .8.362 1.44.985 1.733.52.24 1.436.293 2.682.293h2.774c2.545 0 3.92.4 4.93 1.467.778.8 1.297 2.374 1.297 3.92 0 1.893-.857 3.653-2.205 4.507-.855.56-1.945.72-4.513.72h-9.15v-3.172z"/><path id="Shape_1_" class="st0" d="M46.42 96.874c-.536.863-.79 2.25-.79 4.108 0 4.08 1.374 5.938 4.428 5.938 3.003 0 4.378-1.858 4.378-5.887 0-4.082-1.35-5.914-4.378-5.914-1.654 0-2.952.63-3.638 1.754m10.357-2.013c1.045 1.413 1.628 3.714 1.628 6.41 0 3.06-.942 5.572-2.62 6.958-1.274 1.045-3.207 1.623-5.5 1.623-3.256 0-5.825-1.098-7.15-3.06-.992-1.44-1.476-3.35-1.476-5.677 0-3.348.89-5.887 2.57-7.248 1.323-1.098 3.41-1.7 5.803-1.7 3.028 0 5.446.968 6.744 2.696"/><path id="Shape_2_" class="st0" d="M39.468 109.85h-3.614v-7.194h-6.54v7.195H25.7V92.4h3.614v7.143h6.54V92.4h3.613v17.45z"/><path id="Shape_3_" class="st0" d="M16.975 100.643c.967 0 1.526-.132 1.91-.498.457-.393.736-1.23.736-2.197 0-1.15-.457-1.99-1.245-2.277-.28-.104-.738-.157-1.323-.157h-4.988v5.13h4.91zm-4.91 9.208H8.448V92.4h8.475c2.976 0 4.02.314 5.14 1.596.992 1.1 1.526 2.538 1.526 4.082 0 1.83-.71 3.532-1.882 4.553-.99.863-1.91 1.124-3.842 1.124h-5.802v6.097z"/><path id="Shape_4_" class="st0" d="M-5.697 96.874c-.535.863-.788 2.25-.788 4.108 0 4.08 1.374 5.938 4.428 5.938 3.002 0 4.377-1.858 4.377-5.887 0-4.082-1.348-5.914-4.377-5.914-1.654 0-2.953.63-3.64 1.754M4.66 94.86c1.045 1.413 1.63 3.714 1.63 6.41 0 3.06-.94 5.572-2.622 6.958-1.27 1.045-3.205 1.623-5.496 1.623-3.258 0-5.828-1.098-7.15-3.06-.994-1.44-1.477-3.35-1.477-5.677 0-3.348.89-5.887 2.57-7.248 1.323-1.098 3.41-1.7 5.803-1.7 3.027 0 5.446.968 6.743 2.696"/><path id="Shape_5_" class="st0" d="M-27.52 106.678h8.852c1.374 0 2.127-.134 2.567-.428.545-.347.855-.934.855-1.627 0-.827-.415-1.545-1.115-1.893-.364-.214-1.037-.32-1.868-.32h-3.693c-2.076 0-3.425-.373-4.333-1.173-1.037-.934-1.635-2.373-1.635-3.92 0-2.267 1.22-4.24 3.01-4.88.778-.294 1.685-.374 3.71-.374h9.02v3.173h-8.19c-1.635.027-2.268.027-2.81.16-.728.187-1.168.88-1.168 1.813 0 .8.364 1.44.985 1.733.518.24 1.436.293 2.68.293h2.775c2.542 0 3.917.4 4.928 1.467.778.8 1.297 2.374 1.297 3.92 0 1.893-.856 3.653-2.204 4.507-.856.56-1.944.72-4.513.72h-9.152v-3.172z"/></g></g></svg>