<svg>
	<symbol id="sophos" viewBox="0 0 132 24">
		<path id="path8" d="m111.82 22.176h11.64c3.267 0 4.65-0.2 5.74-0.896 1.715-1.063 2.804-3.26 2.804-5.62 0-1.928-0.658-3.89-1.647-4.888-1.288-1.33-3.035-1.828-6.271-1.828h-3.527c-1.586 0-2.754-0.067-3.412-0.365-0.794-0.367-1.256-1.165-1.256-2.161 0-1.165 0.56-2.03 1.486-2.264 0.692-0.163 1.498-0.163 3.574-0.198h10.419v-3.956h-11.473c-2.574 0-3.727 0.099-4.718 0.466-2.279 0.796-3.828 3.257-3.828 6.083 0 1.93 0.76 3.727 2.079 4.89 1.155 0.996 2.872 1.462 5.51 1.462h4.697c1.057 0 1.915 0.132 2.376 0.398 0.893 0.433 1.418 1.328 1.418 2.36 0 0.864-0.395 1.597-1.087 2.027-0.561 0.369-1.517 0.534-3.268 0.534h-11.256zm-111.35 0h11.64c3.267 0 4.652-0.2 5.741-0.896 1.714-1.063 2.803-3.26 2.803-5.62 0-1.928-0.66-3.89-1.65-4.888-1.285-1.33-3.034-1.828-6.27-1.828h-3.527c-1.584 0-2.751-0.067-3.41-0.365-0.792-0.367-1.253-1.165-1.253-2.161 0-1.165 0.56-2.03 1.484-2.264 0.693-0.163 1.496-0.163 3.574-0.198h10.42v-3.956h-11.477c-2.573 0-3.727 0.099-4.715 0.466-2.278 0.796-3.83 3.257-3.83 6.083 0 1.93 0.762 3.727 2.08 4.89 1.155 0.996 2.871 1.462 5.51 1.462h4.696c1.057 0 1.913 0.132 2.377 0.398 0.888 0.433 1.416 1.328 1.416 2.36 0 0.864-0.394 1.597-1.089 2.027-0.558 0.369-1.517 0.534-3.264 0.534h-11.256v3.956zm94.05-16.18c-0.68 1.076-1.003 2.803-1.003 5.122 0 5.088 1.747 7.405 5.63 7.405 3.822 0 5.568-2.317 5.568-7.34 0-5.092-1.715-7.373-5.568-7.373-2.102 0-3.754 0.784-4.627 2.186zm13.174-2.511c1.329 1.761 2.072 4.63 2.072 7.992 0 3.816-1.197 6.948-3.334 8.677-1.619 1.304-4.078 2.022-6.995 2.022-4.142 0-7.41-1.372-9.092-3.817-1.263-1.793-1.88-4.176-1.88-7.08 0-4.172 1.133-7.339 3.27-9.035 1.682-1.37 4.339-2.122 7.383-2.122 3.85 0 6.925 1.209 8.576 3.363zm-22.018-3.068h-4.596v8.908h-8.319v-8.908h-4.597v21.759h4.597v-8.97h8.318v8.97h4.596v-21.759zm-28.61 10.277c1.23 0 1.941-0.163 2.427-0.62 0.581-0.49 0.938-1.533 0.938-2.74 0-1.436-0.58-2.478-1.584-2.838-0.356-0.13-0.94-0.197-1.684-0.197h-6.344v6.395zm-6.247 11.481h-4.598v-21.758h10.78c3.786 0 5.114 0.39 6.538 1.991 1.264 1.37 1.942 3.163 1.942 5.088 0 2.284-0.904 4.404-2.394 5.676-1.262 1.077-2.43 1.402-4.888 1.402h-7.38zm-22.589-16.179c-0.682 1.076-1.004 2.803-1.004 5.122 0 5.088 1.748 7.405 5.634 7.405 3.818 0 5.568-2.317 5.568-7.34 0-5.092-1.716-7.373-5.568-7.373-2.106 0-3.757 0.784-4.63 2.186zm13.174-2.511c1.328 1.761 2.073 4.63 2.073 7.992 0 3.816-1.2 6.948-3.335 8.677-1.618 1.304-4.079 2.022-6.993 2.022-4.144 0-7.413-1.372-9.096-3.817-1.264-1.793-1.878-4.176-1.878-7.08 0-4.172 1.133-7.339 3.272-9.035 1.681-1.37 4.337-2.122 7.38-2.122 3.851 0 6.93 1.209 8.578 3.363z"></path>
	</symbol>
	<symbol id="twitter" viewBox="0 0 24 24">
 		<path d="M24 4.557c-.883.392-1.832.656-2.828.775 1.017-.609 1.798-1.574 2.165-2.724-.951.564-2.005.974-3.127 1.195-.897-.957-2.178-1.555-3.594-1.555-3.179 0-5.515 2.966-4.797 6.045-4.091-.205-7.719-2.165-10.148-5.144-1.29 2.213-.669 5.108 1.523 6.574-.806-.026-1.566-.247-2.229-.616-.054 2.281 1.581 4.415 3.949 4.89-.693.188-1.452.232-2.224.084.626 1.956 2.444 3.379 4.6 3.419-2.07 1.623-4.678 2.348-7.29 2.04 2.179 1.397 4.768 2.212 7.548 2.212 9.142 0 14.307-7.721 13.995-14.646.962-.695 1.797-1.562 2.457-2.549z"></path>
 	</symbol>
	<symbol id="facebook" viewBox="0 0 24 24">
 		<path d="M9 8h-3v4h3v12h5v-12h3.642l.358-4h-4v-1.667c0-.955.192-1.333 1.115-1.333h2.885v-5h-3.808c-3.596 0-5.192 1.583-5.192 4.615v3.385z"></path>
 	</symbol>
	<symbol id="instagram" viewBox="0 0 24 24">
		<path d="M12 2.163c3.204 0 3.584.012 4.85.07 3.252.148 4.771 1.691 4.919 4.919.058 1.265.069 1.645.069 4.849 0 3.205-.012 3.584-.069 4.849-.149 3.225-1.664 4.771-4.919 4.919-1.266.058-1.644.07-4.85.07-3.204 0-3.584-.012-4.849-.07-3.26-.149-4.771-1.699-4.919-4.92-.058-1.265-.07-1.644-.07-4.849 0-3.204.013-3.583.07-4.849.149-3.227 1.664-4.771 4.919-4.919 1.266-.057 1.645-.069 4.849-.069zm0-2.163c-3.259 0-3.667.014-4.947.072-4.358.2-6.78 2.618-6.98 6.98-.059 1.281-.073 1.689-.073 4.948 0 3.259.014 3.668.072 4.948.2 4.358 2.618 6.78 6.98 6.98 1.281.058 1.689.072 4.948.072 3.259 0 3.668-.014 4.948-.072 4.354-.2 6.782-2.618 6.979-6.98.059-1.28.073-1.689.073-4.948 0-3.259-.014-3.667-.072-4.947-.196-4.354-2.617-6.78-6.979-6.98-1.281-.059-1.69-.073-4.949-.073zm0 5.838c-3.403 0-6.162 2.759-6.162 6.162s2.759 6.163 6.162 6.163 6.162-2.759 6.162-6.163c0-3.403-2.759-6.162-6.162-6.162zm0 10.162c-2.209 0-4-1.79-4-4 0-2.209 1.791-4 4-4s4 1.791 4 4c0 2.21-1.791 4-4 4zm6.406-11.845c-.796 0-1.441.645-1.441 1.44s.645 1.44 1.441 1.44c.795 0 1.439-.645 1.439-1.44s-.644-1.44-1.439-1.44z"></path>
	</symbol>
	<symbol id="linkedin" viewBox="0 0 24 24">
		<path d="M4.98 3.5c0 1.381-1.11 2.5-2.48 2.5s-2.48-1.119-2.48-2.5c0-1.38 1.11-2.5 2.48-2.5s2.48 1.12 2.48 2.5zm.02 4.5h-5v16h5v-16zm7.982 0h-4.968v16h4.969v-8.399c0-4.67 6.029-5.052 6.029 0v8.399h4.988v-10.131c0-7.88-8.922-7.593-11.018-3.714v-2.155z"></path>
	</symbol>
	<symbol id="rss" viewBox="0 0 24 24">
		<path d="M6.503 20.752c0 1.794-1.456 3.248-3.251 3.248-1.796 0-3.252-1.454-3.252-3.248 0-1.794 1.456-3.248 3.252-3.248 1.795.001 3.251 1.454 3.251 3.248zm-6.503-12.572v4.811c6.05.062 10.96 4.966 11.022 11.009h4.817c-.062-8.71-7.118-15.758-15.839-15.82zm0-3.368c10.58.046 19.152 8.594 19.183 19.188h4.817c-.03-13.231-10.755-23.954-24-24v4.812z"></path>
	</symbol>
	<symbol id="reddit" viewBox="0 0 24 24">
		<path d="M24 11.779c0-1.459-1.192-2.645-2.657-2.645-.715 0-1.363.286-1.84.746-1.81-1.191-4.259-1.949-6.971-2.046l1.483-4.669 4.016.941-.006.058c0 1.193.975 2.163 2.174 2.163 1.198 0 2.172-.97 2.172-2.163s-.975-2.164-2.172-2.164c-.92 0-1.704.574-2.021 1.379l-4.329-1.015c-.189-.046-.381.063-.44.249l-1.654 5.207c-2.838.034-5.409.798-7.3 2.025-.474-.438-1.103-.712-1.799-.712-1.465 0-2.656 1.187-2.656 2.646 0 .97.533 1.811 1.317 2.271-.052.282-.086.567-.086.857 0 3.911 4.808 7.093 10.719 7.093s10.72-3.182 10.72-7.093c0-.274-.029-.544-.075-.81.832-.447 1.405-1.312 1.405-2.318zm-17.224 1.816c0-.868.71-1.575 1.582-1.575.872 0 1.581.707 1.581 1.575s-.709 1.574-1.581 1.574-1.582-.706-1.582-1.574zm9.061 4.669c-.797.793-2.048 1.179-3.824 1.179l-.013-.003-.013.003c-1.777 0-3.028-.386-3.824-1.179-.145-.144-.145-.379 0-.523.145-.145.381-.145.526 0 .65.647 1.729.961 3.298.961l.013.003.013-.003c1.569 0 2.648-.315 3.298-.962.145-.145.381-.144.526 0 .145.145.145.379 0 .524zm-.189-3.095c-.872 0-1.581-.706-1.581-1.574 0-.868.709-1.575 1.581-1.575s1.581.707 1.581 1.575-.709 1.574-1.581 1.574z"></path>
	</symbol>
</svg>
