<?xml version="1.0" standalone="no"?><!DOCTYPE svg PUBLIC "-//W3C//DTD SVG 1.1//EN" "http://www.w3.org/Graphics/SVG/1.1/DTD/svg11.dtd" ><svg version="1.1" xmlns="http://www.w3.org/2000/svg"><defs><font horiz-adv-x="0" id="font"><font-face ascent="730" bbox="-196 -269 1596 984" cap-height="700" descent="-180" font-family="Web use ONLY | Copyright (C) Emtype Foundry" font-stretch="normal" font-weight="700" units-per-em="1000" x-height="540" /><missing-glyph d="M768 342Q768 273 741.5 209Q715 145 665 95Q615 45 551 19Q487 -7 416 -7Q348 -7 283.5 19.5Q219 46 170 95Q121 144 94 208Q67 272 67 342Q67 410 94 474.5Q121 539 170 589Q219 638 283.5 664.5Q348 691 416 691Q486 691 551 664.5Q616 638 665 589Q714 540 741 475Q768 410 768 342ZM416 63Q473 63 524.5 84Q576 105 615 145Q655 185 676.5 236Q698 287 698 342Q698 396 676.5 447Q655 498 615 539Q575 579 523.5 600Q472 621 416 621Q361 621 310.5 600Q260 579 220 539Q180 499 158.5 448.5Q137 398 137 342Q137 287 158.5 236Q180 185 220 145Q261 105 311 84Q361 63 416 63ZM589 219 540 170 418 293 296 171 247 220 369 342 247 464 296 513 418 391 541 513 590 464 467 342Z" horiz-adv-x="869" /><glyph d="M268 262H409L338 483ZM690 0H494L457 115H221L184 0H-2L249 700H439ZM344 700ZM544 0Z" glyph-name="A" horiz-adv-x="688" unicode="A" /><glyph d="M310 262H464V545H461ZM964 0H464V115H232L171 0H-15L382 700H954V545H650V433H924V283H650V155H964ZM474.5 700Z" glyph-name="AE" horiz-adv-x="1004" unicode="&#198;" /><glyph d="M268 262H409L338 483ZM690 0H494L457 115H221L184 0H-2L249 700H439ZM344 700ZM544 0ZM337 896H529L416 748H276ZM344 700Z" glyph-name="Aacute" horiz-adv-x="688" unicode="&#193;" /><glyph d="M268 262H409L338 483ZM690 0H494L457 115H221L184 0H-2L249 700H439ZM344 700ZM544 0ZM391.5 888V897H499.5V888Q499.5 818 458 778Q416.5 738 343.5 738Q270.5 738 229.5 778Q188.5 818 188.5 888V897H296.5V888Q296.5 866 309.5 853Q322.5 840 343.5 840Q365.5 840 378.5 853Q391.5 866 391.5 888ZM344 700Z" glyph-name="Abreve" horiz-adv-x="688" unicode="&#258;" /><glyph d="M268 262H409L338 483ZM690 0H494L457 115H221L184 0H-2L249 700H439ZM344 700ZM544 0ZM399.5 748 344.5 809H342.5L288.5 748H151.5L265.5 896H422.5L536.5 748ZM344 700Z" glyph-name="Acircumflex" horiz-adv-x="688" unicode="&#194;" /><glyph d="M268 262H409L338 483ZM690 0H494L457 115H221L184 0H-2L249 700H439ZM344 700ZM544 0ZM320.5 876V748H167.5V876Q205.5 876 244 876Q282.5 876 320.5 876ZM520.5 876V748H367.5V876Q405.5 876 444 876Q482.5 876 520.5 876ZM344 700Z" glyph-name="Adieresis" horiz-adv-x="688" unicode="&#196;" /><glyph d="M268 262H409L338 483ZM690 0H494L457 115H221L184 0H-2L249 700H439ZM344 700ZM544 0ZM423 748H266L164 896H371ZM344 700Z" glyph-name="Agrave" horiz-adv-x="688" unicode="&#192;" /><glyph d="M268 262H409L338 483ZM690 0H494L457 115H221L184 0H-2L249 700H439ZM344 700ZM544 0ZM176 773V885H512V773ZM344 700Z" glyph-name="Amacron" horiz-adv-x="688" unicode="&#256;" /><glyph d="M268 262H409L338 483ZM646 -78V-176Q623 -195 596 -205Q569 -215 541 -215Q485 -215 450 -183Q415 -151 415 -100Q415 -64 433 -35.5Q451 -7 489 17L457 115H221L184 0H-2L249 700H439L690 0H568Q560 -8 556 -18.5Q552 -29 552 -39Q552 -62 566 -72Q580 -82 611 -82Q620 -82 628.5 -81Q637 -80 646 -78Z" glyph-name="Aogonek" horiz-adv-x="688" unicode="&#260;" /><glyph d="M268 262H409L338 483ZM690 0H494L457 115H221L184 0H-2L249 700H439ZM344 700ZM544 0ZM217 861Q217 915 253 949.5Q289 984 344 984Q399 984 435 949.5Q471 915 471 861Q471 807 435 772.5Q399 738 344 738Q289 738 253 772.5Q217 807 217 861ZM306 861Q306 844 316.5 833.5Q327 823 344 823Q361 823 371.5 833.5Q382 844 382 861Q382 878 371.5 888.5Q361 899 344 899Q327 899 316.5 888.5Q306 878 306 861ZM344 700Z" glyph-name="Aring" horiz-adv-x="688" unicode="&#197;" /><glyph d="M268 262H409L338 483ZM690 0H494L457 115H221L184 0H-2L249 700H439ZM344 700ZM544 0ZM432 742Q407 742 390.5 745.5Q374 749 361 756L319 779Q308 785 299 787.5Q290 790 279 790Q270 790 262.5 787Q255 784 249 777Q243 771 239 764Q235 757 234 748H143Q143 821 176 863.5Q209 906 267 906Q289 906 303 902.5Q317 899 329 892L369 868Q381 861 393.5 857Q406 853 416 853Q424 853 431 857Q438 861 443 869Q448 876 451 883.5Q454 891 455 900H545Q545 819 517 780.5Q489 742 432 742ZM344 700Z" glyph-name="Atilde" horiz-adv-x="688" unicode="&#195;" /><glyph d="M446 493Q446 525 426 542Q406 559 367 559H249V428H367Q406 428 426 444.5Q446 461 446 493ZM466 216Q466 253 443.5 272.5Q421 292 377 292H249V141H377Q421 141 443.5 160Q466 179 466 216ZM377 0H63V700H367Q496 700 564 649.5Q632 599 632 506Q632 460 610.5 423.5Q589 387 547 364Q598 342 625 302Q652 262 652 209Q652 110 581 55Q510 0 377 0Z" glyph-name="B" horiz-adv-x="686" unicode="B" /><glyph d="M448 230V262H632V220Q632 113 555.5 50.5Q479 -12 339 -12Q198 -12 121.5 58Q45 128 45 250V450Q45 572 121.5 642Q198 712 339 712Q479 712 555.5 649.5Q632 587 632 480V447H448V470Q448 509 420.5 529.5Q393 550 339 550Q286 550 258.5 524.5Q231 499 231 450V250Q231 201 258.5 175.5Q286 150 339 150Q393 150 420.5 170Q448 190 448 230ZM338.5 10ZM339 700Z" glyph-name="C" horiz-adv-x="666" unicode="C" /><glyph glyph-name="CR" horiz-adv-x="0" unicode="" /><glyph d="M448 230V262H632V220Q632 113 555.5 50.5Q479 -12 339 -12Q198 -12 121.5 58Q45 128 45 250V450Q45 572 121.5 642Q198 712 339 712Q479 712 555.5 649.5Q632 587 632 480V447H448V470Q448 509 420.5 529.5Q393 550 339 550Q286 550 258.5 524.5Q231 499 231 450V250Q231 201 258.5 175.5Q286 150 339 150Q393 150 420.5 170Q448 190 448 230ZM338.5 10ZM339 700ZM332 896H524L411 748H271ZM339 700Z" glyph-name="Cacute" horiz-adv-x="666" unicode="&#262;" /><glyph d="M448 230V262H632V220Q632 113 555.5 50.5Q479 -12 339 -12Q198 -12 121.5 58Q45 128 45 250V450Q45 572 121.5 642Q198 712 339 712Q479 712 555.5 649.5Q632 587 632 480V447H448V470Q448 509 420.5 529.5Q393 550 339 550Q286 550 258.5 524.5Q231 499 231 450V250Q231 201 258.5 175.5Q286 150 339 150Q393 150 420.5 170Q448 190 448 230ZM338.5 10ZM339 700ZM283.5 896 337.5 835H339.5L394.5 896H531.5L417.5 748H260.5L146.5 896ZM339 700Z" glyph-name="Ccaron" horiz-adv-x="666" unicode="&#268;" /><glyph d="M455 -140Q455 -195 422 -228Q389 -261 329 -261Q272 -261 239 -235Q206 -209 206 -167V-156H299V-157Q299 -163 305 -166Q311 -169 323 -169Q335 -169 340.5 -163Q346 -157 346 -144Q346 -134 339.5 -127.5Q333 -121 322 -121Q316 -121 311.5 -122Q307 -123 299 -127L225 -86L268 -7Q160 9 102.5 77Q45 145 45 250V450Q45 572 121.5 642Q198 712 339 712Q479 712 555.5 649.5Q632 587 632 480V447H448V470Q448 509 420.5 529.5Q393 550 339 550Q286 550 258.5 524.5Q231 499 231 450V250Q231 201 258.5 175.5Q286 150 339 150Q393 150 420.5 170Q448 190 448 230V262H632V220Q632 115 559 53Q486 -9 351 -12L338 -34H339Q394 -34 424.5 -63.5Q455 -93 455 -140Z" glyph-name="Ccedilla" horiz-adv-x="666" unicode="&#199;" /><glyph d="M448 230V262H632V220Q632 113 555.5 50.5Q479 -12 339 -12Q198 -12 121.5 58Q45 128 45 250V450Q45 572 121.5 642Q198 712 339 712Q479 712 555.5 649.5Q632 587 632 480V447H448V470Q448 509 420.5 529.5Q393 550 339 550Q286 550 258.5 524.5Q231 499 231 450V250Q231 201 258.5 175.5Q286 150 339 150Q393 150 420.5 170Q448 190 448 230ZM338.5 10ZM339 700ZM394.5 748 339.5 809H337.5L283.5 748H146.5L260.5 896H417.5L531.5 748ZM339 700Z" glyph-name="Ccircumflex" horiz-adv-x="666" unicode="&#264;" /><glyph d="M448 230V262H632V220Q632 113 555.5 50.5Q479 -12 339 -12Q198 -12 121.5 58Q45 128 45 250V450Q45 572 121.5 642Q198 712 339 712Q479 712 555.5 649.5Q632 587 632 480V447H448V470Q448 509 420.5 529.5Q393 550 339 550Q286 550 258.5 524.5Q231 499 231 450V250Q231 201 258.5 175.5Q286 150 339 150Q393 150 420.5 170Q448 190 448 230ZM338.5 10ZM339 700ZM415.5 888V748H262.5V888Q300.5 888 339 888Q377.5 888 415.5 888ZM339 700Z" glyph-name="Cdotaccent" horiz-adv-x="666" unicode="&#266;" /><glyph d="M357 0H63V700H357Q504 700 583 630.5Q662 561 662 438V262Q662 139 583 69.5Q504 0 357 0ZM249 538V162H357Q416 162 446 189.5Q476 217 476 272V428Q476 483 446 510.5Q416 538 357 538ZM351.565 700Z" glyph-name="D" horiz-adv-x="706" unicode="D" /><glyph d="M357 0H63V700H357Q504 700 583 630.5Q662 561 662 438V262Q662 139 583 69.5Q504 0 357 0ZM249 538V162H357Q416 162 446 189.5Q476 217 476 272V428Q476 483 446 510.5Q416 538 357 538ZM351.565 700ZM296.065 896 350.065 835H352.065L407.065 896H544.065L430.065 748H273.065L159.065 896ZM351.565 700Z" glyph-name="Dcaron" horiz-adv-x="706" unicode="&#270;" /><glyph d="M370 0H76V310H11V405H76V700H370Q517 700 596 630.5Q675 561 675 438V262Q675 139 596 69.5Q517 0 370 0ZM262 310V162H370Q429 162 459 189.5Q489 217 489 272V428Q489 483 459 510.5Q429 538 370 538H262V405H330V310Z" glyph-name="Dcroat" horiz-adv-x="719" unicode="&#272;" /><glyph d="M423 700 604 0H14L196 700ZM307 505 227 145H391L312 505Z" glyph-name="Delta" horiz-adv-x="618" unicode="&#8710;" /><glyph d="M563 0H63V700H553V545H249V433H523V283H249V155H563ZM313 700ZM443 0Z" glyph-name="E" horiz-adv-x="603" unicode="E" /><glyph d="M563 0H63V700H553V545H249V433H523V283H249V155H563ZM313 700ZM443 0ZM306 896H498L385 748H245ZM313 700Z" glyph-name="Eacute" horiz-adv-x="603" unicode="&#201;" /><glyph d="M563 0H63V700H553V545H249V433H523V283H249V155H563ZM313 700ZM443 0ZM360.5 888V897H468.5V888Q468.5 818 427 778Q385.5 738 312.5 738Q239.5 738 198.5 778Q157.5 818 157.5 888V897H265.5V888Q265.5 866 278.5 853Q291.5 840 312.5 840Q334.5 840 347.5 853Q360.5 866 360.5 888ZM313 700Z" glyph-name="Ebreve" horiz-adv-x="603" unicode="&#276;" /><glyph d="M563 0H63V700H553V545H249V433H523V283H249V155H563ZM313 700ZM443 0ZM257.5 896 311.5 835H313.5L368.5 896H505.5L391.5 748H234.5L120.5 896ZM313 700Z" glyph-name="Ecaron" horiz-adv-x="603" unicode="&#282;" /><glyph d="M563 0H63V700H553V545H249V433H523V283H249V155H563ZM313 700ZM443 0ZM368.5 748 313.5 809H311.5L257.5 748H120.5L234.5 896H391.5L505.5 748ZM313 700Z" glyph-name="Ecircumflex" horiz-adv-x="603" unicode="&#202;" /><glyph d="M563 0H63V700H553V545H249V433H523V283H249V155H563ZM313 700ZM443 0ZM289.5 876V748H136.5V876Q174.5 876 213 876Q251.5 876 289.5 876ZM489.5 876V748H336.5V876Q374.5 876 413 876Q451.5 876 489.5 876ZM313 700Z" glyph-name="Edieresis" horiz-adv-x="603" unicode="&#203;" /><glyph d="M563 0H63V700H553V545H249V433H523V283H249V155H563ZM313 700ZM443 0ZM389.5 888V748H236.5V888Q274.5 888 313 888Q351.5 888 389.5 888ZM313 700Z" glyph-name="Edotaccent" horiz-adv-x="603" unicode="&#278;" /><glyph d="M563 0H63V700H553V545H249V433H523V283H249V155H563ZM313 700ZM443 0ZM392 748H235L133 896H340ZM313 700Z" glyph-name="Egrave" horiz-adv-x="603" unicode="&#200;" /><glyph d="M563 0H63V700H553V545H249V433H523V283H249V155H563ZM313 700ZM443 0ZM145 773V885H481V773ZM313 700Z" glyph-name="Emacron" horiz-adv-x="603" unicode="&#274;" /><glyph d="M545 -78V-176Q522 -195 495 -205Q468 -215 440 -215Q384 -215 349 -183Q314 -151 314 -100Q314 -70 326 -45.5Q338 -21 364 0H63V700H553V545H249V433H523V283H249V155H563V0H467Q459 -8 455 -18.5Q451 -29 451 -39Q451 -62 465 -72Q479 -82 510 -82Q519 -82 527.5 -81Q536 -80 545 -78Z" glyph-name="Eogonek" horiz-adv-x="603" unicode="&#280;" /><glyph d="M370 0H76V310H11V405H76V700H370Q517 700 596 630.5Q675 561 675 438V262Q675 139 596 69.5Q517 0 370 0ZM262 310V162H370Q429 162 459 189.5Q489 217 489 272V428Q489 483 459 510.5Q429 538 370 538H262V405H330V310Z" glyph-name="Eth" horiz-adv-x="719" unicode="&#208;" /><glyph d="M648 262V220Q648 114 576 51Q504 -12 373 -12Q251 -12 181.5 48.5Q112 109 102 220H30V325H101V363H30V468H101Q107 583 177 647.5Q247 712 373 712Q504 712 576 649Q648 586 648 480V447H464V473Q464 512 441.5 532.5Q419 553 375 553Q335 553 313 531.5Q291 510 288 468H386V363H287V325H386V220H289Q295 184 316.5 165.5Q338 147 375 147Q419 147 441.5 167.5Q464 188 464 227V262Z" glyph-name="Euro" horiz-adv-x="688" unicode="&#8364;" /><glyph d="M527 420V260H249V0H63V700H557V540H249V420Z" glyph-name="F" horiz-adv-x="589" unicode="F" /><glyph d="M369 368H640V255Q640 123 565 55.5Q490 -12 343 -12Q196 -12 120.5 55.5Q45 123 45 250V450Q45 572 121.5 642Q198 712 341 712Q482 712 559 652.5Q636 593 636 490V465H452V480Q452 514 424 532Q396 550 341 550Q286 550 258.5 524.5Q231 499 231 450V250Q231 198 258.5 174Q286 150 343 150Q397 150 426.5 168Q456 186 456 219V232H369ZM342 700ZM342.5 0Z" glyph-name="G" horiz-adv-x="679" unicode="G" /><glyph d="M369 368H640V255Q640 123 565 55.5Q490 -12 343 -12Q196 -12 120.5 55.5Q45 123 45 250V450Q45 572 121.5 642Q198 712 341 712Q482 712 559 652.5Q636 593 636 490V465H452V480Q452 514 424 532Q396 550 341 550Q286 550 258.5 524.5Q231 499 231 450V250Q231 198 258.5 174Q286 150 343 150Q397 150 426.5 168Q456 186 456 219V232H369ZM342 700ZM342.5 0ZM389.5 888V897H497.5V888Q497.5 818 456 778Q414.5 738 341.5 738Q268.5 738 227.5 778Q186.5 818 186.5 888V897H294.5V888Q294.5 866 307.5 853Q320.5 840 341.5 840Q363.5 840 376.5 853Q389.5 866 389.5 888ZM342 700Z" glyph-name="Gbreve" horiz-adv-x="679" unicode="&#286;" /><glyph d="M369 368H640V255Q640 123 565 55.5Q490 -12 343 -12Q196 -12 120.5 55.5Q45 123 45 250V450Q45 572 121.5 642Q198 712 341 712Q482 712 559 652.5Q636 593 636 490V465H452V480Q452 514 424 532Q396 550 341 550Q286 550 258.5 524.5Q231 499 231 450V250Q231 198 258.5 174Q286 150 343 150Q397 150 426.5 168Q456 186 456 219V232H369ZM342 700ZM342.5 0ZM397.5 748 342.5 809H340.5L286.5 748H149.5L263.5 896H420.5L534.5 748ZM342 700Z" glyph-name="Gcircumflex" horiz-adv-x="679" unicode="&#284;" /><glyph d="M369 368H640V255Q640 123 565 55.5Q490 -12 343 -12Q196 -12 120.5 55.5Q45 123 45 250V450Q45 572 121.5 642Q198 712 341 712Q482 712 559 652.5Q636 593 636 490V465H452V480Q452 514 424 532Q396 550 341 550Q286 550 258.5 524.5Q231 499 231 450V250Q231 198 258.5 174Q286 150 343 150Q397 150 426.5 168Q456 186 456 219V232H369ZM342 700ZM342.5 0ZM418.5 888V748H265.5V888Q303.5 888 342 888Q380.5 888 418.5 888ZM342 700Z" glyph-name="Gdotaccent" horiz-adv-x="679" unicode="&#288;" /><glyph d="M664 0H478V278H249V0H63V700H249V440H478V700H664ZM363.5 700Z" glyph-name="H" horiz-adv-x="727" unicode="H" /><glyph d="M264 522V440H493V522ZM493 278H264V0H78V522H13V617H78V700H264V617H493V700H679V617H744V522H679V0H493Z" glyph-name="Hbar" horiz-adv-x="757" unicode="&#294;" /><glyph d="M664 0H478V278H249V0H63V700H249V440H478V700H664ZM363.5 700ZM419 748 364 809H362L308 748H171L285 896H442L556 748ZM363.5 700Z" glyph-name="Hcircumflex" horiz-adv-x="727" unicode="&#292;" /><glyph d="M63 700H249V0H63ZM156 700ZM139 0Z" glyph-name="I" horiz-adv-x="312" unicode="I" /><glyph d="M63 700H249V0H63ZM156 700ZM139 0ZM681 248V700H867V238Q867 120 796.5 54Q726 -12 594 -12Q466 -12 396 55.5Q326 123 326 238V271H508V248Q508 200 530 175Q552 150 594 150Q637 150 659 175.5Q681 201 681 248ZM776 700Z" glyph-name="IJ" horiz-adv-x="924" unicode="&#306;" /><glyph d="M63 700H249V0H63ZM156 700ZM139 0ZM149 896H341L228 748H88ZM156 700Z" glyph-name="Iacute" horiz-adv-x="312" unicode="&#205;" /><glyph d="M63 700H249V0H63ZM156 700ZM139 0ZM211.5 748 156.5 809H154.5L100.5 748H-36.5L77.5 896H234.5L348.5 748ZM156 700Z" glyph-name="Icircumflex" horiz-adv-x="312" unicode="&#206;" /><glyph d="M63 700H249V0H63ZM156 700ZM139 0ZM132.5 876V748H-20.5V876Q17.5 876 56 876Q94.5 876 132.5 876ZM332.5 876V748H179.5V876Q217.5 876 256 876Q294.5 876 332.5 876ZM156 700Z" glyph-name="Idieresis" horiz-adv-x="312" unicode="&#207;" /><glyph d="M63 700H249V0H63ZM156 700ZM139 0ZM232.5 888V748H79.5V888Q117.5 888 156 888Q194.5 888 232.5 888ZM156 700Z" glyph-name="Idotaccent" horiz-adv-x="312" unicode="&#304;" /><glyph d="M63 700H249V0H63ZM156 700ZM139 0ZM235 748H78L-24 896H183ZM156 700Z" glyph-name="Igrave" horiz-adv-x="312" unicode="&#204;" /><glyph d="M63 700H249V0H63ZM156 700ZM139 0ZM-12 773V885H324V773ZM156 700Z" glyph-name="Imacron" horiz-adv-x="312" unicode="&#298;" /><glyph d="M241 -78V-176Q218 -195 191 -205Q164 -215 136 -215Q80 -215 45 -183Q10 -151 10 -100Q10 -70 23 -45Q36 -20 63 2V700H249V0H163Q155 -8 151 -18.5Q147 -29 147 -39Q147 -62 161 -72Q175 -82 206 -82Q215 -82 223.5 -81Q232 -80 241 -78Z" glyph-name="Iogonek" horiz-adv-x="312" unicode="&#302;" /><glyph d="M63 700H249V0H63ZM156 700ZM139 0ZM244 742Q219 742 202.5 745.5Q186 749 173 756L131 779Q120 785 111 787.5Q102 790 91 790Q82 790 74.5 787Q67 784 61 777Q55 771 51 764Q47 757 46 748H-45Q-45 821 -12 863.5Q21 906 79 906Q101 906 115 902.5Q129 899 141 892L181 868Q193 861 205.5 857Q218 853 228 853Q236 853 243 857Q250 861 255 869Q260 876 263 883.5Q266 891 267 900H357Q357 819 329 780.5Q301 742 244 742ZM156 700Z" glyph-name="Itilde" horiz-adv-x="312" unicode="&#296;" /><glyph d="M369 248V700H555V238Q555 120 484.5 54Q414 -12 282 -12Q154 -12 84 55.5Q14 123 14 238V271H196V248Q196 200 218 175Q240 150 282 150Q325 150 347 175.5Q369 201 369 248ZM464 700Z" glyph-name="J" horiz-adv-x="612" unicode="J" /><glyph d="M369 248V700H555V238Q555 120 484.5 54Q414 -12 282 -12Q154 -12 84 55.5Q14 123 14 238V271H196V248Q196 200 218 175Q240 150 282 150Q325 150 347 175.5Q369 201 369 248ZM464 700ZM519.5 748 464.5 809H462.5L408.5 748H271.5L385.5 896H542.5L656.5 748ZM464 700Z" glyph-name="Jcircumflex" horiz-adv-x="612" unicode="&#308;" /><glyph d="M315 256 249 176V0H63V700H249V432L460 700H680L442 408L681 0H462ZM353 0Z" glyph-name="K" horiz-adv-x="680" unicode="K" /><glyph d="M557 0H63V700H249V162H557ZM154 700ZM310 0ZM320 700ZM343 350Z" glyph-name="L" horiz-adv-x="571" unicode="L" /><glyph d="M557 0H63V700H249V162H557ZM154 700ZM310 0ZM320 700ZM343 350ZM147 896H339L226 748H86ZM154 700Z" glyph-name="Lacute" horiz-adv-x="571" unicode="&#313;" /><glyph d="M557 0H63V700H249V162H557ZM154 700ZM310 0ZM320 700ZM343 350ZM320 730H450V686L410 521H320ZM320 688Z" glyph-name="Lcaron" horiz-adv-x="571" unicode="&#317;" /><glyph d="M557 0H63V700H249V162H557ZM154 700ZM310 0ZM320 700ZM343 350ZM533 443V277H352V443Q397 443 442.5 443Q488 443 533 443ZM352 350Z" glyph-name="Ldot" horiz-adv-x="574" unicode="&#319;" /><glyph d="M557 0H63V700H249V162H557ZM154 700ZM310 0ZM320 700ZM343 350ZM533 443V277H352V443Q397 443 442.5 443Q488 443 533 443ZM352 350ZM1131 0H637V700H823V162H1131ZM728 700ZM884 0ZM894 700ZM917 350Z" glyph-name="Lgeminada" horiz-adv-x="1145" /><glyph d="M584 162V0H90V219L18 163V297L90 353V700H276V496L348 552V418L276 362V162Z" glyph-name="Lslash" horiz-adv-x="598" unicode="&#321;" /><glyph d="M435 207H357L236 376V0H63V700H225L398 440L562 700H734V0H552V386Z" glyph-name="M" horiz-adv-x="797" unicode="M" /><glyph d="M664 0H510L239 369V0H63V700H217L488 329V700H664ZM363.5 700ZM363.5 0Z" glyph-name="N" horiz-adv-x="727" unicode="N" /><glyph d="M664 0H510L239 369V0H63V700H217L488 329V700H664ZM363.5 700ZM363.5 0ZM356.5 896H548.5L435.5 748H295.5ZM363.5 700Z" glyph-name="Nacute" horiz-adv-x="727" unicode="&#323;" /><glyph d="M664 0H510L239 369V0H63V700H217L488 329V700H664ZM363.5 700ZM363.5 0ZM308 896 362 835H364L419 896H556L442 748H285L171 896ZM363.5 700Z" glyph-name="Ncaron" horiz-adv-x="727" unicode="&#327;" /><glyph d="M664 0H510L239 369V0H63V700H217L488 329V700H664ZM363.5 700ZM363.5 0ZM451.5 742Q426.5 742 410 745.5Q393.5 749 380.5 756L338.5 779Q327.5 785 318.5 787.5Q309.5 790 298.5 790Q289.5 790 282 787Q274.5 784 268.5 777Q262.5 771 258.5 764Q254.5 757 253.5 748H162.5Q162.5 821 195.5 863.5Q228.5 906 286.5 906Q308.5 906 322.5 902.5Q336.5 899 348.5 892L388.5 868Q400.5 861 413 857Q425.5 853 435.5 853Q443.5 853 450.5 857Q457.5 861 462.5 869Q467.5 876 470.5 883.5Q473.5 891 474.5 900H564.5Q564.5 819 536.5 780.5Q508.5 742 451.5 742ZM363.5 700Z" glyph-name="Ntilde" horiz-adv-x="727" unicode="&#209;" /><glyph d="M349 -12Q202 -12 123.5 57.5Q45 127 45 250V450Q45 573 123.5 642.5Q202 712 349 712Q496 712 575 642.5Q654 573 654 450V250Q654 127 575 57.5Q496 -12 349 -12ZM349 150Q408 150 438 177.5Q468 205 468 260V440Q468 495 438 522.5Q408 550 349 550Q290 550 260.5 522.5Q231 495 231 440V260Q231 205 260.5 177.5Q290 150 349 150ZM349.5 700Z" glyph-name="O" horiz-adv-x="699" unicode="O" /><glyph d="M349 150Q408 150 438 177.5Q468 205 468 260V440Q468 495 438 522.5Q408 550 349 550Q290 550 260.5 522.5Q231 495 231 440V260Q231 205 260.5 177.5Q290 150 349 150ZM968 0H488V32Q459 10 421.5 -1Q384 -12 339 -12Q197 -12 121 57.5Q45 127 45 250V450Q45 573 121 642.5Q197 712 339 712Q385 712 422 701Q459 690 488 669V700H958V545H654V433H928V283H654V155H968Z" glyph-name="OE" horiz-adv-x="1008" unicode="&#338;" /><glyph d="M349 -12Q202 -12 123.5 57.5Q45 127 45 250V450Q45 573 123.5 642.5Q202 712 349 712Q496 712 575 642.5Q654 573 654 450V250Q654 127 575 57.5Q496 -12 349 -12ZM349 150Q408 150 438 177.5Q468 205 468 260V440Q468 495 438 522.5Q408 550 349 550Q290 550 260.5 522.5Q231 495 231 440V260Q231 205 260.5 177.5Q290 150 349 150ZM349.5 700ZM342.5 896H534.5L421.5 748H281.5ZM349.5 700Z" glyph-name="Oacute" horiz-adv-x="699" unicode="&#211;" /><glyph d="M349 -12Q202 -12 123.5 57.5Q45 127 45 250V450Q45 573 123.5 642.5Q202 712 349 712Q496 712 575 642.5Q654 573 654 450V250Q654 127 575 57.5Q496 -12 349 -12ZM349 150Q408 150 438 177.5Q468 205 468 260V440Q468 495 438 522.5Q408 550 349 550Q290 550 260.5 522.5Q231 495 231 440V260Q231 205 260.5 177.5Q290 150 349 150ZM349.5 700ZM397 888V897H505V888Q505 818 463.5 778Q422 738 349 738Q276 738 235 778Q194 818 194 888V897H302V888Q302 866 315 853Q328 840 349 840Q371 840 384 853Q397 866 397 888ZM349.5 700Z" glyph-name="Obreve" horiz-adv-x="699" unicode="&#334;" /><glyph d="M349 -12Q202 -12 123.5 57.5Q45 127 45 250V450Q45 573 123.5 642.5Q202 712 349 712Q496 712 575 642.5Q654 573 654 450V250Q654 127 575 57.5Q496 -12 349 -12ZM349 150Q408 150 438 177.5Q468 205 468 260V440Q468 495 438 522.5Q408 550 349 550Q290 550 260.5 522.5Q231 495 231 440V260Q231 205 260.5 177.5Q290 150 349 150ZM349.5 700ZM405 748 350 809H348L294 748H157L271 896H428L542 748ZM349.5 700Z" glyph-name="Ocircumflex" horiz-adv-x="699" unicode="&#212;" /><glyph d="M349 -12Q202 -12 123.5 57.5Q45 127 45 250V450Q45 573 123.5 642.5Q202 712 349 712Q496 712 575 642.5Q654 573 654 450V250Q654 127 575 57.5Q496 -12 349 -12ZM349 150Q408 150 438 177.5Q468 205 468 260V440Q468 495 438 522.5Q408 550 349 550Q290 550 260.5 522.5Q231 495 231 440V260Q231 205 260.5 177.5Q290 150 349 150ZM349.5 700ZM326 876V748H173V876Q211 876 249.5 876Q288 876 326 876ZM526 876V748H373V876Q411 876 449.5 876Q488 876 526 876ZM349.5 700Z" glyph-name="Odieresis" horiz-adv-x="699" unicode="&#214;" /><glyph d="M349 -12Q202 -12 123.5 57.5Q45 127 45 250V450Q45 573 123.5 642.5Q202 712 349 712Q496 712 575 642.5Q654 573 654 450V250Q654 127 575 57.5Q496 -12 349 -12ZM349 150Q408 150 438 177.5Q468 205 468 260V440Q468 495 438 522.5Q408 550 349 550Q290 550 260.5 522.5Q231 495 231 440V260Q231 205 260.5 177.5Q290 150 349 150ZM349.5 700ZM428.5 748H271.5L169.5 896H376.5ZM349.5 700Z" glyph-name="Ograve" horiz-adv-x="699" unicode="&#210;" /><glyph d="M349 -12Q202 -12 123.5 57.5Q45 127 45 250V450Q45 573 123.5 642.5Q202 712 349 712Q496 712 575 642.5Q654 573 654 450V250Q654 127 575 57.5Q496 -12 349 -12ZM349 150Q408 150 438 177.5Q468 205 468 260V440Q468 495 438 522.5Q408 550 349 550Q290 550 260.5 522.5Q231 495 231 440V260Q231 205 260.5 177.5Q290 150 349 150ZM349.5 700ZM202.5 896H399.5L297.5 748H150.5ZM451.5 896H648.5L520.5 748H373.5ZM349.5 700Z" glyph-name="Ohungarumlaut" horiz-adv-x="699" unicode="&#336;" /><glyph d="M349 -12Q202 -12 123.5 57.5Q45 127 45 250V450Q45 573 123.5 642.5Q202 712 349 712Q496 712 575 642.5Q654 573 654 450V250Q654 127 575 57.5Q496 -12 349 -12ZM349 150Q408 150 438 177.5Q468 205 468 260V440Q468 495 438 522.5Q408 550 349 550Q290 550 260.5 522.5Q231 495 231 440V260Q231 205 260.5 177.5Q290 150 349 150ZM349.5 700ZM181.5 773V885H517.5V773ZM349.5 700Z" glyph-name="Omacron" horiz-adv-x="699" unicode="&#332;" /><glyph d="M467 378V440Q467 495 437.5 522.5Q408 550 349 550Q290 550 260.5 522.5Q231 495 231 440V378Q231 317 253 287.5Q275 258 319 258V0H63V142H202V149Q126 170 85.5 227.5Q45 285 45 368V450Q45 573 123.5 642.5Q202 712 349 712Q496 712 574.5 642.5Q653 573 653 450V368Q653 285 612.5 227.5Q572 170 496 149V142H635V0H379V258Q423 258 445 287.5Q467 317 467 378Z" glyph-name="Omega" horiz-adv-x="698" unicode="&#8486;" /><glyph d="M231 440V260Q231 250 232 241Q233 232 235 224L413 539Q400 545 384 547.5Q368 550 349 550Q290 550 260.5 522.5Q231 495 231 440ZM349 150Q408 150 438 177.5Q468 205 468 260V440Q468 451 467 460Q466 469 464 476L286 161Q298 156 314 153Q330 150 349 150ZM349 -12Q309 -12 273.5 -6.5Q238 -1 208 9L179 -42H75L129 53Q88 87 66.5 137.5Q45 188 45 250V450Q45 573 123.5 642.5Q202 712 349 712Q389 712 424.5 706.5Q460 701 490 691L519 742H623L569 647Q611 613 632.5 562.5Q654 512 654 450V250Q654 127 575 57.5Q496 -12 349 -12ZM349.5 700Z" glyph-name="Oslash" horiz-adv-x="699" unicode="&#216;" /><glyph d="M349 -12Q202 -12 123.5 57.5Q45 127 45 250V450Q45 573 123.5 642.5Q202 712 349 712Q496 712 575 642.5Q654 573 654 450V250Q654 127 575 57.5Q496 -12 349 -12ZM349 150Q408 150 438 177.5Q468 205 468 260V440Q468 495 438 522.5Q408 550 349 550Q290 550 260.5 522.5Q231 495 231 440V260Q231 205 260.5 177.5Q290 150 349 150ZM349.5 700ZM437.5 742Q412.5 742 396 745.5Q379.5 749 366.5 756L324.5 779Q313.5 785 304.5 787.5Q295.5 790 284.5 790Q275.5 790 268 787Q260.5 784 254.5 777Q248.5 771 244.5 764Q240.5 757 239.5 748H148.5Q148.5 821 181.5 863.5Q214.5 906 272.5 906Q294.5 906 308.5 902.5Q322.5 899 334.5 892L374.5 868Q386.5 861 399 857Q411.5 853 421.5 853Q429.5 853 436.5 857Q443.5 861 448.5 869Q453.5 876 456.5 883.5Q459.5 891 460.5 900H550.5Q550.5 819 522.5 780.5Q494.5 742 437.5 742ZM349.5 700Z" glyph-name="Otilde" horiz-adv-x="699" unicode="&#213;" /><glyph d="M463 443Q463 492 433 517.5Q403 543 344 543H249V344H344Q403 344 433 369Q463 394 463 443ZM652 444Q652 321 574 254.5Q496 188 347 188H249V0H63V700H347Q496 700 574 633.5Q652 567 652 444Z" glyph-name="P" horiz-adv-x="672" unicode="P" /><glyph d="M634 -120V-143H419L317 -11Q185 -4 115 65Q45 134 45 250V450Q45 573 123.5 642.5Q202 712 349 712Q496 712 575 642.5Q654 573 654 450V250Q654 172 620.5 113.5Q587 55 523 23ZM349 150Q408 150 438 177.5Q468 205 468 260V440Q468 495 438 522.5Q408 550 349 550Q290 550 260.5 522.5Q231 495 231 440V260Q231 205 260.5 177.5Q290 150 349 150Z" glyph-name="Q" horiz-adv-x="699" unicode="Q" /><glyph d="M464 459Q464 501 434.5 523Q405 545 347 545H249V374H347Q405 374 434.5 395.5Q464 417 464 459ZM444 0 346 221H249V0H63V700H346Q495 700 573.5 638Q652 576 652 462Q652 391 620 338Q588 285 527 255L642 0ZM343.12 700ZM340 0Z" glyph-name="R" horiz-adv-x="686" unicode="R" /><glyph d="M336 896H528L415 748H275ZM464 459Q464 501 434.5 523Q405 545 347 545H249V374H347Q405 374 434.5 395.5Q464 417 464 459ZM444 0 346 221H249V0H63V700H346Q495 700 573.5 638Q652 576 652 462Q652 391 620 338Q588 285 527 255L642 0Z" glyph-name="Racute" horiz-adv-x="686" unicode="&#340;" /><glyph d="M288 896 342 835H344L399 896H536L422 748H265L151 896ZM464 459Q464 501 434.5 523Q405 545 347 545H249V374H347Q405 374 434.5 395.5Q464 417 464 459ZM444 0 346 221H249V0H63V700H346Q495 700 573.5 638Q652 576 652 462Q652 391 620 338Q588 285 527 255L642 0Z" glyph-name="Rcaron" horiz-adv-x="686" unicode="&#344;" /><glyph d="M607 502V484H422V498Q422 529 395.5 546Q369 563 318 563Q274 563 249.5 547.5Q225 532 225 507Q225 483 239.5 470Q254 457 289 451L420 427Q518 409 569.5 358.5Q621 308 621 229Q621 111 546.5 49.5Q472 -12 327 -12Q183 -12 107 44.5Q31 101 31 202V218H216V206Q216 174 243.5 156.5Q271 139 323 139Q376 139 403.5 155.5Q431 172 431 203Q431 229 412 243Q393 257 350 265L220 289Q133 305 88.5 356Q44 407 44 492Q44 589 119.5 650.5Q195 712 323 712Q455 712 531 653.5Q607 595 607 502ZM326 10ZM335.6 700ZM326 0Z" glyph-name="S" horiz-adv-x="653" unicode="S" /><glyph d="M607 502V484H422V498Q422 529 395.5 546Q369 563 318 563Q274 563 249.5 547.5Q225 532 225 507Q225 483 239.5 470Q254 457 289 451L420 427Q518 409 569.5 358.5Q621 308 621 229Q621 111 546.5 49.5Q472 -12 327 -12Q183 -12 107 44.5Q31 101 31 202V218H216V206Q216 174 243.5 156.5Q271 139 323 139Q376 139 403.5 155.5Q431 172 431 203Q431 229 412 243Q393 257 350 265L220 289Q133 305 88.5 356Q44 407 44 492Q44 589 119.5 650.5Q195 712 323 712Q455 712 531 653.5Q607 595 607 502ZM326 10ZM335.6 700ZM326 0ZM328.6 896H520.6L407.6 748H267.6ZM335.6 700Z" glyph-name="Sacute" horiz-adv-x="653" unicode="&#346;" /><glyph d="M607 502V484H422V498Q422 529 395.5 546Q369 563 318 563Q274 563 249.5 547.5Q225 532 225 507Q225 483 239.5 470Q254 457 289 451L420 427Q518 409 569.5 358.5Q621 308 621 229Q621 111 546.5 49.5Q472 -12 327 -12Q183 -12 107 44.5Q31 101 31 202V218H216V206Q216 174 243.5 156.5Q271 139 323 139Q376 139 403.5 155.5Q431 172 431 203Q431 229 412 243Q393 257 350 265L220 289Q133 305 88.5 356Q44 407 44 492Q44 589 119.5 650.5Q195 712 323 712Q455 712 531 653.5Q607 595 607 502ZM326 10ZM335.6 700ZM326 0ZM280.1 896 334.1 835H336.1L391.1 896H528.1L414.1 748H257.1L143.1 896ZM335.6 700Z" glyph-name="Scaron" horiz-adv-x="653" unicode="&#352;" /><glyph d="M443 -140Q443 -195 410 -228Q377 -261 317 -261Q260 -261 227 -235Q194 -209 194 -167V-156H287V-157Q287 -163 293 -166Q299 -169 311 -169Q323 -169 328.5 -163Q334 -157 334 -144Q334 -134 327.5 -127.5Q321 -121 310 -121Q304 -121 299.5 -122Q295 -123 287 -127L213 -86L255 -8Q146 5 88.5 60Q31 115 31 202V218H216V206Q216 174 243.5 156.5Q271 139 323 139Q376 139 403.5 155.5Q431 172 431 203Q431 229 412 243Q393 257 350 265L220 289Q133 305 88.5 356Q44 407 44 492Q44 589 119.5 650.5Q195 712 323 712Q455 712 531 653.5Q607 595 607 502V484H422V498Q422 529 395.5 546Q369 563 318 563Q274 563 249.5 547.5Q225 532 225 507Q225 484 239.5 470.5Q254 457 289 451L420 427Q518 409 569.5 358.5Q621 308 621 229Q621 114 549.5 52.5Q478 -9 339 -12L326 -34H327Q382 -34 412.5 -63.5Q443 -93 443 -140Z" glyph-name="Scedilla" horiz-adv-x="653" unicode="&#350;" /><glyph d="M607 502V484H422V498Q422 529 395.5 546Q369 563 318 563Q274 563 249.5 547.5Q225 532 225 507Q225 483 239.5 470Q254 457 289 451L420 427Q518 409 569.5 358.5Q621 308 621 229Q621 111 546.5 49.5Q472 -12 327 -12Q183 -12 107 44.5Q31 101 31 202V218H216V206Q216 174 243.5 156.5Q271 139 323 139Q376 139 403.5 155.5Q431 172 431 203Q431 229 412 243Q393 257 350 265L220 289Q133 305 88.5 356Q44 407 44 492Q44 589 119.5 650.5Q195 712 323 712Q455 712 531 653.5Q607 595 607 502ZM326 10ZM335.6 700ZM326 0ZM391.1 748 336.1 809H334.1L280.1 748H143.1L257.1 896H414.1L528.1 748ZM335.6 700Z" glyph-name="Scircumflex" horiz-adv-x="653" unicode="&#348;" /><glyph d="M594 700V538H396V0H210V538H13V700ZM303.5 10ZM303.5 700ZM303.5 0Z" glyph-name="T" horiz-adv-x="607" unicode="T" /><glyph d="M530 365V270H404V0H218V270H91V365H218V538H21V700H602V538H404V365Z" glyph-name="Tbar" horiz-adv-x="623" unicode="&#358;" /><glyph d="M594 700V538H396V0H210V538H13V700ZM303.5 10ZM303.5 700ZM303.5 0ZM248 896 302 835H304L359 896H496L382 748H225L111 896ZM303.5 700Z" glyph-name="Tcaron" horiz-adv-x="607" unicode="&#356;" /><glyph d="M463 343Q463 392 433 417.5Q403 443 344 443H249V244H344Q403 244 433 269Q463 294 463 343ZM652 344Q652 221 574 154.5Q496 88 347 88H249V0H63V700H249V600H347Q496 600 574 533.5Q652 467 652 344Z" glyph-name="Thorn" horiz-adv-x="675" unicode="&#222;" /><glyph d="M57 250V700H243V260Q243 205 272 177.5Q301 150 359 150Q417 150 446.5 178Q476 206 476 260V700H662V250Q662 128 583.5 58Q505 -12 359 -12Q213 -12 135 57.5Q57 127 57 250ZM361 700ZM471 0Z" glyph-name="U" horiz-adv-x="719" unicode="U" /><glyph d="M57 250V700H243V260Q243 205 272 177.5Q301 150 359 150Q417 150 446.5 178Q476 206 476 260V700H662V250Q662 128 583.5 58Q505 -12 359 -12Q213 -12 135 57.5Q57 127 57 250ZM361 700ZM471 0ZM354 896H546L433 748H293ZM361 700Z" glyph-name="Uacute" horiz-adv-x="719" unicode="&#218;" /><glyph d="M57 250V700H243V260Q243 205 272 177.5Q301 150 359 150Q417 150 446.5 178Q476 206 476 260V700H662V250Q662 128 583.5 58Q505 -12 359 -12Q213 -12 135 57.5Q57 127 57 250ZM361 700ZM471 0ZM408.5 888V897H516.5V888Q516.5 818 475 778Q433.5 738 360.5 738Q287.5 738 246.5 778Q205.5 818 205.5 888V897H313.5V888Q313.5 866 326.5 853Q339.5 840 360.5 840Q382.5 840 395.5 853Q408.5 866 408.5 888ZM361 700Z" glyph-name="Ubreve" horiz-adv-x="719" unicode="&#364;" /><glyph d="M57 250V700H243V260Q243 205 272 177.5Q301 150 359 150Q417 150 446.5 178Q476 206 476 260V700H662V250Q662 128 583.5 58Q505 -12 359 -12Q213 -12 135 57.5Q57 127 57 250ZM361 700ZM471 0ZM416.5 748 361.5 809H359.5L305.5 748H168.5L282.5 896H439.5L553.5 748ZM361 700Z" glyph-name="Ucircumflex" horiz-adv-x="719" unicode="&#219;" /><glyph d="M57 250V700H243V260Q243 205 272 177.5Q301 150 359 150Q417 150 446.5 178Q476 206 476 260V700H662V250Q662 128 583.5 58Q505 -12 359 -12Q213 -12 135 57.5Q57 127 57 250ZM361 700ZM471 0ZM337.5 876V748H184.5V876Q222.5 876 261 876Q299.5 876 337.5 876ZM537.5 876V748H384.5V876Q422.5 876 461 876Q499.5 876 537.5 876ZM361 700Z" glyph-name="Udieresis" horiz-adv-x="719" unicode="&#220;" /><glyph d="M57 250V700H243V260Q243 205 272 177.5Q301 150 359 150Q417 150 446.5 178Q476 206 476 260V700H662V250Q662 128 583.5 58Q505 -12 359 -12Q213 -12 135 57.5Q57 127 57 250ZM361 700ZM471 0ZM440 748H283L181 896H388ZM361 700Z" glyph-name="Ugrave" horiz-adv-x="719" unicode="&#217;" /><glyph d="M57 250V700H243V260Q243 205 272 177.5Q301 150 359 150Q417 150 446.5 178Q476 206 476 260V700H662V250Q662 128 583.5 58Q505 -12 359 -12Q213 -12 135 57.5Q57 127 57 250ZM361 700ZM471 0ZM214 896H411L309 748H162ZM463 896H660L532 748H385ZM361 700Z" glyph-name="Uhungarumlaut" horiz-adv-x="719" unicode="&#368;" /><glyph d="M57 250V700H243V260Q243 205 272 177.5Q301 150 359 150Q417 150 446.5 178Q476 206 476 260V700H662V250Q662 128 583.5 58Q505 -12 359 -12Q213 -12 135 57.5Q57 127 57 250ZM361 700ZM471 0ZM193 773V885H529V773ZM361 700Z" glyph-name="Umacron" horiz-adv-x="719" unicode="&#362;" /><glyph d="M475 -215Q419 -215 384 -183Q349 -151 349 -100Q349 -74 357.5 -52.5Q366 -31 385 -11Q380 -12 375 -12Q370 -12 359 -12Q213 -12 135 57.5Q57 127 57 250V700H243V260Q243 205 272 177.5Q301 150 359 150Q417 150 446.5 178Q476 206 476 260V700H662V250Q662 179 633.5 123.5Q605 68 550 34Q506 7 496 -7.5Q486 -22 486 -39Q486 -62 500 -72Q514 -82 545 -82Q554 -82 562.5 -81Q571 -80 580 -78V-176Q557 -195 530 -205Q503 -215 475 -215Z" glyph-name="Uogonek" horiz-adv-x="719" unicode="&#370;" /><glyph d="M57 250V700H243V260Q243 205 272 177.5Q301 150 359 150Q417 150 446.5 178Q476 206 476 260V700H662V250Q662 128 583.5 58Q505 -12 359 -12Q213 -12 135 57.5Q57 127 57 250ZM361 700ZM471 0ZM234 861Q234 915 270 949.5Q306 984 361 984Q416 984 452 949.5Q488 915 488 861Q488 807 452 772.5Q416 738 361 738Q306 738 270 772.5Q234 807 234 861ZM323 861Q323 844 333.5 833.5Q344 823 361 823Q378 823 388.5 833.5Q399 844 399 861Q399 878 388.5 888.5Q378 899 361 899Q344 899 333.5 888.5Q323 878 323 861ZM361 700Z" glyph-name="Uring" horiz-adv-x="719" unicode="&#366;" /><glyph d="M57 250V700H243V260Q243 205 272 177.5Q301 150 359 150Q417 150 446.5 178Q476 206 476 260V700H662V250Q662 128 583.5 58Q505 -12 359 -12Q213 -12 135 57.5Q57 127 57 250ZM361 700ZM471 0ZM449 742Q424 742 407.5 745.5Q391 749 378 756L336 779Q325 785 316 787.5Q307 790 296 790Q287 790 279.5 787Q272 784 266 777Q260 771 256 764Q252 757 251 748H160Q160 821 193 863.5Q226 906 284 906Q306 906 320 902.5Q334 899 346 892L386 868Q398 861 410.5 857Q423 853 433 853Q441 853 448 857Q455 861 460 869Q465 876 468 883.5Q471 891 472 900H562Q562 819 534 780.5Q506 742 449 742ZM361 700Z" glyph-name="Utilde" horiz-adv-x="719" unicode="&#360;" /><glyph d="M432 0H242L1 700H199L342 257L485 700H673Z" glyph-name="V" horiz-adv-x="674" unicode="V" /><glyph d="M378 0H188L9 700H202L295 289L410 700H600L717 288L808 700H996L821 0H631L503 408ZM503 700Z" glyph-name="W" horiz-adv-x="1007" unicode="W" /><glyph d="M378 0H188L9 700H202L295 289L410 700H600L717 288L808 700H996L821 0H631L503 408ZM503 700ZM496 896H688L575 748H435ZM503 700Z" glyph-name="Wacute" horiz-adv-x="1007" unicode="&#7810;" /><glyph d="M378 0H188L9 700H202L295 289L410 700H600L717 288L808 700H996L821 0H631L503 408ZM503 700ZM558.5 748 503.5 809H501.5L447.5 748H310.5L424.5 896H581.5L695.5 748ZM503 700Z" glyph-name="Wcircumflex" horiz-adv-x="1007" unicode="&#372;" /><glyph d="M378 0H188L9 700H202L295 289L410 700H600L717 288L808 700H996L821 0H631L503 408ZM503 700ZM479.5 876V748H326.5V876Q364.5 876 403 876Q441.5 876 479.5 876ZM679.5 876V748H526.5V876Q564.5 876 603 876Q641.5 876 679.5 876ZM503 700Z" glyph-name="Wdieresis" horiz-adv-x="1007" unicode="&#7812;" /><glyph d="M378 0H188L9 700H202L295 289L410 700H600L717 288L808 700H996L821 0H631L503 408ZM503 700ZM582 748H425L323 896H530ZM503 700Z" glyph-name="Wgrave" horiz-adv-x="1007" unicode="&#7808;" /><glyph d="M662 0H452L325 207L200 0H-2L222 351L6 700H215L333 505L454 700H652L435 364Z" glyph-name="X" horiz-adv-x="659" unicode="X" /><glyph d="M415 263V0H229V252L-1 700H200L323 438L451 700H644ZM330 700Z" glyph-name="Y" horiz-adv-x="642" unicode="Y" /><glyph d="M415 263V0H229V252L-1 700H200L323 438L451 700H644ZM330 700ZM323 896H515L402 748H262ZM330 700Z" glyph-name="Yacute" horiz-adv-x="642" unicode="&#221;" /><glyph d="M415 263V0H229V252L-1 700H200L323 438L451 700H644ZM330 700ZM385.5 748 330.5 809H328.5L274.5 748H137.5L251.5 896H408.5L522.5 748ZM330 700Z" glyph-name="Ycircumflex" horiz-adv-x="642" unicode="&#374;" /><glyph d="M415 263V0H229V252L-1 700H200L323 438L451 700H644ZM330 700ZM306.5 876V748H153.5V876Q191.5 876 230 876Q268.5 876 306.5 876ZM506.5 876V748H353.5V876Q391.5 876 430 876Q468.5 876 506.5 876ZM330 700Z" glyph-name="Ydieresis" horiz-adv-x="642" unicode="&#376;" /><glyph d="M415 263V0H229V252L-1 700H200L323 438L451 700H644ZM330 700ZM409 748H252L150 896H357ZM330 700Z" glyph-name="Ygrave" horiz-adv-x="642" unicode="&#7922;" /><glyph d="M52 543V700H591V549L264 157H608V0H34V152L357 543ZM321 700Z" glyph-name="Z" horiz-adv-x="642" unicode="Z" /><glyph d="M52 543V700H591V549L264 157H608V0H34V152L357 543ZM321 700ZM314 896H506L393 748H253ZM321 700Z" glyph-name="Zacute" horiz-adv-x="642" unicode="&#377;" /><glyph d="M52 543V700H591V549L264 157H608V0H34V152L357 543ZM321 700ZM265.5 896 319.5 835H321.5L376.5 896H513.5L399.5 748H242.5L128.5 896ZM321 700Z" glyph-name="Zcaron" horiz-adv-x="642" unicode="&#381;" /><glyph d="M52 543V700H591V549L264 157H608V0H34V152L357 543ZM321 700ZM397.5 888V748H244.5V888Q282.5 888 321 888Q359.5 888 397.5 888ZM321 700Z" glyph-name="Zdotaccent" horiz-adv-x="642" unicode="&#379;" /><glyph d="M202 159Q202 140 215.5 130.5Q229 121 256 121Q294 121 317 141.5Q340 162 340 196V201H246Q224 201 213 190.5Q202 180 202 159ZM516 0H360L352 54Q333 22 295.5 5Q258 -12 206 -12Q117 -12 71 29.5Q25 71 25 152Q25 234 74 275.5Q123 317 218 317H340V349Q340 384 324 400.5Q308 417 274 417Q242 417 224.5 405Q207 393 207 371V363H42V371Q42 455 104 503.5Q166 552 279 552Q398 552 457 500Q516 448 516 342ZM278 540ZM408 0Z" glyph-name="a" horiz-adv-x="563" unicode="a" /><glyph d="M202 159Q202 140 215.5 130.5Q229 121 256 121Q294 121 317 141.5Q340 162 340 196V201H246Q224 201 213 190.5Q202 180 202 159ZM516 0H360L352 54Q333 22 295.5 5Q258 -12 206 -12Q117 -12 71 29.5Q25 71 25 152Q25 234 74 275.5Q123 317 218 317H340V349Q340 384 324 400.5Q308 417 274 417Q242 417 224.5 405Q207 393 207 371V363H42V371Q42 455 104 503.5Q166 552 279 552Q398 552 457 500Q516 448 516 342ZM278 540ZM408 0ZM268 751H460L347 603H207ZM278 540Z" glyph-name="aacute" horiz-adv-x="563" unicode="&#225;" /><glyph d="M202 159Q202 140 215.5 130.5Q229 121 256 121Q294 121 317 141.5Q340 162 340 196V201H246Q224 201 213 190.5Q202 180 202 159ZM516 0H360L352 54Q333 22 295.5 5Q258 -12 206 -12Q117 -12 71 29.5Q25 71 25 152Q25 234 74 275.5Q123 317 218 317H340V349Q340 384 324 400.5Q308 417 274 417Q242 417 224.5 405Q207 393 207 371V363H42V371Q42 455 104 503.5Q166 552 279 552Q398 552 457 500Q516 448 516 342ZM278 540ZM408 0ZM325.5 741V750H433.5V741Q433.5 671 392 631Q350.5 591 277.5 591Q204.5 591 163.5 631Q122.5 671 122.5 741V750H230.5V741Q230.5 719 243.5 706Q256.5 693 277.5 693Q299.5 693 312.5 706Q325.5 719 325.5 741ZM278 540Z" glyph-name="abreve" horiz-adv-x="563" unicode="&#259;" /><glyph d="M202 159Q202 140 215.5 130.5Q229 121 256 121Q294 121 317 141.5Q340 162 340 196V201H246Q224 201 213 190.5Q202 180 202 159ZM516 0H360L352 54Q333 22 295.5 5Q258 -12 206 -12Q117 -12 71 29.5Q25 71 25 152Q25 234 74 275.5Q123 317 218 317H340V349Q340 384 324 400.5Q308 417 274 417Q242 417 224.5 405Q207 393 207 371V363H42V371Q42 455 104 503.5Q166 552 279 552Q398 552 457 500Q516 448 516 342ZM278 540ZM408 0ZM333.5 603 278.5 664H276.5L222.5 603H85.5L199.5 751H356.5L470.5 603ZM278 540Z" glyph-name="acircumflex" horiz-adv-x="563" unicode="&#226;" /><glyph d="M185 751H377L264 603H124ZM195 540Z" glyph-name="acute" horiz-adv-x="500" unicode="&#180;" /><glyph d="M63 896H255L142 748H2ZM70 700Z" glyph-name="acute.case" horiz-adv-x="250" /><glyph d="M202 159Q202 140 215.5 130.5Q229 121 256 121Q294 121 317 141.5Q340 162 340 196V201H246Q224 201 213 190.5Q202 180 202 159ZM516 0H360L352 54Q333 22 295.5 5Q258 -12 206 -12Q117 -12 71 29.5Q25 71 25 152Q25 234 74 275.5Q123 317 218 317H340V349Q340 384 324 400.5Q308 417 274 417Q242 417 224.5 405Q207 393 207 371V363H42V371Q42 455 104 503.5Q166 552 279 552Q398 552 457 500Q516 448 516 342ZM278 540ZM408 0ZM254.5 730V602H101.5V730Q139.5 730 178 730Q216.5 730 254.5 730ZM454.5 730V602H301.5V730Q339.5 730 378 730Q416.5 730 454.5 730ZM278 540Z" glyph-name="adieresis" horiz-adv-x="563" unicode="&#228;" /><glyph d="M594 424Q555 424 535.5 406.5Q516 389 516 355V326H670V355Q670 388 650.5 406Q631 424 594 424ZM834 173V162Q834 76 777 32Q720 -12 608 -12Q526 -12 469 10.5Q412 33 382 78Q365 35 322 11.5Q279 -12 215 -12Q122 -12 74 29.5Q26 71 26 151Q26 237 75 281.5Q124 326 219 326H341V349Q341 384 325 400.5Q309 417 275 417Q243 417 225.5 405Q208 393 208 371V363H43V371Q43 455 103.5 503.5Q164 552 273 552Q323 552 361 539.5Q399 527 424 503Q456 527 500.5 539.5Q545 552 602 552Q717 552 778.5 490Q840 428 840 318V214H516V196Q516 155 535.5 136.5Q555 118 596 118Q634 118 652 129.5Q670 141 670 167V173ZM203 166Q203 143 216.5 132Q230 121 257 121Q296 121 318.5 141.5Q341 162 341 197V214H247Q225 214 214 202Q203 190 203 166ZM434 540Z" glyph-name="ae" horiz-adv-x="873" unicode="&#230;" /><glyph d="M202 159Q202 140 215.5 130.5Q229 121 256 121Q294 121 317 141.5Q340 162 340 196V201H246Q224 201 213 190.5Q202 180 202 159ZM516 0H360L352 54Q333 22 295.5 5Q258 -12 206 -12Q117 -12 71 29.5Q25 71 25 152Q25 234 74 275.5Q123 317 218 317H340V349Q340 384 324 400.5Q308 417 274 417Q242 417 224.5 405Q207 393 207 371V363H42V371Q42 455 104 503.5Q166 552 279 552Q398 552 457 500Q516 448 516 342ZM278 540ZM408 0ZM351 603H210L97 751H290ZM278 540Z" glyph-name="agrave" horiz-adv-x="563" unicode="&#224;" /><glyph d="M202 159Q202 140 215.5 130.5Q229 121 256 121Q294 121 317 141.5Q340 162 340 196V201H246Q224 201 213 190.5Q202 180 202 159ZM516 0H360L352 54Q333 22 295.5 5Q258 -12 206 -12Q117 -12 71 29.5Q25 71 25 152Q25 234 74 275.5Q123 317 218 317H340V349Q340 384 324 400.5Q308 417 274 417Q242 417 224.5 405Q207 393 207 371V363H42V371Q42 455 104 503.5Q166 552 279 552Q398 552 457 500Q516 448 516 342ZM278 540ZM408 0ZM110 603V715H446V603ZM278 540Z" glyph-name="amacron" horiz-adv-x="563" unicode="&#257;" /><glyph d="M315 590Q294 590 281.5 576.5Q269 563 269 542Q269 527 274 514.5Q279 502 310 463Q336 480 348.5 500Q361 520 361 544Q361 564 348.5 577Q336 590 315 590ZM211 217Q211 175 238.5 151.5Q266 128 317 128Q338 128 356 130.5Q374 133 390 139L253 289Q231 273 221 256Q211 239 211 217ZM687 0H517L491 29Q451 8 406 -2Q361 -12 309 -12Q172 -12 100 44Q28 100 28 204Q28 262 59.5 307Q91 352 166 394Q137 431 125 462Q113 493 113 525Q113 606 168.5 659Q224 712 319 712Q404 712 458 665.5Q512 619 512 550Q512 494 484 446.5Q456 399 401 362L499 253Q501 264 502 277Q503 290 503 305V357H655V295Q655 242 644.5 202.5Q634 163 612 128L687 45Z" glyph-name="ampersand" horiz-adv-x="700" unicode="&amp;" /><glyph d="M202 159Q202 140 215.5 130.5Q229 121 256 121Q294 121 317 141.5Q340 162 340 196V201H246Q224 201 213 190.5Q202 180 202 159ZM516 -78V-176Q493 -195 466 -205Q439 -215 411 -215Q355 -215 320 -183Q285 -151 285 -100Q285 -64 303 -35.5Q321 -7 358 16L352 54Q333 22 295.5 5Q258 -12 206 -12Q117 -12 71 29.5Q25 71 25 152Q25 234 74 275.5Q123 317 218 317H340V349Q340 384 324 400.5Q308 417 274 417Q242 417 224.5 405Q207 393 207 371V363H42V371Q42 455 104 503.5Q166 552 279 552Q398 552 457 500Q516 448 516 342V0H438Q430 -8 426 -18.5Q422 -29 422 -39Q422 -62 436 -72Q450 -82 481 -82Q490 -82 498.5 -81Q507 -80 516 -78Z" glyph-name="aogonek" horiz-adv-x="563" unicode="&#261;" /><glyph d="M396 475Q414 475 425 484Q436 493 457 539L563 509Q543 421 506 379Q469 337 411 337Q386 337 362 341.5Q338 346 317 355L283 370Q240 389 230 391.5Q220 394 212 394Q193 394 180.5 384Q168 374 149 331L43 361Q63 449 100.5 491.5Q138 534 196 534Q226 534 255 527Q284 520 313 505L341 491Q357 483 371 479Q385 475 396 475ZM396 243Q414 243 425 252Q436 261 457 307L563 277Q543 189 506 147Q469 105 411 105Q386 105 362 109.5Q338 114 317 123L283 138Q240 157 230 159.5Q220 162 212 162Q193 162 180.5 152Q168 142 149 99L43 129Q63 217 100.5 259.5Q138 302 196 302Q226 302 255 295Q284 288 313 273L341 259Q357 251 371 247Q385 243 396 243Z" glyph-name="approxequal" horiz-adv-x="603" unicode="&#8776;" /><glyph d="M202 159Q202 140 215.5 130.5Q229 121 256 121Q294 121 317 141.5Q340 162 340 196V201H246Q224 201 213 190.5Q202 180 202 159ZM516 0H360L352 54Q333 22 295.5 5Q258 -12 206 -12Q117 -12 71 29.5Q25 71 25 152Q25 234 74 275.5Q123 317 218 317H340V349Q340 384 324 400.5Q308 417 274 417Q242 417 224.5 405Q207 393 207 371V363H42V371Q42 455 104 503.5Q166 552 279 552Q398 552 457 500Q516 448 516 342ZM278 540ZM408 0ZM151 714Q151 768 187 802.5Q223 837 278 837Q333 837 369 802.5Q405 768 405 714Q405 660 369 625.5Q333 591 278 591Q223 591 187 625.5Q151 660 151 714ZM240 714Q240 697 250.5 686.5Q261 676 278 676Q295 676 305.5 686.5Q316 697 316 714Q316 731 305.5 741.5Q295 752 278 752Q261 752 250.5 741.5Q240 731 240 714ZM278 540Z" glyph-name="aring" horiz-adv-x="563" unicode="&#229;" /><glyph d="M338 700 528 273H351L272 503L193 273H16L206 700Z" glyph-name="asciicircum" horiz-adv-x="544" unicode="^" /><glyph d="M392 338Q410 338 421 347Q432 356 453 402L559 372Q539 284 502 242Q465 200 407 200Q382 200 358 204.5Q334 209 313 218L279 233Q236 252 226 254.5Q216 257 208 257Q189 257 176.5 247Q164 237 145 194L39 224Q59 312 96.5 354.5Q134 397 192 397Q222 397 251 390Q280 383 309 368L337 354Q353 346 367 342Q381 338 392 338Z" glyph-name="asciitilde" horiz-adv-x="597" unicode="~" /><glyph d="M327 377 348 285V242H198V285L219 377L150 313L112 291L37 422L74 444L162 471L75 498L37 520L111 649L149 628L219 564L198 656V700H348V656L327 564L397 628L435 649L509 520L471 498L384 471L472 444L509 422L434 291L396 313Z" glyph-name="asterisk" horiz-adv-x="546" unicode="*" /><glyph d="M529 421H643L612 165Q607 126 618 108Q629 90 655 90Q697 90 719 132.5Q741 175 741 251Q741 377 665.5 447Q590 517 450 517Q312 517 238.5 441Q165 365 165 226Q165 92 233.5 19.5Q302 -53 432 -53Q470 -53 502.5 -47.5Q535 -42 565 -31L591 -128Q556 -143 516.5 -150.5Q477 -158 432 -158Q242 -158 138.5 -56.5Q35 45 35 226Q35 413 142.5 517.5Q250 622 450 622Q652 622 761.5 523.5Q871 425 871 251Q871 129 812 59.5Q753 -10 642 -10Q572 -10 532.5 14.5Q493 39 484 87Q467 62 440 48Q413 34 380 34Q322 34 285.5 70.5Q249 107 249 164Q249 171 249.5 176Q250 181 250 184L261 279Q269 351 307 389.5Q345 428 407 428Q444 428 474 412.5Q504 397 518 370ZM425 144Q455 144 470 159.5Q485 175 492 222L495 243Q500 280 487 299Q474 318 442 318Q415 318 402.5 304Q390 290 385 247L381 215Q380 207 379.5 201.5Q379 196 379 193Q379 167 390 155.5Q401 144 425 144Z" glyph-name="at" horiz-adv-x="909" unicode="@" /><glyph d="M202 159Q202 140 215.5 130.5Q229 121 256 121Q294 121 317 141.5Q340 162 340 196V201H246Q224 201 213 190.5Q202 180 202 159ZM516 0H360L352 54Q333 22 295.5 5Q258 -12 206 -12Q117 -12 71 29.5Q25 71 25 152Q25 234 74 275.5Q123 317 218 317H340V349Q340 384 324 400.5Q308 417 274 417Q242 417 224.5 405Q207 393 207 371V363H42V371Q42 455 104 503.5Q166 552 279 552Q398 552 457 500Q516 448 516 342ZM278 540ZM408 0ZM366 597Q341 597 324.5 600.5Q308 604 295 611L253 634Q242 640 233 642.5Q224 645 213 645Q204 645 196.5 642Q189 639 183 632Q177 626 173 619Q169 612 168 603H77Q77 676 110 718.5Q143 761 201 761Q223 761 237 757.5Q251 754 263 747L303 723Q315 716 327.5 712Q340 708 350 708Q358 708 365 712Q372 716 377 724Q382 731 385 738.5Q388 746 389 755H479Q479 674 451 635.5Q423 597 366 597ZM278 540Z" glyph-name="atilde" horiz-adv-x="563" unicode="&#227;" /><glyph d="M371 -12Q321 -12 280 8Q239 28 217 65L208 0H52V730H228V487Q252 518 289.5 535Q327 552 371 552Q458 552 512 493Q566 434 566 338V202Q566 106 512 47Q458 -12 371 -12ZM313 144Q354 144 372 167Q390 190 390 247V294Q390 351 372 374Q354 397 313 397Q268 397 248 371Q228 345 228 284V257Q228 196 248 170Q268 144 313 144Z" glyph-name="b" horiz-adv-x="603" unicode="b" /><glyph d="M580 -126H406L11 758H185Z" glyph-name="backslash" horiz-adv-x="591" unicode="\" /><glyph d="M60 758H246V-126H60Z" glyph-name="bar" horiz-adv-x="306" unicode="|" /><glyph d="M208 318V315Q246 305 265 273.5Q284 242 284 192V93Q283 59 304.5 42.5Q326 26 370 26H413V-131H360Q224 -131 160.5 -81Q97 -31 97 81V192Q97 220 80.5 234.5Q64 249 33 249H21V384H33Q64 384 80.5 398.5Q97 413 97 441V551Q97 663 160.5 713Q224 763 360 763H413V606H370Q326 606 304.5 589.5Q283 573 284 539V441Q284 391 265 359.5Q246 328 208 318Z" glyph-name="braceleft" horiz-adv-x="444" unicode="{" /><glyph d="M236 318V315Q198 305 179 273.5Q160 242 160 192V93Q161 59 139.5 42.5Q118 26 74 26H31V-131H84Q220 -131 283.5 -81Q347 -31 347 81V192Q347 220 363.5 234.5Q380 249 411 249H423V384H411Q380 384 363.5 398.5Q347 413 347 441V551Q347 663 283.5 713Q220 763 84 763H31V606H74Q118 606 139.5 589.5Q161 573 160 539V441Q160 391 179 359.5Q198 328 236 318Z" glyph-name="braceright" horiz-adv-x="444" unicode="}" /><glyph d="M353 -126H60V758H353V608H246V24H353Z" glyph-name="bracketleft" horiz-adv-x="386" unicode="[" /><glyph d="M33 -126H326V758H33V608H140V24H33Z" glyph-name="bracketright" horiz-adv-x="386" unicode="]" /><glyph d="M297 741V750H405V741Q405 671 363.5 631Q322 591 249 591Q176 591 135 631Q94 671 94 741V750H202V741Q202 719 215 706Q228 693 249 693Q271 693 284 706Q297 719 297 741ZM249.5 540Z" glyph-name="breve" horiz-adv-x="500" unicode="&#728;" /><glyph d="M173 888V897H281V888Q281 818 239.5 778Q198 738 125 738Q52 738 11 778Q-30 818 -30 888V897H78V888Q78 866 91 853Q104 840 125 840Q147 840 160 853Q173 866 173 888ZM125.5 700Z" glyph-name="breve.case" horiz-adv-x="250" /><glyph d="M64 -126V205H250V-126ZM250 758V427H64V758Z" glyph-name="brokenbar" horiz-adv-x="314" unicode="&#166;" /><glyph d="M311 457V239H75V457Q134 457 193 457Q252 457 311 457Z" glyph-name="bullet" horiz-adv-x="386" unicode="&#8226;" /><glyph d="M358 202V212H532V202Q532 106 467.5 47Q403 -12 289 -12Q166 -12 101 47Q36 106 36 212V328Q36 434 101 493Q166 552 289 552Q405 552 467.5 495Q530 438 530 338V327H358V340Q358 373 340 391Q322 409 289 409Q251 409 231.5 388.5Q212 368 212 330V212Q212 174 231.5 153.5Q251 133 289 133Q322 133 340 151Q358 169 358 202ZM284 10ZM290 540Z" glyph-name="c" horiz-adv-x="559" unicode="c" /><glyph d="M358 202V212H532V202Q532 106 467.5 47Q403 -12 289 -12Q166 -12 101 47Q36 106 36 212V328Q36 434 101 493Q166 552 289 552Q405 552 467.5 495Q530 438 530 338V327H358V340Q358 373 340 391Q322 409 289 409Q251 409 231.5 388.5Q212 368 212 330V212Q212 174 231.5 153.5Q251 133 289 133Q322 133 340 151Q358 169 358 202ZM284 10ZM290 540ZM280 751H472L359 603H219ZM290 540Z" glyph-name="cacute" horiz-adv-x="559" unicode="&#263;" /><glyph d="M194 751 248 690H250L305 751H442L328 603H171L57 751ZM249.5 540Z" glyph-name="caron" horiz-adv-x="500" unicode="&#711;" /><glyph d="M70 896 124 835H126L181 896H318L204 748H47L-67 896ZM125.5 700Z" glyph-name="caron.case" horiz-adv-x="250" /><glyph d="M35 742H165V698L125 533H35ZM35 700Z" glyph-name="caron.salt" horiz-adv-x="200" /><glyph d="M358 202V212H532V202Q532 106 467.5 47Q403 -12 289 -12Q166 -12 101 47Q36 106 36 212V328Q36 434 101 493Q166 552 289 552Q405 552 467.5 495Q530 438 530 338V327H358V340Q358 373 340 391Q322 409 289 409Q251 409 231.5 388.5Q212 368 212 330V212Q212 174 231.5 153.5Q251 133 289 133Q322 133 340 151Q358 169 358 202ZM284 10ZM290 540ZM234.5 751 288.5 690H290.5L345.5 751H482.5L368.5 603H211.5L97.5 751ZM290 540Z" glyph-name="ccaron" horiz-adv-x="559" unicode="&#269;" /><glyph d="M401 -140Q401 -195 368 -228Q335 -261 275 -261Q218 -261 185 -235Q152 -209 152 -167V-156H245V-157Q245 -163 251 -166Q257 -169 269 -169Q281 -169 286.5 -163Q292 -157 292 -144Q292 -134 285.5 -127.5Q279 -121 268 -121Q262 -121 257.5 -122Q253 -123 245 -127L171 -86L215 -6Q128 10 82 67Q36 124 36 212V328Q36 434 101 493Q166 552 289 552Q405 552 467.5 495Q530 438 530 338V327H358V340Q358 373 340 391Q322 409 289 409Q251 409 231.5 388.5Q212 368 212 330V212Q212 174 231.5 153.5Q251 133 289 133Q322 133 340 151Q358 169 358 202V212H532V202Q532 108 469.5 49Q407 -10 297 -12L284 -34H285Q340 -34 370.5 -63.5Q401 -93 401 -140Z" glyph-name="ccedilla" horiz-adv-x="559" unicode="&#231;" /><glyph d="M358 202V212H532V202Q532 106 467.5 47Q403 -12 289 -12Q166 -12 101 47Q36 106 36 212V328Q36 434 101 493Q166 552 289 552Q405 552 467.5 495Q530 438 530 338V327H358V340Q358 373 340 391Q322 409 289 409Q251 409 231.5 388.5Q212 368 212 330V212Q212 174 231.5 153.5Q251 133 289 133Q322 133 340 151Q358 169 358 202ZM284 10ZM290 540ZM345.5 603 290.5 664H288.5L234.5 603H97.5L211.5 751H368.5L482.5 603ZM290 540Z" glyph-name="ccircumflex" horiz-adv-x="559" unicode="&#265;" /><glyph d="M358 202V212H532V202Q532 106 467.5 47Q403 -12 289 -12Q166 -12 101 47Q36 106 36 212V328Q36 434 101 493Q166 552 289 552Q405 552 467.5 495Q530 438 530 338V327H358V340Q358 373 340 391Q322 409 289 409Q251 409 231.5 388.5Q212 368 212 330V212Q212 174 231.5 153.5Q251 133 289 133Q322 133 340 151Q358 169 358 202ZM284 10ZM290 540ZM366.5 743V603H213.5V743Q251.5 743 290 743Q328.5 743 366.5 743ZM290 540Z" glyph-name="cdotaccent" horiz-adv-x="559" unicode="&#267;" /><glyph d="M244 -121Q238 -121 233.5 -122Q229 -123 221 -127L147 -86L209 27H297L260 -34H261Q316 -34 346.5 -63.5Q377 -93 377 -140Q377 -195 344 -228Q311 -261 251 -261Q194 -261 161 -234.5Q128 -208 128 -167V-156H221V-157Q221 -163 227 -166Q233 -169 245 -169Q257 -169 262.5 -163Q268 -157 268 -144Q268 -134 261.5 -127.5Q255 -121 244 -121ZM260.5 10Z" glyph-name="cedilla" horiz-adv-x="500" unicode="&#184;" /><glyph d="M536 293V283Q536 208 494.5 154Q453 100 377 81V-12H211V79Q127 97 83.5 152.5Q40 208 40 293V409Q40 494 83.5 549.5Q127 605 211 623V712H377V622Q453 604 493.5 551Q534 498 534 419V408H362V421Q362 453 344 470.5Q326 488 293 488Q255 488 235.5 468Q216 448 216 411V293Q216 256 235.5 236Q255 216 293 216Q326 216 344 233.5Q362 251 362 283V293Z" glyph-name="cent" horiz-adv-x="565" unicode="&#162;" /><glyph d="M305 603 250 664H248L194 603H57L171 751H328L442 603ZM249.5 540Z" glyph-name="circumflex" horiz-adv-x="500" unicode="&#710;" /><glyph d="M181 748 126 809H124L70 748H-67L47 896H204L318 748ZM125.5 700Z" glyph-name="circumflex.case" horiz-adv-x="250" /><glyph d="M234 166V0H53V166Q98 166 143.5 166Q189 166 234 166ZM53 73ZM234 539V373H53V539Q98 539 143.5 539Q189 539 234 539ZM53 446Z" glyph-name="colon" horiz-adv-x="287" unicode=":" /><glyph d="M58 166H239V122L155 -159H28Z" glyph-name="comma" horiz-adv-x="282" unicode="," /><glyph d="M38 95H149V71L102 -87H21Z" glyph-name="comma.denominator" horiz-adv-x="178" unicode="&#63071;" /><glyph d="M37 445H148V421L101 263H20Z" glyph-name="comma.numerator" horiz-adv-x="177" unicode="&#63083;" /><glyph d="M20 -50H196V-94L137 -259H1ZM108 -260ZM108 10Z" glyph-name="commaaccent" horiz-adv-x="216" unicode="&#63171;" /><glyph d="M195 595H19V639L78 804H214ZM107 540Z" glyph-name="commaaccent.salt" horiz-adv-x="216" /><glyph d="M394 -10Q245 -10 139.5 95.5Q34 201 34 350Q34 499 139.5 604.5Q245 710 394 710Q543 710 648.5 604.5Q754 499 754 350Q754 201 648.5 95.5Q543 -10 394 -10ZM394 636Q276 636 192.5 552Q109 468 109 350Q109 232 192.5 148Q276 64 394 64Q512 64 595.5 148Q679 232 679 350Q679 468 595.5 552Q512 636 394 636ZM447 290V305H587V290Q587 223 535 177.5Q483 132 398 132Q305 132 253 177.5Q201 223 201 298V402Q201 477 253 522Q305 567 398 567Q486 567 535.5 523.5Q585 480 585 410V395H447V411Q447 430 434.5 441Q422 452 398 452Q371 452 357 440Q343 428 343 404V298Q343 274 357 262Q371 250 398 250Q422 250 434.5 260.5Q447 271 447 290Z" glyph-name="copyright" horiz-adv-x="788" unicode="&#169;" /><glyph d="M598 154 500 60 430 134Q405 123 377 117Q349 111 317 111Q284 111 256 117Q228 123 204 135L134 60L36 154L117 239Q111 258 108 278Q105 298 105 318V362Q105 384 108.5 404.5Q112 425 118 443L36 530L137 620L207 546Q229 557 256.5 563Q284 569 317 569Q349 569 376.5 563.5Q404 558 428 547L497 620L598 530L518 445Q524 426 527.5 405.5Q531 385 531 362V318Q531 297 528 277Q525 257 519 238ZM317 441Q281 441 261.5 424.5Q242 408 242 379V301Q242 272 261.5 255.5Q281 239 317 239Q353 239 372.5 255.5Q392 272 392 301V379Q392 408 372.5 424.5Q353 441 317 441Z" glyph-name="currency" horiz-adv-x="634" unicode="&#164;" /><glyph d="M291 144Q336 144 356 170Q376 196 376 257V284Q376 345 356 371Q336 397 291 397Q250 397 232 374Q214 351 214 294V247Q214 190 232 167Q250 144 291 144ZM552 0H396L386 69Q364 31 323 9.5Q282 -12 233 -12Q143 -12 90.5 45Q38 102 38 202V338Q38 438 90.5 495Q143 552 233 552Q277 552 315 536Q353 520 376 490V730H552ZM614 700Z" glyph-name="d" horiz-adv-x="604" unicode="d" /><glyph d="M313 431 350 163V0H185V163L225 432L85 410H41V535H85L222 512L188 656V700H349V656L316 513L442 535H485V410H442Z" glyph-name="dagger" horiz-adv-x="526" unicode="&#8224;" /><glyph d="M217 268 188 350 217 430 85 410H41V535H85L222 512L188 656V700H349V656L317 513L442 535H485V410H442L322 429L349 350L321 270L442 291H485V166H442L317 186L349 44V0H188V44L221 187L85 166H41V291H85Z" glyph-name="daggerdbl" horiz-adv-x="526" unicode="&#8225;" /><glyph d="M291 144Q336 144 356 170Q376 196 376 257V284Q376 345 356 371Q336 397 291 397Q250 397 232 374Q214 351 214 294V247Q214 190 232 167Q250 144 291 144ZM552 0H396L386 69Q364 31 323 9.5Q282 -12 233 -12Q143 -12 90.5 45Q38 102 38 202V338Q38 438 90.5 495Q143 552 233 552Q277 552 315 536Q353 520 376 490V730H552ZM614 700ZM614 730H744V686L704 521H614ZM614 688Z" glyph-name="dcaron" horiz-adv-x="687" unicode="&#271;" /><glyph d="M291 144Q336 144 356 170Q376 196 376 257V284Q376 345 356 371Q336 397 291 397Q250 397 232 374Q214 351 214 294V247Q214 190 232 167Q250 144 291 144ZM396 0 386 69Q364 31 323 9.5Q282 -12 233 -12Q143 -12 90.5 45Q38 102 38 202V338Q38 438 90.5 495Q143 552 233 552Q277 552 315 536Q353 520 376 490V581H273V666H376V730H552V666H612V581H552V0Z" glyph-name="dcroat" horiz-adv-x="604" unicode="&#273;" /><glyph d="M190 712Q258 712 305 665Q352 618 352 550Q352 483 304.5 435Q257 387 190 387Q124 387 76.5 435Q29 483 29 550Q29 618 76 665Q123 712 190 712ZM190 482Q218 482 237.5 502Q257 522 257 550Q257 578 237.5 597.5Q218 617 190 617Q163 617 143 597Q123 577 123 550Q123 522 143 502Q163 482 190 482Z" glyph-name="degree" horiz-adv-x="380" unicode="&#176;" /><glyph d="M226 730V602H73V730Q111 730 149.5 730Q188 730 226 730ZM426 730V602H273V730Q311 730 349.5 730Q388 730 426 730ZM249.5 540Z" glyph-name="dieresis" horiz-adv-x="500" unicode="&#168;" /><glyph d="M102 876V748H-51V876Q-13 876 25.5 876Q64 876 102 876ZM302 876V748H149V876Q187 876 225.5 876Q264 876 302 876ZM125.5 700Z" glyph-name="dieresis.case" horiz-adv-x="250" /><glyph d="M503 429V272H36Q36 311 36 350.5Q36 390 36 429ZM360 197V59H179V197Q224 197 269.5 197Q315 197 360 197ZM360 641V503H179V641Q224 641 269.5 641Q315 641 360 641Z" glyph-name="divide" horiz-adv-x="539" unicode="&#247;" /><glyph d="M384 -6V-98H218V-6Q122 9 73.5 61Q25 113 25 201V217H210V205Q210 169 233.5 150Q257 131 302 131Q348 131 371.5 148.5Q395 166 395 198Q395 222 379 235.5Q363 249 325 258L208 286Q124 306 80.5 358Q37 410 37 490Q37 565 85.5 623Q134 681 218 702V798H384V705Q474 688 527 632.5Q580 577 580 503V485H395V499Q395 532 371 550.5Q347 569 302 569Q262 569 241 552.5Q220 536 220 508Q220 486 231.5 472.5Q243 459 268 453L395 422Q487 400 536 348.5Q585 297 585 221Q585 124 534.5 67Q484 10 384 -6Z" glyph-name="dollar" horiz-adv-x="613" unicode="$" /><glyph d="M326 743V603H173V743Q211 743 249.5 743Q288 743 326 743ZM249.5 540Z" glyph-name="dotaccent" horiz-adv-x="500" unicode="&#729;" /><glyph d="M202 888V748H49V888Q87 888 125.5 888Q164 888 202 888ZM125.5 700Z" glyph-name="dotaccent.case" horiz-adv-x="250" /><glyph d="M228 540V0H52V540ZM140 540Z" glyph-name="dotlessi" horiz-adv-x="280" unicode="&#305;" /><glyph d="M288 424Q249 424 229.5 406.5Q210 389 210 355V339H364V355Q364 388 344.5 406Q325 424 288 424ZM528 173V162Q528 77 468 32.5Q408 -12 291 -12Q164 -12 100 45Q36 102 36 215V328Q36 434 101 493Q166 552 289 552Q408 552 471 493Q534 434 534 329V223H210V196Q210 155 229.5 136.5Q249 118 290 118Q328 118 346 129.5Q364 141 364 167V173ZM285 540ZM398 0Z" glyph-name="e" horiz-adv-x="566" unicode="e" /><glyph d="M288 424Q249 424 229.5 406.5Q210 389 210 355V339H364V355Q364 388 344.5 406Q325 424 288 424ZM528 173V162Q528 77 468 32.5Q408 -12 291 -12Q164 -12 100 45Q36 102 36 215V328Q36 434 101 493Q166 552 289 552Q408 552 471 493Q534 434 534 329V223H210V196Q210 155 229.5 136.5Q249 118 290 118Q328 118 346 129.5Q364 141 364 167V173ZM285 540ZM398 0ZM275 751H467L354 603H214ZM285 540Z" glyph-name="eacute" horiz-adv-x="566" unicode="&#233;" /><glyph d="M288 424Q249 424 229.5 406.5Q210 389 210 355V339H364V355Q364 388 344.5 406Q325 424 288 424ZM528 173V162Q528 77 468 32.5Q408 -12 291 -12Q164 -12 100 45Q36 102 36 215V328Q36 434 101 493Q166 552 289 552Q408 552 471 493Q534 434 534 329V223H210V196Q210 155 229.5 136.5Q249 118 290 118Q328 118 346 129.5Q364 141 364 167V173ZM285 540ZM398 0ZM332.5 741V750H440.5V741Q440.5 671 399 631Q357.5 591 284.5 591Q211.5 591 170.5 631Q129.5 671 129.5 741V750H237.5V741Q237.5 719 250.5 706Q263.5 693 284.5 693Q306.5 693 319.5 706Q332.5 719 332.5 741ZM285 540Z" glyph-name="ebreve" horiz-adv-x="566" unicode="&#277;" /><glyph d="M288 424Q249 424 229.5 406.5Q210 389 210 355V339H364V355Q364 388 344.5 406Q325 424 288 424ZM528 173V162Q528 77 468 32.5Q408 -12 291 -12Q164 -12 100 45Q36 102 36 215V328Q36 434 101 493Q166 552 289 552Q408 552 471 493Q534 434 534 329V223H210V196Q210 155 229.5 136.5Q249 118 290 118Q328 118 346 129.5Q364 141 364 167V173ZM285 540ZM398 0ZM229.5 751 283.5 690H285.5L340.5 751H477.5L363.5 603H206.5L92.5 751ZM285 540Z" glyph-name="ecaron" horiz-adv-x="566" unicode="&#283;" /><glyph d="M288 424Q249 424 229.5 406.5Q210 389 210 355V339H364V355Q364 388 344.5 406Q325 424 288 424ZM528 173V162Q528 77 468 32.5Q408 -12 291 -12Q164 -12 100 45Q36 102 36 215V328Q36 434 101 493Q166 552 289 552Q408 552 471 493Q534 434 534 329V223H210V196Q210 155 229.5 136.5Q249 118 290 118Q328 118 346 129.5Q364 141 364 167V173ZM285 540ZM398 0ZM340.5 603 285.5 664H283.5L229.5 603H92.5L206.5 751H363.5L477.5 603ZM285 540Z" glyph-name="ecircumflex" horiz-adv-x="566" unicode="&#234;" /><glyph d="M288 424Q249 424 229.5 406.5Q210 389 210 355V339H364V355Q364 388 344.5 406Q325 424 288 424ZM528 173V162Q528 77 468 32.5Q408 -12 291 -12Q164 -12 100 45Q36 102 36 215V328Q36 434 101 493Q166 552 289 552Q408 552 471 493Q534 434 534 329V223H210V196Q210 155 229.5 136.5Q249 118 290 118Q328 118 346 129.5Q364 141 364 167V173ZM285 540ZM398 0ZM261.5 730V602H108.5V730Q146.5 730 185 730Q223.5 730 261.5 730ZM461.5 730V602H308.5V730Q346.5 730 385 730Q423.5 730 461.5 730ZM285 540Z" glyph-name="edieresis" horiz-adv-x="566" unicode="&#235;" /><glyph d="M288 424Q249 424 229.5 406.5Q210 389 210 355V339H364V355Q364 388 344.5 406Q325 424 288 424ZM528 173V162Q528 77 468 32.5Q408 -12 291 -12Q164 -12 100 45Q36 102 36 215V328Q36 434 101 493Q166 552 289 552Q408 552 471 493Q534 434 534 329V223H210V196Q210 155 229.5 136.5Q249 118 290 118Q328 118 346 129.5Q364 141 364 167V173ZM285 540ZM398 0ZM361.5 743V603H208.5V743Q246.5 743 285 743Q323.5 743 361.5 743ZM285 540Z" glyph-name="edotaccent" horiz-adv-x="566" unicode="&#279;" /><glyph d="M288 424Q249 424 229.5 406.5Q210 389 210 355V339H364V355Q364 388 344.5 406Q325 424 288 424ZM528 173V162Q528 77 468 32.5Q408 -12 291 -12Q164 -12 100 45Q36 102 36 215V328Q36 434 101 493Q166 552 289 552Q408 552 471 493Q534 434 534 329V223H210V196Q210 155 229.5 136.5Q249 118 290 118Q328 118 346 129.5Q364 141 364 167V173ZM285 540ZM398 0ZM358 603H217L104 751H297ZM285 540Z" glyph-name="egrave" horiz-adv-x="566" unicode="&#232;" /><glyph d="M595 207Q595 105 523 46.5Q451 -12 316 -12Q181 -12 109 46.5Q37 105 37 207Q37 259 58 299.5Q79 340 119 366Q88 391 72.5 426Q57 461 57 505Q57 601 124 656.5Q191 712 316 712Q441 712 508 656.5Q575 601 575 505Q575 461 559 425.5Q543 390 513 366Q553 340 574 299.5Q595 259 595 207ZM234 498Q234 465 254.5 447.5Q275 430 315 430H317Q357 430 377.5 447.5Q398 465 398 498Q398 535 377.5 554Q357 573 316 573Q275 573 254.5 554Q234 535 234 498ZM409 208Q409 245 385.5 265Q362 285 317 285H315Q270 285 246.5 265Q223 245 223 208Q223 170 246.5 150Q270 130 316 130Q362 130 385.5 150Q409 170 409 208Z" glyph-name="eight" horiz-adv-x="632" unicode="8" /><glyph d="M315 104Q315 54 276.5 24Q238 -6 168 -6Q99 -6 60.5 24Q22 54 22 104Q22 130 33 149Q44 168 66 180Q49 192 40.5 209Q32 226 32 249Q32 298 67.5 327Q103 356 168 356Q233 356 269 327Q305 298 305 249Q305 226 296.5 209Q288 192 271 180Q293 168 304 149Q315 130 315 104ZM168 219H169Q184 219 192 226.5Q200 234 200 246Q200 259 191.5 266.5Q183 274 168 274Q153 274 145 266.5Q137 259 137 246Q137 234 145 226.5Q153 219 168 219ZM203 106Q203 120 194 128Q185 136 169 136H168Q152 136 143 128Q134 120 134 106Q134 91 142.5 83Q151 75 168 75Q185 75 194 83Q203 91 203 106Z" glyph-name="eight.denominator" horiz-adv-x="337" unicode="&#63069;" /><glyph d="M315 -36Q315 -86 276.5 -116Q238 -146 168 -146Q99 -146 60.5 -116Q22 -86 22 -36Q22 -10 33 9Q44 28 66 40Q49 52 40.5 69Q32 86 32 109Q32 158 67.5 187Q103 216 168 216Q233 216 269 187Q305 158 305 109Q305 86 296.5 69Q288 52 271 40Q293 28 304 9Q315 -10 315 -36ZM168 79H169Q184 79 192 86.5Q200 94 200 106Q200 119 191.5 126.5Q183 134 168 134Q153 134 145 126.5Q137 119 137 106Q137 94 145 86.5Q153 79 168 79ZM203 -34Q203 -20 194 -12Q185 -4 169 -4H168Q152 -4 143 -12Q134 -20 134 -34Q134 -49 142.5 -57Q151 -65 168 -65Q185 -65 194 -57Q203 -49 203 -34Z" glyph-name="eight.inferior" horiz-adv-x="337" unicode="&#8328;" /><glyph d="M315 454Q315 404 276.5 374Q238 344 168 344Q99 344 60.5 374Q22 404 22 454Q22 480 33 499Q44 518 66 530Q49 542 40.5 559Q32 576 32 599Q32 648 67.5 677Q103 706 168 706Q233 706 269 677Q305 648 305 599Q305 576 296.5 559Q288 542 271 530Q293 518 304 499Q315 480 315 454ZM168 569H169Q184 569 192 576.5Q200 584 200 596Q200 609 191.5 616.5Q183 624 168 624Q153 624 145 616.5Q137 609 137 596Q137 584 145 576.5Q153 569 168 569ZM203 456Q203 470 194 478Q185 486 169 486H168Q152 486 143 478Q134 470 134 456Q134 441 142.5 433Q151 425 168 425Q185 425 194 433Q203 441 203 456Z" glyph-name="eight.numerator" horiz-adv-x="337" unicode="&#63081;" /><glyph d="M315 594Q315 544 276.5 514Q238 484 168 484Q99 484 60.5 514Q22 544 22 594Q22 620 33 639Q44 658 66 670Q49 682 40.5 699Q32 716 32 739Q32 788 67.5 817Q103 846 168 846Q233 846 269 817Q305 788 305 739Q305 716 296.5 699Q288 682 271 670Q293 658 304 639Q315 620 315 594ZM168 709H169Q184 709 192 716.5Q200 724 200 736Q200 749 191.5 756.5Q183 764 168 764Q153 764 145 756.5Q137 749 137 736Q137 724 145 716.5Q153 709 168 709ZM203 596Q203 610 194 618Q185 626 169 626H168Q152 626 143 618Q134 610 134 596Q134 581 142.5 573Q151 565 168 565Q185 565 194 573Q203 581 203 596Z" glyph-name="eight.superior" horiz-adv-x="337" unicode="&#8312;" /><glyph d="M596 207Q596 105 524 46.5Q452 -12 317 -12Q182 -12 110 46.5Q38 105 38 207Q38 259 59 299.5Q80 340 120 366Q89 391 73.5 426Q58 461 58 505Q58 601 125 656.5Q192 712 317 712Q442 712 509 656.5Q576 601 576 505Q576 461 560 425.5Q544 390 514 366Q554 340 575 299.5Q596 259 596 207ZM235 498Q235 465 255.5 447.5Q276 430 316 430H318Q358 430 378.5 447.5Q399 465 399 498Q399 535 378.5 554Q358 573 317 573Q276 573 255.5 554Q235 535 235 498ZM410 208Q410 245 386.5 265Q363 285 318 285H316Q271 285 247.5 265Q224 245 224 208Q224 170 247.5 150Q271 130 317 130Q363 130 386.5 150Q410 170 410 208Z" glyph-name="eight.tab" horiz-adv-x="635" unicode="&#65304;" /><glyph d="M232 166V0H51V166Q96 166 141.5 166Q187 166 232 166ZM51 73ZM533 166V0H352V166Q397 166 442.5 166Q488 166 533 166ZM352 73ZM834 166V0H653V166Q698 166 743.5 166Q789 166 834 166ZM653 73Z" glyph-name="ellipsis" horiz-adv-x="885" unicode="&#8230;" /><glyph d="M288 424Q249 424 229.5 406.5Q210 389 210 355V339H364V355Q364 388 344.5 406Q325 424 288 424ZM528 173V162Q528 77 468 32.5Q408 -12 291 -12Q164 -12 100 45Q36 102 36 215V328Q36 434 101 493Q166 552 289 552Q408 552 471 493Q534 434 534 329V223H210V196Q210 155 229.5 136.5Q249 118 290 118Q328 118 346 129.5Q364 141 364 167V173ZM285 540ZM398 0ZM117 603V715H453V603ZM285 540Z" glyph-name="emacron" horiz-adv-x="566" unicode="&#275;" /><glyph d="M53 404H862V242H53Q53 283 53 323.5Q53 364 53 404Z" glyph-name="emdash" horiz-adv-x="915" unicode="&#8212;" /><glyph d="M53 404H562V242H53Q53 283 53 323.5Q53 364 53 404Z" glyph-name="endash" horiz-adv-x="615" unicode="&#8211;" /><glyph d="M395 -215Q339 -215 304 -183Q269 -151 269 -100Q269 -74 278 -52.5Q287 -31 306 -12Q302 -12 298.5 -12Q295 -12 291 -12Q164 -12 100 45Q36 102 36 215V328Q36 434 101 493Q166 552 289 552Q408 552 471 493Q534 434 534 329V223H210V196Q210 155 229.5 136.5Q249 118 290 118Q328 118 346 129.5Q364 141 364 167V173H528V162Q528 116 511 81.5Q494 47 461 27Q431 9 418.5 -7Q406 -23 406 -42Q406 -62 420.5 -72Q435 -82 465 -82Q474 -82 482.5 -81Q491 -80 500 -78V-176Q477 -195 450 -205Q423 -215 395 -215ZM288 424Q249 424 229.5 406.5Q210 389 210 355V339H364V355Q364 388 344.5 406Q325 424 288 424Z" glyph-name="eogonek" horiz-adv-x="566" unicode="&#281;" /><glyph d="M55 544H522V390H55Q55 429 55 467.5Q55 506 55 544ZM55 309H522V155H55Q55 194 55 232.5Q55 271 55 309Z" glyph-name="equal" horiz-adv-x="577" unicode="=" /><glyph d="M394 622Q339 622 290 600Q241 578 205 537V414H587V529Q552 574 502.5 598Q453 622 394 622ZM605 196 686 138Q636 68 558.5 28Q481 -12 394 -12Q245 -12 139.5 94Q34 200 34 350Q34 500 139.5 606Q245 712 394 712Q552 712 653 602Q754 492 754 314H205V164Q242 124 291 102.5Q340 81 394 81Q459 81 514 111Q569 141 605 196Z" glyph-name="estimated" horiz-adv-x="771" unicode="&#8494;" /><glyph d="M295 133Q336 133 357 152.5Q378 172 378 210V330Q378 368 357 387.5Q336 407 295 407Q254 407 233 387.5Q212 368 212 330V210Q212 172 233 152.5Q254 133 295 133ZM554 343V212Q554 106 487.5 48Q421 -10 295 -10Q169 -10 102.5 48Q36 106 36 212V328Q36 428 97 484Q158 540 273 540Q291 540 307.5 538Q324 536 339 531Q339 532 338 533.5Q337 535 335 538Q328 553 320.5 566.5Q313 580 304 593L228 571L203 650L253 665Q237 684 222 700Q207 716 193 730H371Q377 724 383 718Q389 712 395 706L463 726L489 647L453 636Q466 617 478.5 595.5Q491 574 502 550Q529 489 541.5 439Q554 389 554 343Z" glyph-name="eth" horiz-adv-x="594" unicode="&#240;" /><glyph d="M54 700H250V610Q250 561 244.5 465Q239 369 228 225H76Q65 369 59.5 465Q54 561 54 610ZM242 166V0H61V166Q106 166 151.5 166Q197 166 242 166Z" glyph-name="exclam" horiz-adv-x="303" unicode="!" /><glyph d="M50 -160H246V-70Q246 -21 240.5 75Q235 171 224 315H72Q61 171 55.5 75Q50 -21 50 -70ZM238 374V540H57V374Q102 374 147.5 374Q193 374 238 374Z" glyph-name="exclamdown" horiz-adv-x="295" unicode="&#161;" /><glyph d="M382 538V404H266V0H90V404H27V538H90V540Q90 637 153 683.5Q216 730 345 730H388V600H335Q300 600 283 587.5Q266 575 266 548V538Z" glyph-name="f" horiz-adv-x="393" unicode="f" /><glyph d="M382 538V404H266V0H90V404H27V538H90V540Q90 637 153 683.5Q216 730 345 730H388V600H335Q300 600 283 587.5Q266 575 266 548V538ZM775 538V404H659V0H483V404H420V538H483V540Q483 637 546 683.5Q609 730 738 730H781V600H728Q693 600 676 587.5Q659 575 659 548V538Z" glyph-name="f_f" horiz-adv-x="786" unicode="&#64256;" /><glyph d="M775 538V404H659V0H483V404H420V538H483V540Q483 637 546 683.5Q609 730 738 730H781V600H728Q693 600 676 587.5Q659 575 659 548V538ZM382 538V404H266V0H90V404H27V538H90V540Q90 637 153 683.5Q216 730 345 730H388V600H335Q300 600 283 587.5Q266 575 266 548V538ZM1014 730V602H838V730ZM1014 540V0H838V540ZM905 0Z" glyph-name="f_f_i" horiz-adv-x="1066" unicode="&#64259;" /><glyph d="M775 538V404H659V0H483V404H420V538H483V540Q483 637 546 683.5Q609 730 738 730H781V600H728Q693 600 676 587.5Q659 575 659 548V538ZM382 538V404H266V0H90V404H27V538H90V540Q90 637 153 683.5Q216 730 345 730H388V600H335Q300 600 283 587.5Q266 575 266 548V538ZM1014 730V0H838V730ZM926 0ZM926 730ZM1076 700ZM1076 350Z" glyph-name="f_f_l" horiz-adv-x="1066" unicode="&#64260;" /><glyph d="M382 538V404H266V0H90V404H27V538H90V540Q90 637 153 683.5Q216 730 345 730H388V600H335Q300 600 283 587.5Q266 575 266 548V538ZM621 730V602H445V730ZM621 540V0H445V540ZM512 0Z" glyph-name="fi" horiz-adv-x="673" unicode="&#64257;" /><glyph d="M301 296H62V700H536V540H248V450H325Q453 450 520 389.5Q587 329 587 219Q587 113 515 50.5Q443 -12 312 -12Q182 -12 110 44.5Q38 101 38 194V216H220V204Q220 173 242 157.5Q264 142 308 142Q354 142 377.5 162Q401 182 401 220Q401 258 376 277Q351 296 301 296Z" glyph-name="five" horiz-adv-x="614" unicode="5" /><glyph d="M161 139H35V350H286V256H150V227H176Q243 227 277.5 197Q312 167 312 110Q312 58 274 26Q236 -6 167 -6Q100 -6 61.5 23Q23 52 23 99V111H135V106Q135 95 142.5 90Q150 85 165 85Q181 85 189 91.5Q197 98 197 111Q197 125 188 132Q179 139 161 139Z" glyph-name="five.denominator" horiz-adv-x="330" unicode="&#63066;" /><glyph d="M161 -1H35V210H286V116H150V87H176Q243 87 277.5 57Q312 27 312 -30Q312 -82 274 -114Q236 -146 167 -146Q100 -146 61.5 -117Q23 -88 23 -41V-29H135V-34Q135 -45 142.5 -50Q150 -55 165 -55Q181 -55 189 -48.5Q197 -42 197 -29Q197 -15 188 -8Q179 -1 161 -1Z" glyph-name="five.inferior" horiz-adv-x="330" unicode="&#8325;" /><glyph d="M161 489H35V700H286V606H150V577H176Q243 577 277.5 547Q312 517 312 460Q312 408 274 376Q236 344 167 344Q100 344 61.5 373Q23 402 23 449V461H135V456Q135 445 142.5 440Q150 435 165 435Q181 435 189 441.5Q197 448 197 461Q197 475 188 482Q179 489 161 489Z" glyph-name="five.numerator" horiz-adv-x="330" unicode="&#63078;" /><glyph d="M161 629H35V840H286V746H150V717H176Q243 717 277.5 687Q312 657 312 600Q312 548 274 516Q236 484 167 484Q100 484 61.5 513Q23 542 23 589V601H135V596Q135 585 142.5 580Q150 575 165 575Q181 575 189 581.5Q197 588 197 601Q197 615 188 622Q179 629 161 629Z" glyph-name="five.superior" horiz-adv-x="330" unicode="&#8309;" /><glyph d="M311 296H72V700H546V540H258V450H335Q463 450 530 389.5Q597 329 597 219Q597 113 525 50.5Q453 -12 322 -12Q192 -12 120 44.5Q48 101 48 194V216H230V204Q230 173 252 157.5Q274 142 318 142Q364 142 387.5 162Q411 182 411 220Q411 258 386 277Q361 296 311 296Z" glyph-name="five.tab" horiz-adv-x="635" unicode="&#65301;" /><glyph d="M382 538V404H266V0H90V404H27V538H90V540Q90 637 153 683.5Q216 730 345 730H388V600H335Q300 600 283 587.5Q266 575 266 548V538ZM621 730V0H445V730ZM533 0ZM533 730ZM683 700ZM683 350Z" glyph-name="fl" horiz-adv-x="673" unicode="&#64258;" /><glyph d="M332 287 303 34Q291 -70 230 -113Q169 -156 46 -156H-7V-16H52Q88 -16 106 -4Q124 8 127 34L156 287H77V425H172L182 510Q194 614 255 657Q316 700 439 700H492V560H433Q397 560 379 548Q361 536 358 510L348 425H427V287Z" glyph-name="florin" horiz-adv-x="498" unicode="&#402;" /><glyph d="M141 700H327L221 326H393V700H579V0H393V166H30V324Z" glyph-name="four" horiz-adv-x="643" unicode="4" /><glyph d="M66 350H178L135 171H193V350H309V0H193V76H20V170Z" glyph-name="four.denominator" horiz-adv-x="346" unicode="&#63065;" /><glyph d="M66 210H178L135 31H193V210H309V-140H193V-64H20V30Z" glyph-name="four.inferior" horiz-adv-x="346" unicode="&#8324;" /><glyph d="M66 700H178L135 521H193V700H309V350H193V426H20V520Z" glyph-name="four.numerator" horiz-adv-x="346" unicode="&#63077;" /><glyph d="M66 840H178L135 661H193V840H309V490H193V566H20V660Z" glyph-name="four.superior" horiz-adv-x="346" unicode="&#8308;" /><glyph d="M138 700H324L218 326H390V700H576V0H390V166H27V324Z" glyph-name="four.tab" horiz-adv-x="635" unicode="&#65300;" /><glyph d="M256 700H373L-79 0H-196Z" glyph-name="fraction" horiz-adv-x="180" unicode="&#8260;" /><glyph d="M528 420V260H250V0H64V700H558V540H250V420ZM818 261V0H642V540H798L809 462Q834 505 881.5 526.5Q929 548 998 548V383H965Q888 383 853 354Q818 325 818 261ZM820 540ZM729 0Z" glyph-name="franc" horiz-adv-x="1010" unicode="&#8355;" /><glyph d="M289 192Q332 192 353 215.5Q374 239 374 287V307Q374 355 353 378.5Q332 402 289 402Q249 402 230.5 379.5Q212 357 212 307V287Q212 237 230.5 214.5Q249 192 289 192ZM297 -190Q178 -190 115 -142.5Q52 -95 52 -9V-6H217V-9Q217 -32 236.5 -43.5Q256 -55 295 -55Q335 -55 354.5 -38.5Q374 -22 374 13V106Q350 75 312.5 58Q275 41 231 41Q141 41 88.5 98Q36 155 36 255V338Q36 438 88.5 495Q141 552 231 552Q281 552 322 532Q363 512 385 475L394 540H550V30Q550 -78 485.5 -134Q421 -190 297 -190ZM309 540Z" glyph-name="g" horiz-adv-x="602" unicode="g" /><glyph d="M289 192Q332 192 353 215.5Q374 239 374 287V307Q374 355 353 378.5Q332 402 289 402Q249 402 230.5 379.5Q212 357 212 307V287Q212 237 230.5 214.5Q249 192 289 192ZM297 -190Q178 -190 115 -142.5Q52 -95 52 -9V-6H217V-9Q217 -32 236.5 -43.5Q256 -55 295 -55Q335 -55 354.5 -38.5Q374 -22 374 13V106Q350 75 312.5 58Q275 41 231 41Q141 41 88.5 98Q36 155 36 255V338Q36 438 88.5 495Q141 552 231 552Q281 552 322 532Q363 512 385 475L394 540H550V30Q550 -78 485.5 -134Q421 -190 297 -190ZM309 540ZM356.5 741V750H464.5V741Q464.5 671 423 631Q381.5 591 308.5 591Q235.5 591 194.5 631Q153.5 671 153.5 741V750H261.5V741Q261.5 719 274.5 706Q287.5 693 308.5 693Q330.5 693 343.5 706Q356.5 719 356.5 741ZM309 540Z" glyph-name="gbreve" horiz-adv-x="602" unicode="&#287;" /><glyph d="M289 192Q332 192 353 215.5Q374 239 374 287V307Q374 355 353 378.5Q332 402 289 402Q249 402 230.5 379.5Q212 357 212 307V287Q212 237 230.5 214.5Q249 192 289 192ZM297 -190Q178 -190 115 -142.5Q52 -95 52 -9V-6H217V-9Q217 -32 236.5 -43.5Q256 -55 295 -55Q335 -55 354.5 -38.5Q374 -22 374 13V106Q350 75 312.5 58Q275 41 231 41Q141 41 88.5 98Q36 155 36 255V338Q36 438 88.5 495Q141 552 231 552Q281 552 322 532Q363 512 385 475L394 540H550V30Q550 -78 485.5 -134Q421 -190 297 -190ZM309 540ZM364.5 603 309.5 664H307.5L253.5 603H116.5L230.5 751H387.5L501.5 603ZM309 540Z" glyph-name="gcircumflex" horiz-adv-x="602" unicode="&#285;" /><glyph d="M289 192Q332 192 353 215.5Q374 239 374 287V307Q374 355 353 378.5Q332 402 289 402Q249 402 230.5 379.5Q212 357 212 307V287Q212 237 230.5 214.5Q249 192 289 192ZM297 -190Q178 -190 115 -142.5Q52 -95 52 -9V-6H217V-9Q217 -32 236.5 -43.5Q256 -55 295 -55Q335 -55 354.5 -38.5Q374 -22 374 13V106Q350 75 312.5 58Q275 41 231 41Q141 41 88.5 98Q36 155 36 255V338Q36 438 88.5 495Q141 552 231 552Q281 552 322 532Q363 512 385 475L394 540H550V30Q550 -78 485.5 -134Q421 -190 297 -190ZM309 540ZM385.5 743V603H232.5V743Q270.5 743 309 743Q347.5 743 385.5 743ZM309 540Z" glyph-name="gdotaccent" horiz-adv-x="602" unicode="&#289;" /><glyph d="M306 601Q268 601 248 578Q228 555 228 514V0H52V512Q52 617 119 679.5Q186 742 309 742Q425 742 490.5 687.5Q556 633 556 545Q556 493 535 453.5Q514 414 473 389Q531 365 561 321Q591 277 591 217Q591 114 521.5 57Q452 0 322 0H277V141H322Q366 141 388.5 162Q411 183 411 224Q411 268 386 291.5Q361 315 312 315H277V448H292Q336 448 358.5 468Q381 488 381 527Q381 561 361.5 581Q342 601 306 601Z" glyph-name="germandbls" horiz-adv-x="619" unicode="&#223;" /><glyph d="M371 603H230L117 751H310ZM298 540Z" glyph-name="grave" horiz-adv-x="500" unicode="`" /><glyph d="M255 748H98L-4 896H203ZM176 700Z" glyph-name="grave.case" horiz-adv-x="250" /><glyph d="M526 282 59 72V254L334 347V349L59 442V624L526 414Z" glyph-name="greater" horiz-adv-x="549" unicode="&gt;" /><glyph d="M61 367 329 420V422L61 475V647L528 487V355L61 195ZM61 178H528V51H61Q61 83 61 114.5Q61 146 61 178Z" glyph-name="greaterequal" horiz-adv-x="577" unicode="&#8805;" /><glyph d="M175 465 23 265 175 65H308L170 265L308 465ZM411 465 259 265 411 65H544L406 265L544 465Z" glyph-name="guillemotleft" horiz-adv-x="582" unicode="&#171;" /><glyph d="M171 465 323 265 171 65H38L176 265L38 465ZM407 465 559 265 407 65H274L412 265L274 465Z" glyph-name="guillemotright" horiz-adv-x="582" unicode="&#187;" /><glyph d="M175 465 23 265 175 65H308L170 265L308 465Z" glyph-name="guilsinglleft" horiz-adv-x="346" unicode="&#8249;" /><glyph d="M171 465 323 265 171 65H38L176 265L38 465Z" glyph-name="guilsinglright" horiz-adv-x="346" unicode="&#8250;" /><glyph d="M228 283V0H52V730H228V487Q252 518 289.5 535Q327 552 371 552Q459 552 510.5 495Q562 438 562 338V0H386V293Q386 349 368.5 372.5Q351 396 313 396Q268 396 248 370Q228 344 228 283ZM141 730Z" glyph-name="h" horiz-adv-x="609" unicode="h" /><glyph d="M313 396Q268 396 248 370Q228 344 228 283V0H52V581H-8V666H52V730H228V666H331V581H228V487Q252 518 289.5 535Q327 552 371 552Q459 552 510.5 495Q562 438 562 338V0H386V293Q386 349 368.5 372.5Q351 396 313 396Z" glyph-name="hbar" horiz-adv-x="609" unicode="&#295;" /><glyph d="M228 283V0H52V730H228V487Q252 518 289.5 535Q327 552 371 552Q459 552 510.5 495Q562 438 562 338V0H386V293Q386 349 368.5 372.5Q351 396 313 396Q268 396 248 370Q228 344 228 283ZM141 730ZM196.5 793 141.5 854H139.5L85.5 793H-51.5L62.5 941H219.5L333.5 793ZM141 730Z" glyph-name="hcircumflex" horiz-adv-x="609" unicode="&#293;" /><glyph d="M70 751H267L165 603H18ZM319 751H516L388 603H241ZM214 540Z" glyph-name="hungarumlaut" horiz-adv-x="500" unicode="&#733;" /><glyph d="M-72 896H125L23 748H-124ZM177 896H374L246 748H99ZM75 700Z" glyph-name="hungarumlaut.case" horiz-adv-x="250" /><glyph d="M52 407H361V239H52Q52 281 52 323Q52 365 52 407Z" glyph-name="hyphen" horiz-adv-x="413" unicode="-" /><glyph d="M34 113V213H197V113Z" glyph-name="hyphen.denominator" horiz-adv-x="231" unicode="&#63019;" /><glyph d="M34 463V563H197V463Z" glyph-name="hyphen.numerator" horiz-adv-x="231" unicode="&#63024;" /><glyph d="M228 730V602H52V730ZM228 540V0H52V540ZM119 0Z" glyph-name="i" horiz-adv-x="280" unicode="i" /><glyph d="M228 540V0H52V540ZM140 540ZM130 751H322L209 603H69ZM140 540Z" glyph-name="iacute" horiz-adv-x="280" unicode="&#237;" /><glyph d="M228 540V0H52V540ZM140 540ZM195.5 603 140.5 664H138.5L84.5 603H-52.5L61.5 751H218.5L332.5 603ZM140 540Z" glyph-name="icircumflex" horiz-adv-x="280" unicode="&#238;" /><glyph d="M228 540V0H52V540ZM140 540ZM116.5 730V602H-36.5V730Q1.5 730 40 730Q78.5 730 116.5 730ZM316.5 730V602H163.5V730Q201.5 730 240 730Q278.5 730 316.5 730ZM140 540Z" glyph-name="idieresis" horiz-adv-x="280" unicode="&#239;" /><glyph d="M228 540V0H52V540ZM140 540ZM213 603H72L-41 751H152ZM140 540Z" glyph-name="igrave" horiz-adv-x="280" unicode="&#236;" /><glyph d="M228 730V602H52V730ZM228 540V0H52V540ZM119 0ZM273 -180H210V-37H253Q293 -37 312.5 -23.5Q332 -10 332 19V540H508V26Q508 -80 449.5 -130Q391 -180 273 -180ZM508 730V602H332V730Z" glyph-name="ij" horiz-adv-x="560" unicode="&#307;" /><glyph d="M228 540V0H52V540ZM140 540ZM-28 603V715H308V603ZM140 540Z" glyph-name="imacron" horiz-adv-x="280" unicode="&#299;" /><glyph d="M839 349Q839 250 781 192Q723 134 622 134Q571 134 526 161.5Q481 189 441 245Q399 191 352 163.5Q305 136 254 136Q153 136 95 194Q37 252 37 351Q37 450 95 508.5Q153 567 254 567Q307 567 353.5 541.5Q400 516 440 465Q478 514 524 539.5Q570 565 622 565Q724 565 781.5 507Q839 449 839 349ZM188 351Q188 322 205 303.5Q222 285 251 285Q279 285 306.5 302Q334 319 360 353Q335 385 308 401Q281 417 251 417Q222 417 205 398.5Q188 380 188 351ZM688 349Q688 378 671.5 396Q655 414 626 414Q600 414 576 399.5Q552 385 530 356Q554 320 577.5 302.5Q601 285 626 285Q654 285 671 303Q688 321 688 349Z" glyph-name="infinity" horiz-adv-x="876" unicode="&#8734;" /><glyph d="M306 530V34Q306 -63 243 -109.5Q180 -156 51 -156H8V-16H61Q97 -16 113.5 -4Q130 8 130 34V530Q130 627 193 673.5Q256 720 385 720H428V580H375Q339 580 322.5 568Q306 556 306 530Z" glyph-name="integral" horiz-adv-x="437" unicode="&#8747;" /><glyph d="M228 730V602H52V730ZM228 -78V-176Q205 -195 178 -205Q151 -215 123 -215Q67 -215 32 -183Q-3 -151 -3 -100Q-3 -69 10 -44Q23 -19 52 4V540H228V0H150Q142 -8 138 -18.5Q134 -29 134 -39Q134 -62 148 -72Q162 -82 193 -82Q202 -82 210.5 -81Q219 -80 228 -78Z" glyph-name="iogonek" horiz-adv-x="280" unicode="&#303;" /><glyph d="M228 540V0H52V540ZM140 540ZM228 597Q203 597 186.5 600.5Q170 604 157 611L115 634Q104 640 95 642.5Q86 645 75 645Q66 645 58.5 642Q51 639 45 632Q39 626 35 619Q31 612 30 603H-61Q-61 676 -28 718.5Q5 761 63 761Q85 761 99 757.5Q113 754 125 747L165 723Q177 716 189.5 712Q202 708 212 708Q220 708 227 712Q234 716 239 724Q244 731 247 738.5Q250 746 251 755H341Q341 674 313 635.5Q285 597 228 597ZM140 540Z" glyph-name="itilde" horiz-adv-x="280" unicode="&#297;" /><glyph d="M-7 -180H-70V-37H-27Q13 -37 32.5 -23.5Q52 -10 52 19V540H228V26Q228 -80 169.5 -130Q111 -180 -7 -180ZM228 730V602H52V730Z" glyph-name="j" horiz-adv-x="280" unicode="j" /><glyph d="M-7 -180H-70V-37H-27Q13 -37 32.5 -23.5Q52 -10 52 19V540H228V26Q228 -80 169.5 -130Q111 -180 -7 -180ZM136 540ZM191.5 603 136.5 664H134.5L80.5 603H-56.5L57.5 751H214.5L328.5 603ZM136 540Z" glyph-name="jcircumflex" horiz-adv-x="280" unicode="&#309;" /><glyph d="M274 174 228 119V0H52V730H228V357L376 540H582L391 310L585 0H380ZM302 0Z" glyph-name="k" horiz-adv-x="579" unicode="k" /><glyph d="M585 0H385L277 178L228 119V0H52V540H228V357L376 540H582L390 309ZM302 0Z" glyph-name="kgreenlandic" horiz-adv-x="579" unicode="&#312;" /><glyph d="M228 730V0H52V730ZM140 0ZM140 730ZM290 700ZM290 350Z" glyph-name="l" horiz-adv-x="280" unicode="l" /><glyph d="M228 730V0H52V730ZM140 0ZM140 730ZM290 700ZM290 350ZM130 941H322L209 793H69ZM140 730Z" glyph-name="lacute" horiz-adv-x="280" unicode="&#314;" /><glyph d="M228 730V0H52V730ZM140 0ZM140 730ZM290 700ZM290 350ZM290 730H420V686L380 521H290ZM290 688Z" glyph-name="lcaron" horiz-adv-x="363" unicode="&#318;" /><glyph d="M228 730V0H52V730ZM140 0ZM140 730ZM290 700ZM290 350ZM471 443V277H290V443Q335 443 380.5 443Q426 443 471 443ZM290 350Z" glyph-name="ldot" horiz-adv-x="480" unicode="&#320;" /><glyph d="M23 282 490 72V254L215 347V349L490 442V624L23 414Z" glyph-name="less" horiz-adv-x="549" unicode="&lt;" /><glyph d="M516 367 248 420V422L516 475V647L49 487V355L516 195ZM516 178H49V51H516Q516 83 516 114.5Q516 146 516 178Z" glyph-name="lessequal" horiz-adv-x="577" unicode="&#8804;" /><glyph d="M228 730V0H52V730ZM140 0ZM140 730ZM290 700ZM290 350ZM471 443V277H290V443Q335 443 380.5 443Q426 443 471 443ZM290 350ZM708 730V0H532V730ZM620 0ZM620 730ZM770 700ZM770 350Z" glyph-name="lgeminada" horiz-adv-x="760" /><glyph d="M304 145H620V0H46V133L118 144V191H47V286H118V331H47V426H118V463Q118 579 188 645.5Q258 712 387 712Q509 712 576 650.5Q643 589 643 485V447H461V475Q461 510 440.5 530Q420 550 383 550Q343 550 323.5 529Q304 508 304 463V426H413V331H304V286H413V191H304Z" glyph-name="lira" horiz-adv-x="676" unicode="&#8356;" /><glyph d="M507 500V188H344V348H40V500Z" glyph-name="logicalnot" horiz-adv-x="565" unicode="&#172;" /><glyph d="M266 548V0H90V404H27V538H90V540Q90 637 153 683.5Q216 730 345 730H388V600H335Q300 600 283 587.5Q266 575 266 548Z" glyph-name="longs" horiz-adv-x="378" unicode="&#383;" /><glyph d="M697 148H758V0H668Q555 0 505 40.5Q455 81 455 187V404H389V538H455V670H631V538H751V404H631V200Q631 169 644.5 158.5Q658 148 697 148ZM595 10ZM556 0ZM663 738ZM266 548V0H90V404H27V538H90V540Q90 637 153 683.5Q216 730 345 730H388V600H335Q300 600 283 587.5Q266 575 266 548Z" glyph-name="longs_t" horiz-adv-x="785" unicode="&#64261;" /><glyph d="M430 700 609 348 430 0H203L21 348L203 700ZM318 176H329L404 332L314 525H304L227 363Z" glyph-name="lozenge" horiz-adv-x="631" unicode="&#9674;" /><glyph d="M256 365V0H80V228L11 175V309L80 362V730H256V499L326 553V419Z" glyph-name="lslash" horiz-adv-x="336" unicode="&#322;" /><glyph d="M228 283V0H52V540H208L218 472Q240 510 280 531Q320 552 369 552Q428 552 471 525.5Q514 499 537 449Q555 497 599 524.5Q643 552 699 552Q787 552 837.5 495Q888 438 888 338V0H712V293Q712 349 695 372.5Q678 396 641 396Q597 396 577.5 370Q558 344 558 283V0H382V293Q382 349 365 372.5Q348 396 311 396Q267 396 247.5 370Q228 344 228 283Z" glyph-name="m" horiz-adv-x="935" unicode="m" /><glyph d="M82 603V715H418V603ZM250 540Z" glyph-name="macron" horiz-adv-x="500" unicode="&#175;" /><glyph d="M-43 773V885H293V773ZM125 700Z" glyph-name="macron.case" horiz-adv-x="250" /><glyph d="M522 428V273H55Q55 312 55 350.5Q55 389 55 428Z" glyph-name="minus" horiz-adv-x="577" unicode="&#8722;" /><glyph d="M249 -12Q237 -12 231.5 -12Q226 -12 221 -11L236 -180H60V540H236V225Q236 181 253 162.5Q270 144 307 144Q351 144 370.5 170Q390 196 390 257V540H566V0H410L400 68Q378 30 338 9Q298 -12 249 -12Z" glyph-name="mu" horiz-adv-x="626" unicode="&#181;" /><glyph d="M478 240 367 129 257 239 148 130 37 241 146 350 37 460 148 571 257 461 368 571 479 460 368 349Z" glyph-name="multiply" horiz-adv-x="515" unicode="&#215;" /><glyph d="M228 283V0H52V540H208L218 471Q240 509 281 530.5Q322 552 371 552Q459 552 510.5 495Q562 438 562 338V0H386V293Q386 349 368.5 372.5Q351 396 313 396Q268 396 248 370Q228 344 228 283ZM307 540ZM307 0ZM78 581Z" glyph-name="n" horiz-adv-x="609" unicode="n" /><glyph d="M228 283V0H52V540H208L218 471Q240 509 281 530.5Q322 552 371 552Q459 552 510.5 495Q562 438 562 338V0H386V293Q386 349 368.5 372.5Q351 396 313 396Q268 396 248 370Q228 344 228 283ZM307 540ZM307 0ZM78 581ZM297 751H489L376 603H236ZM307 540Z" glyph-name="nacute" horiz-adv-x="609" unicode="&#324;" /><glyph d="M228 283V0H52V540H208L218 471Q240 509 281 530.5Q322 552 371 552Q459 552 510.5 495Q562 438 562 338V0H386V293Q386 349 368.5 372.5Q351 396 313 396Q268 396 248 370Q228 344 228 283ZM307 540ZM307 0ZM78 581ZM-10 791H166V747L107 582H-29ZM78 581ZM78 851Z" glyph-name="napostrophe" horiz-adv-x="609" unicode="&#329;" /><glyph d="M228 283V0H52V540H208L218 471Q240 509 281 530.5Q322 552 371 552Q459 552 510.5 495Q562 438 562 338V0H386V293Q386 349 368.5 372.5Q351 396 313 396Q268 396 248 370Q228 344 228 283ZM307 540ZM307 0ZM78 581ZM251.5 751 305.5 690H307.5L362.5 751H499.5L385.5 603H228.5L114.5 751ZM307 540Z" glyph-name="ncaron" horiz-adv-x="609" unicode="&#328;" /><glyph d="M35 472Q35 583 106 646.5Q177 710 310 710Q442 710 513 646.5Q584 583 584 471V252Q584 129 514.5 59.5Q445 -10 316 -10Q189 -10 120 44.5Q51 99 51 191V201H231V195Q231 170 253 155.5Q275 141 312 141Q358 141 379.5 163Q401 185 401 230V293Q374 276 340.5 267.5Q307 259 268 259Q159 259 97 317.5Q35 376 35 472ZM400 485Q400 526 377 547.5Q354 569 310 569Q266 569 243.5 547Q221 525 221 484Q221 444 244 422Q267 400 310 400Q354 400 377 421.5Q400 443 400 485Z" glyph-name="nine" horiz-adv-x="631" unicode="9" /><glyph d="M21 234Q21 290 59 323Q97 356 167 356Q236 356 273 323Q310 290 310 233V128Q310 66 272.5 30Q235 -6 166 -6Q100 -6 64.5 22Q29 50 29 96V102H141V99Q141 92 148.5 87.5Q156 83 167 83Q182 83 189.5 91Q197 99 197 115V135Q183 131 168 128.5Q153 126 139 126Q85 126 53 156Q21 186 21 234ZM198 242Q198 258 190 266.5Q182 275 166 275Q151 275 143 266Q135 257 135 241Q135 225 143 216Q151 207 166 207Q182 207 190 216Q198 225 198 242Z" glyph-name="nine.denominator" horiz-adv-x="337" unicode="&#63070;" /><glyph d="M21 94Q21 150 59 183Q97 216 167 216Q236 216 273 183Q310 150 310 93V-12Q310 -74 272.5 -110Q235 -146 166 -146Q100 -146 64.5 -118Q29 -90 29 -44V-38H141V-41Q141 -48 148.5 -52.5Q156 -57 167 -57Q182 -57 189.5 -49Q197 -41 197 -25V-5Q183 -9 168 -11.5Q153 -14 139 -14Q85 -14 53 16Q21 46 21 94ZM198 102Q198 118 190 126.5Q182 135 166 135Q151 135 143 126Q135 117 135 101Q135 85 143 76Q151 67 166 67Q182 67 190 76Q198 85 198 102Z" glyph-name="nine.inferior" horiz-adv-x="337" unicode="&#8329;" /><glyph d="M21 584Q21 640 59 673Q97 706 167 706Q236 706 273 673Q310 640 310 583V478Q310 416 272.5 380Q235 344 166 344Q100 344 64.5 372Q29 400 29 446V452H141V449Q141 442 148.5 437.5Q156 433 167 433Q182 433 189.5 441Q197 449 197 465V485Q183 481 168 478.5Q153 476 139 476Q85 476 53 506Q21 536 21 584ZM198 592Q198 608 190 616.5Q182 625 166 625Q151 625 143 616Q135 607 135 591Q135 575 143 566Q151 557 166 557Q182 557 190 566Q198 575 198 592Z" glyph-name="nine.numerator" horiz-adv-x="337" unicode="&#63082;" /><glyph d="M21 724Q21 780 59 813Q97 846 167 846Q236 846 273 813Q310 780 310 723V618Q310 556 272.5 520Q235 484 166 484Q100 484 64.5 512Q29 540 29 586V592H141V589Q141 582 148.5 577.5Q156 573 167 573Q182 573 189.5 581Q197 589 197 605V625Q183 621 168 618.5Q153 616 139 616Q85 616 53 646Q21 676 21 724ZM198 732Q198 748 190 756.5Q182 765 166 765Q151 765 143 756Q135 747 135 731Q135 715 143 706Q151 697 166 697Q182 697 190 706Q198 715 198 732Z" glyph-name="nine.superior" horiz-adv-x="337" unicode="&#8313;" /><glyph d="M36 472Q36 583 107 646.5Q178 710 311 710Q443 710 514 646.5Q585 583 585 471V252Q585 129 515.5 59.5Q446 -10 317 -10Q190 -10 121 44.5Q52 99 52 191V201H232V195Q232 170 254 155.5Q276 141 313 141Q359 141 380.5 163Q402 185 402 230V293Q375 276 341.5 267.5Q308 259 269 259Q160 259 98 317.5Q36 376 36 472ZM401 485Q401 526 378 547.5Q355 569 311 569Q267 569 244.5 547Q222 525 222 484Q222 444 245 422Q268 400 311 400Q355 400 378 421.5Q401 443 401 485Z" glyph-name="nine.tab" horiz-adv-x="635" unicode="&#65305;" /><glyph d="M522 313V156H254L220 91H83L117 156H55V313H199L238 388H55V545H321L354 609H492L458 545H522V388H376L337 313Z" glyph-name="notequal" horiz-adv-x="577" unicode="&#8800;" /><glyph d="M228 283V0H52V540H208L218 471Q240 509 281 530.5Q322 552 371 552Q459 552 510.5 495Q562 438 562 338V0H386V293Q386 349 368.5 372.5Q351 396 313 396Q268 396 248 370Q228 344 228 283ZM307 540ZM307 0ZM78 581ZM395 597Q370 597 353.5 600.5Q337 604 324 611L282 634Q271 640 262 642.5Q253 645 242 645Q233 645 225.5 642Q218 639 212 632Q206 626 202 619Q198 612 197 603H106Q106 676 139 718.5Q172 761 230 761Q252 761 266 757.5Q280 754 292 747L332 723Q344 716 356.5 712Q369 708 379 708Q387 708 394 712Q401 716 406 724Q411 731 414 738.5Q417 746 418 755H508Q508 674 480 635.5Q452 597 395 597ZM307 540Z" glyph-name="ntilde" horiz-adv-x="609" unicode="&#241;" /><glyph d="M279 305H366L380 395H293ZM469 0H318L343 160H256L231 0H80L105 160H35V305H128L142 395H75V540H165L190 700H341L316 540H403L428 700H579L554 540H623V395H531L517 305H583V160H494Z" glyph-name="numbersign" horiz-adv-x="658" unicode="#" /><glyph d="M295 -12Q169 -12 102.5 46.5Q36 105 36 212V328Q36 435 102.5 493.5Q169 552 295 552Q421 552 487.5 493.5Q554 435 554 328V212Q554 105 487.5 46.5Q421 -12 295 -12ZM295 131Q336 131 357 151Q378 171 378 210V330Q378 369 357 389Q336 409 295 409Q254 409 233 389Q212 369 212 330V210Q212 171 233 151Q254 131 295 131ZM295 540Z" glyph-name="o" horiz-adv-x="590" unicode="o" /><glyph d="M295 -12Q169 -12 102.5 46.5Q36 105 36 212V328Q36 435 102.5 493.5Q169 552 295 552Q421 552 487.5 493.5Q554 435 554 328V212Q554 105 487.5 46.5Q421 -12 295 -12ZM295 131Q336 131 357 151Q378 171 378 210V330Q378 369 357 389Q336 409 295 409Q254 409 233 389Q212 369 212 330V210Q212 171 233 151Q254 131 295 131ZM295 540ZM285 751H477L364 603H224ZM295 540Z" glyph-name="oacute" horiz-adv-x="590" unicode="&#243;" /><glyph d="M295 -12Q169 -12 102.5 46.5Q36 105 36 212V328Q36 435 102.5 493.5Q169 552 295 552Q421 552 487.5 493.5Q554 435 554 328V212Q554 105 487.5 46.5Q421 -12 295 -12ZM295 131Q336 131 357 151Q378 171 378 210V330Q378 369 357 389Q336 409 295 409Q254 409 233 389Q212 369 212 330V210Q212 171 233 151Q254 131 295 131ZM295 540ZM342.5 741V750H450.5V741Q450.5 671 409 631Q367.5 591 294.5 591Q221.5 591 180.5 631Q139.5 671 139.5 741V750H247.5V741Q247.5 719 260.5 706Q273.5 693 294.5 693Q316.5 693 329.5 706Q342.5 719 342.5 741ZM295 540Z" glyph-name="obreve" horiz-adv-x="590" unicode="&#335;" /><glyph d="M295 -12Q169 -12 102.5 46.5Q36 105 36 212V328Q36 435 102.5 493.5Q169 552 295 552Q421 552 487.5 493.5Q554 435 554 328V212Q554 105 487.5 46.5Q421 -12 295 -12ZM295 131Q336 131 357 151Q378 171 378 210V330Q378 369 357 389Q336 409 295 409Q254 409 233 389Q212 369 212 330V210Q212 171 233 151Q254 131 295 131ZM295 540ZM350.5 603 295.5 664H293.5L239.5 603H102.5L216.5 751H373.5L487.5 603ZM295 540Z" glyph-name="ocircumflex" horiz-adv-x="590" unicode="&#244;" /><glyph d="M295 -12Q169 -12 102.5 46.5Q36 105 36 212V328Q36 435 102.5 493.5Q169 552 295 552Q421 552 487.5 493.5Q554 435 554 328V212Q554 105 487.5 46.5Q421 -12 295 -12ZM295 131Q336 131 357 151Q378 171 378 210V330Q378 369 357 389Q336 409 295 409Q254 409 233 389Q212 369 212 330V210Q212 171 233 151Q254 131 295 131ZM295 540ZM271.5 730V602H118.5V730Q156.5 730 195 730Q233.5 730 271.5 730ZM471.5 730V602H318.5V730Q356.5 730 395 730Q433.5 730 471.5 730ZM295 540Z" glyph-name="odieresis" horiz-adv-x="590" unicode="&#246;" /><glyph d="M632 424Q593 424 573.5 406.5Q554 389 554 355V337H708V355Q708 388 688.5 406Q669 424 632 424ZM295 131Q336 131 357 151Q378 171 378 210V330Q378 369 357 389Q336 409 295 409Q254 409 233 389Q212 369 212 330V210Q212 171 233 151Q254 131 295 131ZM872 173V162Q872 77 813.5 32.5Q755 -12 640 -12Q580 -12 536.5 4Q493 20 465 52Q436 20 392 4Q348 -12 290 -12Q166 -12 101 46.5Q36 105 36 212V328Q36 435 101 493.5Q166 552 290 552Q349 552 393 536Q437 520 467 487Q495 519 538 535.5Q581 552 638 552Q754 552 816 493Q878 434 878 329V225H554V196Q554 155 573.5 136.5Q593 118 634 118Q672 118 690 129.5Q708 141 708 167V173Z" glyph-name="oe" horiz-adv-x="910" unicode="&#339;" /><glyph d="M364 -82Q373 -82 381.5 -81Q390 -80 399 -78V-176Q376 -195 349 -205Q322 -215 294 -215Q238 -215 203 -183Q168 -151 168 -100Q168 -63 186.5 -34.5Q205 -6 246 20L336 13Q323 5 314 -9.5Q305 -24 305 -39Q305 -62 319 -72Q333 -82 364 -82ZM297 0Z" glyph-name="ogonek" horiz-adv-x="500" unicode="&#731;" /><glyph d="M295 -12Q169 -12 102.5 46.5Q36 105 36 212V328Q36 435 102.5 493.5Q169 552 295 552Q421 552 487.5 493.5Q554 435 554 328V212Q554 105 487.5 46.5Q421 -12 295 -12ZM295 131Q336 131 357 151Q378 171 378 210V330Q378 369 357 389Q336 409 295 409Q254 409 233 389Q212 369 212 330V210Q212 171 233 151Q254 131 295 131ZM295 540ZM368 603H227L114 751H307ZM295 540Z" glyph-name="ograve" horiz-adv-x="590" unicode="&#242;" /><glyph d="M295 -12Q169 -12 102.5 46.5Q36 105 36 212V328Q36 435 102.5 493.5Q169 552 295 552Q421 552 487.5 493.5Q554 435 554 328V212Q554 105 487.5 46.5Q421 -12 295 -12ZM295 131Q336 131 357 151Q378 171 378 210V330Q378 369 357 389Q336 409 295 409Q254 409 233 389Q212 369 212 330V210Q212 171 233 151Q254 131 295 131ZM295 540ZM151 751H348L246 603H99ZM400 751H597L469 603H322ZM295 540Z" glyph-name="ohungarumlaut" horiz-adv-x="590" unicode="&#337;" /><glyph d="M295 -12Q169 -12 102.5 46.5Q36 105 36 212V328Q36 435 102.5 493.5Q169 552 295 552Q421 552 487.5 493.5Q554 435 554 328V212Q554 105 487.5 46.5Q421 -12 295 -12ZM295 131Q336 131 357 151Q378 171 378 210V330Q378 369 357 389Q336 409 295 409Q254 409 233 389Q212 369 212 330V210Q212 171 233 151Q254 131 295 131ZM295 540ZM127 603V715H463V603ZM295 540Z" glyph-name="omacron" horiz-adv-x="590" unicode="&#333;" /><glyph d="M47 492V663L257 700H393V160H553V0H47V160H207V509Z" glyph-name="one" horiz-adv-x="568" unicode="1" /><glyph d="M29 229V331L132 349H215V95H286V0H29V95H100V236Z" glyph-name="one.denominator" horiz-adv-x="297" unicode="&#63062;" /><glyph d="M29 89V191L132 209H215V-45H286V-140H29V-45H100V96Z" glyph-name="one.inferior" horiz-adv-x="297" unicode="&#8321;" /><glyph d="M29 579V681L132 699H215V445H286V350H29V445H100V586Z" glyph-name="one.numerator" horiz-adv-x="297" unicode="&#63074;" /><glyph d="M80 492V663L290 700H426V160H586V0H80V160H240V509Z" glyph-name="one.tab" horiz-adv-x="635" unicode="&#65297;" /><glyph d="M36 579V681L139 699H222V445H293V350H36V445H107V586ZM567 700H684L232 0H115ZM652 239Q652 250 644.5 256Q637 262 622 262Q607 262 600 254.5Q593 247 593 230V220H480V236Q480 289 518.5 322.5Q557 356 624 356Q692 356 729.5 324.5Q767 293 767 242Q767 203 748 175.5Q729 148 689 132L597 95V94H765V0H482V94Q482 122 494 140.5Q506 159 533 170L638 214Q646 218 649 222Q652 226 652 239Z" glyph-name="onehalf" horiz-adv-x="794" unicode="&#189;" /><glyph d="M36 579 36 681 139 699H222L222 445H293L293 350H36L36 445H107L107 586ZM567 700H684L232 0H115ZM527 350H639L596 171H654L654 350H770L770 0H654L654 76H481L481 170Z" glyph-name="onequarter" horiz-adv-x="807" unicode="&#188;" /><glyph d="M29 719V821L132 839H215V585H286V490H29V585H100V726Z" glyph-name="onesuperior" horiz-adv-x="297" unicode="&#185;" /><glyph d="M152 458Q152 445 160 439Q168 433 184 433Q207 433 221 446Q235 459 235 481V485H177Q164 485 158 478Q152 471 152 458ZM351 355H248L243 389Q230 368 206.5 357.5Q183 347 151 347Q94 347 65 373.5Q36 400 36 451Q36 502 67.5 528.5Q99 555 159 555H235V577Q235 599 225.5 609.5Q216 620 195 620Q177 620 166 612.5Q155 605 155 591V586H47V591Q47 645 87 675.5Q127 706 199 706Q275 706 313 673Q351 640 351 573Z" glyph-name="ordfeminine" horiz-adv-x="403" unicode="&#170;" /><glyph d="M204 347Q123 347 80 384.5Q37 422 37 490V564Q37 631 80 668.5Q123 706 204 706Q285 706 327.5 669Q370 632 370 564V490Q370 422 327.5 384.5Q285 347 204 347ZM204 438Q229 438 241.5 451Q254 464 254 489V565Q254 590 241.5 602.5Q229 615 204 615Q179 615 166 602.5Q153 590 153 565V489Q153 464 166 451Q179 438 204 438Z" glyph-name="ordmasculine" horiz-adv-x="407" unicode="&#186;" /><glyph d="M212 330V210Q212 208 212 205.5Q212 203 212 200L337 402Q327 405 316.5 407Q306 409 295 409Q254 409 233 389Q212 369 212 330ZM295 131Q336 131 357 151Q378 171 378 210V330Q378 332 378 333.5Q378 335 378 337L254 138Q262 134 272 132.5Q282 131 295 131ZM295 -12Q265 -12 236.5 -8Q208 -4 182 3L155 -41H51L104 45Q70 74 53 116.5Q36 159 36 212V328Q36 435 102.5 493.5Q169 552 295 552Q326 552 354 548.5Q382 545 409 537L437 582H541L487 494Q520 465 537 423Q554 381 554 328V212Q554 105 487.5 46.5Q421 -12 295 -12ZM295 540Z" glyph-name="oslash" horiz-adv-x="590" unicode="&#248;" /><glyph d="M295 -12Q169 -12 102.5 46.5Q36 105 36 212V328Q36 435 102.5 493.5Q169 552 295 552Q421 552 487.5 493.5Q554 435 554 328V212Q554 105 487.5 46.5Q421 -12 295 -12ZM295 131Q336 131 357 151Q378 171 378 210V330Q378 369 357 389Q336 409 295 409Q254 409 233 389Q212 369 212 330V210Q212 171 233 151Q254 131 295 131ZM295 540ZM383 597Q358 597 341.5 600.5Q325 604 312 611L270 634Q259 640 250 642.5Q241 645 230 645Q221 645 213.5 642Q206 639 200 632Q194 626 190 619Q186 612 185 603H94Q94 676 127 718.5Q160 761 218 761Q240 761 254 757.5Q268 754 280 747L320 723Q332 716 344.5 712Q357 708 367 708Q375 708 382 712Q389 716 394 724Q399 731 402 738.5Q405 746 406 755H496Q496 674 468 635.5Q440 597 383 597ZM295 540Z" glyph-name="otilde" horiz-adv-x="590" unicode="&#245;" /><glyph d="M313 144Q354 144 372 167Q390 190 390 247V294Q390 351 372 374Q354 397 313 397Q268 397 248 371Q228 345 228 284V257Q228 196 248 170Q268 144 313 144ZM371 -12Q327 -12 289 4Q251 20 228 50V-180H52V540H208L218 471Q240 509 281 530.5Q322 552 371 552Q461 552 513.5 495Q566 438 566 338V202Q566 102 513.5 45Q461 -12 371 -12Z" glyph-name="p" horiz-adv-x="603" unicode="p" /><glyph d="M481 0H295V289H250Q133 289 74.5 340Q16 391 16 494Q16 598 74.5 649Q133 700 250 700H481Z" glyph-name="paragraph" horiz-adv-x="545" unicode="&#182;" /><glyph d="M51 111V521Q51 649 114.5 706Q178 763 314 763H367V606H324Q280 606 258.5 582.5Q237 559 237 509V123Q237 73 258.5 49.5Q280 26 324 26H367V-131H314Q178 -131 114.5 -74Q51 -17 51 111Z" glyph-name="parenleft" horiz-adv-x="399" unicode="(" /><glyph d="M31 83V265Q31 334 66 364.5Q101 395 176 395H206V302H182Q164 302 155 291Q146 280 146 258V90Q146 68 155 57Q164 46 182 46H206V-47H176Q101 -47 66 -16.5Q31 14 31 83Z" glyph-name="parenleft.denominator" horiz-adv-x="228" unicode="&#63020;" /><glyph d="M31 -56V126Q31 195 66 225.5Q101 256 176 256H206V163H182Q164 163 155 152Q146 141 146 119V-49Q146 -71 155 -82Q164 -93 182 -93H206V-186H176Q101 -186 66 -155.5Q31 -125 31 -56Z" glyph-name="parenleft.inferior" horiz-adv-x="228" unicode="&#8333;" /><glyph d="M31 436V618Q31 687 66 717.5Q101 748 176 748H206V655H182Q164 655 155 644Q146 633 146 611V443Q146 421 155 410Q164 399 182 399H206V306H176Q101 306 66 336.5Q31 367 31 436Z" glyph-name="parenleft.numerator" horiz-adv-x="228" unicode="&#63025;" /><glyph d="M31 577V759Q31 828 66 858.5Q101 889 176 889H206V796H182Q164 796 155 785Q146 774 146 752V584Q146 562 155 551Q164 540 182 540H206V447H176Q101 447 66 477.5Q31 508 31 577Z" glyph-name="parenleft.superior" horiz-adv-x="228" unicode="&#8317;" /><glyph d="M348 111V521Q348 649 284.5 706Q221 763 85 763H32V606H75Q119 606 140.5 582.5Q162 559 162 509V123Q162 73 140.5 49.5Q119 26 75 26H32V-131H85Q221 -131 284.5 -74Q348 -17 348 111Z" glyph-name="parenright" horiz-adv-x="399" unicode=")" /><glyph d="M197 265V83Q197 14 162.5 -16.5Q128 -47 53 -47H22V46H46Q64 46 73 56.5Q82 67 82 90V258Q82 281 73 291.5Q64 302 46 302H22V395H53Q128 395 162.5 364.5Q197 334 197 265Z" glyph-name="parenright.denominator" horiz-adv-x="228" unicode="&#63021;" /><glyph d="M197 126V-56Q197 -125 162.5 -155.5Q128 -186 53 -186H22V-93H46Q64 -93 73 -82.5Q82 -72 82 -49V119Q82 142 73 152.5Q64 163 46 163H22V256H53Q128 256 162.5 225.5Q197 195 197 126Z" glyph-name="parenright.inferior" horiz-adv-x="228" unicode="&#8334;" /><glyph d="M197 618V436Q197 367 162.5 336.5Q128 306 53 306H22V399H46Q64 399 73 409.5Q82 420 82 443V611Q82 634 73 644.5Q64 655 46 655H22V748H53Q128 748 162.5 717.5Q197 687 197 618Z" glyph-name="parenright.numerator" horiz-adv-x="228" unicode="&#63026;" /><glyph d="M197 759V577Q197 508 162.5 477.5Q128 447 53 447H22V540H46Q64 540 73 550.5Q82 561 82 584V752Q82 775 73 785.5Q64 796 46 796H22V889H53Q128 889 162.5 858.5Q197 828 197 759Z" glyph-name="parenright.superior" horiz-adv-x="228" unicode="&#8318;" /><glyph d="M282 133Q323 133 344 151Q365 169 365 203V248Q365 283 344 301Q323 319 282 319Q241 319 220 301Q199 283 199 248V203Q199 169 220 151Q241 133 282 133ZM541 458V204Q541 101 476.5 44.5Q412 -12 289 -12Q159 -12 91 44.5Q23 101 23 204V248Q23 351 86.5 407.5Q150 464 270 464Q295 464 318.5 458.5Q342 453 365 442V465Q365 527 338 552Q311 577 249 577H116V712H239Q398 712 469.5 652.5Q541 593 541 458Z" glyph-name="partialdiff" horiz-adv-x="587" unicode="&#8706;" /><glyph d="M170 344Q239 344 277 380Q315 416 315 478V572Q315 634 277 670Q239 706 170 706Q101 706 63.5 670Q26 634 26 572V478Q26 416 63.5 380Q101 344 170 344ZM170 611Q185 611 192.5 601Q200 591 200 569V481Q200 459 192.5 449.5Q185 440 170 440Q155 440 148 449.5Q141 459 141 481V569Q141 592 148 601.5Q155 611 170 611ZM547 700H664L212 0H95ZM597 -6Q666 -6 704 30Q742 66 742 128V222Q742 284 704 320Q666 356 597 356Q528 356 490.5 320Q453 284 453 222V128Q453 66 490.5 30Q528 -6 597 -6ZM597 261Q612 261 619.5 251Q627 241 627 219V131Q627 109 619.5 99.5Q612 90 597 90Q582 90 575 99.5Q568 109 568 131V219Q568 242 575 251.5Q582 261 597 261Z" glyph-name="percent" horiz-adv-x="767" unicode="%" /><glyph d="M232 166V0H51V166Q96 166 141.5 166Q187 166 232 166ZM51 73Z" glyph-name="period" horiz-adv-x="283" unicode="." /><glyph d="M143 95V0H32V95Z" glyph-name="period.denominator" horiz-adv-x="175" unicode="&#63072;" /><glyph d="M143 445V350H32V445Z" glyph-name="period.numerator" horiz-adv-x="175" unicode="&#63084;" /><glyph d="M234 443V277H53V443Q98 443 143.5 443Q189 443 234 443ZM53 350Z" glyph-name="periodcentered" horiz-adv-x="287" unicode="&#183;" /><glyph d="M170 344Q239 344 277 380Q315 416 315 478V572Q315 634 277 670Q239 706 170 706Q101 706 63.5 670Q26 634 26 572V478Q26 416 63.5 380Q101 344 170 344ZM170 611Q185 611 192.5 601Q200 591 200 569V481Q200 459 192.5 449.5Q185 440 170 440Q155 440 148 449.5Q141 459 141 481V569Q141 592 148 601.5Q155 611 170 611ZM547 700H664L212 0H95ZM597 -6Q666 -6 704 30Q742 66 742 128V222Q742 284 704 320Q666 356 597 356Q528 356 490.5 320Q453 284 453 222V128Q453 66 490.5 30Q528 -6 597 -6ZM597 261Q612 261 619.5 251Q627 241 627 219V131Q627 109 619.5 99.5Q612 90 597 90Q582 90 575 99.5Q568 109 568 131V219Q568 242 575 251.5Q582 261 597 261ZM927 -6Q996 -6 1034 30Q1072 66 1072 128V222Q1072 284 1034 320Q996 356 927 356Q858 356 820.5 320Q783 284 783 222V128Q783 66 820.5 30Q858 -6 927 -6ZM927 261Q942 261 949.5 251Q957 241 957 219V131Q957 109 949.5 99.5Q942 90 927 90Q912 90 905 99.5Q898 109 898 131V219Q898 242 905 251.5Q912 261 927 261Z" glyph-name="perthousand" horiz-adv-x="1092" unicode="&#8240;" /><glyph d="M464 443Q464 492 434 517.5Q404 543 345 543H250V344H345Q404 344 434 369Q464 394 464 443ZM653 444Q653 321 575 254.5Q497 188 348 188H250V0H64V700H348Q497 700 575 633.5Q653 567 653 444ZM1008 148H1069V0H979Q866 0 816 40.5Q766 81 766 187V404H700V538H766V670H942V538H1062V404H942V200Q942 169 955.5 158.5Q969 148 1008 148ZM906 10ZM867 0ZM974 738ZM1583 391V376H1413V388Q1413 407 1397.5 417.5Q1382 428 1352 428Q1323 428 1307 417.5Q1291 407 1291 389Q1291 377 1301 369Q1311 361 1335 356L1431 335Q1521 315 1558.5 276Q1596 237 1596 173Q1596 83 1535.5 35.5Q1475 -12 1358 -12Q1244 -12 1181.5 31.5Q1119 75 1119 149V166H1293V152Q1293 135 1310 125.5Q1327 116 1360 116Q1390 116 1406 126.5Q1422 137 1422 156Q1422 170 1412 178.5Q1402 187 1376 193L1291 212Q1241 223 1215.5 234Q1190 245 1172 260Q1148 279 1136.5 308Q1125 337 1125 376Q1125 455 1186.5 503.5Q1248 552 1356 552Q1462 552 1522.5 507.5Q1583 463 1583 391ZM1367 10ZM1357 540ZM1357 0Z" glyph-name="peseta" horiz-adv-x="1625" unicode="&#8359;" /><glyph d="M611 540V0H425V385H238V0Q192 0 145.5 0Q99 0 52 0V540Z" glyph-name="pi" horiz-adv-x="663" unicode="&#960;" /><glyph d="M342 117H185V275H31V426H185V584H342V426H498V275H342Z" glyph-name="plus" horiz-adv-x="529" unicode="+" /><glyph d="M208 519V644H365V519H521V372H365V247H208V372H54V519ZM54 203H521V56H54Z" glyph-name="plusminus" horiz-adv-x="575" unicode="&#177;" /><glyph d="M701 700V-126H515V545H250V-126Q158 -126 111.5 -126Q65 -126 64 -126V700Z" glyph-name="product" horiz-adv-x="765" unicode="&#8719;" /><glyph d="M551 540V-180H375V53Q351 22 313.5 5Q276 -12 232 -12Q145 -12 91 47Q37 106 37 202V338Q37 434 91 493Q145 552 232 552Q282 552 323 532Q364 512 386 475L395 540ZM290 143Q335 143 355 169Q375 195 375 256V283Q375 344 355 370Q335 396 290 396Q249 396 231 373Q213 350 213 293V246Q213 189 231 166Q249 143 290 143Z" glyph-name="q" horiz-adv-x="603" unicode="q" /><glyph d="M383 245V225H202V253Q202 301 226 331.5Q250 362 315 401Q361 431 373.5 448.5Q386 466 386 490Q386 524 362.5 542Q339 560 293 560Q246 560 222.5 540.5Q199 521 199 480V457H15V490Q15 594 87 653Q159 712 293 712Q420 712 494.5 655Q569 598 569 507Q569 457 545.5 411.5Q522 366 477 330Q467 322 425 294Q383 266 383 245ZM383 166V0H202V166Q247 166 292.5 166Q338 166 383 166Z" glyph-name="question" horiz-adv-x="586" unicode="?" /><glyph d="M201 294V314H382V286Q382 238 358 207.5Q334 177 269 138Q223 108 210.5 90.5Q198 73 198 49Q198 15 221.5 -3Q245 -21 291 -21Q338 -21 361.5 -1.5Q385 18 385 59V82H569V49Q569 -55 497 -114Q425 -173 291 -173Q164 -173 89.5 -116Q15 -59 15 32Q15 82 38.5 127.5Q62 173 107 209Q117 217 159 245Q201 273 201 294ZM201 373V539H382V373Q337 373 291.5 373Q246 373 201 373Z" glyph-name="questiondown" horiz-adv-x="583" unicode="&#191;" /><glyph d="M43 700H211L188 391H64ZM266 700H434L411 391H287Z" glyph-name="quotedbl" horiz-adv-x="476" unicode="&quot;" /><glyph d="M59.1 165.7H231.05V123.9L151.25 -143.05H30.6ZM278.1 165.7H450.05V123.9L370.25 -143.05H249.6Z" glyph-name="quotedblbase" horiz-adv-x="495" unicode="&#8222;" /><glyph d="M205.75 391.3H33.8V433.1L113.6 700.05H234.25ZM424.75 391.3H252.8V433.1L332.6 700.05H453.25Z" glyph-name="quotedblleft" horiz-adv-x="493" unicode="&#8220;" /><glyph d="M72.25 699.7H244.2V657.9L164.4 390.95H43.75ZM291.25 699.7H463.2V657.9L383.4 390.95H262.75Z" glyph-name="quotedblright" horiz-adv-x="488" unicode="&#8221;" /><glyph d="M205.75 391.3H33.8V433.1L113.6 700.05H234.25Z" glyph-name="quoteleft" horiz-adv-x="274" unicode="&#8216;" /><glyph d="M72.25 699.7H244.2V657.9L164.4 390.95H43.75Z" glyph-name="quoteright" horiz-adv-x="269" unicode="&#8217;" /><glyph d="M60.1 165.7H232.05V123.9L152.25 -143.05H31.6Z" glyph-name="quotesinglbase" horiz-adv-x="276" unicode="&#8218;" /><glyph d="M43 700H211L188 391H64Z" glyph-name="quotesingle" horiz-adv-x="253" unicode="'" /><glyph d="M228 261V0H52V540H208L219 462Q244 505 291.5 526.5Q339 548 408 548V383H375Q298 383 263 354Q228 325 228 261ZM230 540ZM139 0Z" glyph-name="r" horiz-adv-x="420" unicode="r" /><glyph d="M228 261V0H52V540H208L219 462Q244 505 291.5 526.5Q339 548 408 548V383H375Q298 383 263 354Q228 325 228 261ZM230 540ZM139 0ZM220 751H412L299 603H159ZM230 540Z" glyph-name="racute" horiz-adv-x="420" unicode="&#341;" /><glyph d="M122 385H20V540H265L331 291H346L474 700H668L422 0H254Z" glyph-name="radical" horiz-adv-x="669" unicode="&#8730;" /><glyph d="M228 261V0H52V540H208L219 462Q244 505 291.5 526.5Q339 548 408 548V383H375Q298 383 263 354Q228 325 228 261ZM230 540ZM139 0ZM174.5 751 228.5 690H230.5L285.5 751H422.5L308.5 603H151.5L37.5 751ZM230 540Z" glyph-name="rcaron" horiz-adv-x="420" unicode="&#345;" /><glyph d="M268 253Q174 253 107 320Q40 387 40 481Q40 576 106.5 643Q173 710 268 710Q363 710 430 643Q497 576 497 481Q497 386 430 319.5Q363 253 268 253ZM268 645Q200 645 152.5 597Q105 549 105 481Q105 414 153 366Q201 318 268 318Q336 318 383.5 365.5Q431 413 431 481Q431 549 383.5 597Q336 645 268 645ZM297 515Q297 526 290.5 531.5Q284 537 271 537H251V492H271Q284 492 290.5 497.5Q297 503 297 515ZM366 379H291L269 439H251V379H182V591H286Q326 591 347.5 571.5Q369 552 369 516Q369 494 361 477.5Q353 461 337 451Z" glyph-name="registered" horiz-adv-x="537" unicode="&#174;" /><glyph d="M123 714Q123 768 159 802.5Q195 837 250 837Q305 837 341 802.5Q377 768 377 714Q377 660 341 625.5Q305 591 250 591Q195 591 159 625.5Q123 660 123 714ZM212 714Q212 697 222.5 686.5Q233 676 250 676Q267 676 277.5 686.5Q288 697 288 714Q288 731 277.5 741.5Q267 752 250 752Q233 752 222.5 741.5Q212 731 212 714ZM250 540Z" glyph-name="ring" horiz-adv-x="500" unicode="&#730;" /><glyph d="M-3 861Q-3 915 33 949.5Q69 984 124 984Q179 984 215 949.5Q251 915 251 861Q251 807 215 772.5Q179 738 124 738Q69 738 33 772.5Q-3 807 -3 861ZM86 861Q86 844 96.5 833.5Q107 823 124 823Q141 823 151.5 833.5Q162 844 162 861Q162 878 151.5 888.5Q141 899 124 899Q107 899 96.5 888.5Q86 878 86 861ZM124 700Z" glyph-name="ring.case" horiz-adv-x="250" /><glyph d="M492 391V376H322V388Q322 407 306.5 417.5Q291 428 261 428Q232 428 216 417.5Q200 407 200 389Q200 377 210 369Q220 361 244 356L340 335Q430 315 467.5 276Q505 237 505 173Q505 83 444.5 35.5Q384 -12 267 -12Q153 -12 90.5 31.5Q28 75 28 149V166H202V152Q202 135 219 125.5Q236 116 269 116Q299 116 315 126.5Q331 137 331 156Q331 170 321 178.5Q311 187 285 193L200 212Q150 223 124.5 234Q99 245 81 260Q57 279 45.5 308Q34 337 34 376Q34 455 95.5 503.5Q157 552 265 552Q371 552 431.5 507.5Q492 463 492 391ZM276 10ZM266 540ZM266 0Z" glyph-name="s" horiz-adv-x="532" unicode="s" /><glyph d="M492 391V376H322V388Q322 407 306.5 417.5Q291 428 261 428Q232 428 216 417.5Q200 407 200 389Q200 377 210 369Q220 361 244 356L340 335Q430 315 467.5 276Q505 237 505 173Q505 83 444.5 35.5Q384 -12 267 -12Q153 -12 90.5 31.5Q28 75 28 149V166H202V152Q202 135 219 125.5Q236 116 269 116Q299 116 315 126.5Q331 137 331 156Q331 170 321 178.5Q311 187 285 193L200 212Q150 223 124.5 234Q99 245 81 260Q57 279 45.5 308Q34 337 34 376Q34 455 95.5 503.5Q157 552 265 552Q371 552 431.5 507.5Q492 463 492 391ZM276 10ZM266 540ZM266 0ZM256 751H448L335 603H195ZM266 540Z" glyph-name="sacute" horiz-adv-x="532" unicode="&#347;" /><glyph d="M492 391V376H322V388Q322 407 306.5 417.5Q291 428 261 428Q232 428 216 417.5Q200 407 200 389Q200 377 210 369Q220 361 244 356L340 335Q430 315 467.5 276Q505 237 505 173Q505 83 444.5 35.5Q384 -12 267 -12Q153 -12 90.5 31.5Q28 75 28 149V166H202V152Q202 135 219 125.5Q236 116 269 116Q299 116 315 126.5Q331 137 331 156Q331 170 321 178.5Q311 187 285 193L200 212Q150 223 124.5 234Q99 245 81 260Q57 279 45.5 308Q34 337 34 376Q34 455 95.5 503.5Q157 552 265 552Q371 552 431.5 507.5Q492 463 492 391ZM276 10ZM266 540ZM266 0ZM210.5 751 264.5 690H266.5L321.5 751H458.5L344.5 603H187.5L73.5 751ZM266 540Z" glyph-name="scaron" horiz-adv-x="532" unicode="&#353;" /><glyph d="M393 -140Q393 -195 360 -228Q327 -261 267 -261Q210 -261 177 -235Q144 -209 144 -167V-156H237V-157Q237 -163 243 -166Q249 -169 261 -169Q273 -169 278.5 -163Q284 -157 284 -144Q284 -134 277.5 -127.5Q271 -121 260 -121Q254 -121 249.5 -122Q245 -123 237 -127L163 -86L205 -8Q120 3 74 44.5Q28 86 28 149V166H202V152Q202 135 219 125.5Q236 116 269 116Q299 116 315 126.5Q331 137 331 156Q331 170 321 178.5Q311 187 285 193L200 212Q150 223 124.5 234Q99 245 81 260Q57 279 45.5 308Q34 337 34 376Q34 455 95.5 503.5Q157 552 265 552Q371 552 431.5 507.5Q492 463 492 391V376H322V388Q322 407 306.5 417.5Q291 428 261 428Q232 428 216 417.5Q200 407 200 389Q200 377 210 369Q220 361 244 356L340 335Q430 315 467.5 276Q505 237 505 173Q505 87 450 39.5Q395 -8 289 -12L276 -34H277Q332 -34 362.5 -63.5Q393 -93 393 -140Z" glyph-name="scedilla" horiz-adv-x="532" unicode="&#351;" /><glyph d="M492 391V376H322V388Q322 407 306.5 417.5Q291 428 261 428Q232 428 216 417.5Q200 407 200 389Q200 377 210 369Q220 361 244 356L340 335Q430 315 467.5 276Q505 237 505 173Q505 83 444.5 35.5Q384 -12 267 -12Q153 -12 90.5 31.5Q28 75 28 149V166H202V152Q202 135 219 125.5Q236 116 269 116Q299 116 315 126.5Q331 137 331 156Q331 170 321 178.5Q311 187 285 193L200 212Q150 223 124.5 234Q99 245 81 260Q57 279 45.5 308Q34 337 34 376Q34 455 95.5 503.5Q157 552 265 552Q371 552 431.5 507.5Q492 463 492 391ZM276 10ZM266 540ZM266 0ZM321.5 603 266.5 664H264.5L210.5 603H73.5L187.5 751H344.5L458.5 603ZM266 540Z" glyph-name="scircumflex" horiz-adv-x="532" unicode="&#349;" /><glyph d="M520 316Q520 298 517 280.5Q514 263 507 247L194 374Q107 410 75 447.5Q43 485 43 542Q43 620 104.5 666Q166 712 278 712Q387 712 449.5 665.5Q512 619 512 544V532H344V541Q344 561 326 571.5Q308 582 274 582Q240 582 222 573Q204 564 204 548Q204 539 211 533Q218 527 244 518L374 472Q458 442 489 406.5Q520 371 520 316ZM43 265Q43 284 46.5 301Q50 318 56 334L369 207Q457 171 488.5 134Q520 97 520 39Q520 -39 458 -85Q396 -131 285 -131Q176 -131 113.5 -84.5Q51 -38 51 37V49H219V40Q219 20 237 9.5Q255 -1 289 -1Q323 -1 341 8Q359 17 359 33Q359 42 352.5 48Q346 54 319 63L189 109Q105 139 74 174.5Q43 210 43 265Z" glyph-name="section" horiz-adv-x="563" unicode="&#167;" /><glyph d="M250 539V373H69V539Q114 539 159.5 539Q205 539 250 539ZM69 446ZM69 166H250V122L166 -159H39Z" glyph-name="semicolon" horiz-adv-x="305" unicode=";" /><glyph d="M21 540V700H547V559L276 0H78L338 540Z" glyph-name="seven" horiz-adv-x="566" unicode="7" /><glyph d="M14 256V350H292V267L165 0H43L162 256Z" glyph-name="seven.denominator" horiz-adv-x="304" unicode="&#63068;" /><glyph d="M14 116V210H292V127L165 -140H43L162 116Z" glyph-name="seven.inferior" horiz-adv-x="304" unicode="&#8327;" /><glyph d="M14 606V700H292V617L165 350H43L162 606Z" glyph-name="seven.numerator" horiz-adv-x="304" unicode="&#63080;" /><glyph d="M14 746V840H292V757L165 490H43L162 746Z" glyph-name="seven.superior" horiz-adv-x="304" unicode="&#8311;" /><glyph d="M55 540V700H581V559L310 0H112L372 540Z" glyph-name="seven.tab" horiz-adv-x="635" unicode="&#65303;" /><glyph d="M596 227Q596 115 524.5 51.5Q453 -12 321 -12Q189 -12 118 52Q47 116 47 228V450Q47 571 118.5 641.5Q190 712 320 712Q446 712 513 658.5Q580 605 580 511V499H400V507Q400 532 380 546.5Q360 561 324 561Q277 561 253.5 538.5Q230 516 230 472V406Q256 423 289 432Q322 441 363 441Q472 441 534 382.5Q596 324 596 227ZM231 214Q231 173 254 151Q277 129 321 129Q364 129 387 151.5Q410 174 410 215Q410 256 387.5 278Q365 300 321 300Q276 300 253.5 278Q231 256 231 214Z" glyph-name="six" horiz-adv-x="631" unicode="6" /><glyph d="M316 116Q316 60 278 27Q240 -6 171 -6Q102 -6 64.5 27Q27 60 27 117V222Q27 284 64.5 320Q102 356 171 356Q237 356 272.5 328Q308 300 308 254V248H196V251Q196 258 188.5 262.5Q181 267 170 267Q155 267 147.5 259Q140 251 140 235V215Q154 219 169 221.5Q184 224 198 224Q252 224 284 194Q316 164 316 116ZM139 108Q139 92 147 83.5Q155 75 171 75Q186 75 194 84Q202 93 202 109Q202 125 194 134Q186 143 171 143Q155 143 147 134Q139 125 139 108Z" glyph-name="six.denominator" horiz-adv-x="337" unicode="&#63067;" /><glyph d="M316 -24Q316 -80 278 -113Q240 -146 171 -146Q102 -146 64.5 -113Q27 -80 27 -23V82Q27 144 64.5 180Q102 216 171 216Q237 216 272.5 188Q308 160 308 114V108H196V111Q196 118 188.5 122.5Q181 127 170 127Q155 127 147.5 119Q140 111 140 95V75Q154 79 169 81.5Q184 84 198 84Q252 84 284 54Q316 24 316 -24ZM139 -32Q139 -48 147 -56.5Q155 -65 171 -65Q186 -65 194 -56Q202 -47 202 -31Q202 -15 194 -6Q186 3 171 3Q155 3 147 -6Q139 -15 139 -32Z" glyph-name="six.inferior" horiz-adv-x="337" unicode="&#8326;" /><glyph d="M316 466Q316 410 278 377Q240 344 171 344Q102 344 64.5 377Q27 410 27 467V572Q27 634 64.5 670Q102 706 171 706Q237 706 272.5 678Q308 650 308 604V598H196V601Q196 608 188.5 612.5Q181 617 170 617Q155 617 147.5 609Q140 601 140 585V565Q154 569 169 571.5Q184 574 198 574Q252 574 284 544Q316 514 316 466ZM139 458Q139 442 147 433.5Q155 425 171 425Q186 425 194 434Q202 443 202 459Q202 475 194 484Q186 493 171 493Q155 493 147 484Q139 475 139 458Z" glyph-name="six.numerator" horiz-adv-x="337" unicode="&#63079;" /><glyph d="M316 606Q316 550 278 517Q240 484 171 484Q102 484 64.5 517Q27 550 27 607V712Q27 774 64.5 810Q102 846 171 846Q237 846 272.5 818Q308 790 308 744V738H196V741Q196 748 188.5 752.5Q181 757 170 757Q155 757 147.5 749Q140 741 140 725V705Q154 709 169 711.5Q184 714 198 714Q252 714 284 684Q316 654 316 606ZM139 598Q139 582 147 573.5Q155 565 171 565Q186 565 194 574Q202 583 202 599Q202 615 194 624Q186 633 171 633Q155 633 147 624Q139 615 139 598Z" glyph-name="six.superior" horiz-adv-x="337" unicode="&#8310;" /><glyph d="M599 227Q599 115 527.5 51.5Q456 -12 324 -12Q192 -12 121 52Q50 116 50 228V450Q50 571 121.5 641.5Q193 712 323 712Q449 712 516 658.5Q583 605 583 511V499H403V507Q403 532 383 546.5Q363 561 327 561Q280 561 256.5 538.5Q233 516 233 472V406Q259 423 292 432Q325 441 366 441Q475 441 537 382.5Q599 324 599 227ZM234 214Q234 173 257 151Q280 129 324 129Q367 129 390 151.5Q413 174 413 215Q413 256 390.5 278Q368 300 324 300Q279 300 256.5 278Q234 256 234 214Z" glyph-name="six.tab" horiz-adv-x="635" unicode="&#65302;" /><glyph d="M406 758H580L185 -126H11Z" glyph-name="slash" horiz-adv-x="591" unicode="/" /><glyph glyph-name="space" horiz-adv-x="210" unicode=" " /><glyph d="M300 145H616V0H42V133L114 144V254H43V383H114V463Q114 579 184 645.5Q254 712 383 712Q505 712 572 650.5Q639 589 639 485V447H457V475Q457 510 436.5 530Q416 550 379 550Q339 550 319.5 529Q300 508 300 463V383H429V254H300Z" glyph-name="sterling" horiz-adv-x="672" unicode="&#163;" /><glyph d="M319 535 436 332V281L313 39H580V-126H19V-73L233 311L19 654V700H580V535Z" glyph-name="summation" horiz-adv-x="619" unicode="&#8721;" /><glyph d="M325 148H386V0H296Q183 0 133 40.5Q83 81 83 187V404H17V538H83V670H259V538H379V404H259V200Q259 169 272.5 158.5Q286 148 325 148ZM223 10ZM184 0ZM291 738Z" glyph-name="t" horiz-adv-x="413" unicode="t" /><glyph d="M326 148H387V0H297Q184 0 134 40.5Q84 81 84 187V248H28V343H84V404H18V538H84V670H260V538H380V404H260V343H367V248H260V200Q260 169 273.5 158.5Q287 148 326 148Z" glyph-name="tbar" horiz-adv-x="415" unicode="&#359;" /><glyph d="M325 148H386V0H296Q183 0 133 40.5Q83 81 83 187V404H17V538H83V670H259V538H379V404H259V200Q259 169 272.5 158.5Q286 148 325 148ZM223 10ZM184 0ZM291 738ZM291 780H421V736L381 571H291ZM291 738Z" glyph-name="tcaron" horiz-adv-x="413" unicode="&#357;" /><glyph d="M313 144Q354 144 372 167Q390 190 390 247V294Q390 351 372 374Q354 397 313 397Q268 397 248 371Q228 345 228 284V257Q228 196 248 170Q268 144 313 144ZM371 -12Q327 -12 289 4Q251 20 228 50V-164H52V730H228V487Q252 518 289.5 535Q327 552 371 552Q461 552 513.5 495Q566 438 566 338V202Q566 102 513.5 45Q461 -12 371 -12Z" glyph-name="thorn" horiz-adv-x="603" unicode="&#254;" /><glyph d="M583 211Q583 108 511 48Q439 -12 308 -12Q179 -12 106.5 44.5Q34 101 34 194V224H216V204Q216 174 238 159Q260 144 304 144Q350 144 373.5 163.5Q397 183 397 220Q397 253 377.5 270.5Q358 288 321 288H225V430H331Q356 430 369.5 446Q383 462 383 492Q383 523 363 539.5Q343 556 304 556Q265 556 245.5 542.5Q226 529 226 502V484H44V512Q44 601 114 656.5Q184 712 309 712Q434 712 501.5 656.5Q569 601 569 504Q569 462 553 426.5Q537 391 507 365Q544 340 563.5 300.5Q583 261 583 211Z" glyph-name="three" horiz-adv-x="622" unicode="3" /><glyph d="M310 107Q310 56 272 25Q234 -6 165 -6Q97 -6 58.5 23.5Q20 53 20 99V116H133V107Q133 97 140.5 91.5Q148 86 162 86Q178 86 186.5 92.5Q195 99 195 112Q195 126 188.5 132Q182 138 168 138H127V218H167Q175 218 179 223.5Q183 229 183 242Q183 253 177.5 258.5Q172 264 161 264Q149 264 143.5 259.5Q138 255 138 246V239H26V254Q26 299 62 327.5Q98 356 162 356Q226 356 261.5 326.5Q297 297 297 248Q297 228 289.5 211.5Q282 195 267 183Q287 171 298.5 151.5Q310 132 310 107Z" glyph-name="three.denominator" horiz-adv-x="331" unicode="&#63064;" /><glyph d="M310 -33Q310 -84 272 -115Q234 -146 165 -146Q97 -146 58.5 -116.5Q20 -87 20 -41V-24H133V-33Q133 -43 140.5 -48.5Q148 -54 162 -54Q178 -54 186.5 -47.5Q195 -41 195 -28Q195 -14 188.5 -8Q182 -2 168 -2H127V78H167Q175 78 179 83.5Q183 89 183 102Q183 113 177.5 118.5Q172 124 161 124Q149 124 143.5 119.5Q138 115 138 106V99H26V114Q26 159 62 187.5Q98 216 162 216Q226 216 261.5 186.5Q297 157 297 108Q297 88 289.5 71.5Q282 55 267 43Q287 31 298.5 11.5Q310 -8 310 -33Z" glyph-name="three.inferior" horiz-adv-x="331" unicode="&#8323;" /><glyph d="M310 457Q310 406 272 375Q234 344 165 344Q97 344 58.5 373.5Q20 403 20 449V466H133V457Q133 447 140.5 441.5Q148 436 162 436Q178 436 186.5 442.5Q195 449 195 462Q195 476 188.5 482Q182 488 168 488H127V568H167Q175 568 179 573.5Q183 579 183 592Q183 603 177.5 608.5Q172 614 161 614Q149 614 143.5 609.5Q138 605 138 596V589H26V604Q26 649 62 677.5Q98 706 162 706Q226 706 261.5 676.5Q297 647 297 598Q297 578 289.5 561.5Q282 545 267 533Q287 521 298.5 501.5Q310 482 310 457Z" glyph-name="three.numerator" horiz-adv-x="331" unicode="&#63076;" /><glyph d="M589 211Q589 108 517 48Q445 -12 314 -12Q185 -12 112.5 44.5Q40 101 40 194V224H222V204Q222 174 244 159Q266 144 310 144Q356 144 379.5 163.5Q403 183 403 220Q403 253 383.5 270.5Q364 288 327 288H231V430H337Q362 430 375.5 446Q389 462 389 492Q389 523 369 539.5Q349 556 310 556Q271 556 251.5 542.5Q232 529 232 502V484H50V512Q50 601 120 656.5Q190 712 315 712Q440 712 507.5 656.5Q575 601 575 504Q575 462 559 426.5Q543 391 513 365Q550 340 569.5 300.5Q589 261 589 211Z" glyph-name="three.tab" horiz-adv-x="635" unicode="&#65299;" /><glyph d="M313 457Q313 406 275 375Q237 344 168 344Q100 344 61.5 373.5Q23 403 23 449V466H136V457Q136 447 143.5 441.5Q151 436 165 436Q181 436 189.5 442.5Q198 449 198 462Q198 476 191.5 482Q185 488 171 488H130V568H170Q178 568 182 573.5Q186 579 186 592Q186 603 180.5 608.5Q175 614 164 614Q152 614 146.5 609.5Q141 605 141 596V589H29V604Q29 649 65 677.5Q101 706 165 706Q229 706 264.5 676.5Q300 647 300 598Q300 578 292.5 561.5Q285 545 270 533Q290 521 301.5 501.5Q313 482 313 457ZM563 700H680L228 0H111ZM523 350H635L592 171H650V350H766V0H650V76H477V170Z" glyph-name="threequarters" horiz-adv-x="803" unicode="&#190;" /><glyph d="M310 597Q310 546 272 515Q234 484 165 484Q97 484 58.5 513.5Q20 543 20 589V606H133V597Q133 587 140.5 581.5Q148 576 162 576Q178 576 186.5 582.5Q195 589 195 602Q195 616 188.5 622Q182 628 168 628H127V708H167Q175 708 179 713.5Q183 719 183 732Q183 743 177.5 748.5Q172 754 161 754Q149 754 143.5 749.5Q138 745 138 736V729H26V744Q26 789 62 817.5Q98 846 162 846Q226 846 261.5 816.5Q297 787 297 738Q297 718 289.5 701.5Q282 685 267 673Q287 661 298.5 641.5Q310 622 310 597Z" glyph-name="threesuperior" horiz-adv-x="331" unicode="&#179;" /><glyph d="M337 597Q312 597 295.5 600.5Q279 604 266 611L224 634Q213 640 204 642.5Q195 645 184 645Q175 645 167.5 642Q160 639 154 632Q148 626 144 619Q140 612 139 603H48Q48 676 81 718.5Q114 761 172 761Q194 761 208 757.5Q222 754 234 747L274 723Q286 716 298.5 712Q311 708 321 708Q329 708 336 712Q343 716 348 724Q353 731 356 738.5Q359 746 360 755H450Q450 674 422 635.5Q394 597 337 597ZM249 540Z" glyph-name="tilde" horiz-adv-x="500" unicode="&#732;" /><glyph d="M213 742Q188 742 171.5 745.5Q155 749 142 756L100 779Q89 785 80 787.5Q71 790 60 790Q51 790 43.5 787Q36 784 30 777Q24 771 20 764Q16 757 15 748H-76Q-76 821 -43 863.5Q-10 906 48 906Q70 906 84 902.5Q98 899 110 892L150 868Q162 861 174.5 857Q187 853 197 853Q205 853 212 857Q219 861 224 869Q229 876 232 883.5Q235 891 236 900H326Q326 819 298 780.5Q270 742 213 742ZM125 700Z" glyph-name="tilde.case" horiz-adv-x="250" /><glyph d="M385 700V574H278V292H132V574H26V700ZM678 402H620L571 472V292H430V700H564L650 552L733 700H871V292H725V473Z" glyph-name="trademark" horiz-adv-x="931" unicode="&#8482;" /><glyph d="M402 484Q402 516 379 534Q356 552 313 552Q269 552 247 531.5Q225 511 225 470V450H43V480Q43 584 116 648Q189 712 318 712Q448 712 518 652Q588 592 588 489Q588 413 550.5 359Q513 305 442 278L282 215Q252 203 243 193.5Q234 184 234 167V159H584V0H48V183Q48 234 72.5 270Q97 306 149 329L360 418Q382 428 392 443.5Q402 459 402 484Z" glyph-name="two" horiz-adv-x="630" unicode="2" /><glyph d="M198 239Q198 250 190.5 256Q183 262 168 262Q153 262 146 254.5Q139 247 139 230V220H26V236Q26 289 64.5 322.5Q103 356 170 356Q238 356 275.5 324.5Q313 293 313 242Q313 203 294 175.5Q275 148 235 132L143 95V94H311V0H28V94Q28 122 40 140.5Q52 159 79 170L184 214Q192 218 195 222Q198 226 198 239Z" glyph-name="two.denominator" horiz-adv-x="339" unicode="&#63063;" /><glyph d="M198 99Q198 110 190.5 116Q183 122 168 122Q153 122 146 114.5Q139 107 139 90V80H26V96Q26 149 64.5 182.5Q103 216 170 216Q238 216 275.5 184.5Q313 153 313 102Q313 63 294 35.5Q275 8 235 -8L143 -45V-46H311V-140H28V-46Q28 -18 40 0.5Q52 19 79 30L184 74Q192 78 195 82Q198 86 198 99Z" glyph-name="two.inferior" horiz-adv-x="339" unicode="&#8322;" /><glyph d="M198 589Q198 600 190.5 606Q183 612 168 612Q153 612 146 604.5Q139 597 139 580V570H26V586Q26 639 64.5 672.5Q103 706 170 706Q238 706 275.5 674.5Q313 643 313 592Q313 553 294 525.5Q275 498 235 482L143 445V444H311V350H28V444Q28 472 40 490.5Q52 509 79 520L184 564Q192 568 195 572Q198 576 198 589Z" glyph-name="two.numerator" horiz-adv-x="339" unicode="&#63075;" /><glyph d="M405 484Q405 516 382 534Q359 552 316 552Q272 552 250 531.5Q228 511 228 470V450H46V480Q46 584 119 648Q192 712 321 712Q451 712 521 652Q591 592 591 489Q591 413 553.5 359Q516 305 445 278L285 215Q255 203 246 193.5Q237 184 237 167V159H587V0H51V183Q51 234 75.5 270Q100 306 152 329L363 418Q385 428 395 443.5Q405 459 405 484Z" glyph-name="two.tab" horiz-adv-x="635" unicode="&#65298;" /><glyph d="M198 729Q198 740 190.5 746Q183 752 168 752Q153 752 146 744.5Q139 737 139 720V710H26V726Q26 779 64.5 812.5Q103 846 170 846Q238 846 275.5 814.5Q313 783 313 732Q313 693 294 665.5Q275 638 235 622L143 585V584H311V490H28V584Q28 612 40 630.5Q52 649 79 660L184 704Q192 708 195 712Q198 716 198 729Z" glyph-name="twosuperior" horiz-adv-x="339" unicode="&#178;" /><glyph d="M553 0H397L387 68Q365 30 325 9Q285 -12 236 -12Q149 -12 98 39Q47 90 47 180V540H223V225Q223 181 240 162.5Q257 144 294 144Q338 144 357.5 170Q377 196 377 257V540H553ZM300 540ZM445 0Z" glyph-name="u" horiz-adv-x="605" unicode="u" /><glyph d="M553 0H397L387 68Q365 30 325 9Q285 -12 236 -12Q149 -12 98 39Q47 90 47 180V540H223V225Q223 181 240 162.5Q257 144 294 144Q338 144 357.5 170Q377 196 377 257V540H553ZM300 540ZM445 0ZM290 751H482L369 603H229ZM300 540Z" glyph-name="uacute" horiz-adv-x="605" unicode="&#250;" /><glyph d="M553 0H397L387 68Q365 30 325 9Q285 -12 236 -12Q149 -12 98 39Q47 90 47 180V540H223V225Q223 181 240 162.5Q257 144 294 144Q338 144 357.5 170Q377 196 377 257V540H553ZM300 540ZM445 0ZM347.5 741V750H455.5V741Q455.5 671 414 631Q372.5 591 299.5 591Q226.5 591 185.5 631Q144.5 671 144.5 741V750H252.5V741Q252.5 719 265.5 706Q278.5 693 299.5 693Q321.5 693 334.5 706Q347.5 719 347.5 741ZM300 540Z" glyph-name="ubreve" horiz-adv-x="605" unicode="&#365;" /><glyph d="M553 0H397L387 68Q365 30 325 9Q285 -12 236 -12Q149 -12 98 39Q47 90 47 180V540H223V225Q223 181 240 162.5Q257 144 294 144Q338 144 357.5 170Q377 196 377 257V540H553ZM300 540ZM445 0ZM355.5 603 300.5 664H298.5L244.5 603H107.5L221.5 751H378.5L492.5 603ZM300 540Z" glyph-name="ucircumflex" horiz-adv-x="605" unicode="&#251;" /><glyph d="M553 0H397L387 68Q365 30 325 9Q285 -12 236 -12Q149 -12 98 39Q47 90 47 180V540H223V225Q223 181 240 162.5Q257 144 294 144Q338 144 357.5 170Q377 196 377 257V540H553ZM300 540ZM445 0ZM276.5 730V602H123.5V730Q161.5 730 200 730Q238.5 730 276.5 730ZM476.5 730V602H323.5V730Q361.5 730 400 730Q438.5 730 476.5 730ZM300 540Z" glyph-name="udieresis" horiz-adv-x="605" unicode="&#252;" /><glyph d="M553 0H397L387 68Q365 30 325 9Q285 -12 236 -12Q149 -12 98 39Q47 90 47 180V540H223V225Q223 181 240 162.5Q257 144 294 144Q338 144 357.5 170Q377 196 377 257V540H553ZM300 540ZM445 0ZM373 603H232L119 751H312ZM300 540Z" glyph-name="ugrave" horiz-adv-x="605" unicode="&#249;" /><glyph d="M553 0H397L387 68Q365 30 325 9Q285 -12 236 -12Q149 -12 98 39Q47 90 47 180V540H223V225Q223 181 240 162.5Q257 144 294 144Q338 144 357.5 170Q377 196 377 257V540H553ZM300 540ZM445 0ZM156 751H353L251 603H104ZM405 751H602L474 603H327ZM300 540Z" glyph-name="uhungarumlaut" horiz-adv-x="605" unicode="&#369;" /><glyph d="M553 0H397L387 68Q365 30 325 9Q285 -12 236 -12Q149 -12 98 39Q47 90 47 180V540H223V225Q223 181 240 162.5Q257 144 294 144Q338 144 357.5 170Q377 196 377 257V540H553ZM300 540ZM445 0ZM132 603V715H468V603ZM300 540Z" glyph-name="umacron" horiz-adv-x="605" unicode="&#363;" /><glyph d="M0 -40H504V-172H0Q0 -139 0 -106Q0 -73 0 -40Z" glyph-name="underscore" horiz-adv-x="504" unicode="_" /><glyph glyph-name="uni00A0" horiz-adv-x="210" unicode="&#160;" /><glyph d="M52 407H361V239H52Q52 281 52 323Q52 365 52 407Z" glyph-name="uni00AD" horiz-adv-x="413" unicode="&#173;" /><glyph d="M369 368H640V255Q640 123 565 55.5Q490 -12 343 -12Q196 -12 120.5 55.5Q45 123 45 250V450Q45 572 121.5 642Q198 712 341 712Q482 712 559 652.5Q636 593 636 490V465H452V480Q452 514 424 532Q396 550 341 550Q286 550 258.5 524.5Q231 499 231 450V250Q231 198 258.5 174Q286 150 343 150Q397 150 426.5 168Q456 186 456 219V232H369ZM342 700ZM342.5 0ZM254.5 -60H430.5V-104L371.5 -269H235.5ZM342.5 -270ZM342.5 0Z" glyph-name="uni0122" horiz-adv-x="679" unicode="&#290;" /><glyph d="M289 192Q332 192 353 215.5Q374 239 374 287V307Q374 355 353 378.5Q332 402 289 402Q249 402 230.5 379.5Q212 357 212 307V287Q212 237 230.5 214.5Q249 192 289 192ZM297 -190Q178 -190 115 -142.5Q52 -95 52 -9V-6H217V-9Q217 -32 236.5 -43.5Q256 -55 295 -55Q335 -55 354.5 -38.5Q374 -22 374 13V106Q350 75 312.5 58Q275 41 231 41Q141 41 88.5 98Q36 155 36 255V338Q36 438 88.5 495Q141 552 231 552Q281 552 322 532Q363 512 385 475L394 540H550V30Q550 -78 485.5 -134Q421 -190 297 -190ZM309 540ZM397 595H221V639L280 804H416ZM309 540Z" glyph-name="uni0123" horiz-adv-x="602" unicode="&#291;" /><glyph d="M315 256 249 176V0H63V700H249V432L460 700H680L442 408L681 0H462ZM353 0ZM265 -60H441V-104L382 -269H246ZM353 -270ZM353 0Z" glyph-name="uni0136" horiz-adv-x="680" unicode="&#310;" /><glyph d="M274 174 228 119V0H52V730H228V357L376 540H582L391 310L585 0H380ZM302 0ZM214 -60H390V-104L331 -269H195ZM302 -270ZM302 0Z" glyph-name="uni0137" horiz-adv-x="579" unicode="&#311;" /><glyph d="M557 0H63V700H249V162H557ZM154 700ZM310 0ZM320 700ZM343 350ZM222 -60H398V-104L339 -269H203ZM310 -270ZM310 0Z" glyph-name="uni013B" horiz-adv-x="571" unicode="&#315;" /><glyph d="M228 730V0H52V730ZM140 0ZM140 730ZM290 700ZM290 350ZM52 -60H228V-104L169 -269H33ZM140 -270ZM140 0Z" glyph-name="uni013C" horiz-adv-x="280" unicode="&#316;" /><glyph d="M664 0H510L239 369V0H63V700H217L488 329V700H664ZM363.5 700ZM363.5 0ZM275.5 -60H451.5V-104L392.5 -269H256.5ZM363.5 -270ZM363.5 0Z" glyph-name="uni0145" horiz-adv-x="727" unicode="&#325;" /><glyph d="M228 283V0H52V540H208L218 471Q240 509 281 530.5Q322 552 371 552Q459 552 510.5 495Q562 438 562 338V0H386V293Q386 349 368.5 372.5Q351 396 313 396Q268 396 248 370Q228 344 228 283ZM307 540ZM307 0ZM78 581ZM219 -60H395V-104L336 -269H200ZM307 -270ZM307 0Z" glyph-name="uni0146" horiz-adv-x="609" unicode="&#326;" /><glyph d="M464 459Q464 501 434.5 523Q405 545 347 545H249V374H347Q405 374 434.5 395.5Q464 417 464 459ZM444 0 346 221H249V0H63V700H346Q495 700 573.5 638Q652 576 652 462Q652 391 620 338Q588 285 527 255L642 0ZM252 -60H428V-104L369 -269H233Z" glyph-name="uni0156" horiz-adv-x="686" unicode="&#342;" /><glyph d="M228 261V0H52V540H208L219 462Q244 505 291.5 526.5Q339 548 408 548V383H375Q298 383 263 354Q228 325 228 261ZM230 540ZM139 0ZM51 -60H227V-104L168 -269H32ZM139 -270ZM139 0Z" glyph-name="uni0157" horiz-adv-x="420" unicode="&#343;" /><glyph d="M426 -140Q426 -195 393 -228Q360 -261 300 -261Q243 -261 210 -235Q177 -209 177 -167V-156H270V-157Q270 -163 276 -166Q282 -169 294 -169Q306 -169 311.5 -163Q317 -157 317 -144Q317 -134 310.5 -127.5Q304 -121 293 -121Q287 -121 282.5 -122Q278 -123 270 -127L196 -86L243 0H210V538H13V700H594V538H396V0H330L309 -34H310Q365 -34 395.5 -63.5Q426 -93 426 -140Z" glyph-name="uni0162" horiz-adv-x="607" unicode="&#354;" /><glyph d="M341 -140Q341 -195 308 -228Q275 -261 215 -261Q158 -261 125 -235Q92 -209 92 -167V-156H185V-157Q185 -163 191 -166Q197 -169 209 -169Q221 -169 226.5 -163Q232 -157 232 -144Q232 -134 225.5 -127.5Q219 -121 208 -121Q202 -121 197.5 -122Q193 -123 185 -127L111 -86L169 20Q125 39 105 77Q85 115 85 187V404H19V538H85V670H261V538H381V404H261V200Q261 169 274.5 158.5Q288 148 327 148H388V0H298Q288 0 276.5 0.5Q265 1 246 2L224 -34H225Q280 -34 310.5 -63.5Q341 -93 341 -140Z" glyph-name="uni0163" horiz-adv-x="415" unicode="&#355;" /><glyph d="M607 502V484H422V498Q422 529 395.5 546Q369 563 318 563Q274 563 249.5 547.5Q225 532 225 507Q225 483 239.5 470Q254 457 289 451L420 427Q518 409 569.5 358.5Q621 308 621 229Q621 111 546.5 49.5Q472 -12 327 -12Q183 -12 107 44.5Q31 101 31 202V218H216V206Q216 174 243.5 156.5Q271 139 323 139Q376 139 403.5 155.5Q431 172 431 203Q431 229 412 243Q393 257 350 265L220 289Q133 305 88.5 356Q44 407 44 492Q44 589 119.5 650.5Q195 712 323 712Q455 712 531 653.5Q607 595 607 502ZM326 10ZM335.6 700ZM326 0ZM238 -60H414V-104L355 -269H219ZM326 -270ZM326 0Z" glyph-name="uni0218" horiz-adv-x="653" unicode="&#536;" /><glyph d="M492 391V376H322V388Q322 407 306.5 417.5Q291 428 261 428Q232 428 216 417.5Q200 407 200 389Q200 377 210 369Q220 361 244 356L340 335Q430 315 467.5 276Q505 237 505 173Q505 83 444.5 35.5Q384 -12 267 -12Q153 -12 90.5 31.5Q28 75 28 149V166H202V152Q202 135 219 125.5Q236 116 269 116Q299 116 315 126.5Q331 137 331 156Q331 170 321 178.5Q311 187 285 193L200 212Q150 223 124.5 234Q99 245 81 260Q57 279 45.5 308Q34 337 34 376Q34 455 95.5 503.5Q157 552 265 552Q371 552 431.5 507.5Q492 463 492 391ZM276 10ZM266 540ZM266 0ZM178 -60H354V-104L295 -269H159ZM266 -270ZM266 0Z" glyph-name="uni0219" horiz-adv-x="532" unicode="&#537;" /><glyph d="M594 700V538H396V0H210V538H13V700ZM303.5 10ZM303.5 700ZM303.5 0ZM215.5 -60H391.5V-104L332.5 -269H196.5ZM303.5 -270ZM303.5 0Z" glyph-name="uni021A" horiz-adv-x="607" unicode="&#538;" /><glyph d="M325 148H386V0H296Q183 0 133 40.5Q83 81 83 187V404H17V538H83V670H259V538H379V404H259V200Q259 169 272.5 158.5Q286 148 325 148ZM223 10ZM184 0ZM291 738ZM96 -60H272V-104L213 -269H77ZM184 -270ZM184 0Z" glyph-name="uni021B" horiz-adv-x="413" unicode="&#539;" /><glyph d="M-7 -180H-70V-37H-27Q13 -37 32.5 -23.5Q52 -10 52 19V540H228V26Q228 -80 169.5 -130Q111 -180 -7 -180ZM136 540Z" glyph-name="uni0237" horiz-adv-x="280" unicode="&#567;" /><glyph d="M82 603V715H418V603ZM250 540Z" glyph-name="uni02C9" horiz-adv-x="500" unicode="&#713;" /><glyph d="M419 700 600 0H10L192 700ZM303 505 223 145H387L308 505Z" glyph-name="uni0394" horiz-adv-x="610" unicode="&#916;" /><glyph d="M468 378V440Q468 495 438.5 522.5Q409 550 350 550Q291 550 261.5 522.5Q232 495 232 440V378Q232 317 254 287.5Q276 258 320 258V0H64V142H203V149Q127 170 86.5 227.5Q46 285 46 368V450Q46 573 124.5 642.5Q203 712 350 712Q497 712 575.5 642.5Q654 573 654 450V368Q654 285 613.5 227.5Q573 170 497 149V142H636V0H380V258Q424 258 446 287.5Q468 317 468 378Z" glyph-name="uni03A9" horiz-adv-x="698" unicode="&#937;" /><glyph d="M241 -12Q229 -12 223.5 -12Q218 -12 213 -11L228 -180H52V540H228V225Q228 181 245 162.5Q262 144 299 144Q343 144 362.5 170Q382 196 382 257V540H558V0H402L392 68Q370 30 330 9Q290 -12 241 -12Z" glyph-name="uni03BC" horiz-adv-x="610" unicode="&#956;" /><glyph d="M494 153V0H330Q212 0 154 45Q96 90 90 192Q85 191 79 189Q73 187 61 183Q56 181 53 180.5Q50 180 48 179L11 315Q22 319 40 325Q58 331 89 341V491Q89 593 149 652.5Q209 712 317 712Q413 712 464.5 663.5Q516 615 516 531Q516 446 454.5 377Q393 308 265 254V240Q265 193 284 173Q303 153 345 153ZM322 577Q293 577 279 556Q265 535 265 491V414Q318 443 344 472Q370 501 370 531Q370 549 356.5 563Q343 577 322 577Z" glyph-name="uni2113" horiz-adv-x="539" unicode="&#8467;" /><glyph d="M36 579V681L139 699H222V445H293V350H36V445H107V586ZM567 700H684L232 0H115ZM764 107Q764 56 726 25Q688 -6 619 -6Q551 -6 512.5 23.5Q474 53 474 99V116H587V107Q587 97 594.5 91.5Q602 86 616 86Q632 86 640.5 92.5Q649 99 649 112Q649 126 642.5 132Q636 138 622 138H581V218H621Q629 218 633 223.5Q637 229 637 242Q637 253 631.5 258.5Q626 264 615 264Q603 264 597.5 259.5Q592 255 592 246V239H480V254Q480 299 516 327.5Q552 356 616 356Q680 356 715.5 326.5Q751 297 751 248Q751 228 743.5 211.5Q736 195 721 183Q741 171 752.5 151.5Q764 132 764 107Z" glyph-name="uni2153" horiz-adv-x="784" unicode="&#8531;" /><glyph d="M202 589Q202 600 194.5 606Q187 612 172 612Q157 612 150 604.5Q143 597 143 580V570H30V586Q30 639 68.5 672.5Q107 706 174 706Q242 706 279.5 674.5Q317 643 317 592Q317 553 298 525.5Q279 498 239 482L147 445V444H315V350H32V444Q32 472 44 490.5Q56 509 83 520L188 564Q196 568 199 572Q202 576 202 589ZM588 700H705L253 0H136ZM785 107Q785 56 747 25Q709 -6 640 -6Q572 -6 533.5 23.5Q495 53 495 99V116H608V107Q608 97 615.5 91.5Q623 86 637 86Q653 86 661.5 92.5Q670 99 670 112Q670 126 663.5 132Q657 138 643 138H602V218H642Q650 218 654 223.5Q658 229 658 242Q658 253 652.5 258.5Q647 264 636 264Q624 264 618.5 259.5Q613 255 613 246V239H501V254Q501 299 537 327.5Q573 356 637 356Q701 356 736.5 326.5Q772 297 772 248Q772 228 764.5 211.5Q757 195 742 183Q762 171 773.5 151.5Q785 132 785 107Z" glyph-name="uni2154" horiz-adv-x="805" unicode="&#8532;" /><glyph d="M36 579V681L139 699H222V445H293V350H36V445H107V586ZM567 700H684L232 0H115ZM637 139H511V350H762V256H626V227H652Q719 227 753.5 197Q788 167 788 110Q788 58 750 26Q712 -6 643 -6Q576 -6 537.5 23Q499 52 499 99V111H611V106Q611 95 618.5 90Q626 85 641 85Q657 85 665 91.5Q673 98 673 111Q673 125 664 132Q655 139 637 139Z" glyph-name="uni2155" horiz-adv-x="808" unicode="&#8533;" /><glyph d="M202 589Q202 600 194.5 606Q187 612 172 612Q157 612 150 604.5Q143 597 143 580V570H30V586Q30 639 68.5 672.5Q107 706 174 706Q242 706 279.5 674.5Q317 643 317 592Q317 553 298 525.5Q279 498 239 482L147 445V444H315V350H32V444Q32 472 44 490.5Q56 509 83 520L188 564Q196 568 199 572Q202 576 202 589ZM593 700H710L258 0H141ZM663 139H537V350H788V256H652V227H678Q745 227 779.5 197Q814 167 814 110Q814 58 776 26Q738 -6 669 -6Q602 -6 563.5 23Q525 52 525 99V111H637V106Q637 95 644.5 90Q652 85 667 85Q683 85 691 91.5Q699 98 699 111Q699 125 690 132Q681 139 663 139Z" glyph-name="uni2156" horiz-adv-x="834" unicode="&#8534;" /><glyph d="M313 457Q313 406 275 375Q237 344 168 344Q100 344 61.5 373.5Q23 403 23 449V466H136V457Q136 447 143.5 441.5Q151 436 165 436Q181 436 189.5 442.5Q198 449 198 462Q198 476 191.5 482Q185 488 171 488H130V568H170Q178 568 182 573.5Q186 579 186 592Q186 603 180.5 608.5Q175 614 164 614Q152 614 146.5 609.5Q141 605 141 596V589H29V604Q29 649 65 677.5Q101 706 165 706Q229 706 264.5 676.5Q300 647 300 598Q300 578 292.5 561.5Q285 545 270 533Q290 521 301.5 501.5Q313 482 313 457ZM563 700H680L228 0H111ZM633 139H507V350H758V256H622V227H648Q715 227 749.5 197Q784 167 784 110Q784 58 746 26Q708 -6 639 -6Q572 -6 533.5 23Q495 52 495 99V111H607V106Q607 95 614.5 90Q622 85 637 85Q653 85 661 91.5Q669 98 669 111Q669 125 660 132Q651 139 633 139Z" glyph-name="uni2157" horiz-adv-x="804" unicode="&#8535;" /><glyph d="M66 700H178L135 521H193V700H309V350H193V426H20V520ZM584 700H701L249 0H132ZM654 139H528V350H779V256H643V227H669Q736 227 770.5 197Q805 167 805 110Q805 58 767 26Q729 -6 660 -6Q593 -6 554.5 23Q516 52 516 99V111H628V106Q628 95 635.5 90Q643 85 658 85Q674 85 682 91.5Q690 98 690 111Q690 125 681 132Q672 139 654 139Z" glyph-name="uni2158" horiz-adv-x="825" unicode="&#8536;" /><glyph d="M36 579V681L139 699H222V445H293V350H36V445H107V586ZM567 700H684L232 0H115ZM772 116Q772 60 734 27Q696 -6 627 -6Q558 -6 520.5 27Q483 60 483 117V222Q483 284 520.5 320Q558 356 627 356Q693 356 728.5 328Q764 300 764 254V248H652V251Q652 258 644.5 262.5Q637 267 626 267Q611 267 603.5 259Q596 251 596 235V215Q610 219 625 221.5Q640 224 654 224Q708 224 740 194Q772 164 772 116ZM595 108Q595 92 603 83.5Q611 75 627 75Q642 75 650 84Q658 93 658 109Q658 125 650 134Q642 143 627 143Q611 143 603 134Q595 125 595 108Z" glyph-name="uni2159" horiz-adv-x="794" unicode="&#8537;" /><glyph d="M162 489H36V700H287V606H151V577H177Q244 577 278.5 547Q313 517 313 460Q313 408 275 376Q237 344 168 344Q101 344 62.5 373Q24 402 24 449V461H136V456Q136 445 143.5 440Q151 435 166 435Q182 435 190 441.5Q198 448 198 461Q198 475 189 482Q180 489 162 489ZM561 700H678L226 0H109ZM766 116Q766 60 728 27Q690 -6 621 -6Q552 -6 514.5 27Q477 60 477 117V222Q477 284 514.5 320Q552 356 621 356Q687 356 722.5 328Q758 300 758 254V248H646V251Q646 258 638.5 262.5Q631 267 620 267Q605 267 597.5 259Q590 251 590 235V215Q604 219 619 221.5Q634 224 648 224Q702 224 734 194Q766 164 766 116ZM589 108Q589 92 597 83.5Q605 75 621 75Q636 75 644 84Q652 93 652 109Q652 125 644 134Q636 143 621 143Q605 143 597 134Q589 125 589 108Z" glyph-name="uni215A" horiz-adv-x="788" unicode="&#8538;" /><glyph d="M36 579V681L139 699H222V445H293V350H36V445H107V586ZM567 700H684L232 0H115ZM771 104Q771 54 732.5 24Q694 -6 624 -6Q555 -6 516.5 24Q478 54 478 104Q478 130 489 149Q500 168 522 180Q505 192 496.5 209Q488 226 488 249Q488 298 523.5 327Q559 356 624 356Q689 356 725 327Q761 298 761 249Q761 226 752.5 209Q744 192 727 180Q749 168 760 149Q771 130 771 104ZM624 219H625Q640 219 648 226.5Q656 234 656 246Q656 259 647.5 266.5Q639 274 624 274Q609 274 601 266.5Q593 259 593 246Q593 234 601 226.5Q609 219 624 219ZM659 106Q659 120 650 128Q641 136 625 136H624Q608 136 599 128Q590 120 590 106Q590 91 598.5 83Q607 75 624 75Q641 75 650 83Q659 91 659 106Z" glyph-name="uni215B" horiz-adv-x="792" unicode="&#8539;" /><glyph d="M313 457Q313 406 275 375Q237 344 168 344Q100 344 61.5 373.5Q23 403 23 449V466H136V457Q136 447 143.5 441.5Q151 436 165 436Q181 436 189.5 442.5Q198 449 198 462Q198 476 191.5 482Q185 488 171 488H130V568H170Q178 568 182 573.5Q186 579 186 592Q186 603 180.5 608.5Q175 614 164 614Q152 614 146.5 609.5Q141 605 141 596V589H29V604Q29 649 65 677.5Q101 706 165 706Q229 706 264.5 676.5Q300 647 300 598Q300 578 292.5 561.5Q285 545 270 533Q290 521 301.5 501.5Q313 482 313 457ZM563 700H680L228 0H111ZM767 104Q767 54 728.5 24Q690 -6 620 -6Q551 -6 512.5 24Q474 54 474 104Q474 130 485 149Q496 168 518 180Q501 192 492.5 209Q484 226 484 249Q484 298 519.5 327Q555 356 620 356Q685 356 721 327Q757 298 757 249Q757 226 748.5 209Q740 192 723 180Q745 168 756 149Q767 130 767 104ZM620 219H621Q636 219 644 226.5Q652 234 652 246Q652 259 643.5 266.5Q635 274 620 274Q605 274 597 266.5Q589 259 589 246Q589 234 597 226.5Q605 219 620 219ZM655 106Q655 120 646 128Q637 136 621 136H620Q604 136 595 128Q586 120 586 106Q586 91 594.5 83Q603 75 620 75Q637 75 646 83Q655 91 655 106Z" glyph-name="uni215C" horiz-adv-x="788" unicode="&#8540;" /><glyph d="M162 489H36V700H287V606H151V577H177Q244 577 278.5 547Q313 517 313 460Q313 408 275 376Q237 344 168 344Q101 344 62.5 373Q24 402 24 449V461H136V456Q136 445 143.5 440Q151 435 166 435Q182 435 190 441.5Q198 448 198 461Q198 475 189 482Q180 489 162 489ZM561 700H678L226 0H109ZM765 104Q765 54 726.5 24Q688 -6 618 -6Q549 -6 510.5 24Q472 54 472 104Q472 130 483 149Q494 168 516 180Q499 192 490.5 209Q482 226 482 249Q482 298 517.5 327Q553 356 618 356Q683 356 719 327Q755 298 755 249Q755 226 746.5 209Q738 192 721 180Q743 168 754 149Q765 130 765 104ZM618 219H619Q634 219 642 226.5Q650 234 650 246Q650 259 641.5 266.5Q633 274 618 274Q603 274 595 266.5Q587 259 587 246Q587 234 595 226.5Q603 219 618 219ZM653 106Q653 120 644 128Q635 136 619 136H618Q602 136 593 128Q584 120 584 106Q584 91 592.5 83Q601 75 618 75Q635 75 644 83Q653 91 653 106Z" glyph-name="uni215D" horiz-adv-x="786" unicode="&#8541;" /><glyph d="M23 606V700H301V617L174 350H52L171 606ZM530 700H647L195 0H78ZM734 104Q734 54 695.5 24Q657 -6 587 -6Q518 -6 479.5 24Q441 54 441 104Q441 130 452 149Q463 168 485 180Q468 192 459.5 209Q451 226 451 249Q451 298 486.5 327Q522 356 587 356Q652 356 688 327Q724 298 724 249Q724 226 715.5 209Q707 192 690 180Q712 168 723 149Q734 130 734 104ZM587 219H588Q603 219 611 226.5Q619 234 619 246Q619 259 610.5 266.5Q602 274 587 274Q572 274 564 266.5Q556 259 556 246Q556 234 564 226.5Q572 219 587 219ZM622 106Q622 120 613 128Q604 136 588 136H587Q571 136 562 128Q553 120 553 106Q553 91 561.5 83Q570 75 587 75Q604 75 613 83Q622 91 622 106Z" glyph-name="uni215E" horiz-adv-x="755" unicode="&#8542;" /><glyph d="M36 579V681L139 699H222V445H293V350H36V445H107V586ZM567 700H684L232 0H115Z" glyph-name="uni215F" horiz-adv-x="464" unicode="&#8543;" /><glyph d="M256 700H373L-79 0H-196Z" glyph-name="uni2215" horiz-adv-x="180" unicode="&#8725;" /><glyph d="M236 443V277H55V443Q100 443 145.5 443Q191 443 236 443ZM55 350Z" glyph-name="uni2219" horiz-adv-x="291" unicode="&#8729;" /><glyph d="M718 320Q736 320 747 306Q758 292 758 269Q758 236 735.5 218.5Q713 201 671 201V161L674 129Q655 123 650.5 122Q646 121 642 121Q637 121 634 123Q631 125 631 129V204L606 201V198Q606 160 588.5 139.5Q571 119 538 119Q519 119 508 128.5Q497 138 497 153Q497 171 513.5 184Q530 197 567 206V248Q559 225 547 212.5Q535 200 521 200Q507 200 500 207.5Q493 215 493 231V234Q483 217 470 209Q457 201 440 201Q427 201 419 209Q411 217 411 231V332L382 330V334Q382 344 385 349Q388 354 394 354H411L408 384Q427 390 431.5 391Q436 392 440 392Q445 392 448 390Q451 388 451 384V355H498V352Q498 341 495 336Q492 331 486 331H451V245Q451 237 454 233Q457 229 464 229Q474 229 483.5 237Q493 245 493 255V280L490 313Q509 319 513.5 320Q518 321 522 321Q527 321 530 318.5Q533 316 533 312V246Q533 238 534.5 234.5Q536 231 540 231Q547 231 556.5 248Q566 265 566 279L564 313Q583 319 587.5 320Q592 321 595 321Q600 321 603 318.5Q606 316 606 312V213L631 216V277L628 313Q647 319 651.5 320Q656 321 660 321Q665 321 668 318.5Q671 316 671 312V272Q679 295 691 307.5Q703 320 718 320ZM359 321Q373 321 380 313Q387 305 387 289V240L390 208Q371 202 366.5 201Q362 200 359 200Q354 200 351 202Q348 204 348 208V274Q348 283 346 286.5Q344 290 340 290Q333 290 323.5 272.5Q314 255 314 242L316 208Q297 202 292.5 201Q288 200 285 200Q280 200 277 202Q274 204 274 208V274Q274 283 272 286.5Q270 290 266 290Q259 290 249.5 272.5Q240 255 240 242L243 208Q224 202 219.5 201Q215 200 211 200Q206 200 203 202Q200 204 200 208V277L197 313Q216 319 220.5 320Q225 321 229 321Q234 321 237 318.5Q240 316 240 312V272Q246 292 258 306.5Q270 321 285 321Q299 321 306.5 313Q314 305 314 289V272Q320 294 332 307.5Q344 321 359 321ZM1221 257Q1221 262 1221 287.5Q1221 313 1220 332L1191 330V334Q1191 344 1194 349Q1197 354 1203 354H1220L1217 384Q1236 390 1240.5 391Q1245 392 1249 392Q1254 392 1257 390Q1260 388 1260 384V355H1307V352Q1307 341 1304 336Q1301 331 1295 331H1260V241Q1260 233 1264 229.5Q1268 226 1276 226Q1282 226 1289 227Q1296 228 1310 231Q1330 235 1340.5 236Q1351 237 1361 237Q1383 237 1403 230.5Q1423 224 1423 213Q1423 200 1414.5 192.5Q1406 185 1396 185Q1394 185 1391 186Q1388 187 1380 192Q1361 202 1348.5 205.5Q1336 209 1325 209Q1321 209 1316 208.5Q1311 208 1299 206Q1281 203 1270 202Q1259 201 1249 201Q1232 201 1227 210.5Q1222 220 1221 257ZM1414 529H76V537H1414ZM1414 0H76V8H1414ZM1049 321Q1063 321 1070.5 313Q1078 305 1078 289V240L1080 208Q1061 202 1056.5 201Q1052 200 1049 200Q1044 200 1041 202Q1038 204 1038 208V275Q1038 283 1036 286.5Q1034 290 1030 290Q1023 290 1013.5 272.5Q1004 255 1004 242L1007 208Q988 202 983.5 201Q979 200 975 200Q970 200 967 202Q964 204 964 208V277L961 313Q980 319 984.5 320Q989 321 993 321Q998 321 1001 318.5Q1004 316 1004 312V272Q1013 296 1024 308.5Q1035 321 1049 321ZM182 290Q182 278 176 270Q170 262 157 258Q149 255 139 253.5Q129 252 113 252Q114 242 121 236Q128 230 139 230Q148 230 155.5 232Q163 234 171 239Q175 236 177 232Q179 228 179 223Q179 214 166.5 207Q154 200 132 200Q104 200 88 214.5Q72 229 72 253Q72 282 91 301.5Q110 321 141 321Q159 321 170.5 312Q182 303 182 290ZM881 290Q881 278 875 270Q869 262 856 258Q848 255 838 253.5Q828 252 812 252Q813 242 820 236Q827 230 838 230Q847 230 854.5 232Q862 234 870 239Q874 236 876 232Q878 228 878 223Q878 214 865.5 207Q853 200 831 200Q803 200 787 214.5Q771 229 771 253Q771 282 790 301.5Q809 321 840 321Q858 321 869.5 312Q881 303 881 290ZM1204 290Q1204 278 1198 270Q1192 262 1179 258Q1171 255 1161 253.5Q1151 252 1135 252Q1136 242 1143 236Q1150 230 1161 230Q1170 230 1177.5 232Q1185 234 1193 239Q1197 236 1199 232Q1201 228 1201 223Q1201 214 1188.5 207Q1176 200 1154 200Q1126 200 1110 214.5Q1094 229 1094 253Q1094 282 1113 301.5Q1132 321 1163 321Q1181 321 1192.5 312Q1204 303 1204 290ZM671 242V219Q694 222 705 235Q716 248 716 270Q716 280 712.5 285Q709 290 703 290Q691 290 681 272Q671 254 671 242ZM896 226Q896 236 903 243Q910 250 921 250Q932 250 939.5 243Q947 236 947 226Q947 216 939.5 209.5Q932 203 921 203Q910 203 903 209.5Q896 216 896 226ZM539 148Q551 148 558 159Q565 170 566 194Q547 190 536 181.5Q525 173 525 162Q525 155 529 151.5Q533 148 539 148ZM136 298Q127 298 120.5 288.5Q114 279 112 264Q128 264 138.5 269.5Q149 275 149 285Q149 291 145.5 294.5Q142 298 136 298ZM1158 298Q1149 298 1142.5 288.5Q1136 279 1134 264Q1150 264 1160.5 269.5Q1171 275 1171 285Q1171 291 1167.5 294.5Q1164 298 1158 298ZM835 298Q826 298 819.5 288.5Q813 279 811 264Q827 264 837.5 269.5Q848 275 848 285Q848 291 844.5 294.5Q841 298 835 298Z" glyph-name="uniF8FF" horiz-adv-x="1495" unicode="&#63743;" /><glyph d="M553 -78V-176Q530 -195 503 -205Q476 -215 448 -215Q392 -215 357 -183Q322 -151 322 -100Q322 -64 340 -35.5Q358 -7 395 16L387 68Q365 30 325 9Q285 -12 236 -12Q149 -12 98 39Q47 90 47 180V540H223V225Q223 181 240 162.5Q257 144 294 144Q338 144 357.5 170Q377 196 377 257V540H553V0H475Q467 -8 463 -18.5Q459 -29 459 -39Q459 -62 473 -72Q487 -82 518 -82Q527 -82 535.5 -81Q544 -80 553 -78Z" glyph-name="uogonek" horiz-adv-x="605" unicode="&#371;" /><glyph d="M553 0H397L387 68Q365 30 325 9Q285 -12 236 -12Q149 -12 98 39Q47 90 47 180V540H223V225Q223 181 240 162.5Q257 144 294 144Q338 144 357.5 170Q377 196 377 257V540H553ZM300 540ZM445 0ZM173 714Q173 768 209 802.5Q245 837 300 837Q355 837 391 802.5Q427 768 427 714Q427 660 391 625.5Q355 591 300 591Q245 591 209 625.5Q173 660 173 714ZM262 714Q262 697 272.5 686.5Q283 676 300 676Q317 676 327.5 686.5Q338 697 338 714Q338 731 327.5 741.5Q317 752 300 752Q283 752 272.5 741.5Q262 731 262 714ZM300 540Z" glyph-name="uring" horiz-adv-x="605" unicode="&#367;" /><glyph d="M553 0H397L387 68Q365 30 325 9Q285 -12 236 -12Q149 -12 98 39Q47 90 47 180V540H223V225Q223 181 240 162.5Q257 144 294 144Q338 144 357.5 170Q377 196 377 257V540H553ZM300 540ZM445 0ZM388 597Q363 597 346.5 600.5Q330 604 317 611L275 634Q264 640 255 642.5Q246 645 235 645Q226 645 218.5 642Q211 639 205 632Q199 626 195 619Q191 612 190 603H99Q99 676 132 718.5Q165 761 223 761Q245 761 259 757.5Q273 754 285 747L325 723Q337 716 349.5 712Q362 708 372 708Q380 708 387 712Q394 716 399 724Q404 731 407 738.5Q410 746 411 755H501Q501 674 473 635.5Q445 597 388 597ZM300 540Z" glyph-name="utilde" horiz-adv-x="605" unicode="&#361;" /><glyph d="M371 0H194L3 540H187L285 228L382 540H558Z" glyph-name="v" horiz-adv-x="562" unicode="v" /><glyph d="M330 0H153L9 540H190L256 233L338 540H517L600 234L665 540H839L695 0H518L424 306ZM436.9 540Z" glyph-name="w" horiz-adv-x="848" unicode="w" /><glyph d="M330 0H153L9 540H190L256 233L338 540H517L600 234L665 540H839L695 0H518L424 306ZM436.9 540ZM426.9 751H618.9L505.9 603H365.9ZM436.9 540Z" glyph-name="wacute" horiz-adv-x="848" unicode="&#7811;" /><glyph d="M330 0H153L9 540H190L256 233L338 540H517L600 234L665 540H839L695 0H518L424 306ZM436.9 540ZM492.4 603 437.4 664H435.4L381.4 603H244.4L358.4 751H515.4L629.4 603ZM436.9 540Z" glyph-name="wcircumflex" horiz-adv-x="848" unicode="&#373;" /><glyph d="M330 0H153L9 540H190L256 233L338 540H517L600 234L665 540H839L695 0H518L424 306ZM436.9 540ZM413.4 730V602H260.4V730Q298.4 730 336.9 730Q375.4 730 413.4 730ZM613.4 730V602H460.4V730Q498.4 730 536.9 730Q575.4 730 613.4 730ZM436.9 540Z" glyph-name="wdieresis" horiz-adv-x="848" unicode="&#7813;" /><glyph d="M330 0H153L9 540H190L256 233L338 540H517L600 234L665 540H839L695 0H518L424 306ZM436.9 540ZM509.9 603H368.9L255.9 751H448.9ZM436.9 540Z" glyph-name="wgrave" horiz-adv-x="848" unicode="&#7809;" /><glyph d="M540 0H347L263 139L190 0H-1L170 275L10 540H202L278 412L352 540H535L368 280Z" glyph-name="x" horiz-adv-x="541" unicode="x" /><glyph d="M560 540 297 -180H130L196 -1L5 540H191L282 238L384 540ZM288.25 540Z" glyph-name="y" horiz-adv-x="560" unicode="y" /><glyph d="M560 540 297 -180H130L196 -1L5 540H191L282 238L384 540ZM288.25 540ZM278.25 751H470.25L357.25 603H217.25ZM288.25 540Z" glyph-name="yacute" horiz-adv-x="560" unicode="&#253;" /><glyph d="M560 540 297 -180H130L196 -1L5 540H191L282 238L384 540ZM288.25 540ZM343.75 603 288.75 664H286.75L232.75 603H95.75L209.75 751H366.75L480.75 603ZM288.25 540Z" glyph-name="ycircumflex" horiz-adv-x="560" unicode="&#375;" /><glyph d="M560 540 297 -180H130L196 -1L5 540H191L282 238L384 540ZM288.25 540ZM264.75 730V602H111.75V730Q149.75 730 188.25 730Q226.75 730 264.75 730ZM464.75 730V602H311.75V730Q349.75 730 388.25 730Q426.75 730 464.75 730ZM288.25 540Z" glyph-name="ydieresis" horiz-adv-x="560" unicode="&#255;" /><glyph d="M572 279V174H421V0H235V174H80V279H222L203 317H80V422H152L15 700H222L327 443L443 700H640L500 422H572V317H448L429 279Z" glyph-name="yen" horiz-adv-x="654" unicode="&#165;" /><glyph d="M560 540 297 -180H130L196 -1L5 540H191L282 238L384 540ZM288.25 540ZM361.25 603H220.25L107.25 751H300.25ZM288.25 540Z" glyph-name="ygrave" horiz-adv-x="560" unicode="&#7923;" /><glyph d="M47 405V540H470V416L249 135H491V0H28V125L248 405ZM259.5 540Z" glyph-name="z" horiz-adv-x="518" unicode="z" /><glyph d="M47 405V540H470V416L249 135H491V0H28V125L248 405ZM259.5 540ZM249.5 751H441.5L328.5 603H188.5ZM259.5 540Z" glyph-name="zacute" horiz-adv-x="518" unicode="&#378;" /><glyph d="M47 405V540H470V416L249 135H491V0H28V125L248 405ZM259.5 540ZM204 751 258 690H260L315 751H452L338 603H181L67 751ZM259.5 540Z" glyph-name="zcaron" horiz-adv-x="518" unicode="&#382;" /><glyph d="M47 405V540H470V416L249 135H491V0H28V125L248 405ZM259.5 540ZM336 743V603H183V743Q221 743 259.5 743Q298 743 336 743ZM259.5 540Z" glyph-name="zdotaccent" horiz-adv-x="518" unicode="&#380;" /><glyph d="M596 243V457Q596 576 525 644Q454 712 321 712Q189 712 118 644.5Q47 577 47 457V243Q47 123 118 55.5Q189 -12 321 -12Q454 -12 525 56Q596 124 596 243ZM321 550Q365 550 387.5 524.5Q410 499 410 447V253Q410 201 387.5 175.5Q365 150 321 150Q277 150 255 175.5Q233 201 233 253V447Q233 499 255 524.5Q277 550 321 550Z" glyph-name="zero" horiz-adv-x="643" unicode="0" /><glyph d="M170 -6Q239 -6 277 30Q315 66 315 128V222Q315 284 277 320Q239 356 170 356Q101 356 63.5 320Q26 284 26 222V128Q26 66 63.5 30Q101 -6 170 -6ZM170 261Q185 261 192.5 251Q200 241 200 219V131Q200 109 192.5 99.5Q185 90 170 90Q155 90 148 99.5Q141 109 141 131V219Q141 242 148 251.5Q155 261 170 261Z" glyph-name="zero.denominator" horiz-adv-x="341" unicode="&#63061;" /><glyph d="M170 -146Q239 -146 277 -110Q315 -74 315 -12V82Q315 144 277 180Q239 216 170 216Q101 216 63.5 180Q26 144 26 82V-12Q26 -74 63.5 -110Q101 -146 170 -146ZM170 121Q185 121 192.5 111Q200 101 200 79V-9Q200 -31 192.5 -40.5Q185 -50 170 -50Q155 -50 148 -40.5Q141 -31 141 -9V79Q141 102 148 111.5Q155 121 170 121Z" glyph-name="zero.inferior" horiz-adv-x="341" unicode="&#8320;" /><glyph d="M170 344Q239 344 277 380Q315 416 315 478V572Q315 634 277 670Q239 706 170 706Q101 706 63.5 670Q26 634 26 572V478Q26 416 63.5 380Q101 344 170 344ZM170 611Q185 611 192.5 601Q200 591 200 569V481Q200 459 192.5 449.5Q185 440 170 440Q155 440 148 449.5Q141 459 141 481V569Q141 592 148 601.5Q155 611 170 611Z" glyph-name="zero.numerator" horiz-adv-x="341" unicode="&#63073;" /><glyph d="M170 484Q239 484 277 520Q315 556 315 618V712Q315 774 277 810Q239 846 170 846Q101 846 63.5 810Q26 774 26 712V618Q26 556 63.5 520Q101 484 170 484ZM170 751Q185 751 192.5 741Q200 731 200 709V621Q200 599 192.5 589.5Q185 580 170 580Q155 580 148 589.5Q141 599 141 621V709Q141 732 148 741.5Q155 751 170 751Z" glyph-name="zero.superior" horiz-adv-x="341" unicode="&#8304;" /><glyph d="M592 243V457Q592 576 521 644Q450 712 317 712Q185 712 114 644.5Q43 577 43 457V243Q43 123 114 55.5Q185 -12 317 -12Q450 -12 521 56Q592 124 592 243ZM317 550Q361 550 383.5 524.5Q406 499 406 447V253Q406 201 383.5 175.5Q361 150 317 150Q273 150 251 175.5Q229 201 229 253V447Q229 499 251 524.5Q273 550 317 550Z" glyph-name="zero.tab" horiz-adv-x="635" unicode="&#65296;" /></font>
</defs>
</svg>
