<?xml version="1.0" standalone="no"?><!DOCTYPE svg PUBLIC "-//W3C//DTD SVG 1.1//EN" "http://www.w3.org/Graphics/SVG/1.1/DTD/svg11.dtd" ><svg version="1.1" xmlns="http://www.w3.org/2000/svg"><defs><font horiz-adv-x="0" id="font"><font-face ascent="730" bbox="-226 -208 1474.8909 941" cap-height="700" descent="-180" font-family="Web use ONLY | Copyright (C) Emtype Foundry" font-stretch="normal" font-weight="300" units-per-em="1000" x-height="525" /><missing-glyph d="M781 341Q781 272 754.5 208Q728 144 678 94Q627 44 563 18Q499 -8 429 -8Q360 -8 296 18.5Q232 45 183 94Q134 143 107 207Q80 271 80 341Q80 410 107 474.5Q134 539 183 588Q232 637 296 663.5Q360 690 429 690Q499 690 564 663.5Q629 637 678 588Q727 539 754 474Q781 409 781 341ZM429 23Q492 23 550.5 47Q609 71 655 116Q701 162 725.5 220.5Q750 279 750 341Q750 404 725.5 462Q701 520 655 566Q610 611 551 635.5Q492 660 429 660Q366 660 308.5 636Q251 612 205 566Q159 520 134.5 462.5Q110 405 110 341Q110 277 134.5 219Q159 161 205 116Q251 71 308.5 47Q366 23 429 23ZM582 211 560 190 431 320 301 191 280 212 409 341 280 471 301 493 431 362 561 493 583 471 452 341Z" horiz-adv-x="869" /><glyph d="M171 261H428L364 627ZM535 0H474L437 211H145L34 0H-32L345 700H407ZM376 700ZM490 0Z" glyph-name="A" horiz-adv-x="610" unicode="A" /><glyph d="M229 261H468L536 647H533ZM874 0H422L459 211H190L24 0H-49L507 700H981L971 647H598L553 392H911L902 341H543L493 53H883ZM552 700Z" glyph-name="AE" horiz-adv-x="979" unicode="&#198;" /><glyph d="M171 261H428L364 627ZM535 0H474L437 211H145L34 0H-32L345 700H407ZM376 700ZM490 0ZM462 891H527L408 752H359ZM375 700Z" glyph-name="Aacute" horiz-adv-x="610" unicode="&#193;" /><glyph d="M171 261H428L364 627ZM535 0H474L437 211H145L34 0H-32L345 700H407ZM376 700ZM490 0ZM457 836 463 867H504L498 836Q489 792 459 767.5Q429 743 384 743Q337 743 312 771Q287 799 295 844L299 867H340L336 844Q330 813 343.5 797Q357 781 390 781Q415 781 433.5 796.5Q452 812 457 836ZM375 700Z" glyph-name="Abreve" horiz-adv-x="610" unicode="&#258;" /><glyph d="M171 261H428L364 627ZM535 0H474L437 211H145L34 0H-32L345 700H407ZM376 700ZM490 0ZM457 752 406 859H405L316 752H266L379 891H438L503 752ZM375 700Z" glyph-name="Acircumflex" horiz-adv-x="610" unicode="&#194;" /><glyph d="M171 261H428L364 627ZM535 0H474L437 211H145L34 0H-32L345 700H407ZM376 700ZM490 0ZM373 879 361 811H303L315 879ZM492 879 480 811H423L435 879ZM376 700Z" glyph-name="Adieresis" horiz-adv-x="610" unicode="&#196;" /><glyph d="M171 261H428L364 627ZM535 0H474L437 211H145L34 0H-32L345 700H407ZM376 700ZM490 0ZM403 752H349L281 891H350ZM376 700Z" glyph-name="Agrave" horiz-adv-x="610" unicode="&#192;" /><glyph d="M171 261H428L364 627ZM535 0H474L437 211H145L34 0H-32L345 700H407ZM376 700ZM490 0ZM275 813 282 855H518L511 813ZM376 700Z" glyph-name="Amacron" horiz-adv-x="610" unicode="&#256;" /><glyph d="M171 261H428L364 627ZM502 -131 497 -169Q485 -175 473 -177.5Q461 -180 448 -180Q411 -180 390.5 -161Q370 -142 370 -110Q370 -75 396.5 -44Q423 -13 472 10L437 211H145L34 0H-32L345 700H407L535 0H504Q461 -24 440.5 -47.5Q420 -71 420 -96Q420 -116 432 -126.5Q444 -137 467 -137Q473 -137 479.5 -136Q486 -135 502 -131Z" glyph-name="Aogonek" horiz-adv-x="610" unicode="&#260;" /><glyph d="M171 261H428L364 627ZM535 0H474L437 211H145L34 0H-32L345 700H407ZM376 700ZM490 0ZM299 836Q299 876 326 903Q353 930 393 930Q433 930 460.5 903Q488 876 488 836Q488 797 460.5 770Q433 743 393 743Q354 743 326.5 770Q299 797 299 836ZM337 836Q337 812 353.5 795Q370 778 393 778Q417 778 433.5 795Q450 812 450 836Q450 861 433.5 877.5Q417 894 393 894Q369 894 353 877.5Q337 861 337 836ZM376 700Z" glyph-name="Aring" horiz-adv-x="610" unicode="&#197;" /><glyph d="M171 261H428L364 627ZM535 0H474L437 211H145L34 0H-32L345 700H407ZM376 700ZM490 0ZM457 749Q441 749 425 754.5Q409 760 397 770L364 798Q356 804 347 807.5Q338 811 329 811Q308 811 294 796Q280 781 274 752H238Q242 800 267.5 827Q293 854 332 854Q349 854 364 848.5Q379 843 391 833L422 806Q429 800 440 795.5Q451 791 461 791Q482 791 495.5 806Q509 821 514 851H550Q546 802 521.5 775.5Q497 749 457 749ZM376 700Z" glyph-name="Atilde" horiz-adv-x="610" unicode="&#195;" /><glyph d="M553 540Q553 595 511.5 623Q470 651 389 651H217L171 394H384Q467 394 510 431.5Q553 469 553 540ZM517 220Q517 284 471 315Q425 346 332 346H163L111 49H320Q416 49 466.5 93.5Q517 138 517 220ZM318 0H39L163 700H392Q501 700 558 659.5Q615 619 615 544Q615 471 577 425.5Q539 380 465 366Q522 348 550.5 311.5Q579 275 579 220Q579 112 513 56Q447 0 318 0Z" glyph-name="B" horiz-adv-x="655" unicode="B" /><glyph d="M493 194 496 209H557L554 191Q539 99 474.5 44Q410 -11 311 -11Q172 -11 107.5 60.5Q43 132 65 252L107 489Q124 589 195 650Q266 711 373 711Q499 711 561 656.5Q623 602 611 508L609 493H548L550 508Q560 578 514 617Q468 656 373 656Q290 656 236 608.5Q182 561 168 482L126 245Q110 153 157.5 98.5Q205 44 308 44Q382 44 430.5 84.5Q479 125 493 194ZM378 700ZM285 10Z" glyph-name="C" horiz-adv-x="623" unicode="C" /><glyph glyph-name="CR" horiz-adv-x="0" unicode="" /><glyph d="M493 194 496 209H557L554 191Q539 99 474.5 44Q410 -11 311 -11Q172 -11 107.5 60.5Q43 132 65 252L107 489Q124 589 195 650Q266 711 373 711Q499 711 561 656.5Q623 602 611 508L609 493H548L550 508Q560 578 514 617Q468 656 373 656Q290 656 236 608.5Q182 561 168 482L126 245Q110 153 157.5 98.5Q205 44 308 44Q382 44 430.5 84.5Q479 125 493 194ZM378 700ZM285 10ZM465 891H530L411 752H362ZM378 700Z" glyph-name="Cacute" horiz-adv-x="623" unicode="&#262;" /><glyph d="M493 194 496 209H557L554 191Q539 99 474.5 44Q410 -11 311 -11Q172 -11 107.5 60.5Q43 132 65 252L107 489Q124 589 195 650Q266 711 373 711Q499 711 561 656.5Q623 602 611 508L609 493H548L550 508Q560 578 514 617Q468 656 373 656Q290 656 236 608.5Q182 561 168 482L126 245Q110 153 157.5 98.5Q205 44 308 44Q382 44 430.5 84.5Q479 125 493 194ZM378 700ZM285 10ZM338 891 390 784H391L480 891H530L417 752H358L293 891ZM378 700Z" glyph-name="Ccaron" horiz-adv-x="623" unicode="&#268;" /><glyph d="M352 -126Q352 -162 327.5 -185Q303 -208 261 -208Q221 -208 200.5 -192.5Q180 -177 181 -149L182 -139H221V-145Q220 -157 230 -163.5Q240 -170 260 -170Q284 -170 296.5 -159Q309 -148 309 -128Q309 -110 298.5 -101Q288 -92 267 -92Q255 -92 245 -95Q235 -98 225 -105L199 -88L255 -8Q144 6 95 76Q46 146 65 252L107 489Q123 588 194.5 649.5Q266 711 373 711Q499 711 561.5 656Q624 601 611 508L609 493H548L550 508Q560 578 514 617Q468 656 373 656Q290 656 236 608.5Q182 561 168 482L126 245Q110 153 157.5 98.5Q205 44 308 44Q383 44 432.5 85Q482 126 493 194L496 209H557L554 191Q541 101 476 45Q411 -11 311 -11Q307 -11 302.5 -11Q298 -11 293 -11L260 -60Q264 -58 268 -57Q272 -56 281 -56Q314 -56 333 -75Q352 -94 352 -126Z" glyph-name="Ccedilla" horiz-adv-x="623" unicode="&#199;" /><glyph d="M493 194 496 209H557L554 191Q539 99 474.5 44Q410 -11 311 -11Q172 -11 107.5 60.5Q43 132 65 252L107 489Q124 589 195 650Q266 711 373 711Q499 711 561 656.5Q623 602 611 508L609 493H548L550 508Q560 578 514 617Q468 656 373 656Q290 656 236 608.5Q182 561 168 482L126 245Q110 153 157.5 98.5Q205 44 308 44Q382 44 430.5 84.5Q479 125 493 194ZM378 700ZM285 10ZM460 752 409 859H408L319 752H269L382 891H441L506 752ZM378 700Z" glyph-name="Ccircumflex" horiz-adv-x="623" unicode="&#264;" /><glyph d="M493 194 496 209H557L554 191Q539 99 474.5 44Q410 -11 311 -11Q172 -11 107.5 60.5Q43 132 65 252L107 489Q124 589 195 650Q266 711 373 711Q499 711 561 656.5Q623 602 611 508L609 493H548L550 508Q560 578 514 617Q468 656 373 656Q290 656 236 608.5Q182 561 168 482L126 245Q110 153 157.5 98.5Q205 44 308 44Q382 44 430.5 84.5Q479 125 493 194ZM378 700ZM285 10ZM441 885 427 811H362L375 885ZM379 700Z" glyph-name="Cdotaccent" horiz-adv-x="623" unicode="&#266;" /><glyph d="M339 0H39L163 700H386Q521 700 586 627.5Q651 555 631 438L593 222Q575 120 508 60Q441 0 339 0ZM216 645 112 55H335Q414 55 465.5 101Q517 147 531 226L568 435Q585 532 539 588.5Q493 645 390 645ZM392 700Z" glyph-name="D" horiz-adv-x="677" unicode="D" /><glyph d="M339 0H39L163 700H386Q521 700 586 627.5Q651 555 631 438L593 222Q575 120 508 60Q441 0 339 0ZM216 645 112 55H335Q414 55 465.5 101Q517 147 531 226L568 435Q585 532 539 588.5Q493 645 390 645ZM392 700ZM352 891 404 784H405L494 891H544L431 752H372L307 891ZM392 700Z" glyph-name="Dcaron" horiz-adv-x="677" unicode="&#270;" /><glyph d="M343 0H43L104 344H40L47 390H112L167 700H390Q525 700 590 627.5Q655 555 635 438L597 222Q579 120 512 60Q445 0 343 0ZM167 344 116 55H339Q419 55 470.5 101.5Q522 148 535 226L572 435Q589 532 543 588.5Q497 645 394 645H220L175 390H287L279 344Z" glyph-name="Dcroat" horiz-adv-x="681" unicode="&#272;" /><glyph d="M373 700 519 0H-13L292 700ZM321 636 70 50H453L326 636Z" glyph-name="Delta" horiz-adv-x="597" unicode="&#8710;" /><glyph d="M489 0H39L163 700H595L586 647H216L171 392H526L516 341H162L111 53H498ZM390 700ZM397 0Z" glyph-name="E" horiz-adv-x="593" unicode="E" /><glyph d="M489 0H39L163 700H595L586 647H216L171 392H526L516 341H162L111 53H498ZM390 700ZM397 0ZM477 891H542L423 752H374ZM390 700Z" glyph-name="Eacute" horiz-adv-x="593" unicode="&#201;" /><glyph d="M489 0H39L163 700H595L586 647H216L171 392H526L516 341H162L111 53H498ZM390 700ZM397 0ZM472 836 478 867H519L513 836Q504 792 474 767.5Q444 743 399 743Q352 743 327 771Q302 799 310 844L314 867H355L351 844Q345 813 358.5 797Q372 781 405 781Q430 781 448.5 796.5Q467 812 472 836ZM390 700Z" glyph-name="Ebreve" horiz-adv-x="593" unicode="&#276;" /><glyph d="M489 0H39L163 700H595L586 647H216L171 392H526L516 341H162L111 53H498ZM390 700ZM397 0ZM350 891 402 784H403L492 891H542L429 752H370L305 891ZM390 700Z" glyph-name="Ecaron" horiz-adv-x="593" unicode="&#282;" /><glyph d="M489 0H39L163 700H595L586 647H216L171 392H526L516 341H162L111 53H498ZM390 700ZM397 0ZM472 752 421 859H420L331 752H281L394 891H453L518 752ZM390 700Z" glyph-name="Ecircumflex" horiz-adv-x="593" unicode="&#202;" /><glyph d="M489 0H39L163 700H595L586 647H216L171 392H526L516 341H162L111 53H498ZM390 700ZM397 0ZM387 879 375 811H317L329 879ZM506 879 494 811H437L449 879ZM390 700Z" glyph-name="Edieresis" horiz-adv-x="593" unicode="&#203;" /><glyph d="M489 0H39L163 700H595L586 647H216L171 392H526L516 341H162L111 53H498ZM390 700ZM397 0ZM452 885 438 811H373L386 885ZM390 700Z" glyph-name="Edotaccent" horiz-adv-x="593" unicode="&#278;" /><glyph d="M489 0H39L163 700H595L586 647H216L171 392H526L516 341H162L111 53H498ZM390 700ZM397 0ZM417 752H363L295 891H364ZM390 700Z" glyph-name="Egrave" horiz-adv-x="593" unicode="&#200;" /><glyph d="M489 0H39L163 700H595L586 647H216L171 392H526L516 341H162L111 53H498ZM390 700ZM397 0ZM289 813 296 855H532L525 813ZM390 700Z" glyph-name="Emacron" horiz-adv-x="593" unicode="&#274;" /><glyph d="M408 -131 403 -169Q392 -175 380 -177.5Q368 -180 354 -180Q317 -180 296.5 -161Q276 -142 276 -110Q276 -79 296.5 -51.5Q317 -24 358 0H39L163 700H595L586 647H216L171 392H526L516 341H162L111 53H498L489 0H411Q369 -23 347.5 -47Q326 -71 326 -96Q326 -115 338.5 -126Q351 -137 373 -137Q379 -137 385.5 -136Q392 -135 408 -131Z" glyph-name="Eogonek" horiz-adv-x="593" unicode="&#280;" /><glyph d="M343 0H43L104 344H40L47 390H112L167 700H390Q525 700 590 627.5Q655 555 635 438L597 222Q579 120 512 60Q445 0 343 0ZM167 344 116 55H339Q419 55 470.5 101.5Q522 148 535 226L572 435Q589 532 543 588.5Q497 645 394 645H220L175 390H287L279 344Z" glyph-name="Eth" horiz-adv-x="681" unicode="&#208;" /><glyph d="M572 209 569 187Q556 97 493 43Q430 -11 330 -11Q205 -11 148 61Q91 133 113 249L116 265H38L47 311H124L137 385H60L68 431H145L155 485Q174 589 242 650Q310 711 414 711Q526 711 582.5 658Q639 605 626 520L623 500H562L565 518Q575 581 535 618.5Q495 656 411 656Q333 656 281 607.5Q229 559 215 478L207 431H406L398 385H199L186 311H385L376 265H178L174 242Q158 152 199.5 98Q241 44 333 44Q404 44 450.5 84Q497 124 508 191L511 209Z" glyph-name="Euro" horiz-adv-x="650" unicode="&#8364;" /><glyph d="M530 374 521 320H159L102 0H39L163 700H604L594 646H216L168 374Z" glyph-name="F" horiz-adv-x="575" unicode="F" /><glyph d="M324 341H586L563 210Q544 102 479.5 45.5Q415 -11 310 -11Q172 -11 107.5 61Q43 133 64 252L107 489Q125 590 196.5 650.5Q268 711 377 711Q501 711 564.5 656Q628 601 615 513L613 499H551L552 511Q558 582 512.5 619Q467 656 373 656Q291 656 236.5 610Q182 564 169 489L126 252Q109 156 156 100Q203 44 307 44Q387 44 437.5 86Q488 128 500 200L516 294H316ZM378 700ZM273 0Z" glyph-name="G" horiz-adv-x="644" unicode="G" /><glyph d="M324 341H586L563 210Q544 102 479.5 45.5Q415 -11 310 -11Q172 -11 107.5 61Q43 133 64 252L107 489Q125 590 196.5 650.5Q268 711 377 711Q501 711 564.5 656Q628 601 615 513L613 499H551L552 511Q558 582 512.5 619Q467 656 373 656Q291 656 236.5 610Q182 564 169 489L126 252Q109 156 156 100Q203 44 307 44Q387 44 437.5 86Q488 128 500 200L516 294H316ZM378 700ZM273 0ZM460 836 466 867H507L501 836Q492 792 462 767.5Q432 743 387 743Q340 743 315 771Q290 799 298 844L302 867H343L339 844Q333 813 346.5 797Q360 781 393 781Q418 781 436.5 796.5Q455 812 460 836ZM378 700Z" glyph-name="Gbreve" horiz-adv-x="644" unicode="&#286;" /><glyph d="M324 341H586L563 210Q544 102 479.5 45.5Q415 -11 310 -11Q172 -11 107.5 61Q43 133 64 252L107 489Q125 590 196.5 650.5Q268 711 377 711Q501 711 564.5 656Q628 601 615 513L613 499H551L552 511Q558 582 512.5 619Q467 656 373 656Q291 656 236.5 610Q182 564 169 489L126 252Q109 156 156 100Q203 44 307 44Q387 44 437.5 86Q488 128 500 200L516 294H316ZM378 700ZM273 0ZM460 752 409 859H408L319 752H269L382 891H441L506 752ZM378 700Z" glyph-name="Gcircumflex" horiz-adv-x="644" unicode="&#284;" /><glyph d="M324 341H586L563 210Q544 102 479.5 45.5Q415 -11 310 -11Q172 -11 107.5 61Q43 133 64 252L107 489Q125 590 196.5 650.5Q268 711 377 711Q501 711 564.5 656Q628 601 615 513L613 499H551L552 511Q558 582 512.5 619Q467 656 373 656Q291 656 236.5 610Q182 564 169 489L126 252Q109 156 156 100Q203 44 307 44Q387 44 437.5 86Q488 128 500 200L516 294H316ZM378 700ZM273 0ZM440 885 426 811H361L374 885ZM378 700Z" glyph-name="Gdotaccent" horiz-adv-x="644" unicode="&#288;" /><glyph d="M543 0H481L541 343H162L102 0H39L163 700H226L172 397H551L605 700H667ZM415 700Z" glyph-name="H" horiz-adv-x="689" unicode="H" /><glyph d="M198 529 174 397H553L577 529ZM543 343H164L104 0H41L135 529H74L81 572H142L165 700H228L205 572H584L607 700H669L646 572H708L701 529H639L545 0H483Z" glyph-name="Hbar" horiz-adv-x="694" unicode="&#294;" /><glyph d="M543 0H481L541 343H162L102 0H39L163 700H226L172 397H551L605 700H667ZM415 700ZM497 752 446 859H445L356 752H306L419 891H478L543 752ZM415 700Z" glyph-name="Hcircumflex" horiz-adv-x="689" unicode="&#292;" /><glyph d="M166 700H228L104 0H42ZM196 700ZM68 0Z" glyph-name="I" horiz-adv-x="252" unicode="I" /><glyph d="M166 700H228L104 0H42ZM196 700ZM68 0ZM649 207 736 700H799L710 198Q692 96 632.5 42.5Q573 -11 475 -11Q362 -11 306.5 48.5Q251 108 265 206L268 227H328L326 210Q317 128 355 86Q393 44 478 44Q547 44 591 87Q635 130 649 207ZM768 700Z" glyph-name="IJ" horiz-adv-x="816" unicode="&#306;" /><glyph d="M166 700H228L104 0H42ZM196 700ZM68 0ZM283 891H348L229 752H180ZM196 700Z" glyph-name="Iacute" horiz-adv-x="252" unicode="&#205;" /><glyph d="M166 700H228L104 0H42ZM196 700ZM68 0ZM278 752 227 859H226L137 752H87L200 891H259L324 752ZM196 700Z" glyph-name="Icircumflex" horiz-adv-x="252" unicode="&#206;" /><glyph d="M166 700H228L104 0H42ZM196 700ZM68 0ZM193 879 181 811H123L135 879ZM312 879 300 811H243L255 879ZM196 700Z" glyph-name="Idieresis" horiz-adv-x="252" unicode="&#207;" /><glyph d="M166 700H228L104 0H42ZM196 700ZM68 0ZM259 885 245 811H180L193 885ZM197 700Z" glyph-name="Idotaccent" horiz-adv-x="252" unicode="&#304;" /><glyph d="M166 700H228L104 0H42ZM196 700ZM68 0ZM224 752H170L102 891H171ZM197 700Z" glyph-name="Igrave" horiz-adv-x="252" unicode="&#204;" /><glyph d="M166 700H228L104 0H42ZM196 700ZM68 0ZM95 813 102 855H338L331 813ZM196 700Z" glyph-name="Imacron" horiz-adv-x="252" unicode="&#298;" /><glyph d="M80 -131 75 -169Q64 -175 52 -177.5Q40 -180 26 -180Q-10 -180 -31 -161Q-52 -142 -52 -110Q-52 -77 -27 -47Q-2 -17 44 7L166 700H228L104 0H83Q40 -23 19.5 -47Q-1 -71 -1 -96Q-1 -116 11 -126.5Q23 -137 46 -137Q51 -137 57.5 -136Q64 -135 80 -131Z" glyph-name="Iogonek" horiz-adv-x="252" unicode="&#302;" /><glyph d="M166 700H228L104 0H42ZM196 700ZM68 0ZM277 749Q261 749 245 754.5Q229 760 217 770L184 798Q176 804 167 807.5Q158 811 149 811Q128 811 114 796Q100 781 94 752H58Q62 800 87.5 827Q113 854 152 854Q169 854 184 848.5Q199 843 211 833L242 806Q249 800 260 795.5Q271 791 281 791Q302 791 315.5 806Q329 821 334 851H370Q366 802 341.5 775.5Q317 749 277 749ZM196 700Z" glyph-name="Itilde" horiz-adv-x="252" unicode="&#296;" /><glyph d="M397 207 484 700H547L458 198Q440 96 380.5 42.5Q321 -11 223 -11Q110 -11 54.5 48.5Q-1 108 13 206L16 227H76L74 210Q65 128 103 86Q141 44 226 44Q295 44 339 87Q383 130 397 207ZM516 700Z" glyph-name="J" horiz-adv-x="564" unicode="J" /><glyph d="M397 207 484 700H547L458 198Q440 96 380.5 42.5Q321 -11 223 -11Q110 -11 54.5 48.5Q-1 108 13 206L16 227H76L74 210Q65 128 103 86Q141 44 226 44Q295 44 339 87Q383 130 397 207ZM516 700ZM597 752 546 859H545L456 752H406L519 891H578L643 752ZM515 700Z" glyph-name="Jcircumflex" horiz-adv-x="564" unicode="&#308;" /><glyph d="M303 361 139 212 102 0H39L163 700H226L155 297L597 700H677L351 403L564 0H493ZM274 0Z" glyph-name="K" horiz-adv-x="630" unicode="K" /><glyph d="M473 0H39L163 700H226L112 55H483ZM195 700ZM319 700ZM358 350ZM256 0Z" glyph-name="L" horiz-adv-x="543" unicode="L" /><glyph d="M473 0H39L163 700H226L112 55H483ZM195 700ZM319 700ZM358 350ZM256 0ZM281 891H346L227 752H178ZM194 700Z" glyph-name="Lacute" horiz-adv-x="543" unicode="&#313;" /><glyph d="M473 0H39L163 700H226L112 55H483ZM195 700ZM319 700ZM358 350ZM256 0ZM332 730H383V715L343 600H309ZM319 697Z" glyph-name="Lcaron" horiz-adv-x="543" unicode="&#317;" /><glyph d="M473 0H39L163 700H226L112 55H483ZM195 700ZM319 700ZM358 350ZM256 0ZM446 399 432 321H367L380 399ZM359 350Z" glyph-name="Ldot" horiz-adv-x="543" unicode="&#319;" /><glyph d="M473 0H39L163 700H226L112 55H483ZM195 700ZM319 700ZM358 350ZM256 0ZM446 399 432 321H367L380 399ZM359 350ZM1016 0H582L706 700H769L655 55H1026ZM738 700ZM862 700ZM901 350ZM799 0Z" glyph-name="Lgeminada" horiz-adv-x="1086" /><glyph d="M507 55 497 0H63L124 345L4 261L15 319L134 403L187 700H250L206 453L324 536L314 478L196 396L136 55Z" glyph-name="Lslash" horiz-adv-x="566" unicode="&#321;" /><glyph d="M390 257H360L203 594L98 0H39L163 700H218L386 339L676 700H735L611 0H550L653 585Z" glyph-name="M" horiz-adv-x="756" unicode="M" /><glyph d="M542 0H489L203 593L98 0H39L163 700H215L502 107L607 700H666ZM415 700ZM291 0Z" glyph-name="N" horiz-adv-x="687" unicode="N" /><glyph d="M542 0H489L203 593L98 0H39L163 700H215L502 107L607 700H666ZM415 700ZM291 0ZM501 891H566L447 752H398ZM414 700Z" glyph-name="Nacute" horiz-adv-x="687" unicode="&#323;" /><glyph d="M542 0H489L203 593L98 0H39L163 700H215L502 107L607 700H666ZM415 700ZM291 0ZM374 891 426 784H427L516 891H566L453 752H394L329 891ZM414 700Z" glyph-name="Ncaron" horiz-adv-x="687" unicode="&#327;" /><glyph d="M542 0H489L203 593L98 0H39L163 700H215L502 107L607 700H666ZM415 700ZM291 0ZM496 749Q480 749 464 754.5Q448 760 436 770L403 798Q395 804 386 807.5Q377 811 368 811Q347 811 333 796Q319 781 313 752H277Q281 800 306.5 827Q332 854 371 854Q388 854 403 848.5Q418 843 430 833L461 806Q468 800 479 795.5Q490 791 500 791Q521 791 534.5 806Q548 821 553 851H589Q585 802 560.5 775.5Q536 749 496 749ZM415 700Z" glyph-name="Ntilde" horiz-adv-x="687" unicode="&#209;" /><glyph d="M314 -11Q172 -11 107.5 60Q43 131 65 254L107 491Q126 597 191 654Q256 711 360 711Q501 711 565.5 640Q630 569 608 447L566 210Q547 104 482.5 46.5Q418 -11 314 -11ZM312 44Q392 44 442 90Q492 136 506 218L546 449Q562 546 514.5 601Q467 656 362 656Q282 656 232 611Q182 566 167 482L127 251Q110 154 158 99Q206 44 312 44ZM387 700Z" glyph-name="O" horiz-adv-x="656" unicode="O" /><glyph d="M304 44Q387 44 439 89.5Q491 135 506 217L549 460Q565 550 517.5 603Q470 656 368 656Q288 656 235 609Q182 562 168 485L127 255Q110 158 156 101Q202 44 304 44ZM915 0H468L481 77Q449 33 402.5 11Q356 -11 298 -11Q169 -11 106.5 63Q44 137 65 252L107 489Q125 592 194 651.5Q263 711 369 711Q448 711 499.5 681.5Q551 652 573 594L592 700H1022L1013 647H639L594 392H952L942 341H584L533 53H924Z" glyph-name="OE" horiz-adv-x="1019" unicode="&#338;" /><glyph d="M314 -11Q172 -11 107.5 60Q43 131 65 254L107 491Q126 597 191 654Q256 711 360 711Q501 711 565.5 640Q630 569 608 447L566 210Q547 104 482.5 46.5Q418 -11 314 -11ZM312 44Q392 44 442 90Q492 136 506 218L546 449Q562 546 514.5 601Q467 656 362 656Q282 656 232 611Q182 566 167 482L127 251Q110 154 158 99Q206 44 312 44ZM387 700ZM474 891H539L420 752H371ZM387 700Z" glyph-name="Oacute" horiz-adv-x="656" unicode="&#211;" /><glyph d="M314 -11Q172 -11 107.5 60Q43 131 65 254L107 491Q126 597 191 654Q256 711 360 711Q501 711 565.5 640Q630 569 608 447L566 210Q547 104 482.5 46.5Q418 -11 314 -11ZM312 44Q392 44 442 90Q492 136 506 218L546 449Q562 546 514.5 601Q467 656 362 656Q282 656 232 611Q182 566 167 482L127 251Q110 154 158 99Q206 44 312 44ZM387 700ZM469 836 475 867H516L510 836Q501 792 471 767.5Q441 743 396 743Q349 743 324 771Q299 799 307 844L311 867H352L348 844Q342 813 355.5 797Q369 781 402 781Q427 781 445.5 796.5Q464 812 469 836ZM387 700Z" glyph-name="Obreve" horiz-adv-x="656" unicode="&#334;" /><glyph d="M314 -11Q172 -11 107.5 60Q43 131 65 254L107 491Q126 597 191 654Q256 711 360 711Q501 711 565.5 640Q630 569 608 447L566 210Q547 104 482.5 46.5Q418 -11 314 -11ZM312 44Q392 44 442 90Q492 136 506 218L546 449Q562 546 514.5 601Q467 656 362 656Q282 656 232 611Q182 566 167 482L127 251Q110 154 158 99Q206 44 312 44ZM387 700ZM469 752 418 859H417L328 752H278L391 891H450L515 752ZM387 700Z" glyph-name="Ocircumflex" horiz-adv-x="656" unicode="&#212;" /><glyph d="M314 -11Q172 -11 107.5 60Q43 131 65 254L107 491Q126 597 191 654Q256 711 360 711Q501 711 565.5 640Q630 569 608 447L566 210Q547 104 482.5 46.5Q418 -11 314 -11ZM312 44Q392 44 442 90Q492 136 506 218L546 449Q562 546 514.5 601Q467 656 362 656Q282 656 232 611Q182 566 167 482L127 251Q110 154 158 99Q206 44 312 44ZM387 700ZM384 879 372 811H314L326 879ZM503 879 491 811H434L446 879ZM387 700Z" glyph-name="Odieresis" horiz-adv-x="656" unicode="&#214;" /><glyph d="M314 -11Q172 -11 107.5 60Q43 131 65 254L107 491Q126 597 191 654Q256 711 360 711Q501 711 565.5 640Q630 569 608 447L566 210Q547 104 482.5 46.5Q418 -11 314 -11ZM312 44Q392 44 442 90Q492 136 506 218L546 449Q562 546 514.5 601Q467 656 362 656Q282 656 232 611Q182 566 167 482L127 251Q110 154 158 99Q206 44 312 44ZM387 700ZM414 752H360L292 891H361ZM387 700Z" glyph-name="Ograve" horiz-adv-x="656" unicode="&#210;" /><glyph d="M314 -11Q172 -11 107.5 60Q43 131 65 254L107 491Q126 597 191 654Q256 711 360 711Q501 711 565.5 640Q630 569 608 447L566 210Q547 104 482.5 46.5Q418 -11 314 -11ZM312 44Q392 44 442 90Q492 136 506 218L546 449Q562 546 514.5 601Q467 656 362 656Q282 656 232 611Q182 566 167 482L127 251Q110 154 158 99Q206 44 312 44ZM387 700ZM407 891H473L357 752H306ZM528 891H594L464 752H413ZM387 700Z" glyph-name="Ohungarumlaut" horiz-adv-x="656" unicode="&#336;" /><glyph d="M314 -11Q172 -11 107.5 60Q43 131 65 254L107 491Q126 597 191 654Q256 711 360 711Q501 711 565.5 640Q630 569 608 447L566 210Q547 104 482.5 46.5Q418 -11 314 -11ZM312 44Q392 44 442 90Q492 136 506 218L546 449Q562 546 514.5 601Q467 656 362 656Q282 656 232 611Q182 566 167 482L127 251Q110 154 158 99Q206 44 312 44ZM387 700ZM286 813 293 855H529L522 813ZM387 700Z" glyph-name="Omacron" horiz-adv-x="656" unicode="&#332;" /><glyph d="M521 305 546 445Q563 544 516 600Q469 656 363 656Q284 656 233.5 610.5Q183 565 168 485L144 345Q129 264 151.5 205.5Q174 147 220 132L197 0H16L26 52H163L170 96Q112 133 89 196Q66 259 81 342L107 489Q126 595 193 653Q260 711 367 711Q501 711 565 638Q629 565 608 449L582 302Q569 227 523 171Q477 115 414 95L406 52H542L533 0H353L376 132Q430 147 470 193.5Q510 240 521 305Z" glyph-name="Omega" horiz-adv-x="653" unicode="&#8486;" /><glyph d="M167 482 127 251Q119 206 125.5 168Q132 130 154 103L484 628Q460 642 429.5 649Q399 656 362 656Q282 656 232 611Q182 566 167 482ZM312 44Q391 44 441 89.5Q491 135 506 218L546 449Q554 495 547 532Q540 569 519 596L189 73Q212 59 243 51.5Q274 44 312 44ZM314 -11Q267 -11 228 -3Q189 5 160 20L131 -29H74L119 48Q81 83 67.5 136Q54 189 65 254L107 491Q126 597 191 654Q256 711 360 711Q405 711 443.5 703Q482 695 513 680L541 728H598L554 651Q592 617 605.5 564Q619 511 608 447L566 210Q547 104 482.5 46.5Q418 -11 314 -11ZM367 700Z" glyph-name="Oslash" horiz-adv-x="656" unicode="&#216;" /><glyph d="M314 -11Q172 -11 107.5 60Q43 131 65 254L107 491Q126 597 191 654Q256 711 360 711Q501 711 565.5 640Q630 569 608 447L566 210Q547 104 482.5 46.5Q418 -11 314 -11ZM312 44Q392 44 442 90Q492 136 506 218L546 449Q562 546 514.5 601Q467 656 362 656Q282 656 232 611Q182 566 167 482L127 251Q110 154 158 99Q206 44 312 44ZM387 700ZM468 749Q452 749 436 754.5Q420 760 408 770L375 798Q367 804 358 807.5Q349 811 340 811Q319 811 305 796Q291 781 285 752H249Q253 800 278.5 827Q304 854 343 854Q360 854 375 848.5Q390 843 402 833L433 806Q440 800 451 795.5Q462 791 472 791Q493 791 506.5 806Q520 821 525 851H561Q557 802 532.5 775.5Q508 749 468 749ZM387 700Z" glyph-name="Otilde" horiz-adv-x="656" unicode="&#213;" /><glyph d="M568 512Q568 579 522 612.5Q476 646 384 646H216L158 315H366Q464 315 516 367.5Q568 420 568 512ZM631 519Q631 398 562 330Q493 262 363 262H148L102 0H39L163 700H388Q507 700 569 653Q631 606 631 519Z" glyph-name="P" horiz-adv-x="641" unicode="P" /><glyph d="M509 -135V-143H440L340 -10Q336 -11 330.5 -11Q325 -11 314 -11Q172 -11 107.5 60Q43 131 65 254L107 491Q126 597 191 654Q256 711 360 711Q501 711 565.5 640Q630 569 608 447L566 210Q552 131 511 77.5Q470 24 406 3ZM312 44Q392 44 442 90Q492 136 506 218L546 449Q562 546 514.5 601Q467 656 362 656Q282 656 232 611Q182 566 167 482L127 251Q110 154 158 99Q206 44 312 44Z" glyph-name="Q" horiz-adv-x="656" unicode="Q" /><glyph d="M569 514Q569 580 523 613.5Q477 647 385 647H216L160 330H369Q466 330 517.5 378Q569 426 569 514ZM365 278H151L102 0H39L163 700H387Q507 700 569 653Q631 606 631 517Q631 421 584.5 362Q538 303 448 286L531 0H468L386 279Q383 278 378.5 278Q374 278 365 278ZM392 700ZM269 0Z" glyph-name="R" horiz-adv-x="650" unicode="R" /><glyph d="M569 514Q569 580 523 613.5Q477 647 385 647H216L160 330H369Q466 330 517.5 378Q569 426 569 514ZM365 278H151L102 0H39L163 700H387Q507 700 569 653Q631 606 631 517Q631 421 584.5 362Q538 303 448 286L531 0H468L386 279Q383 278 378.5 278Q374 278 365 278ZM392 700ZM269 0ZM478 891H543L424 752H375ZM391 700Z" glyph-name="Racute" horiz-adv-x="650" unicode="&#340;" /><glyph d="M569 514Q569 580 523 613.5Q477 647 385 647H216L160 330H369Q466 330 517.5 378Q569 426 569 514ZM365 278H151L102 0H39L163 700H387Q507 700 569 653Q631 606 631 517Q631 421 584.5 362Q538 303 448 286L531 0H468L386 279Q383 278 378.5 278Q374 278 365 278ZM392 700ZM269 0ZM351 891 403 784H404L493 891H543L430 752H371L306 891ZM391 700Z" glyph-name="Rcaron" horiz-adv-x="650" unicode="&#344;" /><glyph d="M585 529 583 513H521L523 529Q531 595 487 626.5Q443 658 346 658Q260 658 212.5 623Q165 588 165 527Q165 477 190.5 451.5Q216 426 282 408L394 377Q467 357 504.5 314Q542 271 542 206Q542 107 475 48Q408 -11 290 -11Q149 -11 84.5 32Q20 75 33 161L35 175H97L95 160Q87 100 134.5 71.5Q182 43 288 43Q378 43 428.5 83.5Q479 124 479 196Q479 249 452.5 279Q426 309 364 325L254 354Q176 375 139.5 415.5Q103 456 103 521Q103 606 168.5 658.5Q234 711 348 711Q475 711 535.5 663.5Q596 616 585 529ZM357 700ZM257 10ZM255 0Z" glyph-name="S" horiz-adv-x="616" unicode="S" /><glyph d="M585 529 583 513H521L523 529Q531 595 487 626.5Q443 658 346 658Q260 658 212.5 623Q165 588 165 527Q165 477 190.5 451.5Q216 426 282 408L394 377Q467 357 504.5 314Q542 271 542 206Q542 107 475 48Q408 -11 290 -11Q149 -11 84.5 32Q20 75 33 161L35 175H97L95 160Q87 100 134.5 71.5Q182 43 288 43Q378 43 428.5 83.5Q479 124 479 196Q479 249 452.5 279Q426 309 364 325L254 354Q176 375 139.5 415.5Q103 456 103 521Q103 606 168.5 658.5Q234 711 348 711Q475 711 535.5 663.5Q596 616 585 529ZM357 700ZM257 10ZM255 0ZM444 891H509L390 752H341ZM357 700Z" glyph-name="Sacute" horiz-adv-x="616" unicode="&#346;" /><glyph d="M585 529 583 513H521L523 529Q531 595 487 626.5Q443 658 346 658Q260 658 212.5 623Q165 588 165 527Q165 477 190.5 451.5Q216 426 282 408L394 377Q467 357 504.5 314Q542 271 542 206Q542 107 475 48Q408 -11 290 -11Q149 -11 84.5 32Q20 75 33 161L35 175H97L95 160Q87 100 134.5 71.5Q182 43 288 43Q378 43 428.5 83.5Q479 124 479 196Q479 249 452.5 279Q426 309 364 325L254 354Q176 375 139.5 415.5Q103 456 103 521Q103 606 168.5 658.5Q234 711 348 711Q475 711 535.5 663.5Q596 616 585 529ZM357 700ZM257 10ZM255 0ZM317 891 369 784H370L459 891H509L396 752H337L272 891ZM357 700Z" glyph-name="Scaron" horiz-adv-x="616" unicode="&#352;" /><glyph d="M317 -126Q317 -162 292.5 -185Q268 -208 226 -208Q186 -208 165.5 -192.5Q145 -177 146 -149L147 -139H186V-145Q185 -157 195 -163.5Q205 -170 225 -170Q249 -170 261.5 -159Q274 -148 274 -128Q274 -110 263.5 -101Q253 -92 232 -92Q220 -92 210 -95Q200 -98 190 -105L164 -88L220 -8Q117 2 70.5 43Q24 84 33 161L35 175H97L95 161Q88 98 135 70.5Q182 43 288 43Q378 43 428.5 83.5Q479 124 479 196Q479 249 453 278.5Q427 308 364 325L254 354Q176 375 139.5 415.5Q103 456 103 521Q103 606 168.5 658.5Q234 711 348 711Q474 711 534 664.5Q594 618 585 529L583 513H521L523 529Q530 597 486.5 627.5Q443 658 346 658Q260 658 212.5 623Q165 588 165 527Q165 477 190.5 451.5Q216 426 282 408L394 377Q467 357 504.5 314Q542 271 542 206Q542 107 475 48Q408 -11 290 -11Q276 -11 269.5 -11Q263 -11 258 -10L225 -60Q229 -58 233 -57Q237 -56 246 -56Q279 -56 298 -75Q317 -94 317 -126Z" glyph-name="Scedilla" horiz-adv-x="616" unicode="&#350;" /><glyph d="M585 529 583 513H521L523 529Q531 595 487 626.5Q443 658 346 658Q260 658 212.5 623Q165 588 165 527Q165 477 190.5 451.5Q216 426 282 408L394 377Q467 357 504.5 314Q542 271 542 206Q542 107 475 48Q408 -11 290 -11Q149 -11 84.5 32Q20 75 33 161L35 175H97L95 160Q87 100 134.5 71.5Q182 43 288 43Q378 43 428.5 83.5Q479 124 479 196Q479 249 452.5 279Q426 309 364 325L254 354Q176 375 139.5 415.5Q103 456 103 521Q103 606 168.5 658.5Q234 711 348 711Q475 711 535.5 663.5Q596 616 585 529ZM357 700ZM257 10ZM255 0ZM439 752 388 859H387L298 752H248L361 891H420L485 752ZM357 700Z" glyph-name="Scircumflex" horiz-adv-x="616" unicode="&#348;" /><glyph d="M607 700 597 645H370L256 0H195L309 645H82L93 700ZM350 700ZM238 10ZM227 0Z" glyph-name="T" horiz-adv-x="559" unicode="T" /><glyph d="M510 372 502 326H331L273 0H212L270 326H100L108 372H278L326 645H99L110 700H624L614 645H387L339 372Z" glyph-name="Tbar" horiz-adv-x="594" unicode="&#358;" /><glyph d="M607 700 597 645H370L256 0H195L309 645H82L93 700ZM350 700ZM238 10ZM227 0ZM309 891 361 784H362L451 891H501L388 752H329L264 891ZM349 700Z" glyph-name="Tcaron" horiz-adv-x="559" unicode="&#356;" /><glyph d="M540 355Q540 421 493.5 454.5Q447 488 355 488H188L130 157H337Q435 157 487.5 209.5Q540 262 540 355ZM603 361Q603 240 534 172Q465 104 335 104H120L102 0H39L163 700H226L198 542H360Q479 542 541 495Q603 448 603 361Z" glyph-name="Thorn" horiz-adv-x="643" unicode="&#222;" /><glyph d="M77 252 157 700H218L138 248Q122 153 169.5 98.5Q217 44 322 44Q400 44 452 92Q504 140 518 221L603 700H664L577 212Q560 108 492.5 48.5Q425 -11 320 -11Q182 -11 118.5 60.5Q55 132 77 252ZM409 700ZM376 0Z" glyph-name="U" horiz-adv-x="681" unicode="U" /><glyph d="M77 252 157 700H218L138 248Q122 153 169.5 98.5Q217 44 322 44Q400 44 452 92Q504 140 518 221L603 700H664L577 212Q560 108 492.5 48.5Q425 -11 320 -11Q182 -11 118.5 60.5Q55 132 77 252ZM409 700ZM376 0ZM496 891H561L442 752H393ZM409 700Z" glyph-name="Uacute" horiz-adv-x="681" unicode="&#218;" /><glyph d="M77 252 157 700H218L138 248Q122 153 169.5 98.5Q217 44 322 44Q400 44 452 92Q504 140 518 221L603 700H664L577 212Q560 108 492.5 48.5Q425 -11 320 -11Q182 -11 118.5 60.5Q55 132 77 252ZM409 700ZM376 0ZM491 836 497 867H538L532 836Q523 792 493 767.5Q463 743 418 743Q371 743 346 771Q321 799 329 844L333 867H374L370 844Q364 813 377.5 797Q391 781 424 781Q449 781 467.5 796.5Q486 812 491 836ZM409 700Z" glyph-name="Ubreve" horiz-adv-x="681" unicode="&#364;" /><glyph d="M77 252 157 700H218L138 248Q122 153 169.5 98.5Q217 44 322 44Q400 44 452 92Q504 140 518 221L603 700H664L577 212Q560 108 492.5 48.5Q425 -11 320 -11Q182 -11 118.5 60.5Q55 132 77 252ZM409 700ZM376 0ZM491 752 440 859H439L350 752H300L413 891H472L537 752ZM409 700Z" glyph-name="Ucircumflex" horiz-adv-x="681" unicode="&#219;" /><glyph d="M77 252 157 700H218L138 248Q122 153 169.5 98.5Q217 44 322 44Q400 44 452 92Q504 140 518 221L603 700H664L577 212Q560 108 492.5 48.5Q425 -11 320 -11Q182 -11 118.5 60.5Q55 132 77 252ZM409 700ZM376 0ZM406 879 394 811H336L348 879ZM525 879 513 811H456L468 879ZM409 700Z" glyph-name="Udieresis" horiz-adv-x="681" unicode="&#220;" /><glyph d="M77 252 157 700H218L138 248Q122 153 169.5 98.5Q217 44 322 44Q400 44 452 92Q504 140 518 221L603 700H664L577 212Q560 108 492.5 48.5Q425 -11 320 -11Q182 -11 118.5 60.5Q55 132 77 252ZM409 700ZM376 0ZM436 752H382L314 891H383ZM409 700Z" glyph-name="Ugrave" horiz-adv-x="681" unicode="&#217;" /><glyph d="M77 252 157 700H218L138 248Q122 153 169.5 98.5Q217 44 322 44Q400 44 452 92Q504 140 518 221L603 700H664L577 212Q560 108 492.5 48.5Q425 -11 320 -11Q182 -11 118.5 60.5Q55 132 77 252ZM409 700ZM376 0ZM429 891H495L379 752H328ZM550 891H616L486 752H435ZM409 700Z" glyph-name="Uhungarumlaut" horiz-adv-x="681" unicode="&#368;" /><glyph d="M77 252 157 700H218L138 248Q122 153 169.5 98.5Q217 44 322 44Q400 44 452 92Q504 140 518 221L603 700H664L577 212Q560 108 492.5 48.5Q425 -11 320 -11Q182 -11 118.5 60.5Q55 132 77 252ZM409 700ZM376 0ZM308 813 315 855H551L544 813ZM409 700Z" glyph-name="Umacron" horiz-adv-x="681" unicode="&#362;" /><glyph d="M352 -180Q315 -180 294.5 -161Q274 -142 274 -110Q274 -83 291 -58Q308 -33 342 -10Q339 -10 331.5 -10.5Q324 -11 320 -11Q182 -11 118.5 60.5Q55 132 77 252L157 700H218L138 248Q122 153 169.5 98.5Q217 44 322 44Q400 44 452 92Q504 140 518 221L603 700H664L577 212Q564 138 527 87.5Q490 37 426 8Q376 -15 350 -41Q324 -67 324 -96Q324 -116 336 -126.5Q348 -137 371 -137Q376 -137 380.5 -136.5Q385 -136 406 -131L401 -169Q389 -175 377 -177.5Q365 -180 352 -180Z" glyph-name="Uogonek" horiz-adv-x="681" unicode="&#370;" /><glyph d="M77 252 157 700H218L138 248Q122 153 169.5 98.5Q217 44 322 44Q400 44 452 92Q504 140 518 221L603 700H664L577 212Q560 108 492.5 48.5Q425 -11 320 -11Q182 -11 118.5 60.5Q55 132 77 252ZM409 700ZM376 0ZM333 836Q333 876 360 903Q387 930 427 930Q467 930 494.5 903Q522 876 522 836Q522 797 494.5 770Q467 743 427 743Q388 743 360.5 770Q333 797 333 836ZM371 836Q371 812 387.5 795Q404 778 427 778Q451 778 467.5 795Q484 812 484 836Q484 861 467.5 877.5Q451 894 427 894Q403 894 387 877.5Q371 861 371 836ZM410 700Z" glyph-name="Uring" horiz-adv-x="681" unicode="&#366;" /><glyph d="M77 252 157 700H218L138 248Q122 153 169.5 98.5Q217 44 322 44Q400 44 452 92Q504 140 518 221L603 700H664L577 212Q560 108 492.5 48.5Q425 -11 320 -11Q182 -11 118.5 60.5Q55 132 77 252ZM409 700ZM376 0ZM490 749Q474 749 458 754.5Q442 760 430 770L397 798Q389 804 380 807.5Q371 811 362 811Q341 811 327 796Q313 781 307 752H271Q275 800 300.5 827Q326 854 365 854Q382 854 397 848.5Q412 843 424 833L455 806Q462 800 473 795.5Q484 791 494 791Q515 791 528.5 806Q542 821 547 851H583Q579 802 554.5 775.5Q530 749 490 749ZM409 700Z" glyph-name="Utilde" horiz-adv-x="681" unicode="&#360;" /><glyph d="M277 0H216L93 700H155L261 84L582 700H648Z" glyph-name="V" horiz-adv-x="599" unicode="V" /><glyph d="M222 0H160L102 700H163L209 93L496 700H557L630 94L889 700H955L649 0H588L511 599ZM529 700Z" glyph-name="W" horiz-adv-x="916" unicode="W" /><glyph d="M222 0H160L102 700H163L209 93L496 700H557L630 94L889 700H955L649 0H588L511 599ZM529 700ZM615 891H680L561 752H512ZM528 700Z" glyph-name="Wacute" horiz-adv-x="916" unicode="&#7810;" /><glyph d="M222 0H160L102 700H163L209 93L496 700H557L630 94L889 700H955L649 0H588L511 599ZM529 700ZM610 752 559 859H558L469 752H419L532 891H591L656 752ZM528 700Z" glyph-name="Wcircumflex" horiz-adv-x="916" unicode="&#372;" /><glyph d="M222 0H160L102 700H163L209 93L496 700H557L630 94L889 700H955L649 0H588L511 599ZM529 700ZM526 879 514 811H456L468 879ZM645 879 633 811H576L588 879ZM529 700Z" glyph-name="Wdieresis" horiz-adv-x="916" unicode="&#7812;" /><glyph d="M222 0H160L102 700H163L209 93L496 700H557L630 94L889 700H955L649 0H588L511 599ZM529 700ZM556 752H502L434 891H503ZM529 700Z" glyph-name="Wgrave" horiz-adv-x="916" unicode="&#7808;" /><glyph d="M523 0H455L301 309L36 0H-37L273 358L102 700H169L317 403L574 700H646L344 354Z" glyph-name="X" horiz-adv-x="599" unicode="X" /><glyph d="M317 268 269 0H208L254 264L89 700H152L292 324L568 700H636ZM363 700Z" glyph-name="Y" horiz-adv-x="582" unicode="Y" /><glyph d="M317 268 269 0H208L254 264L89 700H152L292 324L568 700H636ZM363 700ZM450 891H515L396 752H347ZM363 700Z" glyph-name="Yacute" horiz-adv-x="582" unicode="&#221;" /><glyph d="M317 268 269 0H208L254 264L89 700H152L292 324L568 700H636ZM363 700ZM445 752 394 859H393L304 752H254L367 891H426L491 752ZM363 700Z" glyph-name="Ycircumflex" horiz-adv-x="582" unicode="&#374;" /><glyph d="M317 268 269 0H208L254 264L89 700H152L292 324L568 700H636ZM363 700ZM360 879 348 811H290L302 879ZM479 879 467 811H410L422 879ZM363 700Z" glyph-name="Ydieresis" horiz-adv-x="582" unicode="&#376;" /><glyph d="M317 268 269 0H208L254 264L89 700H152L292 324L568 700H636ZM363 700ZM390 752H336L268 891H337ZM363 700Z" glyph-name="Ygrave" horiz-adv-x="582" unicode="&#7922;" /><glyph d="M114 646 124 700H592L584 652L72 54H490L480 0H-16L-7 49L504 646ZM356 700Z" glyph-name="Z" horiz-adv-x="571" unicode="Z" /><glyph d="M114 646 124 700H592L584 652L72 54H490L480 0H-16L-7 49L504 646ZM356 700ZM442 891H507L388 752H339ZM355 700Z" glyph-name="Zacute" horiz-adv-x="571" unicode="&#377;" /><glyph d="M114 646 124 700H592L584 652L72 54H490L480 0H-16L-7 49L504 646ZM356 700ZM315 891 367 784H368L457 891H507L394 752H335L270 891ZM355 700Z" glyph-name="Zcaron" horiz-adv-x="571" unicode="&#381;" /><glyph d="M114 646 124 700H592L584 652L72 54H490L480 0H-16L-7 49L504 646ZM356 700ZM418 885 404 811H339L352 885ZM356 700Z" glyph-name="Zdotaccent" horiz-adv-x="571" unicode="&#379;" /><glyph d="M248 42Q311 42 352.5 85.5Q394 129 407 205L428 321Q441 398 402 440.5Q363 483 277 483Q215 483 176.5 445Q138 407 126 335L105 215Q90 129 126 85.5Q162 42 248 42ZM431 0H379L388 76Q363 33 321.5 11Q280 -11 225 -11Q125 -11 76 50Q27 111 44 209L70 353Q85 440 138 488Q191 536 272 536Q342 536 389 511Q436 486 452 440L470 525H523ZM300 525ZM400 0Z" glyph-name="a" horiz-adv-x="563" unicode="a" /><glyph d="M248 42Q311 42 352.5 85.5Q394 129 407 205L428 321Q441 398 402 440.5Q363 483 277 483Q215 483 176.5 445Q138 407 126 335L105 215Q90 129 126 85.5Q162 42 248 42ZM431 0H379L388 76Q363 33 321.5 11Q280 -11 225 -11Q125 -11 76 50Q27 111 44 209L70 353Q85 440 138 488Q191 536 272 536Q342 536 389 511Q436 486 452 440L470 525H523ZM300 525ZM400 0ZM387 736H453L334 597H284ZM299 525Z" glyph-name="aacute" horiz-adv-x="563" unicode="&#225;" /><glyph d="M248 42Q311 42 352.5 85.5Q394 129 407 205L428 321Q441 398 402 440.5Q363 483 277 483Q215 483 176.5 445Q138 407 126 335L105 215Q90 129 126 85.5Q162 42 248 42ZM431 0H379L388 76Q363 33 321.5 11Q280 -11 225 -11Q125 -11 76 50Q27 111 44 209L70 353Q85 440 138 488Q191 536 272 536Q342 536 389 511Q436 486 452 440L470 525H523ZM300 525ZM400 0ZM379 681 385 711H426L420 681Q411 637 381 612Q351 587 306 587Q259 587 234 615Q209 643 217 688L221 711H262L258 688Q253 657 266.5 641Q280 625 312 625Q337 625 355.5 640.5Q374 656 379 681ZM300 525Z" glyph-name="abreve" horiz-adv-x="563" unicode="&#259;" /><glyph d="M248 42Q311 42 352.5 85.5Q394 129 407 205L428 321Q441 398 402 440.5Q363 483 277 483Q215 483 176.5 445Q138 407 126 335L105 215Q90 129 126 85.5Q162 42 248 42ZM431 0H379L388 76Q363 33 321.5 11Q280 -11 225 -11Q125 -11 76 50Q27 111 44 209L70 353Q85 440 138 488Q191 536 272 536Q342 536 389 511Q436 486 452 440L470 525H523ZM300 525ZM400 0ZM385 597 333 704H332L243 597H194L307 736H366L431 597ZM300 525Z" glyph-name="acircumflex" horiz-adv-x="563" unicode="&#226;" /><glyph d="M269 736H335L216 597H166ZM181 525Z" glyph-name="acute" horiz-adv-x="500" unicode="&#180;" /><glyph d="M164 891H229L110 752H61ZM77 700Z" glyph-name="acute.case" horiz-adv-x="250" /><glyph d="M248 42Q311 42 352.5 85.5Q394 129 407 205L428 321Q441 398 402 440.5Q363 483 277 483Q215 483 176.5 445Q138 407 126 335L105 215Q90 129 126 85.5Q162 42 248 42ZM431 0H379L388 76Q363 33 321.5 11Q280 -11 225 -11Q125 -11 76 50Q27 111 44 209L70 353Q85 440 138 488Q191 536 272 536Q342 536 389 511Q436 486 452 440L470 525H523ZM300 525ZM400 0ZM297 706 285 638H227L239 706ZM416 706 404 638H347L358 706ZM300 526Z" glyph-name="adieresis" horiz-adv-x="563" unicode="&#228;" /><glyph d="M629 489Q567 489 526 451Q485 413 474 352L465 300H767L771 321Q786 398 749 443.5Q712 489 629 489ZM797 158 795 145Q785 76 729 32.5Q673 -11 585 -11Q507 -11 459 20.5Q411 52 396 111Q378 50 330 19.5Q282 -11 204 -11Q116 -11 70.5 28Q25 67 25 141Q25 215 74 257.5Q123 300 212 300H406L412 333Q426 408 391 448.5Q356 489 276 489Q217 489 178 463Q139 437 132 395L130 383H74L76 395Q86 458 140.5 497Q195 536 276 536Q349 536 393.5 510.5Q438 485 453 435Q481 483 528 509.5Q575 536 634 536Q744 536 794.5 474.5Q845 413 827 309L817 253H456L446 196Q434 124 471.5 81Q509 38 590 38Q651 38 691.5 68.5Q732 99 739 145L741 158ZM83 143Q83 88 116 63Q149 38 218 38Q288 38 329.5 72Q371 106 383 172L397 253H218Q153 253 118 224Q83 195 83 143ZM478 525Z" glyph-name="ae" horiz-adv-x="879" unicode="&#230;" /><glyph d="M248 42Q311 42 352.5 85.5Q394 129 407 205L428 321Q441 398 402 440.5Q363 483 277 483Q215 483 176.5 445Q138 407 126 335L105 215Q90 129 126 85.5Q162 42 248 42ZM431 0H379L388 76Q363 33 321.5 11Q280 -11 225 -11Q125 -11 76 50Q27 111 44 209L70 353Q85 440 138 488Q191 536 272 536Q342 536 389 511Q436 486 452 440L470 525H523ZM300 525ZM400 0ZM321 597H271L200 736H265ZM300 525Z" glyph-name="agrave" horiz-adv-x="563" unicode="&#224;" /><glyph d="M248 42Q311 42 352.5 85.5Q394 129 407 205L428 321Q441 398 402 440.5Q363 483 277 483Q215 483 176.5 445Q138 407 126 335L105 215Q90 129 126 85.5Q162 42 248 42ZM431 0H379L388 76Q363 33 321.5 11Q280 -11 225 -11Q125 -11 76 50Q27 111 44 209L70 353Q85 440 138 488Q191 536 272 536Q342 536 389 511Q436 486 452 440L470 525H523ZM300 525ZM400 0ZM198 641 205 681H441L434 641ZM300 525Z" glyph-name="amacron" horiz-adv-x="563" unicode="&#257;" /><glyph d="M92 180Q92 113 140 76.5Q188 40 279 40Q328 40 370 57Q412 74 445 107L257 364Q165 320 128.5 277.5Q92 235 92 180ZM584 0H523L474 66Q431 26 380.5 7.5Q330 -11 268 -11Q154 -11 91.5 38Q29 87 29 175Q29 244 71.5 296.5Q114 349 228 404Q203 440 191.5 471.5Q180 503 180 534Q180 610 232 660.5Q284 711 373 711Q462 711 507.5 662Q553 613 541 540L539 528H484L486 541Q495 598 465 630Q435 662 370 662Q310 662 274 629.5Q238 597 238 545Q238 515 250.5 483.5Q263 452 289 417L485 150Q504 178 517 210.5Q530 243 536 281L545 337H600L594 299Q585 240 565.5 191.5Q546 143 517 108L584 16Z" glyph-name="ampersand" horiz-adv-x="660" unicode="&amp;" /><glyph d="M248 42Q311 42 352.5 85.5Q394 129 407 205L428 321Q441 398 402 440.5Q363 483 277 483Q215 483 176.5 445Q138 407 126 335L105 215Q90 129 126 85.5Q162 42 248 42ZM411 -131 406 -169Q395 -175 383 -177.5Q371 -180 357 -180Q320 -180 299.5 -161Q279 -142 279 -110Q279 -76 305.5 -45Q332 -14 380 9L388 76Q363 33 321.5 11Q280 -11 225 -11Q125 -11 76 50Q27 111 44 209L70 353Q85 440 138 488Q191 536 272 536Q342 536 389 511Q436 486 452 440L470 525H523L431 0H414Q371 -24 350 -47.5Q329 -71 329 -96Q329 -115 341.5 -126Q354 -137 377 -137Q382 -137 388.5 -136Q395 -135 411 -131Z" glyph-name="aogonek" horiz-adv-x="563" unicode="&#261;" /><glyph d="M356 393Q382 393 398 408Q414 423 432 465L469 449Q448 391 424 368.5Q400 346 359 346Q340 346 322.5 351Q305 356 290 365L251 390Q232 403 218 408.5Q204 414 191 414Q163 414 145 397Q127 380 113 342L77 357Q95 413 121 437.5Q147 462 188 462Q209 462 228.5 456Q248 450 267 437L304 412Q322 401 333.5 397Q345 393 356 393ZM356 263Q382 263 398 278Q414 293 432 335L469 319Q448 261 424 238.5Q400 216 359 216Q340 216 322.5 221Q305 226 290 235L251 260Q232 273 218 278.5Q204 284 191 284Q163 284 145 267Q127 250 113 212L77 227Q95 283 121 307.5Q147 332 188 332Q209 332 228.5 326Q248 320 267 307L304 282Q322 271 333.5 267Q345 263 356 263Z" glyph-name="approxequal" horiz-adv-x="532" unicode="&#8776;" /><glyph d="M248 42Q311 42 352.5 85.5Q394 129 407 205L428 321Q441 398 402 440.5Q363 483 277 483Q215 483 176.5 445Q138 407 126 335L105 215Q90 129 126 85.5Q162 42 248 42ZM431 0H379L388 76Q363 33 321.5 11Q280 -11 225 -11Q125 -11 76 50Q27 111 44 209L70 353Q85 440 138 488Q191 536 272 536Q342 536 389 511Q436 486 452 440L470 525H523ZM300 525ZM400 0ZM223 680Q223 720 250 747Q277 774 316 774Q356 774 384 747Q412 720 412 680Q412 641 384 614Q356 587 316 587Q277 587 250 614Q223 641 223 680ZM260 680Q260 656 276.5 639.5Q293 623 316 623Q340 623 357 639.5Q374 656 374 680Q374 705 357 722Q340 739 316 739Q293 739 276.5 722Q260 705 260 680ZM300 525Z" glyph-name="aring" horiz-adv-x="563" unicode="&#229;" /><glyph d="M274 700 432 359H373L250 632L127 358H67L226 700Z" glyph-name="asciicircum" horiz-adv-x="464" unicode="^" /><glyph d="M346 287Q372 287 388 302Q404 317 422 359L459 343Q438 285 414 262.5Q390 240 349 240Q330 240 312.5 245Q295 250 280 259L241 284Q222 297 208 302.5Q194 308 181 308Q153 308 135 291Q117 274 103 236L67 251Q85 307 111 331.5Q137 356 178 356Q199 356 218.5 350Q238 344 257 331L294 306Q312 295 323.5 291Q335 287 346 287Z" glyph-name="asciitilde" horiz-adv-x="529" unicode="~" /><glyph d="M286 483 273 345 269 324H213L217 345L253 484L125 405L105 394L85 443L105 454L240 512L127 571L110 582L146 631L164 619L262 542L275 677L279 700H335L331 677L297 542L421 620L444 631L464 582L441 571L308 512L421 454L438 443L402 394L385 405Z" glyph-name="asterisk" horiz-adv-x="481" unicode="*" /><glyph d="M563 422H612L554 149Q543 97 558 70.5Q573 44 613 44Q676 44 708.5 102.5Q741 161 741 270Q741 415 662.5 493.5Q584 572 437 572Q280 572 192.5 472.5Q105 373 105 203Q105 59 180.5 -19.5Q256 -98 399 -98Q435 -98 467.5 -91.5Q500 -85 535 -71L543 -114Q506 -129 471 -136.5Q436 -144 401 -144Q231 -144 140.5 -53.5Q50 37 50 203Q50 393 150 506Q250 619 429 619Q606 619 701 528Q796 437 796 273Q796 141 747 70.5Q698 0 604 0Q552 0 524.5 25.5Q497 51 494 102Q470 69 437.5 53Q405 37 363 37Q300 37 263.5 69.5Q227 102 229 155Q230 168 232 180Q234 192 236 203L254 289Q269 357 310 393Q351 429 416 429Q467 429 501 411Q535 393 547 360ZM382 85Q435 85 465.5 110.5Q496 136 509 197L525 263Q538 321 511.5 352Q485 383 421 383Q374 383 347 359Q320 335 306 279L291 213Q287 195 285 183Q283 171 283 164Q281 124 306 104.5Q331 85 382 85Z" glyph-name="at" horiz-adv-x="870" unicode="@" /><glyph d="M248 42Q311 42 352.5 85.5Q394 129 407 205L428 321Q441 398 402 440.5Q363 483 277 483Q215 483 176.5 445Q138 407 126 335L105 215Q90 129 126 85.5Q162 42 248 42ZM431 0H379L388 76Q363 33 321.5 11Q280 -11 225 -11Q125 -11 76 50Q27 111 44 209L70 353Q85 440 138 488Q191 536 272 536Q342 536 389 511Q436 486 452 440L470 525H523ZM300 525ZM400 0ZM385 594Q369 594 353 599.5Q337 605 324 615L291 642Q281 650 273 653Q265 656 257 656Q235 656 221 641Q207 626 202 597H166Q170 645 195.5 672Q221 699 259 699Q276 699 291 693.5Q306 688 319 677L350 651Q357 645 368 640.5Q379 636 388 636Q410 636 423.5 651Q437 666 442 696H478Q473 646 449 620Q425 594 385 594ZM300 525Z" glyph-name="atilde" horiz-adv-x="563" unicode="&#227;" /><glyph d="M279 -11Q208 -11 161 14.5Q114 40 98 87L80 0H27L155 730H214L166 457Q191 496 230.5 516Q270 536 321 536Q423 536 473 475Q523 414 505 316L480 172Q465 88 411.5 38.5Q358 -11 279 -11ZM274 42Q336 42 373.5 79Q411 116 424 190L445 310Q460 395 424.5 439Q389 483 303 483Q240 483 197.5 440Q155 397 142 323L121 203Q108 128 147.5 85Q187 42 274 42Z" glyph-name="b" horiz-adv-x="564" unicode="b" /><glyph d="M415 -126H354L101 758H161Z" glyph-name="backslash" horiz-adv-x="510" unicode="\" /><glyph d="M122 758H185V-126H122Z" glyph-name="bar" horiz-adv-x="302" unicode="|" /><glyph d="M124 337V336Q167 326 184.5 297Q202 268 194 220L165 58Q153 -11 179.5 -44Q206 -77 272 -77H293L284 -131H260Q169 -131 128 -80Q87 -29 103 61L133 227Q141 271 116 292.5Q91 314 33 314H21L29 361H41Q99 361 131.5 382Q164 403 171 446L201 611Q215 689 260 726Q305 763 384 763H442L432 709H384Q333 709 302 681.5Q271 654 262 602L233 440Q225 398 198 372Q171 346 124 337Z" glyph-name="braceleft" horiz-adv-x="393" unicode="{" /><glyph d="M275 295V296Q232 306 214.5 335Q197 364 205 412L234 574Q246 643 219.5 676Q193 709 127 709H106L115 763H139Q230 763 271 712Q312 661 296 571L266 405Q258 361 283 339.5Q308 318 366 318H378L370 271H358Q300 271 267.5 250Q235 229 228 186L198 21Q184 -57 139 -94Q94 -131 15 -131H-43L-33 -77H15Q66 -77 97 -49.5Q128 -22 137 30L166 192Q174 234 201 260Q228 286 275 295Z" glyph-name="braceright" horiz-adv-x="393" unicode="}" /><glyph d="M219 -126H19L175 758H375L366 706H227L90 -74H229Z" glyph-name="bracketleft" horiz-adv-x="330" unicode="[" /><glyph d="M116 758H316L160 -126H-40L-31 -74H108L245 706H106Z" glyph-name="bracketright" horiz-adv-x="330" unicode="]" /><glyph d="M316 681 322 711H363L357 681Q348 637 318 612Q288 587 243 587Q196 587 171 615Q146 643 154 688L158 711H199L195 688Q190 657 203.5 641Q217 625 249 625Q274 625 292.5 640.5Q311 656 316 681ZM237 525Z" glyph-name="breve" horiz-adv-x="500" unicode="&#728;" /><glyph d="M194 836 200 867H241L235 836Q226 792 196 767.5Q166 743 121 743Q74 743 49 771Q24 799 32 844L36 867H77L73 844Q67 813 80.5 797Q94 781 127 781Q152 781 170.5 796.5Q189 812 194 836ZM112 700Z" glyph-name="breve.case" horiz-adv-x="250" /><glyph d="M120 -126V205H182V-126ZM182 758V427H120V758Z" glyph-name="brokenbar" horiz-adv-x="298" unicode="&#166;" /><glyph d="M262 421V279H115V421Z" glyph-name="bullet" horiz-adv-x="364" unicode="&#8226;" /><glyph d="M397 158 400 176H459L456 158Q444 83 388.5 36Q333 -11 249 -11Q136 -11 82 51Q28 113 46 213L70 350Q86 439 142 487.5Q198 536 287 536Q391 536 445.5 486.5Q500 437 489 363L487 350H428L430 363Q439 417 400.5 451.5Q362 486 285 486Q223 486 181 447.5Q139 409 128 345L104 206Q90 128 128.5 83Q167 38 253 38Q310 38 349 72Q388 106 397 158ZM298 525ZM230 10Z" glyph-name="c" horiz-adv-x="527" unicode="c" /><glyph d="M397 158 400 176H459L456 158Q444 83 388.5 36Q333 -11 249 -11Q136 -11 82 51Q28 113 46 213L70 350Q86 439 142 487.5Q198 536 287 536Q391 536 445.5 486.5Q500 437 489 363L487 350H428L430 363Q439 417 400.5 451.5Q362 486 285 486Q223 486 181 447.5Q139 409 128 345L104 206Q90 128 128.5 83Q167 38 253 38Q310 38 349 72Q388 106 397 158ZM298 525ZM230 10ZM385 736H451L332 597H282ZM297 525Z" glyph-name="cacute" horiz-adv-x="527" unicode="&#263;" /><glyph d="M189 736 241 629H242L331 736H380L267 597H208L143 736ZM227 525Z" glyph-name="caron" horiz-adv-x="500" unicode="&#711;" /><glyph d="M83 891 135 784H136L225 891H275L162 752H103L38 891ZM123 700Z" glyph-name="caron.case" horiz-adv-x="250" /><glyph d="M108 733H159V718L119 603H85ZM95 700Z" glyph-name="caron.salt" horiz-adv-x="237" /><glyph d="M397 158 400 176H459L456 158Q444 83 388.5 36Q333 -11 249 -11Q136 -11 82 51Q28 113 46 213L70 350Q86 439 142 487.5Q198 536 287 536Q391 536 445.5 486.5Q500 437 489 363L487 350H428L430 363Q439 417 400.5 451.5Q362 486 285 486Q223 486 181 447.5Q139 409 128 345L104 206Q90 128 128.5 83Q167 38 253 38Q310 38 349 72Q388 106 397 158ZM298 525ZM230 10ZM260 736 312 629H313L402 736H451L338 597H279L214 736ZM298 525Z" glyph-name="ccaron" horiz-adv-x="527" unicode="&#269;" /><glyph d="M302 -126Q302 -162 277.5 -185Q253 -208 211 -208Q171 -208 150.5 -192.5Q130 -177 131 -149L132 -139H171V-145Q170 -157 180 -163.5Q190 -170 210 -170Q234 -170 246.5 -159Q259 -148 259 -128Q259 -110 248.5 -101Q238 -92 217 -92Q205 -92 195 -95Q185 -98 175 -105L149 -88L204 -8Q114 4 72.5 64Q31 124 46 213L70 350Q86 439 142 487.5Q198 536 287 536Q391 536 445.5 486.5Q500 437 489 363L487 350H428L430 363Q439 417 400.5 451.5Q362 486 285 486Q223 486 181 447.5Q139 409 128 345L104 206Q90 128 128.5 83Q167 38 253 38Q311 38 350 73Q389 108 397 160L400 176H459L456 161Q444 85 388 37Q332 -11 249 -11H243L210 -60Q214 -58 218 -57Q222 -56 231 -56Q264 -56 283 -75Q302 -94 302 -126Z" glyph-name="ccedilla" horiz-adv-x="527" unicode="&#231;" /><glyph d="M397 158 400 176H459L456 158Q444 83 388.5 36Q333 -11 249 -11Q136 -11 82 51Q28 113 46 213L70 350Q86 439 142 487.5Q198 536 287 536Q391 536 445.5 486.5Q500 437 489 363L487 350H428L430 363Q439 417 400.5 451.5Q362 486 285 486Q223 486 181 447.5Q139 409 128 345L104 206Q90 128 128.5 83Q167 38 253 38Q310 38 349 72Q388 106 397 158ZM298 525ZM230 10ZM383 597 331 704H330L241 597H192L305 736H364L429 597ZM298 525Z" glyph-name="ccircumflex" horiz-adv-x="527" unicode="&#265;" /><glyph d="M397 158 400 176H459L456 158Q444 83 388.5 36Q333 -11 249 -11Q136 -11 82 51Q28 113 46 213L70 350Q86 439 142 487.5Q198 536 287 536Q391 536 445.5 486.5Q500 437 489 363L487 350H428L430 363Q439 417 400.5 451.5Q362 486 285 486Q223 486 181 447.5Q139 409 128 345L104 206Q90 128 128.5 83Q167 38 253 38Q310 38 349 72Q388 106 397 158ZM298 525ZM230 10ZM361 715 348 641H283L296 715ZM298 525Z" glyph-name="cdotaccent" horiz-adv-x="527" unicode="&#267;" /><glyph d="M300 -126Q300 -162 275.5 -185Q251 -208 209 -208Q169 -208 148.5 -192.5Q128 -177 129 -149L130 -139H169V-145Q168 -157 178 -163.5Q188 -170 208 -170Q232 -170 244.5 -159Q257 -148 257 -128Q257 -110 246.5 -101Q236 -92 215 -92Q203 -92 193 -95Q183 -98 173 -105L147 -88L215 10H255L208 -60Q212 -58 216 -57Q220 -56 229 -56Q262 -56 281 -75Q300 -94 300 -126ZM240 10Z" glyph-name="cedilla" horiz-adv-x="500" unicode="&#184;" /><glyph d="M477 272 474 255Q461 179 406.5 132Q352 85 271 85L254 -10H198L215 89Q128 103 88.5 163Q49 223 64 309L88 446Q104 535 160 583.5Q216 632 305 632H311L325 711H381L366 627Q441 613 479 566.5Q517 520 507 459L505 446H446L448 459Q457 513 418.5 547.5Q380 582 303 582Q241 582 199 543.5Q157 505 146 441L122 302Q108 224 146.5 179Q185 134 271 134Q328 134 366.5 168Q405 202 415 256L418 272Z" glyph-name="cent" horiz-adv-x="536" unicode="&#162;" /><glyph d="M310 597 258 704H257L168 597H119L232 736H291L356 597ZM225 525Z" glyph-name="circumflex" horiz-adv-x="500" unicode="&#710;" /><glyph d="M205 752 154 859H153L64 752H14L127 891H186L251 752ZM123 700Z" glyph-name="circumflex.case" horiz-adv-x="250" /><glyph d="M102 78 88 0H23L36 78ZM15 29ZM180 525 166 447H101L114 525ZM93 476Z" glyph-name="colon" horiz-adv-x="217" unicode=":" /><glyph d="M40 78H102V62L21 -108H-24Z" glyph-name="comma" horiz-adv-x="210" unicode="," /><glyph d="M-4 52H48V40L-1 -60H-39Z" glyph-name="comma.denominator" horiz-adv-x="122" unicode="&#63071;" /><glyph d="M58 402H110V390L61 290H23Z" glyph-name="comma.numerator" horiz-adv-x="122" unicode="&#63083;" /><glyph d="M93 -50H148V-65L97 -180H53ZM133 10ZM99 -181Z" glyph-name="commaaccent" horiz-adv-x="241" unicode="&#63171;" /><glyph d="M152 638H91V654L150 769H195ZM103 525Z" glyph-name="commaaccent.salt" horiz-adv-x="241" /><glyph d="M429 -10Q280 -10 174.5 95.5Q69 201 69 350Q69 499 174.5 604.5Q280 710 429 710Q578 710 683.5 604.5Q789 499 789 350Q789 201 683.5 95.5Q578 -10 429 -10ZM429 674Q296 674 201 579Q106 484 106 350Q106 216 201 121Q296 26 429 26Q563 26 658 121Q753 216 753 350Q753 484 658 579Q563 674 429 674ZM537 270V280H597V270Q597 207 552 167.5Q507 128 429 128Q346 128 299.5 172.5Q253 217 253 291V406Q253 480 299.5 525Q346 570 429 570Q507 570 551.5 531Q596 492 596 428V417H537V428Q537 468 508.5 493.5Q480 519 429 519Q374 519 343.5 488Q313 457 313 407V291Q313 241 343.5 210Q374 179 429 179Q479 179 508 204.5Q537 230 537 270Z" glyph-name="copyright" horiz-adv-x="842" unicode="&#169;" /><glyph d="M495 146 450 109 401 173Q376 155 345 146Q314 137 278 137Q238 137 207 147Q176 157 154 177L76 112L41 154L120 221Q107 248 104 281Q101 314 108 351L111 369Q117 397 127 422Q137 447 152 467L97 538L142 573L192 509Q217 526 246.5 535Q276 544 310 544Q349 544 379.5 534.5Q410 525 432 506L509 571L547 530L469 464Q483 436 486.5 401.5Q490 367 482 329L479 311Q473 281 463.5 257.5Q454 234 441 216ZM307 491Q251 491 215 458Q179 425 168 368L162 338Q149 269 180 229Q211 189 281 189Q338 189 374.5 221.5Q411 254 422 311L427 341Q441 411 409.5 451Q378 491 307 491Z" glyph-name="currency" horiz-adv-x="577" unicode="&#164;" /><glyph d="M248 42Q311 42 352.5 85Q394 128 408 205L428 317Q441 396 402.5 439.5Q364 483 277 483Q214 483 176.5 446Q139 409 126 335L104 215Q89 130 125 86Q161 42 248 42ZM432 0H379L388 75Q363 33 323 11Q283 -11 230 -11Q128 -11 77.5 50Q27 111 44 209L70 353Q85 438 138.5 487Q192 536 272 536Q341 536 387 511.5Q433 487 449 442L500 730H560ZM637 700Z" glyph-name="d" horiz-adv-x="565" unicode="d" /><glyph d="M290 484 229 61 219 0H154L164 61L257 484L113 474H90L100 525H122L261 515L274 677L279 700H342L337 677L296 515L434 525H456L447 474H424Z" glyph-name="dagger" horiz-adv-x="477" unicode="&#8224;" /><glyph d="M207 216 218 350 255 484 114 474H91L100 525H123L261 515L275 677L279 700H342L338 677L297 515L434 525H457L447 474H425L292 484L282 350L244 217L382 226H404L395 176H373L238 185L223 23L219 0H156L160 23L202 186L61 176H38L48 226H70Z" glyph-name="daggerdbl" horiz-adv-x="477" unicode="&#8225;" /><glyph d="M248 42Q311 42 352.5 85Q394 128 408 205L428 317Q441 396 402.5 439.5Q364 483 277 483Q214 483 176.5 446Q139 409 126 335L104 215Q89 130 125 86Q161 42 248 42ZM432 0H379L388 75Q363 33 323 11Q283 -11 230 -11Q128 -11 77.5 50Q27 111 44 209L70 353Q85 438 138.5 487Q192 536 272 536Q341 536 387 511.5Q433 487 449 442L500 730H560ZM637 700ZM649 730H700V715L660 600H626ZM636 697Z" glyph-name="dcaron" horiz-adv-x="582" unicode="&#271;" /><glyph d="M248 42Q311 42 352.5 85Q394 128 408 205L428 317Q441 396 402.5 439.5Q364 483 277 483Q214 483 176.5 446Q139 409 126 335L104 215Q89 130 125 86Q161 42 248 42ZM379 0 388 75Q363 33 323 11Q283 -11 230 -11Q128 -11 77.5 50Q27 111 44 209L70 353Q85 438 138.5 487Q192 536 272 536Q341 536 387 511.5Q433 487 449 442L477 598H331L338 642H484L500 730H560L545 642H621L613 598H537L432 0Z" glyph-name="dcroat" horiz-adv-x="564" unicode="&#273;" /><glyph d="M230 711Q284 711 322.5 672.5Q361 634 361 580Q361 526 322.5 487.5Q284 449 230 449Q177 449 138.5 488Q100 527 100 580Q100 634 138 672.5Q176 711 230 711ZM230 486Q269 486 296 513.5Q323 541 323 580Q323 619 296 646.5Q269 674 230 674Q192 674 165 646.5Q138 619 138 580Q138 541 165 513.5Q192 486 230 486Z" glyph-name="degree" horiz-adv-x="367" unicode="&#176;" /><glyph d="M225 708 213 640H155L167 708ZM344 708 332 640H275L286 708ZM228 528Z" glyph-name="dieresis" horiz-adv-x="500" unicode="&#168;" /><glyph d="M122 879 110 811H52L64 879ZM241 879 229 811H172L184 879ZM125 700Z" glyph-name="dieresis.case" horiz-adv-x="250" /><glyph d="M491 358V305H79V358ZM317 179V110H251V179ZM317 553V484H251V553Z" glyph-name="divide" horiz-adv-x="559" unicode="&#247;" /><glyph d="M520 206Q520 107 455.5 48Q391 -11 278 -11Q275 -11 271.5 -11Q268 -11 264 -11L248 -99H192L208 -8Q110 2 65.5 44.5Q21 87 31 161L33 175H94L92 158Q85 98 130.5 70.5Q176 43 276 43Q361 43 409 83.5Q457 124 457 196Q457 247 431.5 276.5Q406 306 343 325L252 354Q172 379 136.5 418.5Q101 458 101 521Q101 606 163.5 658.5Q226 711 334 711L349 797H406L391 708Q486 698 531 651.5Q576 605 566 529L564 513H503L505 529Q513 595 471 626.5Q429 658 334 658Q253 658 208 623Q163 588 163 527Q163 480 187.5 455Q212 430 279 408L371 378Q447 353 483.5 310.5Q520 268 520 206Z" glyph-name="dollar" horiz-adv-x="591" unicode="$" /><glyph d="M289 715 276 641H211L224 715ZM226 525Z" glyph-name="dotaccent" horiz-adv-x="500" unicode="&#729;" /><glyph d="M186 885 172 811H107L120 885ZM124 700Z" glyph-name="dotaccent.case" horiz-adv-x="250" /><glyph d="M183 525 90 0H30L123 525ZM153 525Z" glyph-name="dotlessi" horiz-adv-x="225" unicode="&#305;" /><glyph d="M280 488Q219 488 178.5 450.5Q138 413 128 351L119 299H422L426 325Q438 402 400.5 445Q363 488 280 488ZM452 158 448 136Q435 68 382.5 28.5Q330 -11 247 -11Q135 -11 81 49.5Q27 110 44 206L69 351Q84 437 139.5 486.5Q195 536 282 536Q396 536 447 476.5Q498 417 481 312L471 251H110L101 195Q89 121 128.5 79.5Q168 38 254 38Q310 38 346.5 65.5Q383 93 392 137L396 158ZM291 525ZM306 0Z" glyph-name="e" horiz-adv-x="534" unicode="e" /><glyph d="M280 488Q219 488 178.5 450.5Q138 413 128 351L119 299H422L426 325Q438 402 400.5 445Q363 488 280 488ZM452 158 448 136Q435 68 382.5 28.5Q330 -11 247 -11Q135 -11 81 49.5Q27 110 44 206L69 351Q84 437 139.5 486.5Q195 536 282 536Q396 536 447 476.5Q498 417 481 312L471 251H110L101 195Q89 121 128.5 79.5Q168 38 254 38Q310 38 346.5 65.5Q383 93 392 137L396 158ZM291 525ZM306 0ZM378 736H444L325 597H275ZM290 525Z" glyph-name="eacute" horiz-adv-x="534" unicode="&#233;" /><glyph d="M280 488Q219 488 178.5 450.5Q138 413 128 351L119 299H422L426 325Q438 402 400.5 445Q363 488 280 488ZM452 158 448 136Q435 68 382.5 28.5Q330 -11 247 -11Q135 -11 81 49.5Q27 110 44 206L69 351Q84 437 139.5 486.5Q195 536 282 536Q396 536 447 476.5Q498 417 481 312L471 251H110L101 195Q89 121 128.5 79.5Q168 38 254 38Q310 38 346.5 65.5Q383 93 392 137L396 158ZM291 525ZM306 0ZM370 681 376 711H417L411 681Q402 637 372 612Q342 587 297 587Q250 587 225 615Q200 643 208 688L212 711H253L249 688Q244 657 257.5 641Q271 625 303 625Q328 625 346.5 640.5Q365 656 370 681ZM291 525Z" glyph-name="ebreve" horiz-adv-x="534" unicode="&#277;" /><glyph d="M280 488Q219 488 178.5 450.5Q138 413 128 351L119 299H422L426 325Q438 402 400.5 445Q363 488 280 488ZM452 158 448 136Q435 68 382.5 28.5Q330 -11 247 -11Q135 -11 81 49.5Q27 110 44 206L69 351Q84 437 139.5 486.5Q195 536 282 536Q396 536 447 476.5Q498 417 481 312L471 251H110L101 195Q89 121 128.5 79.5Q168 38 254 38Q310 38 346.5 65.5Q383 93 392 137L396 158ZM291 525ZM306 0ZM253 736 305 629H306L395 736H444L331 597H272L207 736ZM291 525Z" glyph-name="ecaron" horiz-adv-x="534" unicode="&#283;" /><glyph d="M280 488Q219 488 178.5 450.5Q138 413 128 351L119 299H422L426 325Q438 402 400.5 445Q363 488 280 488ZM452 158 448 136Q435 68 382.5 28.5Q330 -11 247 -11Q135 -11 81 49.5Q27 110 44 206L69 351Q84 437 139.5 486.5Q195 536 282 536Q396 536 447 476.5Q498 417 481 312L471 251H110L101 195Q89 121 128.5 79.5Q168 38 254 38Q310 38 346.5 65.5Q383 93 392 137L396 158ZM291 525ZM306 0ZM376 597 324 704H323L234 597H185L298 736H357L422 597ZM291 525Z" glyph-name="ecircumflex" horiz-adv-x="534" unicode="&#234;" /><glyph d="M280 488Q219 488 178.5 450.5Q138 413 128 351L119 299H422L426 325Q438 402 400.5 445Q363 488 280 488ZM452 158 448 136Q435 68 382.5 28.5Q330 -11 247 -11Q135 -11 81 49.5Q27 110 44 206L69 351Q84 437 139.5 486.5Q195 536 282 536Q396 536 447 476.5Q498 417 481 312L471 251H110L101 195Q89 121 128.5 79.5Q168 38 254 38Q310 38 346.5 65.5Q383 93 392 137L396 158ZM291 525ZM306 0ZM288 706 276 638H218L230 706ZM407 706 395 638H338L349 706ZM291 526Z" glyph-name="edieresis" horiz-adv-x="534" unicode="&#235;" /><glyph d="M280 488Q219 488 178.5 450.5Q138 413 128 351L119 299H422L426 325Q438 402 400.5 445Q363 488 280 488ZM452 158 448 136Q435 68 382.5 28.5Q330 -11 247 -11Q135 -11 81 49.5Q27 110 44 206L69 351Q84 437 139.5 486.5Q195 536 282 536Q396 536 447 476.5Q498 417 481 312L471 251H110L101 195Q89 121 128.5 79.5Q168 38 254 38Q310 38 346.5 65.5Q383 93 392 137L396 158ZM291 525ZM306 0ZM354 715 341 641H276L289 715ZM291 525Z" glyph-name="edotaccent" horiz-adv-x="534" unicode="&#279;" /><glyph d="M280 488Q219 488 178.5 450.5Q138 413 128 351L119 299H422L426 325Q438 402 400.5 445Q363 488 280 488ZM452 158 448 136Q435 68 382.5 28.5Q330 -11 247 -11Q135 -11 81 49.5Q27 110 44 206L69 351Q84 437 139.5 486.5Q195 536 282 536Q396 536 447 476.5Q498 417 481 312L471 251H110L101 195Q89 121 128.5 79.5Q168 38 254 38Q310 38 346.5 65.5Q383 93 392 137L396 158ZM291 525ZM306 0ZM312 597H262L191 736H256ZM291 525Z" glyph-name="egrave" horiz-adv-x="534" unicode="&#232;" /><glyph d="M515 224Q515 117 451 53Q387 -11 272 -11Q163 -11 103.5 38Q44 87 44 175Q44 252 86 306Q128 360 200 380Q160 398 138 431Q116 464 116 508Q116 598 176.5 654.5Q237 711 343 711Q448 711 503 669.5Q558 628 558 549Q558 481 522.5 434Q487 387 424 369Q468 348 491.5 311Q515 274 515 224ZM175 509Q175 458 212 427.5Q249 397 307 397H341Q407 397 453 437Q499 477 499 542Q499 600 458.5 631Q418 662 341 662Q265 662 220 619Q175 576 175 509ZM454 220Q454 279 414.5 314Q375 349 314 349H279Q206 349 156 301.5Q106 254 106 176Q106 111 150 75Q194 39 275 39Q359 39 406.5 89Q454 139 454 220Z" glyph-name="eight" horiz-adv-x="595" unicode="8" /><glyph d="M248 112Q248 58 213.5 26Q179 -6 115 -6Q57 -6 25.5 18.5Q-6 43 -6 88Q-6 125 13.5 151.5Q33 178 67 188Q49 198 39 213.5Q29 229 29 249Q29 297 60.5 326.5Q92 356 149 356Q204 356 233 334.5Q262 313 262 272Q262 239 246 216.5Q230 194 201 183Q224 172 236 154Q248 136 248 112ZM78 252Q78 230 94 216.5Q110 203 134 203H151Q176 203 195 221Q214 239 214 267Q214 293 197.5 305.5Q181 318 148 318Q115 318 96.5 299.5Q78 281 78 252ZM197 109Q197 134 178.5 149.5Q160 165 133 165H117Q88 165 66 144Q44 123 44 90Q44 62 62.5 47.5Q81 33 118 33Q155 33 176 54Q197 75 197 109Z" glyph-name="eight.denominator" horiz-adv-x="311" unicode="&#63069;" /><glyph d="M223 -28Q223 -82 188.5 -114Q154 -146 90 -146Q32 -146 0.5 -121.5Q-31 -97 -31 -52Q-31 -15 -11.5 11.5Q8 38 42 48Q24 58 14 73.5Q4 89 4 109Q4 157 35.5 186.5Q67 216 124 216Q179 216 208 194.5Q237 173 237 132Q237 99 221 76.5Q205 54 176 43Q199 32 211 14Q223 -4 223 -28ZM53 112Q53 90 69 76.5Q85 63 109 63H126Q151 63 170 81Q189 99 189 127Q189 153 172.5 165.5Q156 178 123 178Q90 178 71.5 159.5Q53 141 53 112ZM172 -31Q172 -6 153.5 9.5Q135 25 108 25H92Q63 25 41 4Q19 -17 19 -50Q19 -78 37.5 -92.5Q56 -107 93 -107Q130 -107 151 -86Q172 -65 172 -31Z" glyph-name="eight.inferior" horiz-adv-x="311" unicode="&#8328;" /><glyph d="M310 462Q310 408 275.5 376Q241 344 177 344Q119 344 87.5 368.5Q56 393 56 438Q56 475 75.5 501.5Q95 528 129 538Q111 548 101 563.5Q91 579 91 599Q91 647 122.5 676.5Q154 706 211 706Q266 706 295 684.5Q324 663 324 622Q324 589 308 566.5Q292 544 263 533Q286 522 298 504Q310 486 310 462ZM140 602Q140 580 156 566.5Q172 553 196 553H213Q238 553 257 571Q276 589 276 617Q276 643 259.5 655.5Q243 668 210 668Q177 668 158.5 649.5Q140 631 140 602ZM259 459Q259 484 240.5 499.5Q222 515 195 515H179Q150 515 128 494Q106 473 106 440Q106 412 124.5 397.5Q143 383 180 383Q217 383 238 404Q259 425 259 459Z" glyph-name="eight.numerator" horiz-adv-x="311" unicode="&#63081;" /><glyph d="M334 602Q334 548 299.5 516Q265 484 201 484Q143 484 111.5 508.5Q80 533 80 578Q80 615 99.5 641.5Q119 668 153 678Q135 688 125 703.5Q115 719 115 739Q115 787 146.5 816.5Q178 846 235 846Q290 846 319 824.5Q348 803 348 762Q348 729 332 706.5Q316 684 287 673Q310 662 322 644Q334 626 334 602ZM164 742Q164 720 180 706.5Q196 693 220 693H237Q262 693 281 711Q300 729 300 757Q300 783 283.5 795.5Q267 808 234 808Q201 808 182.5 789.5Q164 771 164 742ZM283 599Q283 624 264.5 639.5Q246 655 219 655H203Q174 655 152 634Q130 613 130 580Q130 552 148.5 537.5Q167 523 204 523Q241 523 262 544Q283 565 283 599Z" glyph-name="eight.superior" horiz-adv-x="311" unicode="&#8312;" /><glyph d="M518 224Q518 117 454 53Q390 -11 275 -11Q166 -11 106.5 38Q47 87 47 175Q47 252 89 306Q131 360 203 380Q163 398 141 431Q119 464 119 508Q119 598 179.5 654.5Q240 711 346 711Q451 711 506 669.5Q561 628 561 549Q561 481 525.5 434Q490 387 427 369Q471 348 494.5 311Q518 274 518 224ZM178 509Q178 458 215 427.5Q252 397 310 397H344Q410 397 456 437Q502 477 502 542Q502 600 461.5 631Q421 662 344 662Q268 662 223 619Q178 576 178 509ZM457 220Q457 279 417.5 314Q378 349 317 349H282Q209 349 159 301.5Q109 254 109 176Q109 111 153 75Q197 39 278 39Q362 39 409.5 89Q457 139 457 220Z" glyph-name="eight.tab" horiz-adv-x="602" unicode="&#65304;" /><glyph d="M98 78 84 0H19L32 78ZM11 29ZM296 78 282 0H217L230 78ZM209 29ZM494 78 480 0H415L428 78ZM407 29Z" glyph-name="ellipsis" horiz-adv-x="601" unicode="&#8230;" /><glyph d="M280 488Q219 488 178.5 450.5Q138 413 128 351L119 299H422L426 325Q438 402 400.5 445Q363 488 280 488ZM452 158 448 136Q435 68 382.5 28.5Q330 -11 247 -11Q135 -11 81 49.5Q27 110 44 206L69 351Q84 437 139.5 486.5Q195 536 282 536Q396 536 447 476.5Q498 417 481 312L471 251H110L101 195Q89 121 128.5 79.5Q168 38 254 38Q310 38 346.5 65.5Q383 93 392 137L396 158ZM291 525ZM306 0ZM189 641 196 681H432L425 641ZM291 525Z" glyph-name="emacron" horiz-adv-x="534" unicode="&#275;" /><glyph d="M68 285 78 340H840L830 285Z" glyph-name="emdash" horiz-adv-x="905" unicode="&#8212;" /><glyph d="M68 285 78 340H500L490 285Z" glyph-name="endash" horiz-adv-x="565" unicode="&#8211;" /><glyph d="M282 -180Q245 -180 224.5 -161Q204 -142 204 -110Q204 -82 220 -56.5Q236 -31 267 -10Q262 -11 258.5 -11Q255 -11 247 -11Q135 -11 81 49.5Q27 110 44 206L69 351Q85 438 140 487Q195 536 282 536Q396 536 447.5 475.5Q499 415 481 312L471 251H110L101 195Q88 123 127.5 80.5Q167 38 254 38Q310 38 347 66Q384 94 392 137L396 158H452L448 137Q441 96 416 62.5Q391 29 352 10Q303 -15 278.5 -41.5Q254 -68 254 -96Q254 -115 266.5 -126Q279 -137 301 -137Q307 -137 313.5 -136Q320 -135 336 -131L331 -169Q320 -175 308 -177.5Q296 -180 282 -180ZM280 488Q219 488 178.5 450.5Q138 413 128 351L119 299H422L426 325Q440 400 402 444Q364 488 280 488Z" glyph-name="eogonek" horiz-adv-x="534" unicode="&#281;" /><glyph d="M104 399V451H516V399ZM104 211V264H516V211Z" glyph-name="equal" horiz-adv-x="614" unicode="=" /><glyph d="M429 675Q353 675 286 641.5Q219 608 173 548V379H691V535Q646 601 577 638Q508 675 429 675ZM691 162 721 139Q671 69 593.5 29Q516 -11 429 -11Q280 -11 174.5 95Q69 201 69 350Q69 499 174.5 605Q280 711 429 711Q581 711 685 604Q789 497 789 340H173V153Q219 93 286 59.5Q353 26 429 26Q508 26 576.5 62Q645 98 691 162Z" glyph-name="estimated" horiz-adv-x="820" unicode="&#8494;" /><glyph d="M251 40Q314 40 354 77Q394 114 405 180L431 326Q445 398 405 442Q365 486 280 486Q219 486 179 447.5Q139 409 129 346L104 207Q90 127 127.5 83.5Q165 40 251 40ZM492 335 464 174Q448 83 393.5 36.5Q339 -10 249 -10Q134 -10 81 50.5Q28 111 46 214L70 352Q84 434 139 483.5Q194 533 276 533Q333 533 374 515Q415 497 437 463Q435 479 431.5 495Q428 511 423 527Q417 547 407 569Q397 591 382 617L280 576L265 614L360 653Q349 670 335.5 688Q322 706 302 730H370Q381 717 391.5 702.5Q402 688 412 673L502 710L516 672L433 638Q447 613 458.5 587.5Q470 562 478 535Q494 484 497.5 434Q501 384 492 335Z" glyph-name="eth" horiz-adv-x="556" unicode="&#240;" /><glyph d="M161 700H226L206 585Q195 522 174 415.5Q153 309 123 159H74Q96 309 113 415.5Q130 522 141 585ZM117 78 103 0H37L51 78Z" glyph-name="exclam" horiz-adv-x="247" unicode="!" /><glyph d="M67 -175H2L22 -60Q33 3 54 109.5Q75 216 105 366H154Q132 216 115 109.5Q98 3 87 -60ZM111 447 125 525H191L177 447Z" glyph-name="exclamdown" horiz-adv-x="236" unicode="&#161;" /><glyph d="M349 525 341 477H192L108 0H49L132 477H56L64 525H141L148 568Q162 650 208.5 690Q255 730 336 730H405L397 680H333Q279 680 248 652Q217 624 207 564L201 525Z" glyph-name="f" horiz-adv-x="328" unicode="f" /><glyph d="M349 525 341 477H192L108 0H49L132 477H56L64 525H141L148 568Q162 650 208.5 690Q255 730 336 730H405L397 680H333Q279 680 248 652Q217 624 207 564L201 525ZM677 525 669 477H520L436 0H377L460 477H384L392 525H469L476 568Q490 650 536.5 690Q583 730 664 730H733L725 680H661Q607 680 576 652Q545 624 535 564L529 525Z" glyph-name="f_f" horiz-adv-x="655" unicode="&#64256;" /><glyph d="M349 525 341 477H192L108 0H49L132 477H56L64 525H141L148 568Q162 650 208.5 690Q255 730 336 730H405L397 680H333Q279 680 248 652Q217 624 207 564L201 525ZM677 525 669 477H520L436 0H377L460 477H384L392 525H469L476 568Q490 650 536.5 690Q583 730 664 730H733L725 680H661Q607 680 576 652Q545 624 535 564L529 525ZM837 525 745 0H685L777 525ZM875 730 859 640H796L811 730ZM709 0Z" glyph-name="f_f_i" horiz-adv-x="880" unicode="&#64259;" /><glyph d="M349 525 341 477H192L108 0H49L132 477H56L64 525H141L148 568Q162 650 208.5 690Q255 730 336 730H405L397 680H333Q279 680 248 652Q217 624 207 564L201 525ZM677 525 669 477H520L436 0H377L460 477H384L392 525H469L476 568Q490 650 536.5 690Q583 730 664 730H733L725 680H661Q607 680 576 652Q545 624 535 564L529 525ZM873 730 745 0H685L813 730ZM843 730ZM952 700ZM871 350ZM714 0Z" glyph-name="f_f_l" horiz-adv-x="880" unicode="&#64260;" /><glyph d="M349 525 341 477H192L108 0H49L132 477H56L64 525H141L148 568Q162 650 208.5 690Q255 730 336 730H405L397 680H333Q279 680 248 652Q217 624 207 564L201 525ZM510 525 418 0H358L450 525ZM548 730 532 640H469L484 730ZM382 0Z" glyph-name="fi" horiz-adv-x="553" unicode="&#64257;" /><glyph d="M274 363H94L153 700H549L539 646H206L166 418H284Q394 418 451.5 371.5Q509 325 509 235Q509 121 445 55Q381 -11 262 -11Q138 -11 80.5 37.5Q23 86 38 175L41 193H102L100 177Q91 107 131.5 75.5Q172 44 265 44Q352 44 399.5 94Q447 144 447 231Q447 298 404.5 330.5Q362 363 274 363Z" glyph-name="five" horiz-adv-x="575" unicode="5" /><glyph d="M112 172H17L48 350H258L251 308H91L74 213H122Q179 213 209 189Q239 165 239 119Q239 60 205 27Q171 -6 107 -6Q44 -6 13.5 20Q-17 46 -10 89L-8 100H42L41 92Q37 63 53.5 49.5Q70 36 108 36Q147 36 167.5 56Q188 76 188 115Q188 144 169 158Q150 172 112 172Z" glyph-name="five.denominator" horiz-adv-x="297" unicode="&#63066;" /><glyph d="M87 32H-8L23 210H233L226 168H66L49 73H97Q154 73 184 49Q214 25 214 -21Q214 -80 180 -113Q146 -146 82 -146Q19 -146 -11.5 -120Q-42 -94 -35 -51L-33 -40H17L16 -48Q12 -77 28.5 -90.5Q45 -104 83 -104Q122 -104 142.5 -84Q163 -64 163 -25Q163 4 144 18Q125 32 87 32Z" glyph-name="five.inferior" horiz-adv-x="297" unicode="&#8325;" /><glyph d="M174 522H79L110 700H320L313 658H153L136 563H184Q241 563 271 539Q301 515 301 469Q301 410 267 377Q233 344 169 344Q106 344 75.5 370Q45 396 52 439L54 450H104L103 442Q99 413 115.5 399.5Q132 386 170 386Q209 386 229.5 406Q250 426 250 465Q250 494 231 508Q212 522 174 522Z" glyph-name="five.numerator" horiz-adv-x="297" unicode="&#63078;" /><glyph d="M199 662H104L135 840H345L338 798H178L161 703H209Q266 703 296 679Q326 655 326 609Q326 550 292 517Q258 484 194 484Q131 484 100.5 510Q70 536 77 579L79 590H129L128 582Q124 553 140.5 539.5Q157 526 195 526Q234 526 254.5 546Q275 566 275 605Q275 634 256 648Q237 662 199 662Z" glyph-name="five.superior" horiz-adv-x="297" unicode="&#8309;" /><glyph d="M288 363H108L167 700H563L553 646H220L180 418H298Q408 418 465.5 371.5Q523 325 523 235Q523 121 459 55Q395 -11 276 -11Q152 -11 94.5 37.5Q37 86 52 175L55 193H116L114 177Q105 107 145.5 75.5Q186 44 279 44Q366 44 413.5 94Q461 144 461 231Q461 298 418.5 330.5Q376 363 288 363Z" glyph-name="five.tab" horiz-adv-x="602" unicode="&#65301;" /><glyph d="M349 525 341 477H192L108 0H49L132 477H56L64 525H141L148 568Q162 650 208.5 690Q255 730 336 730H405L397 680H333Q279 680 248 652Q217 624 207 564L201 525ZM546 730 418 0H358L486 730ZM516 730ZM625 700ZM544 350ZM387 0Z" glyph-name="fl" horiz-adv-x="553" unicode="&#64258;" /><glyph d="M256 345 157 13Q131 -75 81 -115.5Q31 -156 -48 -156H-117L-108 -106H-43Q9 -106 44.5 -76Q80 -46 98 13L197 345H82L90 394H212L252 529Q278 618 328.5 659Q379 700 458 700H528L519 650H454Q401 650 365 619.5Q329 589 311 529L271 394H388L380 345Z" glyph-name="florin" horiz-adv-x="476" unicode="&#402;" /><glyph d="M272 700H338L102 275H440L515 700H577L453 0H391L430 217H23L32 270Z" glyph-name="four" horiz-adv-x="603" unicode="4" /><glyph d="M101 350H151L42 144H187L223 350H274L212 0H161L179 102H-17L-9 143Z" glyph-name="four.denominator" horiz-adv-x="310" unicode="&#63065;" /><glyph d="M76 210H126L17 4H162L198 210H249L187 -140H136L154 -38H-42L-34 3Z" glyph-name="four.inferior" horiz-adv-x="310" unicode="&#8324;" /><glyph d="M162 700H212L103 494H248L284 700H335L273 350H222L240 452H44L52 493Z" glyph-name="four.numerator" horiz-adv-x="310" unicode="&#63077;" /><glyph d="M187 840H237L128 634H273L309 840H360L298 490H247L265 592H69L77 633Z" glyph-name="four.superior" horiz-adv-x="310" unicode="&#8308;" /><glyph d="M271 700H337L101 275H439L514 700H576L452 0H390L429 217H22L31 270Z" glyph-name="four.tab" horiz-adv-x="602" unicode="&#65300;" /><glyph d="M330 700H387L-169 0H-226Z" glyph-name="fraction" horiz-adv-x="146" unicode="&#8260;" /><glyph d="M533 374 524 320H162L105 0H42L166 700H607L597 646H219L171 374ZM714 290 663 0H604L697 525H749L735 421Q767 476 820.5 505.5Q874 535 942 535L932 478H921Q839 478 784 426.5Q729 375 714 290ZM819 525ZM634 0Z" glyph-name="franc" horiz-adv-x="922" unicode="&#8355;" /><glyph d="M252 70Q314 70 355.5 111.5Q397 153 411 227L430 331Q443 400 402.5 442Q362 484 277 484Q216 484 178 447Q140 410 127 340L109 241Q94 157 130 113.5Q166 70 252 70ZM219 -190Q113 -190 61 -155.5Q9 -121 17 -55L18 -46H75L74 -55Q69 -101 104 -121.5Q139 -142 219 -142Q283 -142 320 -111.5Q357 -81 368 -20L388 94Q363 56 325.5 36.5Q288 17 240 17Q135 17 84 78.5Q33 140 50 239L70 355Q84 438 137.5 487Q191 536 270 536Q340 536 387 510Q434 484 451 437L471 525H523L427 -21Q412 -107 360.5 -148.5Q309 -190 219 -190ZM294 525Z" glyph-name="g" horiz-adv-x="564" unicode="g" /><glyph d="M252 70Q314 70 355.5 111.5Q397 153 411 227L430 331Q443 400 402.5 442Q362 484 277 484Q216 484 178 447Q140 410 127 340L109 241Q94 157 130 113.5Q166 70 252 70ZM219 -190Q113 -190 61 -155.5Q9 -121 17 -55L18 -46H75L74 -55Q69 -101 104 -121.5Q139 -142 219 -142Q283 -142 320 -111.5Q357 -81 368 -20L388 94Q363 56 325.5 36.5Q288 17 240 17Q135 17 84 78.5Q33 140 50 239L70 355Q84 438 137.5 487Q191 536 270 536Q340 536 387 510Q434 484 451 437L471 525H523L427 -21Q412 -107 360.5 -148.5Q309 -190 219 -190ZM294 525ZM373 681 379 711H420L414 681Q405 637 375 612Q345 587 300 587Q253 587 228 615Q203 643 211 688L215 711H256L252 688Q247 657 260.5 641Q274 625 306 625Q331 625 349.5 640.5Q368 656 373 681ZM294 525Z" glyph-name="gbreve" horiz-adv-x="564" unicode="&#287;" /><glyph d="M252 70Q314 70 355.5 111.5Q397 153 411 227L430 331Q443 400 402.5 442Q362 484 277 484Q216 484 178 447Q140 410 127 340L109 241Q94 157 130 113.5Q166 70 252 70ZM219 -190Q113 -190 61 -155.5Q9 -121 17 -55L18 -46H75L74 -55Q69 -101 104 -121.5Q139 -142 219 -142Q283 -142 320 -111.5Q357 -81 368 -20L388 94Q363 56 325.5 36.5Q288 17 240 17Q135 17 84 78.5Q33 140 50 239L70 355Q84 438 137.5 487Q191 536 270 536Q340 536 387 510Q434 484 451 437L471 525H523L427 -21Q412 -107 360.5 -148.5Q309 -190 219 -190ZM294 525ZM379 597 327 704H326L237 597H188L301 736H360L425 597ZM294 525Z" glyph-name="gcircumflex" horiz-adv-x="564" unicode="&#285;" /><glyph d="M252 70Q314 70 355.5 111.5Q397 153 411 227L430 331Q443 400 402.5 442Q362 484 277 484Q216 484 178 447Q140 410 127 340L109 241Q94 157 130 113.5Q166 70 252 70ZM219 -190Q113 -190 61 -155.5Q9 -121 17 -55L18 -46H75L74 -55Q69 -101 104 -121.5Q139 -142 219 -142Q283 -142 320 -111.5Q357 -81 368 -20L388 94Q363 56 325.5 36.5Q288 17 240 17Q135 17 84 78.5Q33 140 50 239L70 355Q84 438 137.5 487Q191 536 270 536Q340 536 387 510Q434 484 451 437L471 525H523L427 -21Q412 -107 360.5 -148.5Q309 -190 219 -190ZM294 525ZM357 715 344 641H279L292 715ZM294 525Z" glyph-name="gdotaccent" horiz-adv-x="564" unicode="&#289;" /><glyph d="M182 546 55 -180H-4L123 546Q141 643 196.5 692Q252 741 343 741Q434 741 483 699.5Q532 658 532 584Q532 506 495.5 458.5Q459 411 386 395Q446 377 476.5 337.5Q507 298 507 238Q507 125 439.5 62.5Q372 0 245 0H188L196 49H247Q345 49 396 99Q447 149 447 240Q447 307 402 340.5Q357 374 268 374H254L261 421H300Q385 421 429.5 462Q474 503 474 580Q474 634 440 663Q406 692 341 692Q276 692 235 654Q194 616 182 546Z" glyph-name="germandbls" horiz-adv-x="574" unicode="&#223;" /><glyph d="M309 597H259L188 736H253ZM288 525Z" glyph-name="grave" horiz-adv-x="500" unicode="`" /><glyph d="M205 752H151L83 891H152ZM178 700Z" glyph-name="grave.case" horiz-adv-x="250" /><glyph d="M524 260 69 12V74L461 284V285L69 493V555L524 308Z" glyph-name="greater" horiz-adv-x="563" unicode="&gt;" /><glyph d="M82 206 472 354V355L82 504V562L536 379V331L82 147ZM82 62H536V14H82Z" glyph-name="greaterequal" horiz-adv-x="624" unicode="&#8805;" /><glyph d="M161 72 34 263 228 452H297L101 258L220 72ZM324 72 197 263 391 452H460L264 258L383 72Z" glyph-name="guillemotleft" horiz-adv-x="490" unicode="&#171;" /><glyph d="M152 453 279 262 85 73H16L212 267L93 453ZM315 453 442 262 248 73H179L375 267L256 453Z" glyph-name="guillemotright" horiz-adv-x="489" unicode="&#187;" /><glyph d="M161 72 34 263 228 452H297L101 258L220 72Z" glyph-name="guilsinglleft" horiz-adv-x="327" unicode="&#8249;" /><glyph d="M152 453 279 262 85 73H16L212 267L93 453Z" glyph-name="guilsinglright" horiz-adv-x="326" unicode="&#8250;" /><glyph d="M310 483Q244 483 200 440.5Q156 398 143 326L86 0H27L155 730H214L166 452Q193 493 234 514.5Q275 536 326 536Q424 536 473.5 476Q523 416 506 323L450 0H391L446 317Q459 393 423.5 438Q388 483 310 483ZM178 679Z" glyph-name="h" horiz-adv-x="577" unicode="h" /><glyph d="M310 483Q244 483 200 440.5Q156 398 143 326L86 0H27L132 598H55L63 642H140L155 730H214L199 642H345L337 598H191L166 452Q193 493 234 514.5Q275 536 326 536Q424 536 473.5 476Q523 416 506 323L450 0H391L446 317Q459 393 423.5 438Q388 483 310 483Z" glyph-name="hbar" horiz-adv-x="577" unicode="&#295;" /><glyph d="M310 483Q244 483 200 440.5Q156 398 143 326L86 0H27L155 730H214L166 452Q193 493 234 514.5Q275 536 326 536Q424 536 473.5 476Q523 416 506 323L450 0H391L446 317Q459 393 423.5 438Q388 483 310 483ZM178 679ZM263 751 211 858H210L121 751H72L185 890H244L309 751ZM178 679Z" glyph-name="hcircumflex" horiz-adv-x="577" unicode="&#293;" /><glyph d="M211 736H278L162 597H110ZM332 736H399L269 597H218ZM186 525Z" glyph-name="hungarumlaut" horiz-adv-x="500" unicode="&#733;" /><glyph d="M101 891H167L51 752H0ZM222 891H288L158 752H107ZM81 700Z" glyph-name="hungarumlaut.case" horiz-adv-x="250" /><glyph d="M70 283 80 340H345L335 283Z" glyph-name="hyphen" horiz-adv-x="412" unicode="-" /><glyph d="M7 135 14 180H154L147 135Z" glyph-name="hyphen.denominator" horiz-adv-x="211" unicode="&#63019;" /><glyph d="M68 485 75 530H215L208 485Z" glyph-name="hyphen.numerator" horiz-adv-x="210" unicode="&#63024;" /><glyph d="M182 525 90 0H30L122 525ZM220 730 204 640H141L156 730ZM54 0Z" glyph-name="i" horiz-adv-x="225" unicode="i" /><glyph d="M183 525 90 0H30L123 525ZM153 525ZM240 736H306L187 597H137ZM152 525Z" glyph-name="iacute" horiz-adv-x="225" unicode="&#237;" /><glyph d="M183 525 90 0H30L123 525ZM153 525ZM238 597 186 704H185L96 597H47L160 736H219L284 597ZM153 525Z" glyph-name="icircumflex" horiz-adv-x="225" unicode="&#238;" /><glyph d="M183 525 90 0H30L123 525ZM153 525ZM150 706 138 638H80L92 706ZM269 706 257 638H200L211 706ZM153 526Z" glyph-name="idieresis" horiz-adv-x="225" unicode="&#239;" /><glyph d="M183 525 90 0H30L123 525ZM153 525ZM178 597H128L57 736H122ZM157 525Z" glyph-name="igrave" horiz-adv-x="225" unicode="&#236;" /><glyph d="M182 525 90 0H30L122 525ZM220 730 204 640H141L156 730ZM54 0ZM134 -180H75L84 -130H131Q181 -130 210.5 -109Q240 -88 247 -47L347 525H407L305 -52Q294 -117 251.5 -148.5Q209 -180 134 -180ZM444 730 429 640H366L381 730Z" glyph-name="ij" horiz-adv-x="450" unicode="&#307;" /><glyph d="M183 525 90 0H30L123 525ZM153 525ZM51 641 58 681H294L287 641ZM153 525Z" glyph-name="imacron" horiz-adv-x="225" unicode="&#299;" /><glyph d="M787 289Q787 211 742.5 165Q698 119 619 119Q565 119 520 149.5Q475 180 428 254Q388 189 337 155Q286 121 227 121Q149 121 104 167Q59 213 59 291Q59 368 104 414Q149 460 227 460Q284 460 332.5 430Q381 400 426 336Q465 396 513.5 427Q562 458 619 458Q698 458 742.5 412.5Q787 367 787 289ZM111 291Q111 237 142 204.5Q173 172 226 172Q275 172 319 203Q363 234 399 294Q357 355 315.5 382Q274 409 226 409Q173 409 142 376.5Q111 344 111 291ZM735 289Q735 342 704.5 374.5Q674 407 621 407Q573 407 532 379Q491 351 458 296Q508 220 543.5 195Q579 170 621 170Q673 170 704 202.5Q735 235 735 289Z" glyph-name="infinity" horiz-adv-x="852" unicode="&#8734;" /><glyph d="M188 529V21Q188 -72 142.5 -114Q97 -156 0 -156H-40V-106H3Q70 -106 99.5 -77.5Q129 -49 129 21V529Q129 620 175 662.5Q221 705 317 705H357V655H314Q248 655 218 627Q188 599 188 529Z" glyph-name="integral" horiz-adv-x="326" unicode="&#8747;" /><glyph d="M220 730 204 640H141L157 730ZM66 -131 61 -169Q49 -175 37 -177.5Q25 -180 12 -180Q-25 -180 -45.5 -161Q-66 -142 -66 -110Q-66 -76 -40 -45.5Q-14 -15 32 8L123 525H183L90 0H68Q25 -23 4.5 -47Q-16 -71 -16 -96Q-16 -115 -3.5 -126Q9 -137 31 -137Q36 -137 40.5 -136.5Q45 -136 66 -131Z" glyph-name="iogonek" horiz-adv-x="226" unicode="&#303;" /><glyph d="M183 525 90 0H30L123 525ZM153 525ZM238 594Q222 594 206 599.5Q190 605 177 615L144 642Q134 650 126 653Q118 656 110 656Q88 656 74 641Q60 626 55 597H19Q23 645 48.5 672Q74 699 112 699Q129 699 144 693.5Q159 688 172 677L203 651Q210 645 221 640.5Q232 636 241 636Q263 636 276.5 651Q290 666 295 696H331Q326 646 302 620Q278 594 238 594ZM153 525Z" glyph-name="itilde" horiz-adv-x="225" unicode="&#297;" /><glyph d="M-91 -180H-150L-141 -130H-94Q-44 -130 -14.5 -109Q15 -88 22 -47L122 525H182L80 -52Q69 -117 26.5 -148.5Q-16 -180 -91 -180ZM219 730 204 640H141L156 730Z" glyph-name="j" horiz-adv-x="225" unicode="j" /><glyph d="M-91 -180H-150L-141 -130H-94Q-44 -130 -14.5 -109Q15 -88 22 -47L122 525H182L80 -52Q69 -117 26.5 -148.5Q-16 -180 -91 -180ZM152 525ZM237 597 185 704H184L95 597H46L159 736H218L283 597ZM152 525Z" glyph-name="jcircumflex" horiz-adv-x="225" unicode="&#309;" /><glyph d="M226 276 118 183 86 0H27L155 730H214L132 262L436 525H517L271 314L452 0H385ZM202 0Z" glyph-name="k" horiz-adv-x="509" unicode="k" /><glyph d="M453 0H385L227 276L118 183L87 0H27L120 525H179L133 263L436 525H517L272 314ZM203 0Z" glyph-name="kgreenlandic" horiz-adv-x="509" unicode="&#312;" /><glyph d="M218 730 90 0H30L158 730ZM188 730ZM297 700ZM216 350ZM59 0Z" glyph-name="l" horiz-adv-x="225" unicode="l" /><glyph d="M218 730 90 0H30L158 730ZM188 730ZM297 700ZM216 350ZM59 0ZM276 941H342L223 802H173ZM188 730Z" glyph-name="lacute" horiz-adv-x="225" unicode="&#314;" /><glyph d="M218 730 90 0H30L158 730ZM188 730ZM297 700ZM216 350ZM59 0ZM310 730H361V715L321 600H287ZM297 697Z" glyph-name="lcaron" horiz-adv-x="240" unicode="&#318;" /><glyph d="M218 730 90 0H30L158 730ZM188 730ZM297 700ZM216 350ZM59 0ZM307 399 293 321H228L241 399ZM220 350Z" glyph-name="ldot" horiz-adv-x="289" unicode="&#320;" /><glyph d="M32 260 487 12V74L95 284V285L487 493V555L32 308Z" glyph-name="less" horiz-adv-x="564" unicode="&lt;" /><glyph d="M516 206 126 354V355L516 504V562L62 379V331L516 147ZM516 62H62V14H516Z" glyph-name="lessequal" horiz-adv-x="608" unicode="&#8804;" /><glyph d="M218 730 90 0H30L158 730ZM188 730ZM297 700ZM216 350ZM59 0ZM307 399 293 321H228L241 399ZM220 350ZM507 730 379 0H319L447 730ZM477 730ZM586 700ZM505 350ZM348 0Z" glyph-name="lgeminada" horiz-adv-x="514" /><glyph d="M157 50H520L511 0H9L17 45L95 50L128 240H51L60 287H137L150 361H73L81 407H158L173 492Q191 596 252.5 653.5Q314 711 411 711Q520 711 573.5 655Q627 599 616 504L614 486H554L556 501Q566 572 527.5 614Q489 656 409 656Q340 656 293.5 609.5Q247 563 233 485L219 407H415L408 361H211L198 287H394L386 240H190Z" glyph-name="lira" horiz-adv-x="630" unicode="&#8356;" /><glyph d="M502 436V203H446V384H90V436Z" glyph-name="logicalnot" horiz-adv-x="588" unicode="&#172;" /><glyph d="M208 566 108 0H49L132 477H56L64 525H141L149 570Q163 651 209.5 690.5Q256 730 336 730H405L397 680H333Q281 680 249 651Q217 622 208 566Z" glyph-name="longs" horiz-adv-x="301" unicode="&#383;" /><glyph d="M561 50H585L576 0H550Q451 0 407.5 46Q364 92 379 178L431 477H354L361 525H440L465 664H524L499 525H649L641 477H490L437 175Q426 111 457 80.5Q488 50 561 50ZM604 710ZM471 10ZM388 0ZM208 566 108 0H49L132 477H56L64 525H141L149 570Q163 651 209.5 690.5Q256 730 336 730H405L397 680H333Q281 680 249 651Q217 622 208 566Z" glyph-name="longs_t" horiz-adv-x="644" unicode="&#64261;" /><glyph d="M342 700 558 349 342 0H256L40 349L256 700ZM291 59H312L488 345L305 642H290L110 353Z" glyph-name="lozenge" horiz-adv-x="581" unicode="&#9674;" /><glyph d="M189 409 117 0H57L120 361L19 291L30 348L130 418L185 730H245L199 466L298 536L288 478Z" glyph-name="lslash" horiz-adv-x="271" unicode="&#322;" /><glyph d="M306 483Q241 483 198.5 440.5Q156 398 143 323L86 0H27L119 525H172L162 448Q188 491 229.5 513.5Q271 536 323 536Q389 536 433.5 506Q478 476 494 422Q521 476 569 506Q617 536 678 536Q774 536 823 479Q872 422 856 336L798 0H738L795 324Q807 397 772.5 440Q738 483 662 483Q596 483 554 441.5Q512 400 498 322L442 0H382L439 324Q452 396 417.5 439.5Q383 483 306 483Z" glyph-name="m" horiz-adv-x="924" unicode="m" /><glyph d="M128 641 135 681H371L364 641ZM230 525Z" glyph-name="macron" horiz-adv-x="500" unicode="&#175;" /><glyph d="M24 813 31 855H267L260 813ZM125 700Z" glyph-name="macron.case" horiz-adv-x="250" /><glyph d="M499 358V305H88V358Z" glyph-name="minus" horiz-adv-x="578" unicode="&#8722;" /><glyph d="M250 -11Q198 -11 160.5 8Q123 27 104 63L67 -180H8L131 525H191L135 208Q121 126 154 84Q187 42 266 42Q330 42 373 83.5Q416 125 428 195L487 525H546L453 0H401L411 77Q384 34 342.5 11.5Q301 -11 250 -11Z" glyph-name="mu" horiz-adv-x="598" unicode="&#181;" /><glyph d="M404 205 366 167 240 293 114 168 76 206 202 331 76 458 113 496 240 369 367 496 405 459 277 331Z" glyph-name="multiply" horiz-adv-x="476" unicode="&#215;" /><glyph d="M310 483Q244 483 200 440.5Q156 398 144 328L86 0H27L119 525H172L162 447Q189 490 231 513Q273 536 326 536Q424 536 473.5 476Q523 416 506 323L450 0H391L446 317Q459 393 423.5 438Q388 483 310 483ZM133 562ZM320 525ZM238 0Z" glyph-name="n" horiz-adv-x="577" unicode="n" /><glyph d="M310 483Q244 483 200 440.5Q156 398 144 328L86 0H27L119 525H172L162 447Q189 490 231 513Q273 536 326 536Q424 536 473.5 476Q523 416 506 323L450 0H391L446 317Q459 393 423.5 438Q388 483 310 483ZM133 562ZM320 525ZM238 0ZM408 736H474L355 597H305ZM320 525Z" glyph-name="nacute" horiz-adv-x="577" unicode="&#324;" /><glyph d="M310 483Q244 483 200 440.5Q156 398 144 328L86 0H27L119 525H172L162 447Q189 490 231 513Q273 536 326 536Q424 536 473.5 476Q523 416 506 323L450 0H391L446 317Q459 393 423.5 438Q388 483 310 483ZM133 562ZM320 525ZM238 0ZM127 693H182V678L131 563H87ZM167 753ZM133 562Z" glyph-name="napostrophe" horiz-adv-x="577" unicode="&#329;" /><glyph d="M310 483Q244 483 200 440.5Q156 398 144 328L86 0H27L119 525H172L162 447Q189 490 231 513Q273 536 326 536Q424 536 473.5 476Q523 416 506 323L450 0H391L446 317Q459 393 423.5 438Q388 483 310 483ZM133 562ZM320 525ZM238 0ZM283 736 335 629H336L425 736H474L361 597H302L237 736ZM321 525Z" glyph-name="ncaron" horiz-adv-x="577" unicode="&#328;" /><glyph d="M90 461Q90 576 153.5 643.5Q217 711 334 711Q459 711 515 647Q571 583 551 470L504 205Q486 103 423 46Q360 -11 259 -11Q152 -11 96 39.5Q40 90 52 166L56 191H116L113 169Q105 110 144 75.5Q183 41 264 41Q333 41 381.5 86.5Q430 132 443 205L470 357Q440 319 398 299.5Q356 280 302 280Q199 280 144.5 327Q90 374 90 461ZM495 525Q495 593 454.5 626.5Q414 660 332 660Q246 660 199 607.5Q152 555 152 466Q152 399 192.5 365.5Q233 332 315 332Q401 332 448 384Q495 436 495 525Z" glyph-name="nine" horiz-adv-x="596" unicode="9" /><glyph d="M16 228Q16 289 49.5 322.5Q83 356 147 356Q210 356 240 322.5Q270 289 261 233L239 108Q229 55 195.5 24.5Q162 -6 110 -6Q51 -6 21.5 20.5Q-8 47 -2 90L-1 97H48L47 89Q44 64 60.5 49.5Q77 35 111 35Q142 35 162 54Q182 73 188 107L199 171Q188 155 168.5 146.5Q149 138 122 138Q70 138 43 161Q16 184 16 228ZM214 256Q214 286 196 302Q178 318 143 318Q107 318 87 294.5Q67 271 67 232Q67 205 85 190.5Q103 176 138 176Q174 176 194 198Q214 220 214 256Z" glyph-name="nine.denominator" horiz-adv-x="307" unicode="&#63070;" /><glyph d="M-9 88Q-9 149 24.5 182.5Q58 216 122 216Q185 216 215 182.5Q245 149 236 93L214 -32Q204 -85 170.5 -115.5Q137 -146 85 -146Q26 -146 -3.5 -119.5Q-33 -93 -27 -50L-26 -43H23L22 -51Q19 -76 35.5 -90.5Q52 -105 86 -105Q117 -105 137 -86Q157 -67 163 -33L174 31Q163 15 143.5 6.5Q124 -2 97 -2Q45 -2 18 21Q-9 44 -9 88ZM189 116Q189 146 171 162Q153 178 118 178Q82 178 62 154.5Q42 131 42 92Q42 65 60 50.5Q78 36 113 36Q149 36 169 58Q189 80 189 116Z" glyph-name="nine.inferior" horiz-adv-x="307" unicode="&#8329;" /><glyph d="M78 578Q78 639 111.5 672.5Q145 706 209 706Q272 706 302 672.5Q332 639 323 583L301 458Q291 405 257.5 374.5Q224 344 172 344Q113 344 83.5 370.5Q54 397 60 440L61 447H110L109 439Q106 414 122.5 399.5Q139 385 173 385Q204 385 224 404Q244 423 250 457L261 521Q250 505 230.5 496.5Q211 488 184 488Q132 488 105 511Q78 534 78 578ZM276 606Q276 636 258 652Q240 668 205 668Q169 668 149 644.5Q129 621 129 582Q129 555 147 540.5Q165 526 200 526Q236 526 256 548Q276 570 276 606Z" glyph-name="nine.numerator" horiz-adv-x="307" unicode="&#63082;" /><glyph d="M103 718Q103 779 136.5 812.5Q170 846 234 846Q297 846 327 812.5Q357 779 348 723L326 598Q316 545 282.5 514.5Q249 484 197 484Q138 484 108.5 510.5Q79 537 85 580L86 587H135L134 579Q131 554 147.5 539.5Q164 525 198 525Q229 525 249 544Q269 563 275 597L286 661Q275 645 255.5 636.5Q236 628 209 628Q157 628 130 651Q103 674 103 718ZM301 746Q301 776 283 792Q265 808 230 808Q194 808 174 784.5Q154 761 154 722Q154 695 172 680.5Q190 666 225 666Q261 666 281 688Q301 710 301 746Z" glyph-name="nine.superior" horiz-adv-x="307" unicode="&#8313;" /><glyph d="M93 461Q93 576 156.5 643.5Q220 711 337 711Q462 711 518 647Q574 583 554 470L507 205Q489 103 426 46Q363 -11 262 -11Q155 -11 99 39.5Q43 90 55 166L59 191H119L116 169Q108 110 147 75.5Q186 41 267 41Q336 41 384.5 86.5Q433 132 446 205L473 357Q443 319 401 299.5Q359 280 305 280Q202 280 147.5 327Q93 374 93 461ZM498 525Q498 593 457.5 626.5Q417 660 335 660Q249 660 202 607.5Q155 555 155 466Q155 399 195.5 365.5Q236 332 318 332Q404 332 451 384Q498 436 498 525Z" glyph-name="nine.tab" horiz-adv-x="602" unicode="&#65305;" /><glyph d="M516 265V211H239L173 134H116L182 211H105V265H225L340 398H105V452H383L449 529H506L440 452H516V398H398L282 265Z" glyph-name="notequal" horiz-adv-x="614" unicode="&#8800;" /><glyph d="M310 483Q244 483 200 440.5Q156 398 144 328L86 0H27L119 525H172L162 447Q189 490 231 513Q273 536 326 536Q424 536 473.5 476Q523 416 506 323L450 0H391L446 317Q459 393 423.5 438Q388 483 310 483ZM133 562ZM320 525ZM238 0ZM405 594Q389 594 373 599.5Q357 605 344 615L311 642Q301 650 293 653Q285 656 277 656Q255 656 241 641Q227 626 222 597H186Q190 645 215.5 672Q241 699 279 699Q296 699 311 693.5Q326 688 339 677L370 651Q377 645 388 640.5Q399 636 408 636Q430 636 443.5 651Q457 666 462 696H498Q493 646 469 620Q445 594 405 594ZM320 525Z" glyph-name="ntilde" horiz-adv-x="577" unicode="&#241;" /><glyph d="M184 247H381L450 453H253ZM350 0H298L364 197H167L102 0H49L115 197H26L34 247H132L200 453H111L120 504H218L283 700H336L270 504H467L532 700H584L519 504H607L598 453H502L433 247H522L513 197H416Z" glyph-name="numbersign" horiz-adv-x="615" unicode="#" /><glyph d="M254 -11Q136 -11 81.5 50Q27 111 45 212L70 350Q85 440 139 488Q193 536 281 536Q397 536 450.5 475.5Q504 415 487 313L464 176Q449 89 394.5 39Q340 -11 254 -11ZM253 39Q313 39 353 77.5Q393 116 405 181L429 320Q443 394 404 440Q365 486 282 486Q220 486 180 449Q140 412 128 345L103 206Q89 130 128 84.5Q167 39 253 39ZM300 524Z" glyph-name="o" horiz-adv-x="547" unicode="o" /><glyph d="M254 -11Q136 -11 81.5 50Q27 111 45 212L70 350Q85 440 139 488Q193 536 281 536Q397 536 450.5 475.5Q504 415 487 313L464 176Q449 89 394.5 39Q340 -11 254 -11ZM253 39Q313 39 353 77.5Q393 116 405 181L429 320Q443 394 404 440Q365 486 282 486Q220 486 180 449Q140 412 128 345L103 206Q89 130 128 84.5Q167 39 253 39ZM300 524ZM387 735H453L334 596H284ZM299 524Z" glyph-name="oacute" horiz-adv-x="547" unicode="&#243;" /><glyph d="M254 -11Q136 -11 81.5 50Q27 111 45 212L70 350Q85 440 139 488Q193 536 281 536Q397 536 450.5 475.5Q504 415 487 313L464 176Q449 89 394.5 39Q340 -11 254 -11ZM253 39Q313 39 353 77.5Q393 116 405 181L429 320Q443 394 404 440Q365 486 282 486Q220 486 180 449Q140 412 128 345L103 206Q89 130 128 84.5Q167 39 253 39ZM300 524ZM384 680 390 710H431L425 680Q416 636 386 611Q356 586 311 586Q264 586 239 614Q214 642 222 687L226 710H267L263 687Q258 656 271.5 640Q285 624 317 624Q342 624 360.5 639.5Q379 655 384 680ZM305 524Z" glyph-name="obreve" horiz-adv-x="547" unicode="&#335;" /><glyph d="M254 -11Q136 -11 81.5 50Q27 111 45 212L70 350Q85 440 139 488Q193 536 281 536Q397 536 450.5 475.5Q504 415 487 313L464 176Q449 89 394.5 39Q340 -11 254 -11ZM253 39Q313 39 353 77.5Q393 116 405 181L429 320Q443 394 404 440Q365 486 282 486Q220 486 180 449Q140 412 128 345L103 206Q89 130 128 84.5Q167 39 253 39ZM300 524ZM385 596 333 703H332L243 596H194L307 735H366L431 596ZM300 524Z" glyph-name="ocircumflex" horiz-adv-x="547" unicode="&#244;" /><glyph d="M254 -11Q136 -11 81.5 50Q27 111 45 212L70 350Q85 440 139 488Q193 536 281 536Q397 536 450.5 475.5Q504 415 487 313L464 176Q449 89 394.5 39Q340 -11 254 -11ZM253 39Q313 39 353 77.5Q393 116 405 181L429 320Q443 394 404 440Q365 486 282 486Q220 486 180 449Q140 412 128 345L103 206Q89 130 128 84.5Q167 39 253 39ZM300 524ZM297 705 285 637H227L239 705ZM416 705 404 637H347L358 705ZM300 525Z" glyph-name="odieresis" horiz-adv-x="547" unicode="&#246;" /><glyph d="M650 488Q588 488 546 450Q504 412 494 352L485 299H788L793 329Q806 403 769 445.5Q732 488 650 488ZM248 39Q310 39 352.5 79.5Q395 120 406 183L430 322Q443 397 405.5 441.5Q368 486 286 486Q223 486 181 447Q139 408 128 346L104 207Q91 130 128.5 84.5Q166 39 248 39ZM818 158 815 142Q802 72 748 30.5Q694 -11 608 -11Q536 -11 489.5 18.5Q443 48 426 104Q398 49 349.5 19Q301 -11 237 -11Q128 -11 78 50.5Q28 112 46 214L70 352Q84 435 141.5 485.5Q199 536 287 536Q359 536 405 508Q451 480 468 427Q495 480 542 508Q589 536 652 536Q764 536 814.5 476.5Q865 417 848 315L837 251H477L467 196Q454 124 492 81Q530 38 614 38Q673 38 710.5 66Q748 94 759 144L762 158Z" glyph-name="oe" horiz-adv-x="900" unicode="&#339;" /><glyph d="M279 -137Q285 -137 291.5 -136Q298 -135 314 -131L309 -169Q298 -175 286 -177.5Q274 -180 260 -180Q223 -180 202.5 -161Q182 -142 182 -110Q182 -73 212.5 -40Q243 -7 300 18L326 5Q279 -19 255.5 -44.5Q232 -70 232 -96Q232 -115 244.5 -126Q257 -137 279 -137ZM303 0Z" glyph-name="ogonek" horiz-adv-x="500" unicode="&#731;" /><glyph d="M254 -11Q136 -11 81.5 50Q27 111 45 212L70 350Q85 440 139 488Q193 536 281 536Q397 536 450.5 475.5Q504 415 487 313L464 176Q449 89 394.5 39Q340 -11 254 -11ZM253 39Q313 39 353 77.5Q393 116 405 181L429 320Q443 394 404 440Q365 486 282 486Q220 486 180 449Q140 412 128 345L103 206Q89 130 128 84.5Q167 39 253 39ZM300 524ZM321 596H271L200 735H265ZM300 524Z" glyph-name="ograve" horiz-adv-x="547" unicode="&#242;" /><glyph d="M254 -11Q136 -11 81.5 50Q27 111 45 212L70 350Q85 440 139 488Q193 536 281 536Q397 536 450.5 475.5Q504 415 487 313L464 176Q449 89 394.5 39Q340 -11 254 -11ZM253 39Q313 39 353 77.5Q393 116 405 181L429 320Q443 394 404 440Q365 486 282 486Q220 486 180 449Q140 412 128 345L103 206Q89 130 128 84.5Q167 39 253 39ZM300 524ZM324 735H391L275 596H223ZM445 735H512L382 596H331ZM299 524Z" glyph-name="ohungarumlaut" horiz-adv-x="547" unicode="&#337;" /><glyph d="M254 -11Q136 -11 81.5 50Q27 111 45 212L70 350Q85 440 139 488Q193 536 281 536Q397 536 450.5 475.5Q504 415 487 313L464 176Q449 89 394.5 39Q340 -11 254 -11ZM253 39Q313 39 353 77.5Q393 116 405 181L429 320Q443 394 404 440Q365 486 282 486Q220 486 180 449Q140 412 128 345L103 206Q89 130 128 84.5Q167 39 253 39ZM300 524ZM194 640 201 680H437L430 640ZM296 524Z" glyph-name="omacron" horiz-adv-x="547" unicode="&#333;" /><glyph d="M110 613 121 670 350 707H401L283 54H495L486 0H1L10 54H221L328 645Z" glyph-name="one" horiz-adv-x="553" unicode="1" /><glyph d="M25 289 34 334 146 353H185L129 43H226L219 0H-27L-20 43H78L125 303Z" glyph-name="one.denominator" horiz-adv-x="280" unicode="&#63062;" /><glyph d="M0 149 9 194 121 213H160L104 -97H201L194 -140H-52L-45 -97H53L100 163Z" glyph-name="one.inferior" horiz-adv-x="280" unicode="&#8321;" /><glyph d="M87 639 96 684 208 703H247L191 393H288L281 350H35L42 393H140L187 653Z" glyph-name="one.numerator" horiz-adv-x="280" unicode="&#63074;" /><glyph d="M133 613 144 670 373 707H424L306 54H518L509 0H24L33 54H244L351 645Z" glyph-name="one.tab" horiz-adv-x="602" unicode="&#65297;" /><glyph d="M112 639 121 684 233 703H272L216 393H313L306 350H60L67 393H165L212 653ZM654 700H711L155 0H98ZM516 151 631 197Q656 208 665.5 222.5Q675 237 675 260Q675 285 657 299Q639 313 605 313Q572 313 553 296Q534 279 530 248L529 240H479L480 250Q485 298 519.5 327Q554 356 608 356Q664 356 695 331Q726 306 726 264Q726 227 707.5 201Q689 175 646 158L544 118Q525 111 516 101.5Q507 92 504 76L498 42H687L680 0H440L454 77Q459 103 474.5 121.5Q490 140 516 151Z" glyph-name="onehalf" horiz-adv-x="778" unicode="&#189;" /><glyph d="M112 639 121 684 233 703H272L216 393H313L306 350H60L67 393H165L212 653ZM654 700H711L155 0H98ZM557 350H607L498 144H643L679 350H730L668 0H617L635 102H439L447 143Z" glyph-name="onequarter" horiz-adv-x="781" unicode="&#188;" /><glyph d="M111 779 120 824 232 843H271L215 533H312L305 490H59L66 533H164L211 793Z" glyph-name="onesuperior" horiz-adv-x="280" unicode="&#185;" /><glyph d="M233 387Q270 387 295 413Q320 439 328 484L341 561Q349 609 326.5 636Q304 663 254 663Q215 663 190.5 639.5Q166 616 160 574L146 494Q137 443 159 415Q181 387 233 387ZM356 352H310L315 391Q297 368 273 356.5Q249 345 219 345Q150 345 116.5 385.5Q83 426 95 491L111 585Q121 639 157 672.5Q193 706 244 706Q287 706 316.5 692Q346 678 359 652L369 699H415Z" glyph-name="ordfeminine" horiz-adv-x="427" unicode="&#170;" /><glyph d="M232 345Q156 345 120 385.5Q84 426 95 491L110 581Q121 642 159.5 674Q198 706 262 706Q337 706 372 666Q407 626 396 561L380 471Q370 410 332.5 377.5Q295 345 232 345ZM236 387Q273 387 297.5 410.5Q322 434 329 473L345 565Q353 612 330.5 638.5Q308 665 258 665Q219 665 193.5 641Q168 617 161 578L144 487Q136 440 159.5 413.5Q183 387 236 387Z" glyph-name="ordmasculine" horiz-adv-x="414" unicode="&#186;" /><glyph d="M128 345 103 206Q97 172 102 143Q107 114 122 93L379 462Q361 474 336.5 480Q312 486 282 486Q220 486 180 449Q140 412 128 345ZM253 39Q313 39 353 77.5Q393 116 405 181L429 320Q435 352 430 381.5Q425 411 410 433L152 64Q170 52 195.5 45.5Q221 39 253 39ZM254 -11Q214 -11 181.5 -3.5Q149 4 123 18L92 -29H38L87 44Q57 74 46.5 117Q36 160 45 212L70 350Q85 440 139 488Q193 536 281 536Q320 536 352 529Q384 522 409 508L442 558H495L445 481Q474 451 484.5 408Q495 365 487 313L464 176Q449 89 394.5 39Q340 -11 254 -11ZM274 525Z" glyph-name="oslash" horiz-adv-x="547" unicode="&#248;" /><glyph d="M254 -11Q136 -11 81.5 50Q27 111 45 212L70 350Q85 440 139 488Q193 536 281 536Q397 536 450.5 475.5Q504 415 487 313L464 176Q449 89 394.5 39Q340 -11 254 -11ZM253 39Q313 39 353 77.5Q393 116 405 181L429 320Q443 394 404 440Q365 486 282 486Q220 486 180 449Q140 412 128 345L103 206Q89 130 128 84.5Q167 39 253 39ZM300 524ZM382 593Q366 593 350 598.5Q334 604 321 614L288 641Q278 649 270 652Q262 655 254 655Q232 655 218 640Q204 625 199 596H163Q167 644 192.5 671Q218 698 256 698Q273 698 288 692.5Q303 687 316 676L347 650Q354 644 365 639.5Q376 635 385 635Q407 635 420.5 650Q434 665 439 695H475Q470 645 446 619Q422 593 382 593ZM297 524Z" glyph-name="otilde" horiz-adv-x="547" unicode="&#245;" /><glyph d="M275 42Q337 42 374.5 79Q412 116 425 190L446 310Q461 395 425.5 439Q390 483 304 483Q241 483 199 440Q157 397 144 322L123 206Q110 128 149 85Q188 42 275 42ZM280 -11Q212 -11 165.5 13.5Q119 38 102 82L55 -180H-4L120 525H172L163 451Q189 493 229 514.5Q269 536 322 536Q424 536 474 475Q524 414 506 316L481 172Q466 88 412.5 38.5Q359 -11 280 -11Z" glyph-name="p" horiz-adv-x="565" unicode="p" /><glyph d="M324 0H263L314 289H295Q179 289 124 332Q69 375 69 468Q69 573 133.5 636.5Q198 700 315 700H448Z" glyph-name="paragraph" horiz-adv-x="475" unicode="&#182;" /><glyph d="M45 69 139 603Q153 684 200.5 723.5Q248 763 331 763H389L379 709H330Q275 709 241.5 679Q208 649 199 593L106 66Q93 -4 121 -40.5Q149 -77 218 -77H240L231 -131H206Q111 -131 69.5 -78Q28 -25 45 69Z" glyph-name="parenleft" horiz-adv-x="340" unicode="(" /><glyph d="M0 65 43 312Q51 358 76.5 377Q102 396 152 396H184L176 354H150Q125 354 110.5 342Q96 330 92 305L50 65Q44 29 56 12.5Q68 -4 100 -4H113L106 -46H91Q35 -46 12.5 -18.5Q-10 9 0 65Z" glyph-name="parenleft.denominator" horiz-adv-x="186" unicode="&#63020;" /><glyph d="M-25 -75 18 172Q26 218 51.5 237Q77 256 127 256H159L151 214H125Q100 214 85.5 202Q71 190 67 165L25 -75Q19 -111 31 -127.5Q43 -144 75 -144H88L81 -186H66Q10 -186 -12.5 -158.5Q-35 -131 -25 -75Z" glyph-name="parenleft.inferior" horiz-adv-x="186" unicode="&#8333;" /><glyph d="M62 415 105 662Q113 708 138.5 727Q164 746 214 746H246L238 704H212Q187 704 172.5 692Q158 680 154 655L112 415Q106 379 118 362.5Q130 346 162 346H175L168 304H153Q97 304 74.5 331.5Q52 359 62 415Z" glyph-name="parenleft.numerator" horiz-adv-x="186" unicode="&#63025;" /><glyph d="M86 555 129 802Q137 848 162.5 867Q188 886 238 886H270L262 844H236Q211 844 196.5 832Q182 820 178 795L136 555Q130 519 142 502.5Q154 486 186 486H199L192 444H177Q121 444 98.5 471.5Q76 499 86 555Z" glyph-name="parenleft.superior" horiz-adv-x="186" unicode="&#8317;" /><glyph d="M301 563 207 29Q193 -52 145.5 -91.5Q98 -131 15 -131H-43L-33 -77H16Q71 -77 104.5 -47Q138 -17 147 39L240 566Q253 636 225 672.5Q197 709 128 709H106L115 763H140Q235 763 276.5 710Q318 657 301 563Z" glyph-name="parenright" horiz-adv-x="340" unicode=")" /><glyph d="M142 286 98 39Q91 -7 65 -26.5Q39 -46 -10 -46H-42L-34 -3H-8Q17 -3 31.5 8.5Q46 20 50 45L92 285Q98 322 86 338.5Q74 355 42 355H29L36 396H51Q107 396 129.5 369Q152 342 142 286Z" glyph-name="parenright.denominator" horiz-adv-x="185" unicode="&#63021;" /><glyph d="M117 146 73 -101Q66 -147 40 -166.5Q14 -186 -35 -186H-67L-59 -143H-33Q-8 -143 6.5 -131.5Q21 -120 25 -95L67 145Q73 182 61 198.5Q49 215 17 215H4L11 256H26Q82 256 104.5 229Q127 202 117 146Z" glyph-name="parenright.inferior" horiz-adv-x="185" unicode="&#8334;" /><glyph d="M203 636 159 389Q152 343 126 323.5Q100 304 51 304H19L27 347H53Q78 347 92.5 358.5Q107 370 111 395L153 635Q159 672 147 688.5Q135 705 103 705H90L97 746H112Q168 746 190.5 719Q213 692 203 636Z" glyph-name="parenright.numerator" horiz-adv-x="185" unicode="&#63026;" /><glyph d="M228 776 184 529Q177 483 151 463.5Q125 444 76 444H44L52 487H78Q103 487 117.5 498.5Q132 510 136 535L178 775Q184 812 172 828.5Q160 845 128 845H115L122 886H137Q193 886 215.5 859Q238 832 228 776Z" glyph-name="parenright.superior" horiz-adv-x="185" unicode="&#8318;" /><glyph d="M237 40Q298 40 339 77Q380 114 390 173L400 230Q413 303 374.5 347Q336 391 253 391Q192 391 151 354Q110 317 99 258L90 200Q77 127 115.5 83.5Q154 40 237 40ZM500 463 448 166Q433 83 376.5 36Q320 -11 230 -11Q119 -11 66 49.5Q13 110 30 206L41 264Q54 344 110 392.5Q166 441 252 441Q312 441 355 419Q398 397 422 356L442 472Q460 570 419.5 616.5Q379 663 278 663H198L206 711H270Q408 711 465 649.5Q522 588 500 463Z" glyph-name="partialdiff" horiz-adv-x="547" unicode="&#8706;" /><glyph d="M196 344Q247 344 279 373Q311 402 320 455L340 568Q350 629 320 667.5Q290 706 226 706Q173 706 140.5 677Q108 648 99 595L79 482Q69 421 100 382.5Q131 344 196 344ZM221 663Q261 663 278.5 638.5Q296 614 289 570L270 459Q265 428 245 408Q225 388 198 388Q156 388 138.5 412.5Q121 437 130 480L149 591Q154 622 173.5 642.5Q193 663 221 663ZM647 700H704L148 0H91ZM560 -6Q611 -6 643 23Q675 52 684 105L704 218Q714 279 684 317.5Q654 356 590 356Q537 356 504.5 327Q472 298 463 245L443 132Q433 71 464 32.5Q495 -6 560 -6ZM585 313Q625 313 642.5 288.5Q660 264 653 220L634 109Q629 78 609 58Q589 38 562 38Q520 38 502.5 62.5Q485 87 494 130L513 241Q518 272 537.5 292.5Q557 313 585 313Z" glyph-name="percent" horiz-adv-x="766" unicode="%" /><glyph d="M98 78 84 0H19L32 78ZM11 29Z" glyph-name="period" horiz-adv-x="205" unicode="." /><glyph d="M43 52 34 0H-20L-11 52Z" glyph-name="period.denominator" horiz-adv-x="118" unicode="&#63072;" /><glyph d="M103 402 94 350H40L49 402Z" glyph-name="period.numerator" horiz-adv-x="115" unicode="&#63084;" /><glyph d="M158 399 144 321H79L92 399ZM71 350Z" glyph-name="periodcentered" horiz-adv-x="218" unicode="&#183;" /><glyph d="M197 344Q248 344 280 373Q312 402 321 455L341 568Q351 629 321 667.5Q291 706 227 706Q174 706 141.5 677Q109 648 100 595L80 482Q70 421 101 382.5Q132 344 197 344ZM222 663Q262 663 279.5 638.5Q297 614 290 570L271 459Q266 428 246 408Q226 388 199 388Q157 388 139.5 412.5Q122 437 131 480L150 591Q155 622 174.5 642.5Q194 663 222 663ZM644 700H701L145 0H88ZM561 -6Q612 -6 644 23Q676 52 685 105L705 218Q715 279 685 317.5Q655 356 591 356Q538 356 505.5 327Q473 298 464 245L444 132Q434 71 465 32.5Q496 -6 561 -6ZM586 313Q626 313 643.5 288.5Q661 264 654 220L635 109Q630 78 610 58Q590 38 563 38Q521 38 503.5 62.5Q486 87 495 130L514 241Q519 272 538.5 292.5Q558 313 586 313ZM875 -6Q926 -6 958 23Q990 52 999 105L1019 218Q1029 279 999 317.5Q969 356 905 356Q852 356 819.5 327Q787 298 778 245L758 132Q748 71 779 32.5Q810 -6 875 -6ZM900 313Q940 313 957.5 288.5Q975 264 968 220L949 109Q944 78 924 58Q904 38 877 38Q835 38 817.5 62.5Q800 87 809 130L828 241Q833 272 852.5 292.5Q872 313 900 313Z" glyph-name="perthousand" horiz-adv-x="1075" unicode="&#8240;" /><glyph d="M573 512Q573 579 527 612.5Q481 646 389 646H221L163 315H371Q469 315 521 367.5Q573 420 573 512ZM636 519Q636 398 567 330Q498 262 368 262H153L107 0H44L168 700H393Q512 700 574 653Q636 606 636 519ZM911 50H935L926 0H900Q801 0 757.5 46Q714 92 729 178L781 477H704L711 525H790L815 664H874L849 525H999L991 477H840L787 175Q776 111 807 80.5Q838 50 911 50ZM954 710ZM821 10ZM738 0ZM1474 401 1472 383H1415L1417 398Q1423 444 1389.5 467Q1356 490 1284 490Q1220 490 1182.5 462.5Q1145 435 1145 391Q1145 359 1164 340Q1183 321 1227 311L1329 286Q1385 273 1414.5 240Q1444 207 1444 158Q1444 79 1390.5 34Q1337 -11 1238 -11Q1132 -11 1080.5 22Q1029 55 1034 121L1035 134H1093L1092 121Q1089 78 1125 57.5Q1161 37 1238 37Q1309 37 1347.5 66Q1386 95 1386 146Q1386 183 1366.5 204.5Q1347 226 1304 236L1204 260Q1145 274 1117 305Q1089 336 1089 386Q1089 453 1142.5 494.5Q1196 536 1290 536Q1385 536 1433 500Q1481 464 1474 401ZM1291 525ZM1219 10ZM1215 0Z" glyph-name="peseta" horiz-adv-x="1522" unicode="&#8359;" /><glyph d="M555 525 462 0H399L483 473H173L89 0H26L120 525Z" glyph-name="pi" horiz-adv-x="595" unicode="&#960;" /><glyph d="M287 126H234V305H56V357H234V537H287V357H467V305H287Z" glyph-name="plus" horiz-adv-x="513" unicode="+" /><glyph d="M261 456V626H315V456H495V405H315V234H261V405H83V456ZM83 139H495V88H83Z" glyph-name="plusminus" horiz-adv-x="589" unicode="&#177;" /><glyph d="M681 700 535 -126H473L610 647H221L84 -126Q54 -126 38.5 -126Q23 -126 22 -126L168 700Z" glyph-name="product" horiz-adv-x="708" unicode="&#8719;" /><glyph d="M523 525 399 -180H339L383 67Q358 29 319 9Q280 -11 230 -11Q128 -11 77.5 50Q27 111 44 209L70 353Q85 438 138.5 487Q192 536 272 536Q342 536 388.5 510.5Q435 485 451 438L471 525ZM248 42Q311 42 352.5 85.5Q394 129 408 206L428 321Q441 397 402 440Q363 483 277 483Q214 483 176.5 446Q139 409 126 335L104 215Q89 130 125 86Q161 42 248 42Z" glyph-name="q" horiz-adv-x="563" unicode="q" /><glyph d="M291 220 280 159H219L232 233Q240 280 268 312.5Q296 345 360 376Q440 414 466 448Q492 482 492 534Q492 595 449 626.5Q406 658 322 658Q239 658 193.5 623.5Q148 589 136 516L131 486H70L75 519Q90 616 152.5 663.5Q215 711 326 711Q436 711 495 665Q554 619 554 535Q554 469 520.5 425Q487 381 401 337Q336 304 317 281Q298 258 291 220ZM268 78 255 0H188L202 78Z" glyph-name="question" horiz-adv-x="554" unicode="?" /><glyph d="M246 305 257 366H318L305 292Q297 245 269 212.5Q241 180 177 149Q97 111 71 77Q45 43 45 -9Q45 -70 88 -101.5Q131 -133 215 -133Q298 -133 343.5 -98.5Q389 -64 401 9L406 39H467L462 6Q447 -91 384.5 -138.5Q322 -186 211 -186Q101 -186 42 -140Q-17 -94 -17 -10Q-17 56 16.5 100Q50 144 136 188Q201 221 220 244Q239 267 246 305ZM269 447 282 525H349L335 447Z" glyph-name="questiondown" horiz-adv-x="548" unicode="&#191;" /><glyph d="M136 700H198L156 518H114ZM273 700H334L292 518H250Z" glyph-name="quotedbl" horiz-adv-x="331" unicode="&quot;" /><glyph d="M40.46 77.947H101.623V62.163L21.7165 -105.542H-22.676ZM165.46 77.947H226.623V62.163L146.7165 -105.542H102.324Z" glyph-name="quotedblbase" horiz-adv-x="335" unicode="&#8222;" /><glyph d="M160.54 516.053H99.377V531.837L179.2835 699.542H223.676ZM284.54 516.053H223.377V531.837L303.2835 699.542H347.676Z" glyph-name="quotedblleft" horiz-adv-x="336" unicode="&#8220;" /><glyph d="M163.46 699.947H224.623V684.163L144.7165 516.458H100.324ZM288.46 699.947H349.623V684.163L269.7165 516.458H225.324Z" glyph-name="quotedblright" horiz-adv-x="333" unicode="&#8221;" /><glyph d="M160.54 516.053H99.377V531.837L179.2835 699.542H223.676Z" glyph-name="quoteleft" horiz-adv-x="211" unicode="&#8216;" /><glyph d="M163.46 699.947H224.623V684.163L144.7165 516.458H100.324Z" glyph-name="quoteright" horiz-adv-x="209" unicode="&#8217;" /><glyph d="M40.46 77.947H101.623V62.163L21.7165 -105.542H-22.676Z" glyph-name="quotesinglbase" horiz-adv-x="210" unicode="&#8218;" /><glyph d="M136 700H198L156 518H114Z" glyph-name="quotesingle" horiz-adv-x="195" unicode="'" /><glyph d="M137 290 86 0H27L120 525H172L158 421Q190 476 243.5 505.5Q297 535 365 535L355 478H344Q262 478 207 426.5Q152 375 137 290ZM242 525ZM57 0Z" glyph-name="r" horiz-adv-x="345" unicode="r" /><glyph d="M137 290 86 0H27L120 525H172L158 421Q190 476 243.5 505.5Q297 535 365 535L355 478H344Q262 478 207 426.5Q152 375 137 290ZM242 525ZM57 0ZM330 736H396L277 597H227ZM242 525Z" glyph-name="racute" horiz-adv-x="345" unicode="&#341;" /><glyph d="M156 473H64V525H204L345 91H355L553 700H618L383 0H316Z" glyph-name="radical" horiz-adv-x="600" unicode="&#8730;" /><glyph d="M137 290 86 0H27L120 525H172L158 421Q190 476 243.5 505.5Q297 535 365 535L355 478H344Q262 478 207 426.5Q152 375 137 290ZM242 525ZM57 0ZM204 736 256 629H257L346 736H395L282 597H223L158 736ZM242 525Z" glyph-name="rcaron" horiz-adv-x="345" unicode="&#345;" /><glyph d="M306 271Q215 271 151 335Q87 399 87 490Q87 581 151 645.5Q215 710 306 710Q398 710 462 646Q526 582 526 490Q526 399 461.5 335Q397 271 306 271ZM306 676Q230 676 176 621.5Q122 567 122 490Q122 414 176 360Q230 306 306 306Q383 306 436.5 359.5Q490 413 490 490Q490 568 436.5 622Q383 676 306 676ZM359 527Q359 547 346.5 556.5Q334 566 309 566H265V489H309Q334 489 346.5 498.5Q359 508 359 527ZM352 385 321 458H265V385H229V597H314Q355 597 376 579Q397 561 397 528Q397 505 387 489Q377 473 357 465L392 385Z" glyph-name="registered" horiz-adv-x="550" unicode="&#174;" /><glyph d="M156 680Q156 720 183 747Q210 774 249 774Q289 774 317 747Q345 720 345 680Q345 641 317 614Q289 587 249 587Q210 587 183 614Q156 641 156 680ZM193 680Q193 656 209.5 639.5Q226 623 249 623Q273 623 290 639.5Q307 656 307 680Q307 705 290 722Q273 739 249 739Q226 739 209.5 722Q193 705 193 680ZM233 525Z" glyph-name="ring" horiz-adv-x="500" unicode="&#730;" /><glyph d="M39 836Q39 876 66 903Q93 930 133 930Q173 930 200.5 903Q228 876 228 836Q228 797 200.5 770Q173 743 133 743Q94 743 66.5 770Q39 797 39 836ZM77 836Q77 812 93.5 795Q110 778 133 778Q157 778 173.5 795Q190 812 190 836Q190 861 173.5 877.5Q157 894 133 894Q109 894 93 877.5Q77 861 77 836ZM116 700Z" glyph-name="ring.case" horiz-adv-x="250" /><glyph d="M459 401 457 383H400L402 398Q408 444 374.5 467Q341 490 269 490Q205 490 167.5 462.5Q130 435 130 391Q130 359 149 340Q168 321 212 311L314 286Q370 273 399.5 240Q429 207 429 158Q429 79 375.5 34Q322 -11 223 -11Q117 -11 65.5 22Q14 55 19 121L20 134H78L77 121Q74 78 110 57.5Q146 37 223 37Q294 37 332.5 66Q371 95 371 146Q371 183 351.5 204.5Q332 226 289 236L189 260Q130 274 102 305Q74 336 74 386Q74 453 127.5 494.5Q181 536 275 536Q370 536 418 500Q466 464 459 401ZM276 525ZM204 10ZM200 0Z" glyph-name="s" horiz-adv-x="506" unicode="s" /><glyph d="M459 401 457 383H400L402 398Q408 444 374.5 467Q341 490 269 490Q205 490 167.5 462.5Q130 435 130 391Q130 359 149 340Q168 321 212 311L314 286Q370 273 399.5 240Q429 207 429 158Q429 79 375.5 34Q322 -11 223 -11Q117 -11 65.5 22Q14 55 19 121L20 134H78L77 121Q74 78 110 57.5Q146 37 223 37Q294 37 332.5 66Q371 95 371 146Q371 183 351.5 204.5Q332 226 289 236L189 260Q130 274 102 305Q74 336 74 386Q74 453 127.5 494.5Q181 536 275 536Q370 536 418 500Q466 464 459 401ZM276 525ZM204 10ZM200 0ZM363 736H429L310 597H260ZM275 525Z" glyph-name="sacute" horiz-adv-x="506" unicode="&#347;" /><glyph d="M459 401 457 383H400L402 398Q408 444 374.5 467Q341 490 269 490Q205 490 167.5 462.5Q130 435 130 391Q130 359 149 340Q168 321 212 311L314 286Q370 273 399.5 240Q429 207 429 158Q429 79 375.5 34Q322 -11 223 -11Q117 -11 65.5 22Q14 55 19 121L20 134H78L77 121Q74 78 110 57.5Q146 37 223 37Q294 37 332.5 66Q371 95 371 146Q371 183 351.5 204.5Q332 226 289 236L189 260Q130 274 102 305Q74 336 74 386Q74 453 127.5 494.5Q181 536 275 536Q370 536 418 500Q466 464 459 401ZM276 525ZM204 10ZM200 0ZM238 736 290 629H291L380 736H429L316 597H257L192 736ZM276 525Z" glyph-name="scaron" horiz-adv-x="506" unicode="&#353;" /><glyph d="M281 -126Q281 -162 256.5 -185Q232 -208 190 -208Q150 -208 129.5 -192.5Q109 -177 110 -149L111 -139H150V-145Q149 -157 159 -163.5Q169 -170 189 -170Q213 -170 225.5 -159Q238 -148 238 -128Q238 -110 227.5 -101Q217 -92 196 -92Q184 -92 174 -95Q164 -98 154 -105L128 -88L182 -10Q96 -4 54.5 29.5Q13 63 19 121L20 134H78L77 121Q72 79 109 58Q146 37 223 37Q294 37 332.5 66Q371 95 371 146Q371 182 351.5 203.5Q332 225 289 236L189 260Q130 274 102 305Q74 336 74 386Q74 453 127.5 494.5Q181 536 275 536Q374 536 421.5 498Q469 460 458 393L457 383H400L401 394Q409 442 376 466Q343 490 269 490Q205 490 167.5 462.5Q130 435 130 391Q130 359 149 340Q168 321 212 311L314 286Q371 272 400 239.5Q429 207 429 158Q429 79 375.5 34Q322 -11 223 -11H222L189 -60Q193 -58 197 -57Q201 -56 210 -56Q243 -56 262 -75Q281 -94 281 -126Z" glyph-name="scedilla" horiz-adv-x="506" unicode="&#351;" /><glyph d="M459 401 457 383H400L402 398Q408 444 374.5 467Q341 490 269 490Q205 490 167.5 462.5Q130 435 130 391Q130 359 149 340Q168 321 212 311L314 286Q370 273 399.5 240Q429 207 429 158Q429 79 375.5 34Q322 -11 223 -11Q117 -11 65.5 22Q14 55 19 121L20 134H78L77 121Q74 78 110 57.5Q146 37 223 37Q294 37 332.5 66Q371 95 371 146Q371 183 351.5 204.5Q332 226 289 236L189 260Q130 274 102 305Q74 336 74 386Q74 453 127.5 494.5Q181 536 275 536Q370 536 418 500Q466 464 459 401ZM276 525ZM204 10ZM200 0ZM361 597 309 704H308L219 597H170L283 736H342L407 597ZM276 525Z" glyph-name="scircumflex" horiz-adv-x="506" unicode="&#349;" /><glyph d="M346 35Q346 77 327 103Q308 129 265 148L140 202Q97 221 84 234.5Q71 248 71 266Q71 273 73 279Q75 285 78 290L293 195Q352 169 378.5 133.5Q405 98 405 48Q405 -34 354 -82Q303 -130 210 -130Q107 -130 58 -93.5Q9 -57 15 14L16 25H74L73 14Q69 -35 103.5 -59Q138 -83 211 -83Q274 -83 310 -50Q346 -17 346 35ZM164 541Q164 505 180 481.5Q196 458 233 442L371 380Q416 359 428 346Q440 333 440 315Q440 309 438.5 303Q437 297 433 291L208 391Q154 415 130.5 449.5Q107 484 107 536Q107 612 163 660.5Q219 709 316 709Q413 708 461 669Q509 630 496 566L494 556H437L439 566Q448 612 415 637.5Q382 663 309 663Q243 663 203.5 628.5Q164 594 164 541Z" glyph-name="section" horiz-adv-x="515" unicode="&#167;" /><glyph d="M66 78H128V62L47 -108H2ZM210 525 196 447H131L144 525ZM123 476Z" glyph-name="semicolon" horiz-adv-x="258" unicode=";" /><glyph d="M84 646 94 700H574L565 651L130 0H59L492 646Z" glyph-name="seven" horiz-adv-x="531" unicode="7" /><glyph d="M12 308 20 350H276L269 312L64 0H10L211 308Z" glyph-name="seven.denominator" horiz-adv-x="280" unicode="&#63068;" /><glyph d="M-13 168 -5 210H251L244 172L39 -140H-15L186 168Z" glyph-name="seven.inferior" horiz-adv-x="280" unicode="&#8327;" /><glyph d="M73 658 81 700H337L330 662L125 350H71L272 658Z" glyph-name="seven.numerator" horiz-adv-x="280" unicode="&#63080;" /><glyph d="M98 798 106 840H362L355 802L150 490H96L297 798Z" glyph-name="seven.superior" horiz-adv-x="280" unicode="&#8311;" /><glyph d="M119 646 129 700H609L600 651L165 0H94L527 646Z" glyph-name="seven.tab" horiz-adv-x="602" unicode="&#65303;" /><glyph d="M524 242Q524 125 460.5 57Q397 -11 279 -11Q154 -11 98 53Q42 117 62 230L109 495Q128 598 191 654.5Q254 711 355 711Q461 711 517 660Q573 609 561 534L557 509H497L500 531Q508 590 469 624.5Q430 659 350 659Q281 659 232 613.5Q183 568 170 495L143 343Q173 381 215.5 400.5Q258 420 312 420Q415 420 469.5 373.5Q524 327 524 242ZM118 175Q118 108 159 74Q200 40 281 40Q367 40 414 92.5Q461 145 461 234Q461 301 420.5 334.5Q380 368 298 368Q212 368 165 316Q118 264 118 175Z" glyph-name="six" horiz-adv-x="596" unicode="6" /><glyph d="M247 122Q247 61 213.5 27.5Q180 -6 116 -6Q53 -6 22.5 28Q-8 62 2 117L24 242Q33 295 66.5 325.5Q100 356 153 356Q211 356 240 330.5Q269 305 264 261L263 253H214L215 260Q218 286 202 300.5Q186 315 151 315Q121 315 101 296Q81 277 75 244L63 179Q75 195 94.5 203.5Q114 212 140 212Q192 212 219.5 189Q247 166 247 122ZM49 94Q49 63 67 47.5Q85 32 120 32Q156 32 175.5 55.5Q195 79 195 118Q195 146 177.5 160Q160 174 125 174Q89 174 69 152Q49 130 49 94Z" glyph-name="six.denominator" horiz-adv-x="307" unicode="&#63067;" /><glyph d="M223 -18Q223 -79 189.5 -112.5Q156 -146 92 -146Q29 -146 -1.5 -112Q-32 -78 -22 -23L0 102Q9 155 42.5 185.5Q76 216 129 216Q187 216 216 190.5Q245 165 240 121L239 113H190L191 120Q194 146 178 160.5Q162 175 127 175Q97 175 77 156Q57 137 51 104L39 39Q51 55 70.5 63.5Q90 72 116 72Q168 72 195.5 49Q223 26 223 -18ZM25 -46Q25 -77 43 -92.5Q61 -108 96 -108Q132 -108 151.5 -84.5Q171 -61 171 -22Q171 6 153.5 20Q136 34 101 34Q65 34 45 12Q25 -10 25 -46Z" glyph-name="six.inferior" horiz-adv-x="307" unicode="&#8326;" /><glyph d="M309 472Q309 411 275.5 377.5Q242 344 178 344Q115 344 84.5 378Q54 412 64 467L86 592Q95 645 128.5 675.5Q162 706 215 706Q273 706 302 680.5Q331 655 326 611L325 603H276L277 610Q280 636 264 650.5Q248 665 213 665Q183 665 163 646Q143 627 137 594L125 529Q137 545 156.5 553.5Q176 562 202 562Q254 562 281.5 539Q309 516 309 472ZM111 444Q111 413 129 397.5Q147 382 182 382Q218 382 237.5 405.5Q257 429 257 468Q257 496 239.5 510Q222 524 187 524Q151 524 131 502Q111 480 111 444Z" glyph-name="six.numerator" horiz-adv-x="307" unicode="&#63079;" /><glyph d="M334 612Q334 551 300.5 517.5Q267 484 203 484Q140 484 109.5 518Q79 552 89 607L111 732Q120 785 153.5 815.5Q187 846 240 846Q298 846 327 820.5Q356 795 351 751L350 743H301L302 750Q305 776 289 790.5Q273 805 238 805Q208 805 188 786Q168 767 162 734L150 669Q162 685 181.5 693.5Q201 702 227 702Q279 702 306.5 679Q334 656 334 612ZM136 584Q136 553 154 537.5Q172 522 207 522Q243 522 262.5 545.5Q282 569 282 608Q282 636 264.5 650Q247 664 212 664Q176 664 156 642Q136 620 136 584Z" glyph-name="six.superior" horiz-adv-x="307" unicode="&#8310;" /><glyph d="M527 242Q527 125 463.5 57Q400 -11 282 -11Q157 -11 101 53Q45 117 65 230L112 495Q131 598 194 654.5Q257 711 358 711Q464 711 520 660Q576 609 564 534L560 509H500L503 531Q511 590 472 624.5Q433 659 353 659Q284 659 235 613.5Q186 568 173 495L146 343Q176 381 218.5 400.5Q261 420 315 420Q418 420 472.5 373.5Q527 327 527 242ZM121 175Q121 108 162 74Q203 40 284 40Q370 40 417 92.5Q464 145 464 234Q464 301 423.5 334.5Q383 368 301 368Q215 368 168 316Q121 264 121 175Z" glyph-name="six.tab" horiz-adv-x="602" unicode="&#65302;" /><glyph d="M518 758H588L22 -126H-47Z" glyph-name="slash" horiz-adv-x="534" unicode="/" /><glyph glyph-name="space" horiz-adv-x="220" unicode=" " /><glyph d="M148 50H512L502 0H0L8 45L87 50L131 302H54L61 348H139L164 492Q182 595 243 653Q304 711 400 711Q508 711 560.5 658Q613 605 607 504L606 486H545L546 500Q552 577 515.5 616.5Q479 656 401 656Q332 656 285 609.5Q238 563 225 485L201 348H430L422 302H193Z" glyph-name="sterling" horiz-adv-x="622" unicode="&#163;" /><glyph d="M189 645 346 317 342 296 58 -71H461L451 -126H-40L-35 -95L280 309L102 676L106 700H597L587 645Z" glyph-name="summation" horiz-adv-x="571" unicode="&#8721;" /><glyph d="M260 50H284L275 0H249Q150 0 106.5 46Q63 92 78 178L130 477H53L60 525H139L164 664H223L198 525H348L340 477H189L136 175Q125 111 156 80.5Q187 50 260 50ZM303 710ZM170 10ZM87 0Z" glyph-name="t" horiz-adv-x="343" unicode="t" /><glyph d="M263 50H287L278 0H252Q153 0 109.5 46Q66 92 81 178L97 272H31L38 315H105L133 477H56L63 525H142L167 664H226L201 525H351L343 477H192L164 315H304L297 272H156L139 175Q128 111 159 80.5Q190 50 263 50Z" glyph-name="tbar" horiz-adv-x="347" unicode="&#359;" /><glyph d="M260 50H284L275 0H249Q150 0 106.5 46Q63 92 78 178L130 477H53L60 525H139L164 664H223L198 525H348L340 477H189L136 175Q125 111 156 80.5Q187 50 260 50ZM303 710ZM170 10ZM87 0ZM317 743H368V728L328 613H294ZM304 710Z" glyph-name="tcaron" horiz-adv-x="343" unicode="&#357;" /><glyph d="M275 42Q336 42 373.5 79Q411 116 424 190L446 310Q461 395 425.5 439Q390 483 304 483Q241 483 198.5 439.5Q156 396 143 320L122 205Q109 128 148.5 85Q188 42 275 42ZM279 -11Q210 -11 164 13.5Q118 38 101 83L57 -164H-2L156 730H215L167 458Q192 496 231.5 516Q271 536 322 536Q423 536 473 475Q523 414 506 316L480 172Q465 88 411.5 38.5Q358 -11 279 -11Z" glyph-name="thorn" horiz-adv-x="565" unicode="&#254;" /><glyph d="M511 224Q511 117 446 53Q381 -11 263 -11Q138 -11 79.5 39Q21 89 38 175L42 195H102L99 179Q86 110 127.5 76Q169 42 265 42Q352 42 400.5 92Q449 142 449 223Q449 283 412.5 314Q376 345 305 345H208L216 394H334Q399 394 443 433.5Q487 473 487 538Q487 596 447.5 627Q408 658 332 658Q263 658 221.5 625Q180 592 168 529L164 507H103L107 532Q121 620 179 665.5Q237 711 336 711Q437 711 493 666Q549 621 549 544Q549 479 514.5 432.5Q480 386 419 365Q463 348 487 311.5Q511 275 511 224Z" glyph-name="three" horiz-adv-x="590" unicode="3" /><glyph d="M237 114Q237 60 203 27Q169 -6 107 -6Q44 -6 13 19.5Q-18 45 -11 89L-9 102H41L39 90Q34 62 52 49Q70 36 110 36Q146 36 166 57Q186 78 186 113Q186 138 172 151Q158 164 131 164H80L87 202H134Q166 202 184.5 218Q203 234 203 263Q203 288 187 301Q171 314 140 314Q112 314 95 300Q78 286 72 259L70 250H21L23 262Q31 308 61.5 332Q92 356 143 356Q195 356 224.5 332.5Q254 309 254 269Q254 238 239 215.5Q224 193 196 181Q215 172 226 154.5Q237 137 237 114Z" glyph-name="three.denominator" horiz-adv-x="301" unicode="&#63064;" /><glyph d="M213 -26Q213 -80 179 -113Q145 -146 83 -146Q20 -146 -11 -120.5Q-42 -95 -35 -51L-33 -38H17L15 -50Q10 -78 28 -91Q46 -104 86 -104Q122 -104 142 -83Q162 -62 162 -27Q162 -2 148 11Q134 24 107 24H56L63 62H110Q142 62 160.5 78Q179 94 179 123Q179 148 163 161Q147 174 116 174Q88 174 71 160Q54 146 48 119L46 110H-3L-1 122Q7 168 37.5 192Q68 216 119 216Q171 216 200.5 192.5Q230 169 230 129Q230 98 215 75.5Q200 53 172 41Q191 32 202 14.5Q213 -3 213 -26Z" glyph-name="three.inferior" horiz-adv-x="301" unicode="&#8323;" /><glyph d="M299 464Q299 410 265 377Q231 344 169 344Q106 344 75 369.5Q44 395 51 439L53 452H103L101 440Q96 412 114 399Q132 386 172 386Q208 386 228 407Q248 428 248 463Q248 488 234 501Q220 514 193 514H142L149 552H196Q228 552 246.5 568Q265 584 265 613Q265 638 249 651Q233 664 202 664Q174 664 157 650Q140 636 134 609L132 600H83L85 612Q93 658 123.5 682Q154 706 205 706Q257 706 286.5 682.5Q316 659 316 619Q316 588 301 565.5Q286 543 258 531Q277 522 288 504.5Q299 487 299 464Z" glyph-name="three.numerator" horiz-adv-x="301" unicode="&#63076;" /><glyph d="M516 224Q516 117 451 53Q386 -11 268 -11Q143 -11 84.5 39Q26 89 43 175L47 195H107L104 179Q91 110 132.5 76Q174 42 270 42Q357 42 405.5 92Q454 142 454 223Q454 283 417.5 314Q381 345 310 345H213L221 394H339Q404 394 448 433.5Q492 473 492 538Q492 596 452.5 627Q413 658 337 658Q268 658 226.5 625Q185 592 173 529L169 507H108L112 532Q126 620 184 665.5Q242 711 341 711Q442 711 498 666Q554 621 554 544Q554 479 519.5 432.5Q485 386 424 365Q468 348 492 311.5Q516 275 516 224Z" glyph-name="three.tab" horiz-adv-x="602" unicode="&#65299;" /><glyph d="M320 464Q320 410 286 377Q252 344 190 344Q127 344 96 369.5Q65 395 72 439L74 452H124L122 440Q117 412 135 399Q153 386 193 386Q229 386 249 407Q269 428 269 463Q269 488 255 501Q241 514 214 514H163L170 552H217Q249 552 267.5 568Q286 584 286 613Q286 638 270 651Q254 664 223 664Q195 664 178 650Q161 636 155 609L153 600H104L106 612Q114 658 144.5 682Q175 706 226 706Q278 706 307.5 682.5Q337 659 337 619Q337 588 322 565.5Q307 543 279 531Q298 522 309 504.5Q320 487 320 464ZM642 700H699L143 0H86ZM539 350H589L480 144H625L661 350H712L650 0H599L617 102H421L429 143Z" glyph-name="threequarters" horiz-adv-x="764" unicode="&#190;" /><glyph d="M324 604Q324 550 290 517Q256 484 194 484Q131 484 100 509.5Q69 535 76 579L78 592H128L126 580Q121 552 139 539Q157 526 197 526Q233 526 253 547Q273 568 273 603Q273 628 259 641Q245 654 218 654H167L174 692H221Q253 692 271.5 708Q290 724 290 753Q290 778 274 791Q258 804 227 804Q199 804 182 790Q165 776 159 749L157 740H108L110 752Q118 798 148.5 822Q179 846 230 846Q282 846 311.5 822.5Q341 799 341 759Q341 728 326 705.5Q311 683 283 671Q302 662 313 644.5Q324 627 324 604Z" glyph-name="threesuperior" horiz-adv-x="301" unicode="&#179;" /><glyph d="M314 594Q298 594 282 599.5Q266 605 253 615L220 642Q210 650 202 653Q194 656 186 656Q164 656 150 641Q136 626 131 597H95Q99 645 124.5 672Q150 699 188 699Q205 699 220 693.5Q235 688 248 677L279 651Q286 645 297 640.5Q308 636 317 636Q339 636 352.5 651Q366 666 371 696H407Q402 646 378 620Q354 594 314 594ZM229 525Z" glyph-name="tilde" horiz-adv-x="500" unicode="&#732;" /><glyph d="M195 749Q179 749 163 754.5Q147 760 135 770L102 798Q94 804 85 807.5Q76 811 67 811Q46 811 32 796Q18 781 12 752H-24Q-20 800 5.5 827Q31 854 70 854Q87 854 102 848.5Q117 843 129 833L160 806Q167 800 178 795.5Q189 791 199 791Q220 791 233.5 806Q247 821 252 851H288Q284 802 259.5 775.5Q235 749 195 749ZM114 700Z" glyph-name="tilde.case" horiz-adv-x="250" /><glyph d="M403 700V655H278V291H227V655H95V700ZM641 441H620L507 615V291H457V700H508L632 507L754 700H800V291H749V611Z" glyph-name="trademark" horiz-adv-x="864" unicode="&#8482;" /><glyph d="M181 294 385 381Q450 409 477 445.5Q504 482 504 532Q504 592 462.5 624Q421 656 342 656Q265 656 216.5 615Q168 574 160 506L158 490H97L100 510Q113 602 179 656.5Q245 711 350 711Q451 711 508.5 663.5Q566 616 566 535Q566 495 554.5 462Q543 429 520 402Q502 382 477.5 365Q453 348 401 326L212 245Q157 221 134 192.5Q111 164 102 119L90 54H491L481 0H19L41 124Q52 185 85 226Q118 267 181 294Z" glyph-name="two" horiz-adv-x="588" unicode="2" /><glyph d="M57 151 172 197Q197 208 206.5 222.5Q216 237 216 260Q216 285 198 299Q180 313 146 313Q113 313 94 296Q75 279 71 248L70 240H20L21 250Q26 298 60.5 327Q95 356 149 356Q205 356 236 331Q267 306 267 264Q267 227 248.5 201Q230 175 187 158L85 118Q66 111 57 101.5Q48 92 45 76L39 42H228L221 0H-19L-5 77Q0 103 15.5 121.5Q31 140 57 151Z" glyph-name="two.denominator" horiz-adv-x="303" unicode="&#63063;" /><glyph d="M33 11 148 57Q173 68 182.5 82.5Q192 97 192 120Q192 145 174 159Q156 173 122 173Q89 173 70 156Q51 139 47 108L46 100H-4L-3 110Q2 158 36.5 187Q71 216 125 216Q181 216 212 191Q243 166 243 124Q243 87 224.5 61Q206 35 163 18L61 -22Q42 -29 33 -38.5Q24 -48 21 -64L15 -98H204L197 -140H-43L-29 -63Q-24 -37 -8.5 -18.5Q7 0 33 11Z" glyph-name="two.inferior" horiz-adv-x="303" unicode="&#8322;" /><glyph d="M119 501 234 547Q259 558 268.5 572.5Q278 587 278 610Q278 635 260 649Q242 663 208 663Q175 663 156 646Q137 629 133 598L132 590H82L83 600Q88 648 122.5 677Q157 706 211 706Q267 706 298 681Q329 656 329 614Q329 577 310.5 551Q292 525 249 508L147 468Q128 461 119 451.5Q110 442 107 426L101 392H290L283 350H43L57 427Q62 453 77.5 471.5Q93 490 119 501Z" glyph-name="two.numerator" horiz-adv-x="303" unicode="&#63075;" /><glyph d="M188 294 392 381Q457 409 484 445.5Q511 482 511 532Q511 592 469.5 624Q428 656 349 656Q272 656 223.5 615Q175 574 167 506L165 490H104L107 510Q120 602 186 656.5Q252 711 357 711Q458 711 515.5 663.5Q573 616 573 535Q573 495 561.5 462Q550 429 527 402Q509 382 484.5 365Q460 348 408 326L219 245Q164 221 141 192.5Q118 164 109 119L97 54H498L488 0H26L48 124Q59 185 92 226Q125 267 188 294Z" glyph-name="two.tab" horiz-adv-x="602" unicode="&#65298;" /><glyph d="M144 641 259 687Q284 698 293.5 712.5Q303 727 303 750Q303 775 285 789Q267 803 233 803Q200 803 181 786Q162 769 158 738L157 730H107L108 740Q113 788 147.5 817Q182 846 236 846Q292 846 323 821Q354 796 354 754Q354 717 335.5 691Q317 665 274 648L172 608Q153 601 144 591.5Q135 582 132 566L126 532H315L308 490H68L82 567Q87 593 102.5 611.5Q118 630 144 641Z" glyph-name="twosuperior" horiz-adv-x="303" unicode="&#178;" /><glyph d="M436 0H383L393 76Q367 34 326.5 11.5Q286 -11 235 -11Q138 -11 89 49Q40 109 57 202L113 525H173L117 208Q104 132 139 87Q174 42 251 42Q315 42 356.5 85Q398 128 412 204L469 525H528ZM320 525ZM397 0Z" glyph-name="u" horiz-adv-x="568" unicode="u" /><glyph d="M436 0H383L393 76Q367 34 326.5 11.5Q286 -11 235 -11Q138 -11 89 49Q40 109 57 202L113 525H173L117 208Q104 132 139 87Q174 42 251 42Q315 42 356.5 85Q398 128 412 204L469 525H528ZM320 525ZM397 0ZM408 736H474L355 597H305ZM320 525Z" glyph-name="uacute" horiz-adv-x="568" unicode="&#250;" /><glyph d="M436 0H383L393 76Q367 34 326.5 11.5Q286 -11 235 -11Q138 -11 89 49Q40 109 57 202L113 525H173L117 208Q104 132 139 87Q174 42 251 42Q315 42 356.5 85Q398 128 412 204L469 525H528ZM320 525ZM397 0ZM400 681 406 711H447L441 681Q432 637 402 612Q372 587 327 587Q280 587 255 615Q230 643 238 688L242 711H283L279 688Q274 657 287.5 641Q301 625 333 625Q358 625 376.5 640.5Q395 656 400 681ZM321 525Z" glyph-name="ubreve" horiz-adv-x="568" unicode="&#365;" /><glyph d="M436 0H383L393 76Q367 34 326.5 11.5Q286 -11 235 -11Q138 -11 89 49Q40 109 57 202L113 525H173L117 208Q104 132 139 87Q174 42 251 42Q315 42 356.5 85Q398 128 412 204L469 525H528ZM320 525ZM397 0ZM405 597 353 704H352L263 597H214L327 736H386L451 597ZM320 525Z" glyph-name="ucircumflex" horiz-adv-x="568" unicode="&#251;" /><glyph d="M436 0H383L393 76Q367 34 326.5 11.5Q286 -11 235 -11Q138 -11 89 49Q40 109 57 202L113 525H173L117 208Q104 132 139 87Q174 42 251 42Q315 42 356.5 85Q398 128 412 204L469 525H528ZM320 525ZM397 0ZM318 706 306 638H248L260 706ZM437 706 425 638H368L379 706ZM321 526Z" glyph-name="udieresis" horiz-adv-x="568" unicode="&#252;" /><glyph d="M436 0H383L393 76Q367 34 326.5 11.5Q286 -11 235 -11Q138 -11 89 49Q40 109 57 202L113 525H173L117 208Q104 132 139 87Q174 42 251 42Q315 42 356.5 85Q398 128 412 204L469 525H528ZM320 525ZM397 0ZM341 597H291L220 736H285ZM320 525Z" glyph-name="ugrave" horiz-adv-x="568" unicode="&#249;" /><glyph d="M436 0H383L393 76Q367 34 326.5 11.5Q286 -11 235 -11Q138 -11 89 49Q40 109 57 202L113 525H173L117 208Q104 132 139 87Q174 42 251 42Q315 42 356.5 85Q398 128 412 204L469 525H528ZM320 525ZM397 0ZM345 736H412L296 597H244ZM466 736H533L403 597H352ZM320 525Z" glyph-name="uhungarumlaut" horiz-adv-x="568" unicode="&#369;" /><glyph d="M436 0H383L393 76Q367 34 326.5 11.5Q286 -11 235 -11Q138 -11 89 49Q40 109 57 202L113 525H173L117 208Q104 132 139 87Q174 42 251 42Q315 42 356.5 85Q398 128 412 204L469 525H528ZM320 525ZM397 0ZM219 641 226 681H462L455 641ZM321 525Z" glyph-name="umacron" horiz-adv-x="568" unicode="&#363;" /><glyph d="M-77 -138 -69 -89H436L427 -138Z" glyph-name="underscore" horiz-adv-x="505" unicode="_" /><glyph glyph-name="uni00A0" horiz-adv-x="220" unicode="&#160;" /><glyph d="M70 283 80 340H345L335 283Z" glyph-name="uni00AD" horiz-adv-x="412" unicode="&#173;" /><glyph d="M324 341H586L563 210Q544 102 479.5 45.5Q415 -11 310 -11Q172 -11 107.5 61Q43 133 64 252L107 489Q125 590 196.5 650.5Q268 711 377 711Q501 711 564.5 656Q628 601 615 513L613 499H551L552 511Q558 582 512.5 619Q467 656 373 656Q291 656 236.5 610Q182 564 169 489L126 252Q109 156 156 100Q203 44 307 44Q387 44 437.5 86Q488 128 500 200L516 294H316ZM378 700ZM273 0ZM233 -60H288V-75L237 -190H193ZM273 0ZM239 -191Z" glyph-name="uni0122" horiz-adv-x="644" unicode="&#290;" /><glyph d="M252 70Q314 70 355.5 111.5Q397 153 411 227L430 331Q443 400 402.5 442Q362 484 277 484Q216 484 178 447Q140 410 127 340L109 241Q94 157 130 113.5Q166 70 252 70ZM219 -190Q113 -190 61 -155.5Q9 -121 17 -55L18 -46H75L74 -55Q69 -101 104 -121.5Q139 -142 219 -142Q283 -142 320 -111.5Q357 -81 368 -20L388 94Q363 56 325.5 36.5Q288 17 240 17Q135 17 84 78.5Q33 140 50 239L70 355Q84 438 137.5 487Q191 536 270 536Q340 536 387 510Q434 484 451 437L471 525H523L427 -21Q412 -107 360.5 -148.5Q309 -190 219 -190ZM294 525ZM342 638H281V654L340 769H385ZM293 525Z" glyph-name="uni0123" horiz-adv-x="564" unicode="&#291;" /><glyph d="M303 361 139 212 102 0H39L163 700H226L155 297L597 700H677L351 403L564 0H493ZM274 0ZM235 -60H290V-75L239 -190H195ZM275 0ZM241 -191Z" glyph-name="uni0136" horiz-adv-x="630" unicode="&#310;" /><glyph d="M226 276 118 183 86 0H27L155 730H214L132 262L436 525H517L271 314L452 0H385ZM202 0ZM162 -60H217V-75L166 -190H122ZM202 0ZM168 -191Z" glyph-name="uni0137" horiz-adv-x="509" unicode="&#311;" /><glyph d="M473 0H39L163 700H226L112 55H483ZM195 700ZM319 700ZM358 350ZM256 0ZM217 -60H272V-75L221 -190H177ZM257 0ZM223 -191Z" glyph-name="uni013B" horiz-adv-x="543" unicode="&#315;" /><glyph d="M218 730 90 0H30L158 730ZM188 730ZM297 700ZM216 350ZM59 0ZM20 -60H75V-75L24 -190H-20ZM60 0ZM26 -191Z" glyph-name="uni013C" horiz-adv-x="225" unicode="&#316;" /><glyph d="M542 0H489L203 593L98 0H39L163 700H215L502 107L607 700H666ZM415 700ZM291 0ZM251 -60H306V-75L255 -190H211ZM291 0ZM257 -191Z" glyph-name="uni0145" horiz-adv-x="687" unicode="&#325;" /><glyph d="M310 483Q244 483 200 440.5Q156 398 144 328L86 0H27L119 525H172L162 447Q189 490 231 513Q273 536 326 536Q424 536 473.5 476Q523 416 506 323L450 0H391L446 317Q459 393 423.5 438Q388 483 310 483ZM133 562ZM320 525ZM238 0ZM198 -60H253V-75L202 -190H158ZM238 0ZM204 -191Z" glyph-name="uni0146" horiz-adv-x="577" unicode="&#326;" /><glyph d="M569 514Q569 580 523 613.5Q477 647 385 647H216L160 330H369Q466 330 517.5 378Q569 426 569 514ZM365 278H151L102 0H39L163 700H387Q507 700 569 653Q631 606 631 517Q631 421 584.5 362Q538 303 448 286L531 0H468L386 279Q383 278 378.5 278Q374 278 365 278ZM392 700ZM269 0ZM229 -60H284V-75L233 -190H189ZM269 0ZM235 -191Z" glyph-name="uni0156" horiz-adv-x="650" unicode="&#342;" /><glyph d="M137 290 86 0H27L120 525H172L158 421Q190 476 243.5 505.5Q297 535 365 535L355 478H344Q262 478 207 426.5Q152 375 137 290ZM242 525ZM57 0ZM17 -60H72V-75L21 -190H-23ZM57 0ZM23 -191Z" glyph-name="uni0157" horiz-adv-x="345" unicode="&#343;" /><glyph d="M297 -126Q297 -162 272.5 -185Q248 -208 206 -208Q166 -208 145.5 -192.5Q125 -177 126 -149V-139H166V-145Q165 -157 175 -163.5Q185 -170 204 -170Q228 -170 240.5 -159Q253 -148 253 -128Q253 -110 242.5 -101Q232 -92 211 -92Q200 -92 190 -95Q180 -98 170 -105L144 -88L200 0H195L309 645H82L93 700H607L597 645H370L256 0H241L203 -60Q208 -58 214 -57Q220 -56 226 -56Q259 -56 278 -75Q297 -94 297 -126Z" glyph-name="uni0162" horiz-adv-x="559" unicode="&#354;" /><glyph d="M228 -126Q228 -162 203.5 -185Q179 -208 137 -208Q97 -208 76.5 -192.5Q56 -177 57 -149L58 -139H98L97 -145Q97 -157 107 -163.5Q117 -170 136 -170Q160 -170 172.5 -159Q185 -148 185 -128Q185 -110 174.5 -101Q164 -92 143 -92Q131 -92 121 -95Q111 -98 102 -105L76 -88L151 16Q105 35 86.5 76.5Q68 118 78 178L130 477H53L60 525H139L164 664H223L198 525H348L340 477H189L136 175Q125 111 156 80.5Q187 50 260 50H284L275 0H249Q230 0 213.5 1.5Q197 3 183 6L136 -60Q141 -58 146 -57Q151 -56 157 -56Q190 -56 209 -75Q228 -94 228 -126Z" glyph-name="uni0163" horiz-adv-x="343" unicode="&#355;" /><glyph d="M585 529 583 513H521L523 529Q531 595 487 626.5Q443 658 346 658Q260 658 212.5 623Q165 588 165 527Q165 477 190.5 451.5Q216 426 282 408L394 377Q467 357 504.5 314Q542 271 542 206Q542 107 475 48Q408 -11 290 -11Q149 -11 84.5 32Q20 75 33 161L35 175H97L95 160Q87 100 134.5 71.5Q182 43 288 43Q378 43 428.5 83.5Q479 124 479 196Q479 249 452.5 279Q426 309 364 325L254 354Q176 375 139.5 415.5Q103 456 103 521Q103 606 168.5 658.5Q234 711 348 711Q475 711 535.5 663.5Q596 616 585 529ZM357 700ZM257 10ZM255 0ZM215 -60H270V-75L219 -190H175ZM255 0ZM221 -191Z" glyph-name="uni0218" horiz-adv-x="616" unicode="&#536;" /><glyph d="M459 401 457 383H400L402 398Q408 444 374.5 467Q341 490 269 490Q205 490 167.5 462.5Q130 435 130 391Q130 359 149 340Q168 321 212 311L314 286Q370 273 399.5 240Q429 207 429 158Q429 79 375.5 34Q322 -11 223 -11Q117 -11 65.5 22Q14 55 19 121L20 134H78L77 121Q74 78 110 57.5Q146 37 223 37Q294 37 332.5 66Q371 95 371 146Q371 183 351.5 204.5Q332 226 289 236L189 260Q130 274 102 305Q74 336 74 386Q74 453 127.5 494.5Q181 536 275 536Q370 536 418 500Q466 464 459 401ZM276 525ZM204 10ZM200 0ZM160 -60H215V-75L164 -190H120ZM200 0ZM166 -191Z" glyph-name="uni0219" horiz-adv-x="506" unicode="&#537;" /><glyph d="M607 700 597 645H370L256 0H195L309 645H82L93 700ZM350 700ZM238 10ZM227 0ZM188 -60H243V-75L192 -190H148ZM228 0ZM194 -191Z" glyph-name="uni021A" horiz-adv-x="559" unicode="&#538;" /><glyph d="M260 50H284L275 0H249Q150 0 106.5 46Q63 92 78 178L130 477H53L60 525H139L164 664H223L198 525H348L340 477H189L136 175Q125 111 156 80.5Q187 50 260 50ZM303 710ZM170 10ZM87 0ZM47 -60H102V-75L51 -190H7ZM87 0ZM53 -191Z" glyph-name="uni021B" horiz-adv-x="343" unicode="&#539;" /><glyph d="M-91 -180H-150L-141 -130H-94Q-44 -130 -14.5 -109Q15 -88 22 -47L122 525H182L80 -52Q69 -117 26.5 -148.5Q-16 -180 -91 -180ZM152 525Z" glyph-name="uni0237" horiz-adv-x="225" unicode="&#567;" /><glyph d="M128 641 135 681H371L364 641ZM230 525Z" glyph-name="uni02C9" horiz-adv-x="500" unicode="&#713;" /><glyph d="M367 700 513 0H-19L286 700ZM315 636 64 50H447L320 636Z" glyph-name="uni0394" horiz-adv-x="579" unicode="&#916;" /><glyph d="M521 305 546 445Q563 544 516 600Q469 656 363 656Q284 656 233.5 610.5Q183 565 168 485L144 345Q129 264 151.5 205.5Q174 147 220 132L197 0H16L26 52H163L170 96Q112 133 89 196Q66 259 81 342L107 489Q126 595 193 653Q260 711 367 711Q501 711 565 638Q629 565 608 449L582 302Q569 227 523 171Q477 115 414 95L406 52H542L533 0H353L376 132Q430 147 470 193.5Q510 240 521 305Z" glyph-name="uni03A9" horiz-adv-x="653" unicode="&#937;" /><glyph d="M238 -11Q186 -11 148.5 8Q111 27 92 63L55 -180H-4L119 525H179L123 208Q109 126 142 84Q175 42 254 42Q318 42 361 83.5Q404 125 416 195L475 525H534L441 0H389L399 77Q372 34 330.5 11.5Q289 -11 238 -11Z" glyph-name="uni03BC" horiz-adv-x="574" unicode="&#956;" /><glyph d="M387 52 378 0H285Q178 0 135 50Q92 100 111 206L113 219Q104 215 93.5 211Q83 207 62 200Q44 193 35.5 190Q27 187 20 184L10 230Q59 249 87.5 260Q116 271 123 274L167 524Q183 614 230.5 662.5Q278 711 350 711Q416 711 453 674Q490 637 490 574Q490 474 414.5 393Q339 312 177 244L170 204Q155 119 184 85.5Q213 52 292 52ZM349 663Q300 663 269 626Q238 589 225 517L187 302Q316 362 377.5 428Q439 494 439 570Q439 614 415.5 638.5Q392 663 349 663Z" glyph-name="uni2113" horiz-adv-x="486" unicode="&#8467;" /><glyph d="M112 639 121 684 233 703H272L216 393H313L306 350H60L67 393H165L212 653ZM654 700H711L155 0H98ZM697 114Q697 60 663 27Q629 -6 567 -6Q504 -6 473 19.5Q442 45 449 89L451 102H501L499 90Q494 62 512 49Q530 36 570 36Q606 36 626 57Q646 78 646 113Q646 138 632 151Q618 164 591 164H540L547 202H594Q626 202 644.5 218Q663 234 663 263Q663 288 647 301Q631 314 600 314Q572 314 555 300Q538 286 532 259L530 250H481L483 262Q491 308 521.5 332Q552 356 603 356Q655 356 684.5 332.5Q714 309 714 269Q714 238 699 215.5Q684 193 656 181Q675 172 686 154.5Q697 137 697 114Z" glyph-name="uni2153" horiz-adv-x="775" unicode="&#8531;" /><glyph d="M140 501 255 547Q280 558 289.5 572.5Q299 587 299 610Q299 635 281 649Q263 663 229 663Q196 663 177 646Q158 629 154 598L153 590H103L104 600Q109 648 143.5 677Q178 706 232 706Q288 706 319 681Q350 656 350 614Q350 577 331.5 551Q313 525 270 508L168 468Q149 461 140 451.5Q131 442 128 426L122 392H311L304 350H64L78 427Q83 453 98.5 471.5Q114 490 140 501ZM659 700H716L160 0H103ZM702 114Q702 60 668 27Q634 -6 572 -6Q509 -6 478 19.5Q447 45 454 89L456 102H506L504 90Q499 62 517 49Q535 36 575 36Q611 36 631 57Q651 78 651 113Q651 138 637 151Q623 164 596 164H545L552 202H599Q631 202 649.5 218Q668 234 668 263Q668 288 652 301Q636 314 605 314Q577 314 560 300Q543 286 537 259L535 250H486L488 262Q496 308 526.5 332Q557 356 608 356Q660 356 689.5 332.5Q719 309 719 269Q719 238 704 215.5Q689 193 661 181Q680 172 691 154.5Q702 137 702 114Z" glyph-name="uni2154" horiz-adv-x="780" unicode="&#8532;" /><glyph d="M112 639 121 684 233 703H272L216 393H313L306 350H60L67 393H165L212 653ZM654 700H711L155 0H98ZM582 173H487L518 351H728L721 309H561L544 214H592Q649 214 679 190Q709 166 709 120Q709 61 675 28Q641 -5 577 -5Q514 -5 483.5 21Q453 47 460 90L462 101H512L511 93Q507 64 523.5 50.5Q540 37 578 37Q617 37 637.5 57Q658 77 658 116Q658 145 639 159Q620 173 582 173Z" glyph-name="uni2155" horiz-adv-x="787" unicode="&#8533;" /><glyph d="M140 501 255 547Q280 558 289.5 572.5Q299 587 299 610Q299 635 281 649Q263 663 229 663Q196 663 177 646Q158 629 154 598L153 590H103L104 600Q109 648 143.5 677Q178 706 232 706Q288 706 319 681Q350 656 350 614Q350 577 331.5 551Q313 525 270 508L168 468Q149 461 140 451.5Q131 442 128 426L122 392H311L304 350H64L78 427Q83 453 98.5 471.5Q114 490 140 501ZM661 700H718L162 0H105ZM589 172H494L525 350H735L728 308H568L551 213H599Q656 213 686 189Q716 165 716 119Q716 60 682 27Q648 -6 584 -6Q521 -6 490.5 20Q460 46 467 89L469 100H519L518 92Q514 63 530.5 49.5Q547 36 585 36Q624 36 644.5 56Q665 76 665 115Q665 144 646 158Q627 172 589 172Z" glyph-name="uni2156" horiz-adv-x="793" unicode="&#8534;" /><glyph d="M320 464Q320 410 286 377Q252 344 190 344Q127 344 96 369.5Q65 395 72 439L74 452H124L122 440Q117 412 135 399Q153 386 193 386Q229 386 249 407Q269 428 269 463Q269 488 255 501Q241 514 214 514H163L170 552H217Q249 552 267.5 568Q286 584 286 613Q286 638 270 651Q254 664 223 664Q195 664 178 650Q161 636 155 609L153 600H104L106 612Q114 658 144.5 682Q175 706 226 706Q278 706 307.5 682.5Q337 659 337 619Q337 588 322 565.5Q307 543 279 531Q298 522 309 504.5Q320 487 320 464ZM643 700H700L144 0H87ZM571 172H476L507 350H717L710 308H550L533 213H581Q638 213 668 189Q698 165 698 119Q698 60 664 27Q630 -6 566 -6Q503 -6 472.5 20Q442 46 449 89L451 100H501L500 92Q496 63 512.5 49.5Q529 36 567 36Q606 36 626.5 56Q647 76 647 115Q647 144 628 158Q609 172 571 172Z" glyph-name="uni2157" horiz-adv-x="776" unicode="&#8535;" /><glyph d="M178 700H228L119 494H264L300 700H351L289 350H238L256 452H60L68 493ZM653 700H710L154 0H97ZM582 172H487L518 350H728L721 308H561L544 213H592Q649 213 679 189Q709 165 709 119Q709 60 675 27Q641 -6 577 -6Q514 -6 483.5 20Q453 46 460 89L462 100H512L511 92Q507 63 523.5 49.5Q540 36 578 36Q617 36 637.5 56Q658 76 658 115Q658 144 639 158Q620 172 582 172Z" glyph-name="uni2158" horiz-adv-x="787" unicode="&#8536;" /><glyph d="M112 639 121 684 233 703H272L216 393H313L306 350H60L67 393H165L212 653ZM654 700H711L155 0H98ZM704 122Q704 61 670.5 27.5Q637 -6 573 -6Q510 -6 479.5 28Q449 62 459 117L481 242Q490 295 523.5 325.5Q557 356 610 356Q668 356 697 330.5Q726 305 721 261L720 253H671L672 260Q675 286 659 300.5Q643 315 608 315Q578 315 558 296Q538 277 532 244L520 179Q532 195 551.5 203.5Q571 212 597 212Q649 212 676.5 189Q704 166 704 122ZM506 94Q506 63 524 47.5Q542 32 577 32Q613 32 632.5 55.5Q652 79 652 118Q652 146 634.5 160Q617 174 582 174Q546 174 526 152Q506 130 506 94Z" glyph-name="uni2159" horiz-adv-x="782" unicode="&#8537;" /><glyph d="M193 522H98L129 700H339L332 658H172L155 563H203Q260 563 290 539Q320 515 320 469Q320 410 286 377Q252 344 188 344Q125 344 94.5 370Q64 396 71 439L73 450H123L122 442Q118 413 134.5 399.5Q151 386 189 386Q228 386 248.5 406Q269 426 269 465Q269 494 250 508Q231 522 193 522ZM633 700H690L134 0H77ZM683 122Q683 61 649.5 27.5Q616 -6 552 -6Q489 -6 458.5 28Q428 62 438 117L460 242Q469 295 502.5 325.5Q536 356 589 356Q647 356 676 330.5Q705 305 700 261L699 253H650L651 260Q654 286 638 300.5Q622 315 587 315Q557 315 537 296Q517 277 511 244L499 179Q511 195 530.5 203.5Q550 212 576 212Q628 212 655.5 189Q683 166 683 122ZM485 94Q485 63 503 47.5Q521 32 556 32Q592 32 611.5 55.5Q631 79 631 118Q631 146 613.5 160Q596 174 561 174Q525 174 505 152Q485 130 485 94Z" glyph-name="uni215A" horiz-adv-x="761" unicode="&#8538;" /><glyph d="M112 639 121 684 233 703H272L216 393H313L306 350H60L67 393H165L212 653ZM654 700H711L155 0H98ZM705 112Q705 58 670.5 26Q636 -6 572 -6Q514 -6 482.5 18.5Q451 43 451 88Q451 125 470.5 151.5Q490 178 524 188Q506 198 496 213.5Q486 229 486 249Q486 297 517.5 326.5Q549 356 606 356Q661 356 690 334.5Q719 313 719 272Q719 239 703 216.5Q687 194 658 183Q681 172 693 154Q705 136 705 112ZM535 252Q535 230 551 216.5Q567 203 591 203H608Q633 203 652 221Q671 239 671 267Q671 293 654.5 305.5Q638 318 605 318Q572 318 553.5 299.5Q535 281 535 252ZM654 109Q654 134 635.5 149.5Q617 165 590 165H574Q545 165 523 144Q501 123 501 90Q501 62 519.5 47.5Q538 33 575 33Q612 33 633 54Q654 75 654 109Z" glyph-name="uni215B" horiz-adv-x="782" unicode="&#8539;" /><glyph d="M320 464Q320 410 286 377Q252 344 190 344Q127 344 96 369.5Q65 395 72 439L74 452H124L122 440Q117 412 135 399Q153 386 193 386Q229 386 249 407Q269 428 269 463Q269 488 255 501Q241 514 214 514H163L170 552H217Q249 552 267.5 568Q286 584 286 613Q286 638 270 651Q254 664 223 664Q195 664 178 650Q161 636 155 609L153 600H104L106 612Q114 658 144.5 682Q175 706 226 706Q278 706 307.5 682.5Q337 659 337 619Q337 588 322 565.5Q307 543 279 531Q298 522 309 504.5Q320 487 320 464ZM643 700H700L144 0H87ZM693 112Q693 58 658.5 26Q624 -6 560 -6Q502 -6 470.5 18.5Q439 43 439 88Q439 125 458.5 151.5Q478 178 512 188Q494 198 484 213.5Q474 229 474 249Q474 297 505.5 326.5Q537 356 594 356Q649 356 678 334.5Q707 313 707 272Q707 239 691 216.5Q675 194 646 183Q669 172 681 154Q693 136 693 112ZM523 252Q523 230 539 216.5Q555 203 579 203H596Q621 203 640 221Q659 239 659 267Q659 293 642.5 305.5Q626 318 593 318Q560 318 541.5 299.5Q523 281 523 252ZM642 109Q642 134 623.5 149.5Q605 165 578 165H562Q533 165 511 144Q489 123 489 90Q489 62 507.5 47.5Q526 33 563 33Q600 33 621 54Q642 75 642 109Z" glyph-name="uni215C" horiz-adv-x="770" unicode="&#8540;" /><glyph d="M193 522H98L129 700H339L332 658H172L155 563H203Q260 563 290 539Q320 515 320 469Q320 410 286 377Q252 344 188 344Q125 344 94.5 370Q64 396 71 439L73 450H123L122 442Q118 413 134.5 399.5Q151 386 189 386Q228 386 248.5 406Q269 426 269 465Q269 494 250 508Q231 522 193 522ZM633 700H690L134 0H77ZM684 112Q684 58 649.5 26Q615 -6 551 -6Q493 -6 461.5 18.5Q430 43 430 88Q430 125 449.5 151.5Q469 178 503 188Q485 198 475 213.5Q465 229 465 249Q465 297 496.5 326.5Q528 356 585 356Q640 356 669 334.5Q698 313 698 272Q698 239 682 216.5Q666 194 637 183Q660 172 672 154Q684 136 684 112ZM514 252Q514 230 530 216.5Q546 203 570 203H587Q612 203 631 221Q650 239 650 267Q650 293 633.5 305.5Q617 318 584 318Q551 318 532.5 299.5Q514 281 514 252ZM633 109Q633 134 614.5 149.5Q596 165 569 165H553Q524 165 502 144Q480 123 480 90Q480 62 498.5 47.5Q517 33 554 33Q591 33 612 54Q633 75 633 109Z" glyph-name="uni215D" horiz-adv-x="761" unicode="&#8541;" /><glyph d="M94 658 102 700H358L351 662L146 350H92L293 658ZM596 700H653L97 0H40ZM647 112Q647 58 612.5 26Q578 -6 514 -6Q456 -6 424.5 18.5Q393 43 393 88Q393 125 412.5 151.5Q432 178 466 188Q448 198 438 213.5Q428 229 428 249Q428 297 459.5 326.5Q491 356 548 356Q603 356 632 334.5Q661 313 661 272Q661 239 645 216.5Q629 194 600 183Q623 172 635 154Q647 136 647 112ZM477 252Q477 230 493 216.5Q509 203 533 203H550Q575 203 594 221Q613 239 613 267Q613 293 596.5 305.5Q580 318 547 318Q514 318 495.5 299.5Q477 281 477 252ZM596 109Q596 134 577.5 149.5Q559 165 532 165H516Q487 165 465 144Q443 123 443 90Q443 62 461.5 47.5Q480 33 517 33Q554 33 575 54Q596 75 596 109Z" glyph-name="uni215E" horiz-adv-x="723" unicode="&#8542;" /><glyph d="M112 639 121 684 233 703H272L216 393H313L306 350H60L67 393H165L212 653ZM653 700H710L154 0H97Z" glyph-name="uni215F" horiz-adv-x="504" unicode="&#8543;" /><glyph d="M330 700H387L-169 0H-226Z" glyph-name="uni2215" horiz-adv-x="146" unicode="&#8725;" /><glyph d="M160 399 146 321H81L94 399ZM73 350Z" glyph-name="uni2219" horiz-adv-x="223" unicode="&#8729;" /><glyph d="M718 320Q736 320 747 306Q758 292 758 269Q758 236 735.5 218.5Q713 201 671 201V161L674 129Q655 123 650.5 122Q646 121 642 121Q637 121 634 123Q631 125 631 129V204L606 201V198Q606 160 588.5 139.5Q571 119 538 119Q519 119 508 128.5Q497 138 497 153Q497 171 513.5 184Q530 197 567 206V248Q559 225 547 212.5Q535 200 521 200Q507 200 500 207.5Q493 215 493 231V234Q483 217 470 209Q457 201 440 201Q427 201 419 209Q411 217 411 231V332L382 330V334Q382 344 385 349Q388 354 394 354H411L408 384Q427 390 431.5 391Q436 392 440 392Q445 392 448 390Q451 388 451 384V355H498V352Q498 341 495 336Q492 331 486 331H451V245Q451 237 454 233Q457 229 464 229Q474 229 483.5 237Q493 245 493 255V280L490 313Q509 319 513.5 320Q518 321 522 321Q527 321 530 318.5Q533 316 533 312V246Q533 238 534.5 234.5Q536 231 540 231Q547 231 556.5 248Q566 265 566 279L564 313Q583 319 587.5 320Q592 321 595 321Q600 321 603 318.5Q606 316 606 312V213L631 216V277L628 313Q647 319 651.5 320Q656 321 660 321Q665 321 668 318.5Q671 316 671 312V272Q679 295 691 307.5Q703 320 718 320ZM359 321Q373 321 380 313Q387 305 387 289V240L390 208Q371 202 366.5 201Q362 200 359 200Q354 200 351 202Q348 204 348 208V274Q348 283 346 286.5Q344 290 340 290Q333 290 323.5 272.5Q314 255 314 242L316 208Q297 202 292.5 201Q288 200 285 200Q280 200 277 202Q274 204 274 208V274Q274 283 272 286.5Q270 290 266 290Q259 290 249.5 272.5Q240 255 240 242L243 208Q224 202 219.5 201Q215 200 211 200Q206 200 203 202Q200 204 200 208V277L197 313Q216 319 220.5 320Q225 321 229 321Q234 321 237 318.5Q240 316 240 312V272Q246 292 258 306.5Q270 321 285 321Q299 321 306.5 313Q314 305 314 289V272Q320 294 332 307.5Q344 321 359 321ZM1221 257Q1221 262 1221 287.5Q1221 313 1220 332L1191 330V334Q1191 344 1194 349Q1197 354 1203 354H1220L1217 384Q1236 390 1240.5 391Q1245 392 1249 392Q1254 392 1257 390Q1260 388 1260 384V355H1307V352Q1307 341 1304 336Q1301 331 1295 331H1260V241Q1260 233 1264 229.5Q1268 226 1276 226Q1282 226 1289 227Q1296 228 1310 231Q1330 235 1340.5 236Q1351 237 1361 237Q1383 237 1403 230.5Q1423 224 1423 213Q1423 200 1414.5 192.5Q1406 185 1396 185Q1394 185 1391 186Q1388 187 1380 192Q1361 202 1348.5 205.5Q1336 209 1325 209Q1321 209 1316 208.5Q1311 208 1299 206Q1281 203 1270 202Q1259 201 1249 201Q1232 201 1227 210.5Q1222 220 1221 257ZM1414 529H76V537H1414ZM1414 0H76V8H1414ZM1049 321Q1063 321 1070.5 313Q1078 305 1078 289V240L1080 208Q1061 202 1056.5 201Q1052 200 1049 200Q1044 200 1041 202Q1038 204 1038 208V275Q1038 283 1036 286.5Q1034 290 1030 290Q1023 290 1013.5 272.5Q1004 255 1004 242L1007 208Q988 202 983.5 201Q979 200 975 200Q970 200 967 202Q964 204 964 208V277L961 313Q980 319 984.5 320Q989 321 993 321Q998 321 1001 318.5Q1004 316 1004 312V272Q1013 296 1024 308.5Q1035 321 1049 321ZM182 290Q182 278 176 270Q170 262 157 258Q149 255 139 253.5Q129 252 113 252Q114 242 121 236Q128 230 139 230Q148 230 155.5 232Q163 234 171 239Q175 236 177 232Q179 228 179 223Q179 214 166.5 207Q154 200 132 200Q104 200 88 214.5Q72 229 72 253Q72 282 91 301.5Q110 321 141 321Q159 321 170.5 312Q182 303 182 290ZM881 290Q881 278 875 270Q869 262 856 258Q848 255 838 253.5Q828 252 812 252Q813 242 820 236Q827 230 838 230Q847 230 854.5 232Q862 234 870 239Q874 236 876 232Q878 228 878 223Q878 214 865.5 207Q853 200 831 200Q803 200 787 214.5Q771 229 771 253Q771 282 790 301.5Q809 321 840 321Q858 321 869.5 312Q881 303 881 290ZM1204 290Q1204 278 1198 270Q1192 262 1179 258Q1171 255 1161 253.5Q1151 252 1135 252Q1136 242 1143 236Q1150 230 1161 230Q1170 230 1177.5 232Q1185 234 1193 239Q1197 236 1199 232Q1201 228 1201 223Q1201 214 1188.5 207Q1176 200 1154 200Q1126 200 1110 214.5Q1094 229 1094 253Q1094 282 1113 301.5Q1132 321 1163 321Q1181 321 1192.5 312Q1204 303 1204 290ZM671 242V219Q694 222 705 235Q716 248 716 270Q716 280 712.5 285Q709 290 703 290Q691 290 681 272Q671 254 671 242ZM896 226Q896 236 903 243Q910 250 921 250Q932 250 939.5 243Q947 236 947 226Q947 216 939.5 209.5Q932 203 921 203Q910 203 903 209.5Q896 216 896 226ZM539 148Q551 148 558 159Q565 170 566 194Q547 190 536 181.5Q525 173 525 162Q525 155 529 151.5Q533 148 539 148ZM136 298Q127 298 120.5 288.5Q114 279 112 264Q128 264 138.5 269.5Q149 275 149 285Q149 291 145.5 294.5Q142 298 136 298ZM1158 298Q1149 298 1142.5 288.5Q1136 279 1134 264Q1150 264 1160.5 269.5Q1171 275 1171 285Q1171 291 1167.5 294.5Q1164 298 1158 298ZM835 298Q826 298 819.5 288.5Q813 279 811 264Q827 264 837.5 269.5Q848 275 848 285Q848 291 844.5 294.5Q841 298 835 298Z" glyph-name="uniF8FF" horiz-adv-x="1495" unicode="&#63743;" /><glyph d="M409 -131 404 -169Q392 -175 380 -177.5Q368 -180 355 -180Q318 -180 297.5 -161Q277 -142 277 -110Q277 -75 305 -43Q333 -11 384 13L393 76Q367 34 326.5 11.5Q286 -11 235 -11Q138 -11 89 49Q40 109 57 202L113 525H173L117 208Q104 132 139 87Q174 42 251 42Q315 42 356.5 84.5Q398 127 412 204L469 525H528L436 0H411Q368 -23 347.5 -47Q327 -71 327 -96Q327 -116 339 -126.5Q351 -137 374 -137Q379 -137 383.5 -136.5Q388 -136 409 -131Z" glyph-name="uogonek" horiz-adv-x="568" unicode="&#371;" /><glyph d="M436 0H383L393 76Q367 34 326.5 11.5Q286 -11 235 -11Q138 -11 89 49Q40 109 57 202L113 525H173L117 208Q104 132 139 87Q174 42 251 42Q315 42 356.5 85Q398 128 412 204L469 525H528ZM320 525ZM397 0ZM244 680Q244 720 271 747Q298 774 337 774Q377 774 405 747Q433 720 433 680Q433 641 405 614Q377 587 337 587Q298 587 271 614Q244 641 244 680ZM281 680Q281 656 297.5 639.5Q314 623 337 623Q361 623 378 639.5Q395 656 395 680Q395 705 378 722Q361 739 337 739Q314 739 297.5 722Q281 705 281 680ZM321 525Z" glyph-name="uring" horiz-adv-x="568" unicode="&#367;" /><glyph d="M436 0H383L393 76Q367 34 326.5 11.5Q286 -11 235 -11Q138 -11 89 49Q40 109 57 202L113 525H173L117 208Q104 132 139 87Q174 42 251 42Q315 42 356.5 85Q398 128 412 204L469 525H528ZM320 525ZM397 0ZM405 594Q389 594 373 599.5Q357 605 344 615L311 642Q301 650 293 653Q285 656 277 656Q255 656 241 641Q227 626 222 597H186Q190 645 215.5 672Q241 699 279 699Q296 699 311 693.5Q326 688 339 677L370 651Q377 645 388 640.5Q399 636 408 636Q430 636 443.5 651Q457 666 462 696H498Q493 646 469 620Q445 594 405 594ZM320 525Z" glyph-name="utilde" horiz-adv-x="568" unicode="&#361;" /><glyph d="M225 0H167L66 525H127L210 79L449 525H513Z" glyph-name="v" horiz-adv-x="500" unicode="v" /><glyph d="M189 0H131L72 525H129L173 74L397 525H457L521 76L724 525H787L541 0H483L416 446ZM433 525Z" glyph-name="w" horiz-adv-x="779" unicode="w" /><glyph d="M189 0H131L72 525H129L173 74L397 525H457L521 76L724 525H787L541 0H483L416 446ZM433 525ZM520 736H586L467 597H417ZM432 525Z" glyph-name="wacute" horiz-adv-x="779" unicode="&#7811;" /><glyph d="M189 0H131L72 525H129L173 74L397 525H457L521 76L724 525H787L541 0H483L416 446ZM433 525ZM518 597 466 704H465L376 597H327L440 736H499L564 597ZM433 525Z" glyph-name="wcircumflex" horiz-adv-x="779" unicode="&#373;" /><glyph d="M189 0H131L72 525H129L173 74L397 525H457L521 76L724 525H787L541 0H483L416 446ZM433 525ZM430 706 418 638H360L372 706ZM549 706 537 638H480L491 706ZM433 526Z" glyph-name="wdieresis" horiz-adv-x="779" unicode="&#7813;" /><glyph d="M189 0H131L72 525H129L173 74L397 525H457L521 76L724 525H787L541 0H483L416 446ZM433 525ZM454 597H404L333 736H398ZM433 525Z" glyph-name="wgrave" horiz-adv-x="779" unicode="&#7809;" /><glyph d="M417 0H353L232 228L36 0H-33L207 271L74 525H136L249 310L439 525H506L275 266Z" glyph-name="x" horiz-adv-x="494" unicode="x" /><glyph d="M514 525 126 -180H67L169 6L68 525H131L211 84L452 525ZM295 525Z" glyph-name="y" horiz-adv-x="498" unicode="y" /><glyph d="M514 525 126 -180H67L169 6L68 525H131L211 84L452 525ZM295 525ZM382 736H448L329 597H279ZM294 525Z" glyph-name="yacute" horiz-adv-x="498" unicode="&#253;" /><glyph d="M514 525 126 -180H67L169 6L68 525H131L211 84L452 525ZM295 525ZM380 597 328 704H327L238 597H189L302 736H361L426 597ZM295 525Z" glyph-name="ycircumflex" horiz-adv-x="498" unicode="&#375;" /><glyph d="M514 525 126 -180H67L169 6L68 525H131L211 84L452 525ZM295 525ZM292 706 280 638H222L234 706ZM411 706 399 638H342L353 706ZM295 526Z" glyph-name="ydieresis" horiz-adv-x="498" unicode="&#255;" /><glyph d="M459 202 450 156H287L259 0H198L226 156H62L70 202H234L245 264L241 276H83L91 322H225L98 700H164L283 325L540 700H607L344 322H480L472 276H312L307 269L295 202Z" glyph-name="yen" horiz-adv-x="569" unicode="&#165;" /><glyph d="M514 525 126 -180H67L169 6L68 525H131L211 84L452 525ZM295 525ZM316 597H266L195 736H260ZM295 525Z" glyph-name="ygrave" horiz-adv-x="498" unicode="&#7923;" /><glyph d="M82 478 90 525H473L465 482L69 47H398L389 0H-15L-6 45L389 478ZM280 525Z" glyph-name="z" horiz-adv-x="482" unicode="z" /><glyph d="M82 478 90 525H473L465 482L69 47H398L389 0H-15L-6 45L389 478ZM280 525ZM368 736H434L315 597H265ZM280 525Z" glyph-name="zacute" horiz-adv-x="482" unicode="&#378;" /><glyph d="M82 478 90 525H473L465 482L69 47H398L389 0H-15L-6 45L389 478ZM280 525ZM243 736 295 629H296L385 736H434L321 597H262L197 736ZM281 525Z" glyph-name="zcaron" horiz-adv-x="482" unicode="&#382;" /><glyph d="M82 478 90 525H473L465 482L69 47H398L389 0H-15L-6 45L389 478ZM280 525ZM343 715 330 641H265L278 715ZM280 525Z" glyph-name="zdotaccent" horiz-adv-x="482" unicode="&#380;" /><glyph d="M520 205 566 467Q585 576 527 643.5Q469 711 346 711Q249 711 187.5 654Q126 597 108 495L62 233Q43 126 102 57.5Q161 -11 282 -11Q380 -11 441 45Q502 101 520 205ZM344 656Q436 656 477.5 604.5Q519 553 504 465L459 208Q447 135 400 89.5Q353 44 283 44Q192 44 150.5 95.5Q109 147 123 235L169 492Q181 565 228 610.5Q275 656 344 656Z" glyph-name="zero" horiz-adv-x="611" unicode="0" /><glyph d="M121 -6Q172 -6 204 23Q236 52 245 105L265 218Q275 279 245 317.5Q215 356 151 356Q98 356 65.5 327Q33 298 24 245L4 132Q-6 71 25 32.5Q56 -6 121 -6ZM146 313Q186 313 203.5 288.5Q221 264 214 220L195 109Q190 78 170 58Q150 38 123 38Q81 38 63.5 62.5Q46 87 55 130L74 241Q79 272 98.5 292.5Q118 313 146 313Z" glyph-name="zero.denominator" horiz-adv-x="313" unicode="&#63061;" /><glyph d="M97 -146Q148 -146 180 -117Q212 -88 221 -35L241 78Q251 139 221 177.5Q191 216 127 216Q74 216 41.5 187Q9 158 0 105L-20 -8Q-30 -69 1 -107.5Q32 -146 97 -146ZM122 173Q162 173 179.5 148.5Q197 124 190 80L171 -31Q166 -62 146 -82Q126 -102 99 -102Q57 -102 39.5 -77.5Q22 -53 31 -10L50 101Q55 132 74.5 152.5Q94 173 122 173Z" glyph-name="zero.inferior" horiz-adv-x="313" unicode="&#8320;" /><glyph d="M183 344Q234 344 266 373Q298 402 307 455L327 568Q337 629 307 667.5Q277 706 213 706Q160 706 127.5 677Q95 648 86 595L66 482Q56 421 87 382.5Q118 344 183 344ZM208 663Q248 663 265.5 638.5Q283 614 276 570L257 459Q252 428 232 408Q212 388 185 388Q143 388 125.5 412.5Q108 437 117 480L136 591Q141 622 160.5 642.5Q180 663 208 663Z" glyph-name="zero.numerator" horiz-adv-x="313" unicode="&#63073;" /><glyph d="M208 484Q259 484 291 513Q323 542 332 595L352 708Q362 769 332 807.5Q302 846 238 846Q185 846 152.5 817Q120 788 111 735L91 622Q81 561 112 522.5Q143 484 208 484ZM233 803Q273 803 290.5 778.5Q308 754 301 710L282 599Q277 568 257 548Q237 528 210 528Q168 528 150.5 552.5Q133 577 142 620L161 731Q166 762 185.5 782.5Q205 803 233 803Z" glyph-name="zero.superior" horiz-adv-x="313" unicode="&#8304;" /><glyph d="M516 205 562 467Q581 576 523 643.5Q465 711 342 711Q245 711 183.5 654Q122 597 104 495L58 233Q39 126 98 57.5Q157 -11 278 -11Q376 -11 437 45Q498 101 516 205ZM340 656Q432 656 473.5 604.5Q515 553 500 465L455 208Q443 135 396 89.5Q349 44 279 44Q188 44 146.5 95.5Q105 147 119 235L165 492Q177 565 224 610.5Q271 656 340 656Z" glyph-name="zero.tab" horiz-adv-x="602" unicode="&#65296;" /></font>
</defs>
</svg>
