<?xml version="1.0" standalone="no"?><!DOCTYPE svg PUBLIC "-//W3C//DTD SVG 1.1//EN" "http://www.w3.org/Graphics/SVG/1.1/DTD/svg11.dtd" ><svg version="1.1" xmlns="http://www.w3.org/2000/svg"><defs><font horiz-adv-x="0" id="font"><font-face ascent="730" bbox="-252 -269 1611.4706 984" cap-height="700" descent="-180" font-family="Web use ONLY | Copyright (C) Emtype Foundry" font-stretch="normal" font-weight="700" units-per-em="1000" x-height="540" /><missing-glyph d="M768 342Q768 273 741.5 209Q715 145 665 95Q615 45 551 19Q487 -7 416 -7Q348 -7 283.5 19.5Q219 46 170 95Q121 144 94 208Q67 272 67 342Q67 410 94 474.5Q121 539 170 589Q219 638 283.5 664.5Q348 691 416 691Q486 691 551 664.5Q616 638 665 589Q714 540 741 475Q768 410 768 342ZM416 63Q473 63 524.5 84Q576 105 615 145Q655 185 676.5 236Q698 287 698 342Q698 396 676.5 447Q655 498 615 539Q575 579 523.5 600Q472 621 416 621Q361 621 310.5 600Q260 579 220 539Q180 499 158.5 448.5Q137 398 137 342Q137 287 158.5 236Q180 185 220 145Q261 105 311 84Q361 63 416 63ZM589 219 540 170 418 293 296 171 247 220 369 342 247 464 296 513 418 391 541 513 590 464 467 342Z" horiz-adv-x="869" /><glyph d="M270 262H412L380 483ZM636 0H450L433 115H197L140 0H-56L319 700H509ZM415.7144 700ZM502 0Z" glyph-name="A" horiz-adv-x="688" unicode="A" /><glyph d="M311 262H459L510 545H506ZM913 0H413L433 115H210L131 0H-66L440 700H1027L999 545H696L676 433H950L923 283H649L626 155H941ZM547 700Z" glyph-name="AE" horiz-adv-x="1003" unicode="&#198;" /><glyph d="M270 262H412L380 483ZM636 0H450L433 115H197L140 0H-56L319 700H509ZM415.7144 700ZM502 0ZM443.5021 896H635.5021L496.5021 748H356.5021ZM415.7144 700Z" glyph-name="Aacute" horiz-adv-x="688" unicode="&#193;" /><glyph d="M270 262H412L380 483ZM636 0H450L433 115H197L140 0H-56L319 700H509ZM415.7144 700ZM502 0ZM497.0021 888 498.0021 897H606.0021L605.0021 888Q598.0021 819 554.0021 778.5Q510.0021 738 443.0021 738Q358.0021 738 318.0021 778Q278.0021 818 293.0021 888L295.0021 897H403.0021L401.0021 888Q396.0021 866 408.5021 853Q421.0021 840 447.0021 840Q471.0021 840 482.5021 851.5Q494.0021 863 497.0021 888ZM415.7144 700Z" glyph-name="Abreve" horiz-adv-x="688" unicode="&#258;" /><glyph d="M270 262H412L380 483ZM636 0H450L433 115H197L140 0H-56L319 700H509ZM415.7144 700ZM502 0ZM480.0021 748 435.0021 809H433.0021L369.0021 748H232.0021L372.0021 896H529.0021L617.0021 748ZM415.7144 700Z" glyph-name="Acircumflex" horiz-adv-x="688" unicode="&#194;" /><glyph d="M270 262H412L380 483ZM636 0H450L433 115H197L140 0H-56L319 700H509ZM415.7144 700ZM502 0ZM423.0021 876 401.0021 748H248.0021L270.0021 876Q308.0021 876 346.5021 876Q385.0021 876 423.0021 876ZM623.0021 876 601.0021 748H448.0021L470.0021 876Q482.0021 876 494.5021 876Q507.0021 876 521.0021 876Q534.0021 876 547.0021 876Q560.0021 876 573.0021 876Q587.0021 876 599.5021 876Q612.0021 876 623.0021 876ZM415.7144 700Z" glyph-name="Adieresis" horiz-adv-x="688" unicode="&#196;" /><glyph d="M270 262H412L380 483ZM636 0H450L433 115H197L140 0H-56L319 700H509ZM415.7144 700ZM502 0ZM493.7144 748H336.7144L260.7144 896H467.7144ZM415.7144 700Z" glyph-name="Agrave" horiz-adv-x="688" unicode="&#192;" /><glyph d="M270 262H412L380 483ZM636 0H450L433 115H197L140 0H-56L319 700H509ZM415.7144 700ZM502 0ZM260.5021 773 280.5021 885H616.5021L596.5021 773ZM415.7144 700Z" glyph-name="Amacron" horiz-adv-x="688" unicode="&#256;" /><glyph d="M270 262H412L380 483ZM590 -78 572 -190Q554 -203 531 -209Q508 -215 478 -215Q426 -215 395 -187.5Q364 -160 364 -114Q364 -74 385 -41.5Q406 -9 448 16L433 115H197L140 0H-56L319 700H509L636 0H526Q515 -11 508.5 -24Q502 -37 502 -50Q502 -66 515 -74Q528 -82 555 -82Q564 -82 572.5 -81Q581 -80 590 -78Z" glyph-name="Aogonek" horiz-adv-x="688" unicode="&#260;" /><glyph d="M270 262H412L380 483ZM636 0H450L433 115H197L140 0H-56L319 700H509ZM415.7144 700ZM502 0ZM305.7144 861Q305.7144 915 341.7144 949.5Q377.7144 984 432.7144 984Q487.7144 984 523.7144 949.5Q559.7144 915 559.7144 861Q559.7144 807 523.7144 772.5Q487.7144 738 432.7144 738Q377.7144 738 341.7144 772.5Q305.7144 807 305.7144 861ZM390.7144 861Q390.7144 842 402.2144 830.5Q413.7144 819 432.7144 819Q451.7144 819 463.2144 830.5Q474.7144 842 474.7144 861Q474.7144 880 463.2144 891.5Q451.7144 903 432.7144 903Q413.7144 903 402.2144 891.5Q390.7144 880 390.7144 861ZM415.7144 700Z" glyph-name="Aring" horiz-adv-x="688" unicode="&#197;" /><glyph d="M270 262H412L380 483ZM636 0H450L433 115H197L140 0H-56L319 700H509ZM415.7144 700ZM502 0ZM520.7144 741Q499.7144 741 480.7144 745Q461.7144 749 448.7144 757L408.7144 779Q397.7144 785 388.7144 787.5Q379.7144 790 370.7144 790Q350.7144 790 338.7144 782Q326.7144 774 317.7144 748H226.7144Q231.7144 816 271.2144 860.5Q310.7144 905 367.7144 905Q385.7144 905 402.7144 900.5Q419.7144 896 437.7144 887L473.7144 866Q485.7144 859 496.2144 856Q506.7144 853 517.7144 853Q535.7144 853 547.7144 864.5Q559.7144 876 565.7144 900H655.7144Q650.7144 826 615.2144 783.5Q579.7144 741 520.7144 741ZM415.7144 700Z" glyph-name="Atilde" horiz-adv-x="688" unicode="&#195;" /><glyph d="M477 501Q477 530 456.5 544.5Q436 559 395 559H292L269 428H402Q439 428 458 447Q477 466 477 501ZM449 227Q449 259 426 275.5Q403 292 358 292H245L218 141H361Q404 141 426.5 163.5Q449 186 449 227ZM365 0H7L131 700H391Q526 700 596 654Q666 608 666 522Q666 464 637.5 420Q609 376 554 352Q593 330 612.5 296.5Q632 263 632 220Q632 120 562 60Q492 0 365 0Z" glyph-name="B" horiz-adv-x="682" unicode="B" /><glyph d="M430 220 437 262H621L610 195Q594 101 519 44.5Q444 -12 327 -12Q162 -12 87.5 64Q13 140 37 275L72 475Q92 585 171.5 648.5Q251 712 378 712Q532 712 604.5 642.5Q677 573 656 458L654 447H470L472 460Q479 504 452 527Q425 550 365 550Q319 550 291 526.5Q263 503 255 460L220 260Q211 205 239.5 177.5Q268 150 333 150Q375 150 399.5 167.5Q424 185 430 220ZM296 10ZM380 700Z" glyph-name="C" horiz-adv-x="660" unicode="C" /><glyph glyph-name="CR" horiz-adv-x="0" unicode="" /><glyph d="M430 220 437 262H621L610 195Q594 101 519 44.5Q444 -12 327 -12Q162 -12 87.5 64Q13 140 37 275L72 475Q92 585 171.5 648.5Q251 712 378 712Q532 712 604.5 642.5Q677 573 656 458L654 447H470L472 460Q479 504 452 527Q425 550 365 550Q319 550 291 526.5Q263 503 255 460L220 260Q211 205 239.5 177.5Q268 150 333 150Q375 150 399.5 167.5Q424 185 430 220ZM296 10ZM380 700ZM407.7877 896H599.7877L460.7877 748H320.7877ZM380 700Z" glyph-name="Cacute" horiz-adv-x="660" unicode="&#262;" /><glyph d="M430 220 437 262H621L610 195Q594 101 519 44.5Q444 -12 327 -12Q162 -12 87.5 64Q13 140 37 275L72 475Q92 585 171.5 648.5Q251 712 378 712Q532 712 604.5 642.5Q677 573 656 458L654 447H470L472 460Q479 504 452 527Q425 550 365 550Q319 550 291 526.5Q263 503 255 460L220 260Q211 205 239.5 177.5Q268 150 333 150Q375 150 399.5 167.5Q424 185 430 220ZM296 10ZM380 700ZM359.2877 896 402.2877 835H404.2877L470.2877 896H607.2877L467.2877 748H310.2877L222.2877 896ZM380 700Z" glyph-name="Ccaron" horiz-adv-x="660" unicode="&#268;" /><glyph d="M386 -126Q386 -190 352 -225.5Q318 -261 254 -261Q196 -261 165 -233Q134 -205 134 -157V-156H227V-157Q227 -164 232.5 -167.5Q238 -171 250 -171Q263 -171 269.5 -164Q276 -157 276 -143Q276 -133 269.5 -127Q263 -121 252 -121Q248 -121 244.5 -121.5Q241 -122 232 -127L165 -86L225 -3Q114 18 66 91Q18 164 37 275L72 475Q92 585 171.5 648.5Q251 712 378 712Q532 712 604.5 642.5Q677 573 656 458L654 447H470L472 460Q479 504 452 527Q425 550 365 550Q319 550 291 526.5Q263 503 255 460L220 260Q211 205 239.5 177.5Q268 150 333 150Q375 150 399.5 167.5Q424 185 430 220L437 262H621L610 195Q595 102 519.5 45Q444 -12 327 -12Q322 -12 316.5 -12Q311 -12 305 -12L288 -34H290Q332 -34 359 -60Q386 -86 386 -126Z" glyph-name="Ccedilla" horiz-adv-x="660" unicode="&#199;" /><glyph d="M430 220 437 262H621L610 195Q594 101 519 44.5Q444 -12 327 -12Q162 -12 87.5 64Q13 140 37 275L72 475Q92 585 171.5 648.5Q251 712 378 712Q532 712 604.5 642.5Q677 573 656 458L654 447H470L472 460Q479 504 452 527Q425 550 365 550Q319 550 291 526.5Q263 503 255 460L220 260Q211 205 239.5 177.5Q268 150 333 150Q375 150 399.5 167.5Q424 185 430 220ZM296 10ZM380 700ZM444.2877 748 399.2877 809H397.2877L333.2877 748H196.2877L336.2877 896H493.2877L581.2877 748ZM380 700Z" glyph-name="Ccircumflex" horiz-adv-x="660" unicode="&#264;" /><glyph d="M430 220 437 262H621L610 195Q594 101 519 44.5Q444 -12 327 -12Q162 -12 87.5 64Q13 140 37 275L72 475Q92 585 171.5 648.5Q251 712 378 712Q532 712 604.5 642.5Q677 573 656 458L654 447H470L472 460Q479 504 452 527Q425 550 365 550Q319 550 291 526.5Q263 503 255 460L220 260Q211 205 239.5 177.5Q268 150 333 150Q375 150 399.5 167.5Q424 185 430 220ZM296 10ZM380 700ZM489.2877 888 465.2877 748H312.2877L336.2877 888Q348.2877 888 360.7877 888Q373.2877 888 387.2877 888Q400.2877 888 413.2877 888Q426.2877 888 439.2877 888Q453.2877 888 465.7877 888Q478.2877 888 489.2877 888ZM380 700Z" glyph-name="Cdotaccent" horiz-adv-x="660" unicode="&#266;" /><glyph d="M351 0H7L131 700H375Q546 700 624 622.5Q702 545 678 408L647 232Q627 117 552.5 58.5Q478 0 351 0ZM288 538 222 162H354Q401 162 429 186.5Q457 211 465 257L493 413Q504 478 474.5 508Q445 538 372 538ZM409 700Z" glyph-name="D" horiz-adv-x="702" unicode="D" /><glyph d="M351 0H7L131 700H375Q546 700 624 622.5Q702 545 678 408L647 232Q627 117 552.5 58.5Q478 0 351 0ZM288 538 222 162H354Q401 162 429 186.5Q457 211 465 257L493 413Q504 478 474.5 508Q445 538 372 538ZM409 700ZM388.2877 896 431.2877 835H433.2877L499.2877 896H636.2877L496.2877 748H339.2877L251.2877 896ZM409 700Z" glyph-name="Dcaron" horiz-adv-x="702" unicode="&#270;" /><glyph d="M364 0H20L74 305H7L26 410H93L144 700H388Q559 700 637 622.5Q715 545 691 408L660 232Q640 117 565.5 58.5Q491 0 364 0ZM260 305 235 162H367Q414 162 442 186.5Q470 211 478 257L506 413Q517 478 487.5 508Q458 538 385 538H301L279 410H345L326 305Z" glyph-name="Dcroat" horiz-adv-x="715" unicode="&#272;" /><glyph d="M405 700 586 0H-4L178 700ZM289 505 209 145H373L294 505Z" glyph-name="Delta" horiz-adv-x="651" unicode="&#8710;" /><glyph d="M507 0H7L130 700H620L593 545H289L269 433H543L517 283H243L220 155H534ZM360.2123 700ZM366.7834 0Z" glyph-name="E" horiz-adv-x="597" unicode="E" /><glyph d="M507 0H7L130 700H620L593 545H289L269 433H543L517 283H243L220 155H534ZM360.2123 700ZM366.7834 0ZM388 896H580L441 748H301ZM360.2123 700Z" glyph-name="Eacute" horiz-adv-x="597" unicode="&#201;" /><glyph d="M507 0H7L130 700H620L593 545H289L269 433H543L517 283H243L220 155H534ZM360.2123 700ZM366.7834 0ZM441.5 888 442.5 897H550.5L549.5 888Q542.5 819 498.5 778.5Q454.5 738 387.5 738Q302.5 738 262.5 778Q222.5 818 237.5 888L239.5 897H347.5L345.5 888Q340.5 866 353 853Q365.5 840 391.5 840Q415.5 840 427 851.5Q438.5 863 441.5 888ZM360.2123 700Z" glyph-name="Ebreve" horiz-adv-x="597" unicode="&#276;" /><glyph d="M507 0H7L130 700H620L593 545H289L269 433H543L517 283H243L220 155H534ZM360.2123 700ZM366.7834 0ZM339.5 896 382.5 835H384.5L450.5 896H587.5L447.5 748H290.5L202.5 896ZM360.2123 700Z" glyph-name="Ecaron" horiz-adv-x="597" unicode="&#282;" /><glyph d="M507 0H7L130 700H620L593 545H289L269 433H543L517 283H243L220 155H534ZM360.2123 700ZM366.7834 0ZM424.5 748 379.5 809H377.5L313.5 748H176.5L316.5 896H473.5L561.5 748ZM360.2123 700Z" glyph-name="Ecircumflex" horiz-adv-x="597" unicode="&#202;" /><glyph d="M507 0H7L130 700H620L593 545H289L269 433H543L517 283H243L220 155H534ZM360.2123 700ZM366.7834 0ZM367.5 876 345.5 748H192.5L214.5 876Q252.5 876 291 876Q329.5 876 367.5 876ZM567.5 876 545.5 748H392.5L414.5 876Q426.5 876 439 876Q451.5 876 465.5 876Q478.5 876 491.5 876Q504.5 876 517.5 876Q531.5 876 544 876Q556.5 876 567.5 876ZM360.2123 700Z" glyph-name="Edieresis" horiz-adv-x="597" unicode="&#203;" /><glyph d="M507 0H7L130 700H620L593 545H289L269 433H543L517 283H243L220 155H534ZM360.2123 700ZM366.7834 0ZM469.5 888 445.5 748H292.5L316.5 888Q328.5 888 341 888Q353.5 888 367.5 888Q380.5 888 393.5 888Q406.5 888 419.5 888Q433.5 888 446 888Q458.5 888 469.5 888ZM360.2123 700Z" glyph-name="Edotaccent" horiz-adv-x="597" unicode="&#278;" /><glyph d="M507 0H7L130 700H620L593 545H289L269 433H543L517 283H243L220 155H534ZM360.2123 700ZM366.7834 0ZM438.2123 748H281.2123L205.2123 896H412.2123ZM360.2123 700Z" glyph-name="Egrave" horiz-adv-x="597" unicode="&#200;" /><glyph d="M507 0H7L130 700H620L593 545H289L269 433H543L517 283H243L220 155H534ZM360.2123 700ZM366.7834 0ZM205 773 225 885H561L541 773ZM360.2123 700Z" glyph-name="Emacron" horiz-adv-x="597" unicode="&#274;" /><glyph d="M455 -78 437 -190Q419 -203 396 -209Q373 -215 343 -215Q290 -215 259.5 -187.5Q229 -160 229 -114Q229 -79 243.5 -51Q258 -23 288 0H7L130 700H620L593 545H289L269 433H543L517 283H243L220 155H534L507 0H391Q380 -11 373.5 -24Q367 -37 367 -50Q367 -66 380 -74Q393 -82 420 -82Q429 -82 437.5 -81Q446 -80 455 -78Z" glyph-name="Eogonek" horiz-adv-x="597" unicode="&#280;" /><glyph d="M364 0H20L74 305H7L26 410H93L144 700H388Q559 700 637 622.5Q715 545 691 408L660 232Q640 117 565.5 58.5Q491 0 364 0ZM260 305 235 162H367Q414 162 442 186.5Q470 211 478 257L506 413Q517 478 487.5 508Q458 538 385 538H301L279 410H345L326 305Z" glyph-name="Eth" horiz-adv-x="715" unicode="&#208;" /><glyph d="M637 262 626 195Q610 100 539.5 44Q469 -12 356 -12Q224 -12 154.5 49.5Q85 111 88 220H11L30 325H102L108 363H36L55 468H127L128 475Q148 586 222.5 649Q297 712 414 712Q558 712 625.5 642Q693 572 672 458L670 447H486L488 460Q495 502 474 526Q453 550 406 550Q369 550 345.5 529Q322 508 313 468H411L392 363H294L287 325H386L367 220H274Q278 185 302 167.5Q326 150 369 150Q402 150 421 167Q440 184 446 220L453 262Z" glyph-name="Euro" horiz-adv-x="682" unicode="&#8364;" /><glyph d="M545 420 516 258H238L193 0H7L130 700H624L596 540H288L267 420Z" glyph-name="F" horiz-adv-x="589" unicode="F" /><glyph d="M377 368H648L624 231Q602 112 525.5 50Q449 -12 323 -12Q158 -12 85.5 62Q13 136 37 275L72 475Q92 585 172.5 648.5Q253 712 380 712Q531 712 606.5 646Q682 580 663 476L661 465H477L479 476Q485 509 456 529.5Q427 550 369 550Q321 550 292 527Q263 504 255 460L220 260Q210 202 239 176Q268 150 337 150Q379 150 405 165.5Q431 181 436 209L440 232H353ZM397 700ZM306 0Z" glyph-name="G" horiz-adv-x="673" unicode="G" /><glyph d="M377 368H648L624 231Q602 112 525.5 50Q449 -12 323 -12Q158 -12 85.5 62Q13 136 37 275L72 475Q92 585 172.5 648.5Q253 712 380 712Q531 712 606.5 646Q682 580 663 476L661 465H477L479 476Q485 509 456 529.5Q427 550 369 550Q321 550 292 527Q263 504 255 460L220 260Q210 202 239 176Q268 150 337 150Q379 150 405 165.5Q431 181 436 209L440 232H353ZM397 700ZM306 0ZM478.2877 888 479.2877 897H587.2877L586.2877 888Q579.2877 819 535.2877 778.5Q491.2877 738 424.2877 738Q339.2877 738 299.2877 778Q259.2877 818 274.2877 888L276.2877 897H384.2877L382.2877 888Q377.2877 866 389.7877 853Q402.2877 840 428.2877 840Q452.2877 840 463.7877 851.5Q475.2877 863 478.2877 888ZM397 700Z" glyph-name="Gbreve" horiz-adv-x="673" unicode="&#286;" /><glyph d="M377 368H648L624 231Q602 112 525.5 50Q449 -12 323 -12Q158 -12 85.5 62Q13 136 37 275L72 475Q92 585 172.5 648.5Q253 712 380 712Q531 712 606.5 646Q682 580 663 476L661 465H477L479 476Q485 509 456 529.5Q427 550 369 550Q321 550 292 527Q263 504 255 460L220 260Q210 202 239 176Q268 150 337 150Q379 150 405 165.5Q431 181 436 209L440 232H353ZM397 700ZM306 0ZM461.2877 748 416.2877 809H414.2877L350.2877 748H213.2877L353.2877 896H510.2877L598.2877 748ZM397 700Z" glyph-name="Gcircumflex" horiz-adv-x="673" unicode="&#284;" /><glyph d="M377 368H648L624 231Q602 112 525.5 50Q449 -12 323 -12Q158 -12 85.5 62Q13 136 37 275L72 475Q92 585 172.5 648.5Q253 712 380 712Q531 712 606.5 646Q682 580 663 476L661 465H477L479 476Q485 509 456 529.5Q427 550 369 550Q321 550 292 527Q263 504 255 460L220 260Q210 202 239 176Q268 150 337 150Q379 150 405 165.5Q431 181 436 209L440 232H353ZM397 700ZM306 0ZM506.2877 888 482.2877 748H329.2877L353.2877 888Q365.2877 888 377.7877 888Q390.2877 888 404.2877 888Q417.2877 888 430.2877 888Q443.2877 888 456.2877 888Q470.2877 888 482.7877 888Q495.2877 888 506.2877 888ZM397 700Z" glyph-name="Gdotaccent" horiz-adv-x="673" unicode="&#288;" /><glyph d="M608 0H422L471 278H242L193 0H7L130 700H316L270 440H499L545 700H731ZM411 700Z" glyph-name="H" horiz-adv-x="722" unicode="H" /><glyph d="M298 517 284 440H513L527 517ZM485 278H256L207 0H21L112 517H47L65 622H130L144 700H330L316 622H545L559 700H745L731 622H796L778 517H713L622 0H436Z" glyph-name="Hbar" horiz-adv-x="750" unicode="&#294;" /><glyph d="M608 0H422L471 278H242L193 0H7L130 700H316L270 440H499L545 700H731ZM411 700ZM475.2877 748 430.2877 809H428.2877L364.2877 748H227.2877L367.2877 896H524.2877L612.2877 748ZM411 700Z" glyph-name="Hcircumflex" horiz-adv-x="722" unicode="&#292;" /><glyph d="M130 700H316L193 0H7ZM221 700ZM71 0Z" glyph-name="I" horiz-adv-x="307" unicode="I" /><glyph d="M130 700H316L193 0H7ZM221 700ZM71 0ZM659 238 741 700H927L841 213Q822 105 754.5 46.5Q687 -12 578 -12Q428 -12 357 63Q286 138 308 260L310 271H492L489 255Q480 206 502 178Q524 150 574 150Q608 150 629 171Q650 192 659 238ZM834.7724 700Z" glyph-name="IJ" horiz-adv-x="913" unicode="&#306;" /><glyph d="M130 700H316L193 0H7ZM221 700ZM71 0ZM248.7877 896H440.7877L301.7877 748H161.7877ZM221 700Z" glyph-name="Iacute" horiz-adv-x="307" unicode="&#205;" /><glyph d="M130 700H316L193 0H7ZM221 700ZM71 0ZM285.2877 748 240.2877 809H238.2877L174.2877 748H37.2877L177.2877 896H334.2877L422.2877 748ZM221 700Z" glyph-name="Icircumflex" horiz-adv-x="307" unicode="&#206;" /><glyph d="M130 700H316L193 0H7ZM221 700ZM71 0ZM228.2877 876 206.2877 748H53.2877L75.2877 876Q113.2877 876 151.7877 876Q190.2877 876 228.2877 876ZM428.2877 876 406.2877 748H253.2877L275.2877 876Q287.2877 876 299.7877 876Q312.2877 876 326.2877 876Q339.2877 876 352.2877 876Q365.2877 876 378.2877 876Q392.2877 876 404.7877 876Q417.2877 876 428.2877 876ZM221 700Z" glyph-name="Idieresis" horiz-adv-x="307" unicode="&#207;" /><glyph d="M130 700H316L193 0H7ZM221 700ZM71 0ZM330.2877 888 306.2877 748H153.2877L177.2877 888Q189.2877 888 201.7877 888Q214.2877 888 228.2877 888Q241.2877 888 254.2877 888Q267.2877 888 280.2877 888Q294.2877 888 306.7877 888Q319.2877 888 330.2877 888ZM221 700Z" glyph-name="Idotaccent" horiz-adv-x="307" unicode="&#304;" /><glyph d="M130 700H316L193 0H7ZM221 700ZM71 0ZM299 748H142L66 896H273ZM221 700Z" glyph-name="Igrave" horiz-adv-x="307" unicode="&#204;" /><glyph d="M130 700H316L193 0H7ZM221 700ZM71 0ZM65.7877 773 85.7877 885H421.7877L401.7877 773ZM221 700Z" glyph-name="Imacron" horiz-adv-x="307" unicode="&#298;" /><glyph d="M159 -78 141 -190Q123 -203 100 -209Q77 -215 47 -215Q-5 -215 -36 -187.5Q-67 -160 -67 -114Q-67 -75 -48 -44Q-29 -13 9 11L130 700H316L193 0H95Q84 -11 77.5 -24Q71 -37 71 -50Q71 -66 84 -74Q97 -82 124 -82Q133 -82 141.5 -81Q150 -80 159 -78Z" glyph-name="Iogonek" horiz-adv-x="307" unicode="&#302;" /><glyph d="M130 700H316L193 0H7ZM221 700ZM71 0ZM326 741Q305 741 286 745Q267 749 254 757L214 779Q203 785 194 787.5Q185 790 176 790Q156 790 144 782Q132 774 123 748H32Q37 816 76.5 860.5Q116 905 173 905Q191 905 208 900.5Q225 896 243 887L279 866Q291 859 301.5 856Q312 853 323 853Q341 853 353 864.5Q365 876 371 900H461Q456 826 420.5 783.5Q385 741 326 741ZM221 700Z" glyph-name="Itilde" horiz-adv-x="307" unicode="&#296;" /><glyph d="M352 238 434 700H620L534 213Q515 105 447.5 46.5Q380 -12 271 -12Q121 -12 50 63Q-21 138 1 260L3 271H185L182 255Q173 206 195 178Q217 150 267 150Q301 150 322 171Q343 192 352 238ZM527.7724 700Z" glyph-name="J" horiz-adv-x="606" unicode="J" /><glyph d="M352 238 434 700H620L534 213Q515 105 447.5 46.5Q380 -12 271 -12Q121 -12 50 63Q-21 138 1 260L3 271H185L182 255Q173 206 195 178Q217 150 267 150Q301 150 322 171Q343 192 352 238ZM527.7724 700ZM592.0601 748 547.0601 809H545.0601L481.0601 748H344.0601L484.0601 896H641.0601L729.0601 748ZM527.7724 700Z" glyph-name="Jcircumflex" horiz-adv-x="606" unicode="&#308;" /><glyph d="M317 271 224 178 193 0H7L131 700H317L272 445L518 700H748L458 408L625 0H425ZM307.2856 0Z" glyph-name="K" horiz-adv-x="675" unicode="K" /><glyph d="M501 0H7L130 700H316L221 162H529ZM197.2123 700ZM229.7834 0ZM363.2123 700ZM314 350Z" glyph-name="L" horiz-adv-x="566" unicode="L" /><glyph d="M501 0H7L130 700H316L221 162H529ZM197.2123 700ZM229.7834 0ZM363.2123 700ZM314 350ZM225 896H417L278 748H138ZM197.2123 700Z" glyph-name="Lacute" horiz-adv-x="566" unicode="&#313;" /><glyph d="M501 0H7L130 700H316L221 162H529ZM197.2123 700ZM229.7834 0ZM363.2123 700ZM314 350ZM369 730H491V686L422 521H332ZM361.2123 688Z" glyph-name="Lcaron" horiz-adv-x="566" unicode="&#317;" /><glyph d="M501 0H7L130 700H316L221 162H529ZM197.2123 700ZM229.7834 0ZM363.2123 700ZM314 350ZM553 443 524 277H343L372 443Q417 443 462.5 443Q508 443 553 443ZM315.6553 350Z" glyph-name="Ldot" horiz-adv-x="571" unicode="&#319;" /><glyph d="M501 0H7L130 700H316L221 162H529ZM197.2123 700ZM229.7834 0ZM363.2123 700ZM314 350ZM553 443 524 277H343L372 443Q417 443 462.5 443Q508 443 553 443ZM315.6553 350ZM1072 0H578L701 700H887L792 162H1100ZM768.2123 700ZM800.7834 0ZM934.2123 700ZM885 350Z" glyph-name="Lgeminada" horiz-adv-x="1137" /><glyph d="M554 162 526 0H32L71 223L-10 168L13 302L95 358L155 700H341L306 501L388 557L365 423L282 367L246 162Z" glyph-name="Lslash" horiz-adv-x="591" unicode="&#321;" /><glyph d="M426 207H348L250 396L180 0H7L131 700H298L419 444L627 700H802L678 0H496L561 370Z" glyph-name="M" horiz-adv-x="792" unicode="M" /><glyph d="M608 0H454L250 378L183 0H7L131 700H285L489 321L556 700H732ZM431.2144 700ZM307.7856 0Z" glyph-name="N" horiz-adv-x="722" unicode="N" /><glyph d="M608 0H454L250 378L183 0H7L131 700H285L489 321L556 700H732ZM431.2144 700ZM307.7856 0ZM459.0021 896H651.0021L512.0021 748H372.0021ZM431.2144 700Z" glyph-name="Nacute" horiz-adv-x="722" unicode="&#323;" /><glyph d="M608 0H454L250 378L183 0H7L131 700H285L489 321L556 700H732ZM431.2144 700ZM307.7856 0ZM410.5021 896 453.5021 835H455.5021L521.5021 896H658.5021L518.5021 748H361.5021L273.5021 896ZM431.2144 700Z" glyph-name="Ncaron" horiz-adv-x="722" unicode="&#327;" /><glyph d="M608 0H454L250 378L183 0H7L131 700H285L489 321L556 700H732ZM431.2144 700ZM307.7856 0ZM536.2144 741Q515.2144 741 496.2144 745Q477.2144 749 464.2144 757L424.2144 779Q413.2144 785 404.2144 787.5Q395.2144 790 386.2144 790Q366.2144 790 354.2144 782Q342.2144 774 333.2144 748H242.2144Q247.2144 816 286.7144 860.5Q326.2144 905 383.2144 905Q401.2144 905 418.2144 900.5Q435.2144 896 453.2144 887L489.2144 866Q501.2144 859 511.7144 856Q522.2144 853 533.2144 853Q551.2144 853 563.2144 864.5Q575.2144 876 581.2144 900H671.2144Q666.2144 826 630.7144 783.5Q595.2144 741 536.2144 741ZM431.2144 700Z" glyph-name="Ntilde" horiz-adv-x="722" unicode="&#209;" /><glyph d="M340 -12Q171 -12 92.5 65.5Q14 143 37 275L72 475Q92 586 169.5 649Q247 712 370 712Q540 712 618 636Q696 560 672 425L637 225Q617 111 541 49.5Q465 -12 340 -12ZM343 150Q390 150 418.5 175.5Q447 201 455 250L487 430Q497 490 467.5 520Q438 550 369 550Q320 550 291 524.5Q262 499 254 450L222 270Q212 209 242 179.5Q272 150 343 150ZM397 700Z" glyph-name="O" horiz-adv-x="693" unicode="O" /><glyph d="M343 150Q390 150 418.5 176Q447 202 455 253L487 433Q497 491 466.5 520.5Q436 550 365 550Q318 550 290 525Q262 500 254 450L222 270Q212 209 242 179.5Q272 150 343 150ZM891 0H411L417 34Q389 11 356.5 -0.5Q324 -12 289 -12Q151 -12 83 68.5Q15 149 37 275L72 475Q91 586 163 649Q235 712 350 712Q410 712 454 699.5Q498 687 528 661L535 700H1005L977 545H674L654 433H928L901 283H627L604 155H919Z" glyph-name="OE" horiz-adv-x="981" unicode="&#338;" /><glyph d="M340 -12Q171 -12 92.5 65.5Q14 143 37 275L72 475Q92 586 169.5 649Q247 712 370 712Q540 712 618 636Q696 560 672 425L637 225Q617 111 541 49.5Q465 -12 340 -12ZM343 150Q390 150 418.5 175.5Q447 201 455 250L487 430Q497 490 467.5 520Q438 550 369 550Q320 550 291 524.5Q262 499 254 450L222 270Q212 209 242 179.5Q272 150 343 150ZM397 700ZM424.7877 896H616.7877L477.7877 748H337.7877ZM397 700Z" glyph-name="Oacute" horiz-adv-x="693" unicode="&#211;" /><glyph d="M340 -12Q171 -12 92.5 65.5Q14 143 37 275L72 475Q92 586 169.5 649Q247 712 370 712Q540 712 618 636Q696 560 672 425L637 225Q617 111 541 49.5Q465 -12 340 -12ZM343 150Q390 150 418.5 175.5Q447 201 455 250L487 430Q497 490 467.5 520Q438 550 369 550Q320 550 291 524.5Q262 499 254 450L222 270Q212 209 242 179.5Q272 150 343 150ZM397 700ZM478.2877 888 479.2877 897H587.2877L586.2877 888Q579.2877 819 535.2877 778.5Q491.2877 738 424.2877 738Q339.2877 738 299.2877 778Q259.2877 818 274.2877 888L276.2877 897H384.2877L382.2877 888Q377.2877 866 389.7877 853Q402.2877 840 428.2877 840Q452.2877 840 463.7877 851.5Q475.2877 863 478.2877 888ZM397 700Z" glyph-name="Obreve" horiz-adv-x="693" unicode="&#334;" /><glyph d="M340 -12Q171 -12 92.5 65.5Q14 143 37 275L72 475Q92 586 169.5 649Q247 712 370 712Q540 712 618 636Q696 560 672 425L637 225Q617 111 541 49.5Q465 -12 340 -12ZM343 150Q390 150 418.5 175.5Q447 201 455 250L487 430Q497 490 467.5 520Q438 550 369 550Q320 550 291 524.5Q262 499 254 450L222 270Q212 209 242 179.5Q272 150 343 150ZM397 700ZM461.2877 748 416.2877 809H414.2877L350.2877 748H213.2877L353.2877 896H510.2877L598.2877 748ZM397 700Z" glyph-name="Ocircumflex" horiz-adv-x="693" unicode="&#212;" /><glyph d="M340 -12Q171 -12 92.5 65.5Q14 143 37 275L72 475Q92 586 169.5 649Q247 712 370 712Q540 712 618 636Q696 560 672 425L637 225Q617 111 541 49.5Q465 -12 340 -12ZM343 150Q390 150 418.5 175.5Q447 201 455 250L487 430Q497 490 467.5 520Q438 550 369 550Q320 550 291 524.5Q262 499 254 450L222 270Q212 209 242 179.5Q272 150 343 150ZM397 700ZM404.2877 876 382.2877 748H229.2877L251.2877 876Q289.2877 876 327.7877 876Q366.2877 876 404.2877 876ZM604.2877 876 582.2877 748H429.2877L451.2877 876Q463.2877 876 475.7877 876Q488.2877 876 502.2877 876Q515.2877 876 528.2877 876Q541.2877 876 554.2877 876Q568.2877 876 580.7877 876Q593.2877 876 604.2877 876ZM397 700Z" glyph-name="Odieresis" horiz-adv-x="693" unicode="&#214;" /><glyph d="M340 -12Q171 -12 92.5 65.5Q14 143 37 275L72 475Q92 586 169.5 649Q247 712 370 712Q540 712 618 636Q696 560 672 425L637 225Q617 111 541 49.5Q465 -12 340 -12ZM343 150Q390 150 418.5 175.5Q447 201 455 250L487 430Q497 490 467.5 520Q438 550 369 550Q320 550 291 524.5Q262 499 254 450L222 270Q212 209 242 179.5Q272 150 343 150ZM397 700ZM475 748H318L242 896H449ZM397 700Z" glyph-name="Ograve" horiz-adv-x="693" unicode="&#210;" /><glyph d="M340 -12Q171 -12 92.5 65.5Q14 143 37 275L72 475Q92 586 169.5 649Q247 712 370 712Q540 712 618 636Q696 560 672 425L637 225Q617 111 541 49.5Q465 -12 340 -12ZM343 150Q390 150 418.5 175.5Q447 201 455 250L487 430Q497 490 467.5 520Q438 550 369 550Q320 550 291 524.5Q262 499 254 450L222 270Q212 209 242 179.5Q272 150 343 150ZM397 700ZM284.7877 896H481.7877L353.7877 748H206.7877ZM533.7877 896H730.7877L576.7877 748H429.7877ZM397 700Z" glyph-name="Ohungarumlaut" horiz-adv-x="693" unicode="&#336;" /><glyph d="M340 -12Q171 -12 92.5 65.5Q14 143 37 275L72 475Q92 586 169.5 649Q247 712 370 712Q540 712 618 636Q696 560 672 425L637 225Q617 111 541 49.5Q465 -12 340 -12ZM343 150Q390 150 418.5 175.5Q447 201 455 250L487 430Q497 490 467.5 520Q438 550 369 550Q320 550 291 524.5Q262 499 254 450L222 270Q212 209 242 179.5Q272 150 343 150ZM397 700ZM241.7877 773 261.7877 885H597.7877L577.7877 773ZM397 700Z" glyph-name="Omacron" horiz-adv-x="693" unicode="&#332;" /><glyph d="M495 368 506 430Q517 491 486 520.5Q455 550 382 550Q327 550 295 524.5Q263 499 254 450L243 388Q231 320 249.5 290Q268 260 318 258L262 0H6L31 142H170L172 149Q99 170 70 234.5Q41 299 58 393L72 475Q91 585 171.5 648.5Q252 712 380 712Q555 712 634.5 636.5Q714 561 691 425L677 343Q664 271 615 220.5Q566 170 486 149L484 142H623L598 0H342L388 258Q432 258 459 285.5Q486 313 495 368Z" glyph-name="Omega" horiz-adv-x="711" unicode="&#8486;" /><glyph d="M254 450 222 270Q219 249 220 232Q221 215 227 202L421 544Q410 547 397 548.5Q384 550 369 550Q320 550 291 524.5Q262 499 254 450ZM343 150Q390 150 418.5 175.5Q447 201 455 250L487 430Q490 451 489 468.5Q488 486 482 499L288 156Q299 153 313 151.5Q327 150 343 150ZM340 -12Q304 -12 272 -8.5Q240 -5 212 2L187 -42H77L124 40Q68 77 46 137.5Q24 198 37 275L72 475Q92 586 169.5 649Q247 712 370 712Q404 712 436 708.5Q468 705 496 699L521 742H631L585 662Q641 625 663 564Q685 503 672 425L637 225Q617 111 541 49.5Q465 -12 340 -12ZM354.5 700Z" glyph-name="Oslash" horiz-adv-x="693" unicode="&#216;" /><glyph d="M340 -12Q171 -12 92.5 65.5Q14 143 37 275L72 475Q92 586 169.5 649Q247 712 370 712Q540 712 618 636Q696 560 672 425L637 225Q617 111 541 49.5Q465 -12 340 -12ZM343 150Q390 150 418.5 175.5Q447 201 455 250L487 430Q497 490 467.5 520Q438 550 369 550Q320 550 291 524.5Q262 499 254 450L222 270Q212 209 242 179.5Q272 150 343 150ZM397 700ZM502 741Q481 741 462 745Q443 749 430 757L390 779Q379 785 370 787.5Q361 790 352 790Q332 790 320 782Q308 774 299 748H208Q213 816 252.5 860.5Q292 905 349 905Q367 905 384 900.5Q401 896 419 887L455 866Q467 859 477.5 856Q488 853 499 853Q517 853 529 864.5Q541 876 547 900H637Q632 826 596.5 783.5Q561 741 502 741ZM397 700Z" glyph-name="Otilde" horiz-adv-x="693" unicode="&#213;" /><glyph d="M486 459Q486 501 456.5 522Q427 543 369 543H289L254 344H364Q424 344 455 373.5Q486 403 486 459ZM676 475Q676 343 595.5 265.5Q515 188 368 188H226L193 0H7L131 700H371Q521 700 598.5 642.5Q676 585 676 475Z" glyph-name="P" horiz-adv-x="673" unicode="P" /><glyph d="M581 -120V-143H377L271 -8Q137 7 76.5 82.5Q16 158 37 275L72 475Q92 586 169.5 649Q247 712 370 712Q540 712 618 636Q696 560 672 425L637 225Q623 147 582.5 93Q542 39 478 13ZM343 150Q390 150 418.5 175.5Q447 201 455 250L487 430Q497 490 467.5 520Q438 550 369 550Q320 550 291 524.5Q262 499 254 450L222 270Q212 209 242 179.5Q272 150 343 150Z" glyph-name="Q" horiz-adv-x="693" unicode="Q" /><glyph d="M490 469Q490 508 461 526.5Q432 545 372 545H290L259 374H372Q431 374 460.5 398Q490 422 490 469ZM398 0 339 221H232L193 0H7L131 700H370Q522 700 600.5 643.5Q679 587 679 480Q679 399 637.5 336.5Q596 274 519 245L586 0ZM387 700ZM283.2856 0Z" glyph-name="R" horiz-adv-x="682" unicode="R" /><glyph d="M490 469Q490 508 461 526.5Q432 545 372 545H290L259 374H372Q431 374 460.5 398Q490 422 490 469ZM398 0 339 221H232L193 0H7L131 700H370Q522 700 600.5 643.5Q679 587 679 480Q679 399 637.5 336.5Q596 274 519 245L586 0ZM387 700ZM283.2856 0ZM414.7877 896H606.7877L467.7877 748H327.7877ZM387 700Z" glyph-name="Racute" horiz-adv-x="682" unicode="&#340;" /><glyph d="M490 469Q490 508 461 526.5Q432 545 372 545H290L259 374H372Q431 374 460.5 398Q490 422 490 469ZM398 0 339 221H232L193 0H7L131 700H370Q522 700 600.5 643.5Q679 587 679 480Q679 399 637.5 336.5Q596 274 519 245L586 0ZM387 700ZM283.2856 0ZM366.2877 896 409.2877 835H411.2877L477.2877 896H614.2877L474.2877 748H317.2877L229.2877 896ZM387 700Z" glyph-name="Rcaron" horiz-adv-x="682" unicode="&#344;" /><glyph d="M637 502 635 484H450L451 498Q453 530 427.5 546.5Q402 563 349 563Q304 563 280.5 548Q257 533 257 505Q257 485 268.5 474Q280 463 312 455L437 423Q518 402 560.5 354Q603 306 603 234Q603 126 521.5 57Q440 -12 297 -12Q144 -12 70.5 44Q-3 100 10 202L12 218H197L196 205Q193 171 220 155Q247 139 304 139Q355 139 381.5 155.5Q408 172 408 202Q408 224 392 237.5Q376 251 338 261L221 291Q147 310 109.5 358Q72 406 72 481Q72 579 151 645.5Q230 712 360 712Q499 712 573 653Q647 594 637 502ZM280 10ZM367 700ZM278 0Z" glyph-name="S" horiz-adv-x="646.1446" unicode="S" /><glyph d="M637 502 635 484H450L451 498Q453 530 427.5 546.5Q402 563 349 563Q304 563 280.5 548Q257 533 257 505Q257 485 268.5 474Q280 463 312 455L437 423Q518 402 560.5 354Q603 306 603 234Q603 126 521.5 57Q440 -12 297 -12Q144 -12 70.5 44Q-3 100 10 202L12 218H197L196 205Q193 171 220 155Q247 139 304 139Q355 139 381.5 155.5Q408 172 408 202Q408 224 392 237.5Q376 251 338 261L221 291Q147 310 109.5 358Q72 406 72 481Q72 579 151 645.5Q230 712 360 712Q499 712 573 653Q647 594 637 502ZM280 10ZM367 700ZM278 0ZM394.7877 896H586.7877L447.7877 748H307.7877ZM367 700Z" glyph-name="Sacute" horiz-adv-x="646.1446" unicode="&#346;" /><glyph d="M637 502 635 484H450L451 498Q453 530 427.5 546.5Q402 563 349 563Q304 563 280.5 548Q257 533 257 505Q257 485 268.5 474Q280 463 312 455L437 423Q518 402 560.5 354Q603 306 603 234Q603 126 521.5 57Q440 -12 297 -12Q144 -12 70.5 44Q-3 100 10 202L12 218H197L196 205Q193 171 220 155Q247 139 304 139Q355 139 381.5 155.5Q408 172 408 202Q408 224 392 237.5Q376 251 338 261L221 291Q147 310 109.5 358Q72 406 72 481Q72 579 151 645.5Q230 712 360 712Q499 712 573 653Q647 594 637 502ZM280 10ZM367 700ZM278 0ZM346.2877 896 389.2877 835H391.2877L457.2877 896H594.2877L454.2877 748H297.2877L209.2877 896ZM367 700Z" glyph-name="Scaron" horiz-adv-x="646.1446" unicode="&#352;" /><glyph d="M370 -126Q370 -190 336 -225.5Q302 -261 238 -261Q180 -261 149 -233Q118 -205 118 -157V-156H211V-157Q211 -164 216.5 -167.5Q222 -171 234 -171Q247 -171 253.5 -164Q260 -157 260 -143Q260 -133 253.5 -127Q247 -121 236 -121Q232 -121 228.5 -121.5Q225 -122 216 -127L149 -86L207 -6Q100 9 49.5 63Q-1 117 10 202L12 218H197L196 205Q193 171 220 155Q247 139 304 139Q355 139 381.5 155.5Q408 172 408 202Q408 224 392 237.5Q376 251 338 261L221 291Q147 310 109.5 358Q72 406 72 481Q72 579 151 645.5Q230 712 360 712Q499 712 573 653Q647 594 637 502L635 484H450L451 498Q453 530 427.5 546.5Q402 563 349 563Q304 563 280.5 548Q257 533 257 505Q257 485 269 474Q281 463 312 455L437 423Q518 402 560.5 354Q603 306 603 234Q603 126 521.5 57Q440 -12 297 -12Q295 -12 293 -12Q291 -12 289 -12L272 -34H274Q316 -34 343 -60Q370 -86 370 -126Z" glyph-name="Scedilla" horiz-adv-x="646.1446" unicode="&#350;" /><glyph d="M637 502 635 484H450L451 498Q453 530 427.5 546.5Q402 563 349 563Q304 563 280.5 548Q257 533 257 505Q257 485 268.5 474Q280 463 312 455L437 423Q518 402 560.5 354Q603 306 603 234Q603 126 521.5 57Q440 -12 297 -12Q144 -12 70.5 44Q-3 100 10 202L12 218H197L196 205Q193 171 220 155Q247 139 304 139Q355 139 381.5 155.5Q408 172 408 202Q408 224 392 237.5Q376 251 338 261L221 291Q147 310 109.5 358Q72 406 72 481Q72 579 151 645.5Q230 712 360 712Q499 712 573 653Q647 594 637 502ZM280 10ZM367 700ZM278 0ZM431.2877 748 386.2877 809H384.2877L320.2877 748H183.2877L323.2877 896H480.2877L568.2877 748ZM367 700Z" glyph-name="Scircumflex" horiz-adv-x="646.1446" unicode="&#348;" /><glyph d="M663 700 635 538H436L342 0H156L250 538H54L82 700ZM259 10ZM367 700ZM247 0Z" glyph-name="T" horiz-adv-x="606" unicode="T" /><glyph d="M542 375 524 260H396L351 0H165L210 260H85L103 375H231L259 538H63L91 700H672L644 538H445L417 375Z" glyph-name="Tbar" horiz-adv-x="624" unicode="&#358;" /><glyph d="M663 700 635 538H436L342 0H156L250 538H54L82 700ZM259 10ZM367 700ZM247 0ZM346.2877 896 389.2877 835H391.2877L457.2877 896H594.2877L454.2877 748H297.2877L209.2877 896ZM367 700Z" glyph-name="Tcaron" horiz-adv-x="606" unicode="&#356;" /><glyph d="M469 359Q469 400 439.5 421.5Q410 443 352 443H271L236 244H347Q406 244 437.5 275Q469 306 469 359ZM659 377Q659 244 578.5 166Q498 88 351 88H209L193 0H7L131 700H317L299 600H354Q504 600 581.5 543Q659 486 659 377Z" glyph-name="Thorn" horiz-adv-x="678" unicode="&#222;" /><glyph d="M47 275 122 700H308L232 270Q222 210 251.5 180Q281 150 351 150Q397 150 424.5 175Q452 200 461 250L541 700H727L643 225Q623 111 545 49.5Q467 -12 338 -12Q176 -12 100 66Q24 144 47 275ZM420 700ZM442 0Z" glyph-name="U" horiz-adv-x="713" unicode="U" /><glyph d="M47 275 122 700H308L232 270Q222 210 251.5 180Q281 150 351 150Q397 150 424.5 175Q452 200 461 250L541 700H727L643 225Q623 111 545 49.5Q467 -12 338 -12Q176 -12 100 66Q24 144 47 275ZM420 700ZM442 0ZM447.7877 896H639.7877L500.7877 748H360.7877ZM420 700Z" glyph-name="Uacute" horiz-adv-x="713" unicode="&#218;" /><glyph d="M47 275 122 700H308L232 270Q222 210 251.5 180Q281 150 351 150Q397 150 424.5 175Q452 200 461 250L541 700H727L643 225Q623 111 545 49.5Q467 -12 338 -12Q176 -12 100 66Q24 144 47 275ZM420 700ZM442 0ZM501.2877 888 502.2877 897H610.2877L609.2877 888Q602.2877 819 558.2877 778.5Q514.2877 738 447.2877 738Q362.2877 738 322.2877 778Q282.2877 818 297.2877 888L299.2877 897H407.2877L405.2877 888Q400.2877 866 412.7877 853Q425.2877 840 451.2877 840Q475.2877 840 486.7877 851.5Q498.2877 863 501.2877 888ZM420 700Z" glyph-name="Ubreve" horiz-adv-x="713" unicode="&#364;" /><glyph d="M47 275 122 700H308L232 270Q222 210 251.5 180Q281 150 351 150Q397 150 424.5 175Q452 200 461 250L541 700H727L643 225Q623 111 545 49.5Q467 -12 338 -12Q176 -12 100 66Q24 144 47 275ZM420 700ZM442 0ZM484.2877 748 439.2877 809H437.2877L373.2877 748H236.2877L376.2877 896H533.2877L621.2877 748ZM420 700Z" glyph-name="Ucircumflex" horiz-adv-x="713" unicode="&#219;" /><glyph d="M47 275 122 700H308L232 270Q222 210 251.5 180Q281 150 351 150Q397 150 424.5 175Q452 200 461 250L541 700H727L643 225Q623 111 545 49.5Q467 -12 338 -12Q176 -12 100 66Q24 144 47 275ZM420 700ZM442 0ZM427.2877 876 405.2877 748H252.2877L274.2877 876Q312.2877 876 350.7877 876Q389.2877 876 427.2877 876ZM627.2877 876 605.2877 748H452.2877L474.2877 876Q486.2877 876 498.7877 876Q511.2877 876 525.2877 876Q538.2877 876 551.2877 876Q564.2877 876 577.2877 876Q591.2877 876 603.7877 876Q616.2877 876 627.2877 876ZM420 700Z" glyph-name="Udieresis" horiz-adv-x="713" unicode="&#220;" /><glyph d="M47 275 122 700H308L232 270Q222 210 251.5 180Q281 150 351 150Q397 150 424.5 175Q452 200 461 250L541 700H727L643 225Q623 111 545 49.5Q467 -12 338 -12Q176 -12 100 66Q24 144 47 275ZM420 700ZM442 0ZM498 748H341L265 896H472ZM420 700Z" glyph-name="Ugrave" horiz-adv-x="713" unicode="&#217;" /><glyph d="M47 275 122 700H308L232 270Q222 210 251.5 180Q281 150 351 150Q397 150 424.5 175Q452 200 461 250L541 700H727L643 225Q623 111 545 49.5Q467 -12 338 -12Q176 -12 100 66Q24 144 47 275ZM420 700ZM442 0ZM307.7877 896H504.7877L376.7877 748H229.7877ZM556.7877 896H753.7877L599.7877 748H452.7877ZM420 700Z" glyph-name="Uhungarumlaut" horiz-adv-x="713" unicode="&#368;" /><glyph d="M47 275 122 700H308L232 270Q222 210 251.5 180Q281 150 351 150Q397 150 424.5 175Q452 200 461 250L541 700H727L643 225Q623 111 545 49.5Q467 -12 338 -12Q176 -12 100 66Q24 144 47 275ZM420 700ZM442 0ZM264.7877 773 284.7877 885H620.7877L600.7877 773ZM420 700Z" glyph-name="Umacron" horiz-adv-x="713" unicode="&#362;" /><glyph d="M418 -215Q366 -215 335 -187.5Q304 -160 304 -114Q304 -84 316 -58.5Q328 -33 351 -12Q348 -12 344.5 -12Q341 -12 338 -12Q176 -12 100 66Q24 144 47 275L122 700H308L232 270Q222 210 251.5 180Q281 150 351 150Q397 150 424.5 175Q452 200 461 250L541 700H727L643 225Q631 156 595 104.5Q559 53 497 18Q467 1 454.5 -12.5Q442 -26 442 -42Q442 -62 455 -72Q468 -82 495 -82Q504 -82 512.5 -81Q521 -80 530 -78L512 -190Q494 -203 471 -209Q448 -215 418 -215Z" glyph-name="Uogonek" horiz-adv-x="713" unicode="&#370;" /><glyph d="M47 275 122 700H308L232 270Q222 210 251.5 180Q281 150 351 150Q397 150 424.5 175Q452 200 461 250L541 700H727L643 225Q623 111 545 49.5Q467 -12 338 -12Q176 -12 100 66Q24 144 47 275ZM420 700ZM442 0ZM310 861Q310 915 346 949.5Q382 984 437 984Q492 984 528 949.5Q564 915 564 861Q564 807 528 772.5Q492 738 437 738Q382 738 346 772.5Q310 807 310 861ZM395 861Q395 842 406.5 830.5Q418 819 437 819Q456 819 467.5 830.5Q479 842 479 861Q479 880 467.5 891.5Q456 903 437 903Q418 903 406.5 891.5Q395 880 395 861ZM420 700Z" glyph-name="Uring" horiz-adv-x="713" unicode="&#366;" /><glyph d="M47 275 122 700H308L232 270Q222 210 251.5 180Q281 150 351 150Q397 150 424.5 175Q452 200 461 250L541 700H727L643 225Q623 111 545 49.5Q467 -12 338 -12Q176 -12 100 66Q24 144 47 275ZM420 700ZM442 0ZM525 741Q504 741 485 745Q466 749 453 757L413 779Q402 785 393 787.5Q384 790 375 790Q355 790 343 782Q331 774 322 748H231Q236 816 275.5 860.5Q315 905 372 905Q390 905 407 900.5Q424 896 442 887L478 866Q490 859 500.5 856Q511 853 522 853Q540 853 552 864.5Q564 876 570 900H660Q655 826 619.5 783.5Q584 741 525 741ZM420 700Z" glyph-name="Utilde" horiz-adv-x="713" unicode="&#360;" /><glyph d="M376 0H186L69 700H257L322 257L543 700H741Z" glyph-name="V" horiz-adv-x="671" unicode="V" /><glyph d="M322 0H132L77 700H260L281 288L468 700H668L710 308L866 700H1064L765 0H585L527 424ZM573.7144 700Z" glyph-name="W" horiz-adv-x="1005" unicode="W" /><glyph d="M322 0H132L77 700H260L281 288L468 700H668L710 308L866 700H1064L765 0H585L527 424ZM573.7144 700ZM601.5021 896H793.5021L654.5021 748H514.5021ZM573.7144 700Z" glyph-name="Wacute" horiz-adv-x="1005" unicode="&#7810;" /><glyph d="M322 0H132L77 700H260L281 288L468 700H668L710 308L866 700H1064L765 0H585L527 424ZM573.7144 700ZM638.0021 748 593.0021 809H591.0021L527.0021 748H390.0021L530.0021 896H687.0021L775.0021 748ZM573.7144 700Z" glyph-name="Wcircumflex" horiz-adv-x="1005" unicode="&#372;" /><glyph d="M322 0H132L77 700H260L281 288L468 700H668L710 308L866 700H1064L765 0H585L527 424ZM573.7144 700ZM581.0021 876 559.0021 748H406.0021L428.0021 876Q466.0021 876 504.5021 876Q543.0021 876 581.0021 876ZM781.0021 876 759.0021 748H606.0021L628.0021 876Q640.0021 876 652.5021 876Q665.0021 876 679.0021 876Q692.0021 876 705.0021 876Q718.0021 876 731.0021 876Q745.0021 876 757.5021 876Q770.0021 876 781.0021 876ZM573.7144 700Z" glyph-name="Wdieresis" horiz-adv-x="1005" unicode="&#7812;" /><glyph d="M322 0H132L77 700H260L281 288L468 700H668L710 308L866 700H1064L765 0H585L527 424ZM573.7144 700ZM651.7144 748H494.7144L418.7144 896H625.7144ZM573.7144 700Z" glyph-name="Wgrave" horiz-adv-x="1005" unicode="&#7808;" /><glyph d="M603 0H400L310 202L152 0H-61L230 356L74 700H276L360 511L510 700H719L440 361Z" glyph-name="X" horiz-adv-x="651" unicode="X" /><glyph d="M407 262 360 0H174L219 252L68 700H259L336 438L510 700H713ZM398.7144 700Z" glyph-name="Y" horiz-adv-x="641" unicode="Y" /><glyph d="M407 262 360 0H174L219 252L68 700H259L336 438L510 700H713ZM398.7144 700ZM426.5021 896H618.5021L479.5021 748H339.5021ZM398.7144 700Z" glyph-name="Yacute" horiz-adv-x="641" unicode="&#221;" /><glyph d="M407 262 360 0H174L219 252L68 700H259L336 438L510 700H713ZM398.7144 700ZM463.0021 748 418.0021 809H416.0021L352.0021 748H215.0021L355.0021 896H512.0021L600.0021 748ZM398.7144 700Z" glyph-name="Ycircumflex" horiz-adv-x="641" unicode="&#374;" /><glyph d="M407 262 360 0H174L219 252L68 700H259L336 438L510 700H713ZM398.7144 700ZM406.0021 876 384.0021 748H231.0021L253.0021 876Q291.0021 876 329.5021 876Q368.0021 876 406.0021 876ZM606.0021 876 584.0021 748H431.0021L453.0021 876Q465.0021 876 477.5021 876Q490.0021 876 504.0021 876Q517.0021 876 530.0021 876Q543.0021 876 556.0021 876Q570.0021 876 582.5021 876Q595.0021 876 606.0021 876ZM398.7144 700Z" glyph-name="Ydieresis" horiz-adv-x="641" unicode="&#376;" /><glyph d="M407 262 360 0H174L219 252L68 700H259L336 438L510 700H713ZM398.7144 700ZM476.7144 748H319.7144L243.7144 896H450.7144ZM398.7144 700Z" glyph-name="Ygrave" horiz-adv-x="641" unicode="&#7922;" /><glyph d="M92 543 120 700H659L631 542L242 157H580L552 0H-22L7 162L389 543ZM388.7144 700Z" glyph-name="Z" horiz-adv-x="638" unicode="Z" /><glyph d="M92 543 120 700H659L631 542L242 157H580L552 0H-22L7 162L389 543ZM388.7144 700ZM416.5021 896H608.5021L469.5021 748H329.5021ZM388.7144 700Z" glyph-name="Zacute" horiz-adv-x="638" unicode="&#377;" /><glyph d="M92 543 120 700H659L631 542L242 157H580L552 0H-22L7 162L389 543ZM388.7144 700ZM368.0021 896 411.0021 835H413.0021L479.0021 896H616.0021L476.0021 748H319.0021L231.0021 896ZM388.7144 700Z" glyph-name="Zcaron" horiz-adv-x="638" unicode="&#381;" /><glyph d="M92 543 120 700H659L631 542L242 157H580L552 0H-22L7 162L389 543ZM388.7144 700ZM498.0021 888 474.0021 748H321.0021L345.0021 888Q357.0021 888 369.5021 888Q382.0021 888 396.0021 888Q409.0021 888 422.0021 888Q435.0021 888 448.0021 888Q462.0021 888 474.5021 888Q487.0021 888 498.0021 888ZM388.7144 700Z" glyph-name="Zdotaccent" horiz-adv-x="638" unicode="&#379;" /><glyph d="M258 143Q298 143 321.5 164.5Q345 186 353 231L365 300Q373 348 354 372Q335 396 289 396Q259 396 237.5 376.5Q216 357 211 326L195 233Q188 190 204 166.5Q220 143 258 143ZM488 0H332L334 55Q308 22 273 5Q238 -12 198 -12Q105 -12 52.5 51.5Q0 115 17 214L41 354Q57 444 115.5 498Q174 552 256 552Q305 552 346.5 532.5Q388 513 409 480L428 540H584ZM324 540ZM384 0Z" glyph-name="a" horiz-adv-x="591" unicode="a" /><glyph d="M258 143Q298 143 321.5 164.5Q345 186 353 231L365 300Q373 348 354 372Q335 396 289 396Q259 396 237.5 376.5Q216 357 211 326L195 233Q188 190 204 166.5Q220 143 258 143ZM488 0H332L334 55Q308 22 273 5Q238 -12 198 -12Q105 -12 52.5 51.5Q0 115 17 214L41 354Q57 444 115.5 498Q174 552 256 552Q305 552 346.5 532.5Q388 513 409 480L428 540H584ZM324 540ZM384 0ZM351 751H543L404 603H264ZM324 540Z" glyph-name="aacute" horiz-adv-x="591" unicode="&#225;" /><glyph d="M258 143Q298 143 321.5 164.5Q345 186 353 231L365 300Q373 348 354 372Q335 396 289 396Q259 396 237.5 376.5Q216 357 211 326L195 233Q188 190 204 166.5Q220 143 258 143ZM488 0H332L334 55Q308 22 273 5Q238 -12 198 -12Q105 -12 52.5 51.5Q0 115 17 214L41 354Q57 444 115.5 498Q174 552 256 552Q305 552 346.5 532.5Q388 513 409 480L428 540H584ZM324 540ZM384 0ZM407.5 741 408.5 750H516.5L515.5 741Q508.5 672 464.5 631.5Q420.5 591 353.5 591Q268.5 591 228.5 631Q188.5 671 203.5 741L205.5 750H313.5L311.5 741Q306.5 719 319 706Q331.5 693 357.5 693Q381.5 693 393 704.5Q404.5 716 407.5 741ZM324 540Z" glyph-name="abreve" horiz-adv-x="591" unicode="&#259;" /><glyph d="M258 143Q298 143 321.5 164.5Q345 186 353 231L365 300Q373 348 354 372Q335 396 289 396Q259 396 237.5 376.5Q216 357 211 326L195 233Q188 190 204 166.5Q220 143 258 143ZM488 0H332L334 55Q308 22 273 5Q238 -12 198 -12Q105 -12 52.5 51.5Q0 115 17 214L41 354Q57 444 115.5 498Q174 552 256 552Q305 552 346.5 532.5Q388 513 409 480L428 540H584ZM324 540ZM384 0ZM390.5 603 346.5 664H344.5L279.5 603H142.5L282.5 751H439.5L527.5 603ZM324 540Z" glyph-name="acircumflex" horiz-adv-x="591" unicode="&#226;" /><glyph d="M222 751H414L275 603H135ZM195 540Z" glyph-name="acute" horiz-adv-x="500" unicode="&#180;" /><glyph d="M126 896H318L179 748H39ZM98.2123 700Z" glyph-name="acute.case" horiz-adv-x="250" /><glyph d="M258 143Q298 143 321.5 164.5Q345 186 353 231L365 300Q373 348 354 372Q335 396 289 396Q259 396 237.5 376.5Q216 357 211 326L195 233Q188 190 204 166.5Q220 143 258 143ZM488 0H332L334 55Q308 22 273 5Q238 -12 198 -12Q105 -12 52.5 51.5Q0 115 17 214L41 354Q57 444 115.5 498Q174 552 256 552Q305 552 346.5 532.5Q388 513 409 480L428 540H584ZM324 540ZM384 0ZM334.5 730 311.5 602H158.5L181.5 730Q200.5 730 219.5 730Q238.5 730 257.5 730Q276.5 730 295.5 730Q314.5 730 334.5 730ZM534.5 730 511.5 602H358.5L381.5 730Q419.5 730 457.5 730Q495.5 730 534.5 730ZM324 540Z" glyph-name="adieresis" horiz-adv-x="591" unicode="&#228;" /><glyph d="M600 424Q568 424 549 408Q530 392 524 362L518 326H672L676 348Q682 385 663 404.5Q644 424 600 424ZM809 173 803 140Q790 66 736.5 27Q683 -12 592 -12Q498 -12 437.5 11.5Q377 35 350 82Q328 37 283.5 12.5Q239 -12 179 -12Q95 -12 46 28Q-3 68 -3 136Q-3 229 53 277.5Q109 326 216 326H343L346 342Q353 381 336.5 399Q320 417 278 417Q254 417 238 407Q222 397 219 379L216 363H51L57 394Q72 468 128.5 510Q185 552 273 552Q330 552 371.5 539.5Q413 527 439 501Q470 526 513.5 539Q557 552 613 552Q741 552 799.5 482Q858 412 837 296L822 214H498L496 203Q488 159 507.5 138.5Q527 118 576 118Q606 118 622.5 128Q639 138 643 160L645 173ZM177 165Q177 143 192 132Q207 121 238 121Q269 121 291 138Q313 155 318 184L323 214H229Q204 214 190.5 201.5Q177 189 177 165ZM473.6083 540Z" glyph-name="ae" horiz-adv-x="868" unicode="&#230;" /><glyph d="M258 143Q298 143 321.5 164.5Q345 186 353 231L365 300Q373 348 354 372Q335 396 289 396Q259 396 237.5 376.5Q216 357 211 326L195 233Q188 190 204 166.5Q220 143 258 143ZM488 0H332L334 55Q308 22 273 5Q238 -12 198 -12Q105 -12 52.5 51.5Q0 115 17 214L41 354Q57 444 115.5 498Q174 552 256 552Q305 552 346.5 532.5Q388 513 409 480L428 540H584ZM324 540ZM384 0ZM398 603H257L170 751H363ZM324 540Z" glyph-name="agrave" horiz-adv-x="591" unicode="&#224;" /><glyph d="M258 143Q298 143 321.5 164.5Q345 186 353 231L365 300Q373 348 354 372Q335 396 289 396Q259 396 237.5 376.5Q216 357 211 326L195 233Q188 190 204 166.5Q220 143 258 143ZM488 0H332L334 55Q308 22 273 5Q238 -12 198 -12Q105 -12 52.5 51.5Q0 115 17 214L41 354Q57 444 115.5 498Q174 552 256 552Q305 552 346.5 532.5Q388 513 409 480L428 540H584ZM324 540ZM384 0ZM167 603 187 715H523L503 603ZM324 540Z" glyph-name="amacron" horiz-adv-x="591" unicode="&#257;" /><glyph d="M194 209Q194 171 224 149.5Q254 128 310 128Q326 128 341.5 130.5Q357 133 372 138L252 292Q221 275 207.5 255Q194 235 194 209ZM655 0H481L457 31Q413 10 370.5 -1Q328 -12 287 -12Q151 -12 80 39Q9 90 9 186Q9 253 45 302.5Q81 352 177 399Q163 427 156.5 454.5Q150 482 150 510Q150 593 213.5 652.5Q277 712 382 712Q494 712 548.5 656.5Q603 601 587 511L584 494H434L436 505Q443 547 428 568.5Q413 590 375 590Q344 590 327.5 574.5Q311 559 311 530Q311 510 317.5 494Q324 478 344 452L492 258Q494 265 495.5 273.5Q497 282 499 295L507 357H658L646 273Q640 227 626 195Q612 163 586 135L655 45Z" glyph-name="ampersand" horiz-adv-x="705" unicode="&amp;" /><glyph d="M258 143Q298 143 321.5 164.5Q345 186 353 231L365 300Q373 348 354 372Q335 396 289 396Q259 396 237.5 376.5Q216 357 211 326L195 233Q188 190 204 166.5Q220 143 258 143ZM474 -78 456 -190Q438 -203 415.5 -209Q393 -215 362 -215Q310 -215 279 -187.5Q248 -160 248 -114Q248 -73 269.5 -40.5Q291 -8 333 16L334 55Q308 22 273 5Q238 -12 198 -12Q105 -12 52.5 51.5Q0 115 17 214L41 354Q57 444 115.5 498Q174 552 256 552Q305 552 346.5 532.5Q388 513 409 480L428 540H584L488 0H410Q399 -11 392.5 -24Q386 -37 386 -50Q386 -66 399 -74Q412 -82 439 -82Q448 -82 456.5 -81Q465 -80 474 -78Z" glyph-name="aogonek" horiz-adv-x="591" unicode="&#261;" /><glyph d="M393 475Q411 475 422 484Q433 493 454 539L560 509Q540 421 503 379Q466 337 408 337Q383 337 359 341.5Q335 346 314 355L280 370Q237 389 227 391.5Q217 394 209 394Q190 394 177.5 384Q165 374 146 331L40 361Q60 449 97.5 491.5Q135 534 193 534Q223 534 252 527Q281 520 310 505L338 491Q354 483 368 479Q382 475 393 475ZM393 243Q411 243 422 252Q433 261 454 307L560 277Q540 189 503 147Q466 105 408 105Q383 105 359 109.5Q335 114 314 123L280 138Q237 157 227 159.5Q217 162 209 162Q190 162 177.5 152Q165 142 146 99L40 129Q60 217 97.5 259.5Q135 302 193 302Q223 302 252 295Q281 288 310 273L338 259Q354 251 368 247Q382 243 393 243Z" glyph-name="approxequal" horiz-adv-x="596" unicode="&#8776;" /><glyph d="M258 143Q298 143 321.5 164.5Q345 186 353 231L365 300Q373 348 354 372Q335 396 289 396Q259 396 237.5 376.5Q216 357 211 326L195 233Q188 190 204 166.5Q220 143 258 143ZM488 0H332L334 55Q308 22 273 5Q238 -12 198 -12Q105 -12 52.5 51.5Q0 115 17 214L41 354Q57 444 115.5 498Q174 552 256 552Q305 552 346.5 532.5Q388 513 409 480L428 540H584ZM324 540ZM384 0ZM227.6809 714Q227.6809 768 263.6809 802.5Q299.6809 837 354.6809 837Q409.6809 837 445.6809 802.5Q481.6809 768 481.6809 714Q481.6809 660 445.6809 625.5Q409.6809 591 354.6809 591Q299.6809 591 263.6809 625.5Q227.6809 660 227.6809 714ZM316.6809 714Q316.6809 697 327.1809 686.5Q337.6809 676 354.6809 676Q371.6809 676 382.1809 686.5Q392.6809 697 392.6809 714Q392.6809 731 382.1809 741.5Q371.6809 752 354.6809 752Q337.6809 752 327.1809 741.5Q316.6809 731 316.6809 714ZM324 540Z" glyph-name="aring" horiz-adv-x="591" unicode="&#229;" /><glyph d="M346 700 536 273H359L280 503L201 273H24L214 700Z" glyph-name="asciicircum" horiz-adv-x="554" unicode="^" /><glyph d="M381 338Q399 338 410 347Q421 356 442 402L548 372Q528 284 491 242Q454 200 396 200Q371 200 347 204.5Q323 209 302 218L268 233Q225 252 215 254.5Q205 257 197 257Q178 257 165.5 247Q153 237 134 194L28 224Q48 312 85.5 354.5Q123 397 181 397Q211 397 240 390Q269 383 298 368L326 354Q342 346 356 342Q370 338 381 338Z" glyph-name="asciitilde" horiz-adv-x="579" unicode="~" /><glyph d="M336 377 341 285 333 242H183L191 285L228 377L148 313L106 291L54 422L95 444L188 471L106 498L71 520L168 649L203 628L261 564L256 656L264 700H414L406 656L369 564L451 628L492 649L543 520L502 498L409 471L493 444L526 422L428 291L394 313Z" glyph-name="asterisk" horiz-adv-x="539" unicode="*" /><glyph d="M526 421H640L587 165Q579 126 588.5 106.5Q598 87 624 87Q673 87 698 138.5Q723 190 723 290Q723 397 650 457Q577 517 442 517Q300 517 223 423.5Q146 330 146 169Q146 69 212 8.5Q278 -52 392 -52Q428 -52 459.5 -48.5Q491 -45 523 -37L534 -134Q507 -145 466.5 -151Q426 -157 376 -157Q213 -157 115 -64.5Q17 28 17 175Q17 269 47 353Q77 437 134 497Q191 559 271.5 590.5Q352 622 451 622Q634 622 743 530Q852 438 852 292Q852 156 786.5 74Q721 -8 600 -8Q534 -8 496.5 18Q459 44 454 92Q435 64 406 49Q377 34 343 34Q289 34 257 66.5Q225 99 225 152Q225 161 226 170Q227 179 228 187L247 282Q262 352 303 390Q344 428 406 428Q443 428 471.5 412.5Q500 397 511 370ZM398 144Q429 144 445 159.5Q461 175 472 222L477 243Q486 280 474 299Q462 318 430 318Q405 318 392.5 306Q380 294 368 247L360 215Q357 203 356 194.5Q355 186 355 180Q355 161 365 152.5Q375 144 398 144Z" glyph-name="at" horiz-adv-x="895" unicode="@" /><glyph d="M258 143Q298 143 321.5 164.5Q345 186 353 231L365 300Q373 348 354 372Q335 396 289 396Q259 396 237.5 376.5Q216 357 211 326L195 233Q188 190 204 166.5Q220 143 258 143ZM488 0H332L334 55Q308 22 273 5Q238 -12 198 -12Q105 -12 52.5 51.5Q0 115 17 214L41 354Q57 444 115.5 498Q174 552 256 552Q305 552 346.5 532.5Q388 513 409 480L428 540H584ZM324 540ZM384 0ZM428 596Q407 596 388 600Q369 604 356 612L316 634Q305 640 296 642.5Q287 645 278 645Q258 645 246 637Q234 629 225 603H134Q139 671 178.5 715.5Q218 760 275 760Q293 760 310 755.5Q327 751 345 742L381 721Q393 714 403.5 711Q414 708 425 708Q443 708 455 719.5Q467 731 473 755H563Q558 681 522.5 638.5Q487 596 428 596ZM324 540Z" glyph-name="atilde" horiz-adv-x="591" unicode="&#227;" /><glyph d="M327 -12Q276 -12 233.5 8Q191 28 171 62L151 0H-5L123 730H299L259 499Q284 525 316 538.5Q348 552 385 552Q478 552 530.5 488.5Q583 425 566 326L542 186Q526 96 467.5 42Q409 -12 327 -12ZM292 144Q323 144 345 163.5Q367 183 372 214L388 307Q395 350 378.5 373.5Q362 397 323 397Q281 397 257 375.5Q233 354 225 308L214 246Q205 195 224.5 169.5Q244 144 292 144Z" glyph-name="b" horiz-adv-x="596" unicode="b" /><glyph d="M498 -126H331L89 758H256Z" glyph-name="backslash" horiz-adv-x="583" unicode="\" /><glyph d="M92 758H278V-126H92Z" glyph-name="bar" horiz-adv-x="367" unicode="|" /><glyph d="M207 318V315Q242 305 255 271.5Q268 238 259 182L242 83Q237 54 262 40Q287 26 342 26H361L333 -131H330Q168 -131 102.5 -75Q37 -19 59 106L79 217Q84 245 70 259.5Q56 274 25 274H13L36 409H48Q80 409 99 424Q118 439 122 466L142 576Q159 674 218.5 718.5Q278 763 388 763H491L463 606H396Q364 606 345 587Q326 568 320 529L302 431Q295 385 271 357Q247 329 207 318Z" glyph-name="braceleft" horiz-adv-x="438" unicode="{" /><glyph d="M235 314V317Q200 327 187 360.5Q174 394 183 450L200 549Q205 578 180 592Q155 606 100 606H81L109 763H112Q274 763 339.5 707Q405 651 383 526L363 415Q358 387 372 372.5Q386 358 417 358H429L406 223H394Q362 223 343 208Q324 193 320 166L300 56Q283 -42 223.5 -86.5Q164 -131 54 -131H-49L-21 26H46Q78 26 97 45Q116 64 122 103L140 201Q147 247 171 275Q195 303 235 314Z" glyph-name="braceright" horiz-adv-x="439" unicode="}" /><glyph d="M274 -126H-19L137 758H430L403 608H296L194 24H301Z" glyph-name="bracketleft" horiz-adv-x="380" unicode="[" /><glyph d="M109 758H402L246 -126H-47L-20 24H87L189 608H82Z" glyph-name="bracketright" horiz-adv-x="380" unicode="]" /><glyph d="M333 741 334 750H442L441 741Q434 672 390 631.5Q346 591 279 591Q194 591 154 631Q114 671 129 741L131 750H239L237 741Q232 719 244.5 706Q257 693 283 693Q307 693 318.5 704.5Q330 716 333 741ZM249.5 540Z" glyph-name="breve" horiz-adv-x="500" unicode="&#728;" /><glyph d="M235 888 236 897H344L343 888Q336 819 292 778.5Q248 738 181 738Q96 738 56 778Q16 818 31 888L33 897H141L139 888Q134 866 146.5 853Q159 840 185 840Q209 840 220.5 851.5Q232 863 235 888ZM153.7123 700Z" glyph-name="breve.case" horiz-adv-x="250" /><glyph d="M91 -126V205H277V-126ZM277 758V427H91V758Z" glyph-name="brokenbar" horiz-adv-x="365" unicode="&#166;" /><glyph d="M322 457V239H86V457Q145 457 204 457Q263 457 322 457Z" glyph-name="bullet" horiz-adv-x="398" unicode="&#8226;" /><glyph d="M332 182 337 212H511L506 182Q491 93 426.5 40.5Q362 -12 259 -12Q123 -12 61.5 53Q0 118 20 234L40 350Q57 447 123 499.5Q189 552 297 552Q429 552 489.5 494.5Q550 437 532 338L530 327H358L360 340Q365 372 347 390.5Q329 409 290 409Q258 409 239 390.5Q220 372 214 337L193 219Q186 175 205 154Q224 133 269 133Q295 133 311.5 146Q328 159 332 182ZM246 10ZM298 540Z" glyph-name="c" horiz-adv-x="553" unicode="c" /><glyph d="M332 182 337 212H511L506 182Q491 93 426.5 40.5Q362 -12 259 -12Q123 -12 61.5 53Q0 118 20 234L40 350Q57 447 123 499.5Q189 552 297 552Q429 552 489.5 494.5Q550 437 532 338L530 327H358L360 340Q365 372 347 390.5Q329 409 290 409Q258 409 239 390.5Q220 372 214 337L193 219Q186 175 205 154Q224 133 269 133Q295 133 311.5 146Q328 159 332 182ZM246 10ZM298 540ZM325 751H517L378 603H238ZM298 540Z" glyph-name="cacute" horiz-adv-x="553" unicode="&#263;" /><glyph d="M231 751 274 690H276L342 751H479L339 603H182L94 751ZM249.5 540Z" glyph-name="caron" horiz-adv-x="500" unicode="&#711;" /><glyph d="M133 896 176 835H178L244 896H381L241 748H84L-4 896ZM153.7123 700Z" glyph-name="caron.case" horiz-adv-x="250" /><glyph d="M71 742H193V698L124 533H34ZM63.2123 700Z" glyph-name="caron.salt" horiz-adv-x="200" /><glyph d="M332 182 337 212H511L506 182Q491 93 426.5 40.5Q362 -12 259 -12Q123 -12 61.5 53Q0 118 20 234L40 350Q57 447 123 499.5Q189 552 297 552Q429 552 489.5 494.5Q550 437 532 338L530 327H358L360 340Q365 372 347 390.5Q329 409 290 409Q258 409 239 390.5Q220 372 214 337L193 219Q186 175 205 154Q224 133 269 133Q295 133 311.5 146Q328 159 332 182ZM246 10ZM298 540ZM279.5 751 322.5 690H324.5L390.5 751H527.5L387.5 603H230.5L142.5 751ZM298 540Z" glyph-name="ccaron" horiz-adv-x="553" unicode="&#269;" /><glyph d="M356 -126Q356 -190 322 -225.5Q288 -261 224 -261Q166 -261 135 -233Q104 -205 104 -157V-156H197V-157Q197 -164 202.5 -167.5Q208 -171 220 -171Q233 -171 239.5 -164Q246 -157 246 -143Q246 -133 239.5 -127Q233 -121 222 -121Q218 -121 214.5 -121.5Q211 -122 202 -127L135 -86L192 -7Q90 8 46 71Q2 134 20 234L40 350Q57 447 123 499.5Q189 552 297 552Q429 552 489.5 495Q550 438 532 338L530 327H358L360 340Q365 372 347 390.5Q329 409 290 409Q258 409 239 390.5Q220 372 214 337L193 219Q186 175 205 154Q224 133 269 133Q295 133 311.5 146Q328 159 332 182L337 212H511L506 182Q493 97 432 44.5Q371 -8 275 -12L258 -34H260Q302 -34 329 -60Q356 -86 356 -126Z" glyph-name="ccedilla" horiz-adv-x="553" unicode="&#231;" /><glyph d="M332 182 337 212H511L506 182Q491 93 426.5 40.5Q362 -12 259 -12Q123 -12 61.5 53Q0 118 20 234L40 350Q57 447 123 499.5Q189 552 297 552Q429 552 489.5 494.5Q550 437 532 338L530 327H358L360 340Q365 372 347 390.5Q329 409 290 409Q258 409 239 390.5Q220 372 214 337L193 219Q186 175 205 154Q224 133 269 133Q295 133 311.5 146Q328 159 332 182ZM246 10ZM298 540ZM364.5 603 320.5 664H318.5L253.5 603H116.5L256.5 751H413.5L501.5 603ZM298 540Z" glyph-name="ccircumflex" horiz-adv-x="553" unicode="&#265;" /><glyph d="M332 182 337 212H511L506 182Q491 93 426.5 40.5Q362 -12 259 -12Q123 -12 61.5 53Q0 118 20 234L40 350Q57 447 123 499.5Q189 552 297 552Q429 552 489.5 494.5Q550 437 532 338L530 327H358L360 340Q365 372 347 390.5Q329 409 290 409Q258 409 239 390.5Q220 372 214 337L193 219Q186 175 205 154Q224 133 269 133Q295 133 311.5 146Q328 159 332 182ZM246 10ZM298 540ZM410.5 743 385.5 603H232.5L257.5 743Q268.5 743 281 743Q293.5 743 307.5 743Q320.5 743 333.5 743Q346.5 743 359.5 743Q373.5 743 386 743Q398.5 743 410.5 743ZM298 540Z" glyph-name="cdotaccent" horiz-adv-x="553" unicode="&#267;" /><glyph d="M373 -126Q373 -190 339 -225.5Q305 -261 241 -261Q183 -261 152 -233Q121 -205 121 -157V-156H214V-157Q214 -164 219.5 -167.5Q225 -171 237 -171Q250 -171 256.5 -164Q263 -157 263 -143Q263 -133 256.5 -127Q250 -121 239 -121Q235 -121 231.5 -121.5Q228 -122 219 -127L152 -86L234 27H322L275 -34H277Q319 -34 346 -60Q373 -86 373 -126ZM282.8935 10Z" glyph-name="cedilla" horiz-adv-x="500" unicode="&#184;" /><glyph d="M529 292 524 262Q512 187 462 136Q412 85 333 72L318 -12H152L169 81Q89 104 55.5 164.5Q22 225 38 314L58 430Q73 514 126 566Q179 618 265 629L280 712H446L429 618Q502 596 533 543.5Q564 491 550 418L548 407H376L378 420Q383 452 365 470.5Q347 489 308 489Q276 489 257 470.5Q238 452 232 417L211 299Q204 255 223 234Q242 213 287 213Q313 213 329.5 226Q346 239 350 262L355 292Z" glyph-name="cent" horiz-adv-x="559" unicode="&#162;" /><glyph d="M316 603 272 664H270L205 603H68L208 751H365L453 603ZM249.5 540Z" glyph-name="circumflex" horiz-adv-x="500" unicode="&#710;" /><glyph d="M218 748 173 809H171L107 748H-30L110 896H267L355 748ZM153.7123 700Z" glyph-name="circumflex.case" horiz-adv-x="250" /><glyph d="M206 166 177 0H-4L25 166Q70 166 115.5 166Q161 166 206 166ZM-31.3447 73ZM272 539 243 373H62L91 539Q136 539 181.5 539Q227 539 272 539ZM34.6553 446Z" glyph-name="colon" horiz-adv-x="281" unicode=":" /><glyph d="M31 166H204V122L71 -159H-56Z" glyph-name="comma" horiz-adv-x="273" unicode="," /><glyph d="M-2 95H105V71L30 -87H-51Z" glyph-name="comma.denominator" horiz-adv-x="170" unicode="&#63071;" /><glyph d="M59 445H166V421L91 263H10Z" glyph-name="comma.numerator" horiz-adv-x="169" unicode="&#63083;" /><glyph d="M38 -50H207V-94L119 -259H-17ZM89.3975 -260ZM137.0058 10Z" glyph-name="commaaccent" horiz-adv-x="216" unicode="&#63171;" /><glyph d="M205 595H36V639L125 804H261ZM107 540Z" glyph-name="commaaccent.salt" horiz-adv-x="216" /><glyph d="M404 -10Q255 -10 149.5 95.5Q44 201 44 350Q44 499 149.5 604.5Q255 710 404 710Q553 710 658.5 604.5Q764 499 764 350Q764 201 658.5 95.5Q553 -10 404 -10ZM404 636Q286 636 202.5 552Q119 468 119 350Q119 232 202.5 148Q286 64 404 64Q522 64 605.5 148Q689 232 689 350Q689 468 605.5 552Q522 636 404 636ZM457 290V305H597V290Q597 223 545 177.5Q493 132 408 132Q315 132 263 177.5Q211 223 211 298V402Q211 477 263 522Q315 567 408 567Q496 567 545.5 523.5Q595 480 595 410V395H457V411Q457 430 444.5 441Q432 452 408 452Q381 452 367 440Q353 428 353 404V298Q353 274 367 262Q381 250 408 250Q432 250 444.5 260.5Q457 271 457 290Z" glyph-name="copyright" horiz-adv-x="792" unicode="&#169;" /><glyph d="M579 154 471 65 420 132Q398 121 371 116Q344 111 311 111Q280 111 252 117Q224 123 201 134L119 60L32 159L116 234Q108 258 106 284.5Q104 311 109 338L116 382Q118 399 122 414Q126 429 131 442L61 535L171 620L226 549Q247 559 273.5 564Q300 569 331 569Q362 569 389 563.5Q416 558 439 547L526 625L617 530L527 449Q536 425 538 397.5Q540 370 535 342L528 298Q526 282 522 267Q518 252 513 239ZM328 441Q296 441 276.5 426.5Q257 412 253 386L241 308Q237 280 257 259.5Q277 239 314 239Q346 239 365.5 253.5Q385 268 389 294L401 372Q405 400 385 420.5Q365 441 328 441Z" glyph-name="currency" horiz-adv-x="629" unicode="&#164;" /><glyph d="M259 143Q300 143 324 164Q348 185 356 228L367 290Q377 344 358 370Q339 396 290 396Q259 396 237.5 376.5Q216 357 211 326L195 233Q188 190 204.5 166.5Q221 143 259 143ZM492 0H336L338 57Q312 23 276 5.5Q240 -12 198 -12Q105 -12 52.5 51.5Q0 115 17 214L41 354Q57 444 115.5 498Q174 552 256 552Q302 552 341 536Q380 520 402 492L444 730H620ZM665.1275 700Z" glyph-name="d" horiz-adv-x="594" unicode="d" /><glyph d="M331 431 322 163 293 0H128L157 163L244 432L100 410H56L78 535H122L255 512L246 656L254 700H415L407 656L350 513L479 535H522L500 410H457Z" glyph-name="dagger" horiz-adv-x="520" unicode="&#8224;" /><glyph d="M207 268 192 350 235 430 100 410H56L78 535H122L255 512L246 656L254 700H415L407 656L350 513L479 535H522L500 410H457L340 429L353 350L311 270L436 291H479L457 166H414L292 186L300 44L292 0H131L139 44L197 187L57 166H13L35 291H79Z" glyph-name="daggerdbl" horiz-adv-x="520" unicode="&#8225;" /><glyph d="M259 143Q300 143 324 164Q348 185 356 228L367 290Q377 344 358 370Q339 396 290 396Q259 396 237.5 376.5Q216 357 211 326L195 233Q188 190 204.5 166.5Q221 143 259 143ZM492 0H336L338 57Q312 23 276 5.5Q240 -12 198 -12Q105 -12 52.5 51.5Q0 115 17 214L41 354Q57 444 115.5 498Q174 552 256 552Q302 552 341 536Q380 520 402 492L444 730H620ZM665.1275 700ZM671 730H793V686L724 521H634ZM663.2123 688Z" glyph-name="dcaron" horiz-adv-x="668.5332" unicode="&#271;" /><glyph d="M259 143Q300 143 324 164Q348 185 356 228L367 290Q377 344 358 370Q339 396 290 396Q259 396 237.5 376.5Q216 357 211 326L195 233Q188 190 204.5 166.5Q221 143 259 143ZM336 0 338 57Q312 23 276 5.5Q240 -12 198 -12Q105 -12 52.5 51.5Q0 115 17 214L41 354Q57 444 115.5 498Q174 552 256 552Q302 552 341 536Q380 520 402 492L418 581H327L343 676H434L444 730H620L611 676H672L656 581H594L492 0Z" glyph-name="dcroat" horiz-adv-x="594" unicode="&#273;" /><glyph d="M229 712Q297 712 344 665Q391 618 391 550Q391 483 343.5 435Q296 387 229 387Q163 387 115.5 435Q68 483 68 550Q68 618 115 665Q162 712 229 712ZM229 482Q257 482 276.5 502Q296 522 296 550Q296 578 276.5 597.5Q257 617 229 617Q202 617 182 597Q162 577 162 550Q162 522 182 502Q202 482 229 482Z" glyph-name="degree" horiz-adv-x="377" unicode="&#176;" /><glyph d="M260 730 237 602H84L107 730Q126 730 145 730Q164 730 183 730Q202 730 221 730Q240 730 260 730ZM460 730 437 602H284L307 730Q345 730 383 730Q421 730 460 730ZM249.5 540Z" glyph-name="dieresis" horiz-adv-x="500" unicode="&#168;" /><glyph d="M161 876 139 748H-14L8 876Q46 876 84.5 876Q123 876 161 876ZM361 876 339 748H186L208 876Q220 876 232.5 876Q245 876 259 876Q272 876 285 876Q298 876 311 876Q325 876 337.5 876Q350 876 361 876ZM153.7123 700Z" glyph-name="dieresis.case" horiz-adv-x="250" /><glyph d="M510 429V272H43Q43 311 43 350.5Q43 390 43 429ZM367 197V59H186V197Q231 197 276.5 197Q322 197 367 197ZM367 641V503H186V641Q231 641 276.5 641Q322 641 367 641Z" glyph-name="divide" horiz-adv-x="537" unicode="&#247;" /><glyph d="M323 -10 308 -98H142L159 0Q73 20 33 72.5Q-7 125 3 202L5 218H190L189 205Q186 172 210.5 155.5Q235 139 287 139Q333 139 357 155Q381 171 381 202Q381 223 366.5 235.5Q352 248 311 261L214 291Q138 314 101.5 361Q65 408 65 481Q65 566 124.5 629.5Q184 693 284 708L300 798H466L449 700Q533 680 575.5 626Q618 572 610 502L608 484H423L424 498Q426 530 402.5 546.5Q379 563 332 563Q292 563 271 548Q250 533 250 505Q250 486 260.5 475.5Q271 465 305 455L410 423Q494 398 535 351Q576 304 576 234Q576 135 509 68Q442 1 323 -10Z" glyph-name="dollar" horiz-adv-x="612" unicode="$" /><glyph d="M362 743 337 603H184L209 743Q220 743 232.5 743Q245 743 259 743Q272 743 285 743Q298 743 311 743Q325 743 337.5 743Q350 743 362 743ZM249.5 540Z" glyph-name="dotaccent" horiz-adv-x="500" unicode="&#729;" /><glyph d="M263 888 239 748H86L110 888Q122 888 134.5 888Q147 888 161 888Q174 888 187 888Q200 888 213 888Q227 888 239.5 888Q252 888 263 888ZM153.7123 700Z" glyph-name="dotaccent.case" horiz-adv-x="250" /><glyph d="M266 540 171 0H-5L90 540ZM178 540Z" glyph-name="dotlessi" horiz-adv-x="274" unicode="&#305;" /><glyph d="M292 424Q260 424 241 408.5Q222 393 217 362L213 337H367L369 349Q375 388 356 406Q337 424 292 424ZM502 173 496 138Q483 63 424.5 25.5Q366 -12 264 -12Q120 -12 59.5 49Q-1 110 21 237L41 350Q59 450 123 501Q187 552 295 552Q429 552 490.5 485Q552 418 532 307L517 225H193L189 203Q181 157 200 137.5Q219 118 268 118Q299 118 315.5 128Q332 138 336 161L338 173ZM301 540ZM351 0Z" glyph-name="e" horiz-adv-x="559" unicode="e" /><glyph d="M292 424Q260 424 241 408.5Q222 393 217 362L213 337H367L369 349Q375 388 356 406Q337 424 292 424ZM502 173 496 138Q483 63 424.5 25.5Q366 -12 264 -12Q120 -12 59.5 49Q-1 110 21 237L41 350Q59 450 123 501Q187 552 295 552Q429 552 490.5 485Q552 418 532 307L517 225H193L189 203Q181 157 200 137.5Q219 118 268 118Q299 118 315.5 128Q332 138 336 161L338 173ZM301 540ZM351 0ZM328 751H520L381 603H241ZM301 540Z" glyph-name="eacute" horiz-adv-x="559" unicode="&#233;" /><glyph d="M292 424Q260 424 241 408.5Q222 393 217 362L213 337H367L369 349Q375 388 356 406Q337 424 292 424ZM502 173 496 138Q483 63 424.5 25.5Q366 -12 264 -12Q120 -12 59.5 49Q-1 110 21 237L41 350Q59 450 123 501Q187 552 295 552Q429 552 490.5 485Q552 418 532 307L517 225H193L189 203Q181 157 200 137.5Q219 118 268 118Q299 118 315.5 128Q332 138 336 161L338 173ZM301 540ZM351 0ZM384.5 741 385.5 750H493.5L492.5 741Q485.5 672 441.5 631.5Q397.5 591 330.5 591Q245.5 591 205.5 631Q165.5 671 180.5 741L182.5 750H290.5L288.5 741Q283.5 719 296 706Q308.5 693 334.5 693Q358.5 693 370 704.5Q381.5 716 384.5 741ZM301 540Z" glyph-name="ebreve" horiz-adv-x="559" unicode="&#277;" /><glyph d="M292 424Q260 424 241 408.5Q222 393 217 362L213 337H367L369 349Q375 388 356 406Q337 424 292 424ZM502 173 496 138Q483 63 424.5 25.5Q366 -12 264 -12Q120 -12 59.5 49Q-1 110 21 237L41 350Q59 450 123 501Q187 552 295 552Q429 552 490.5 485Q552 418 532 307L517 225H193L189 203Q181 157 200 137.5Q219 118 268 118Q299 118 315.5 128Q332 138 336 161L338 173ZM301 540ZM351 0ZM282.5 751 325.5 690H327.5L393.5 751H530.5L390.5 603H233.5L145.5 751ZM301 540Z" glyph-name="ecaron" horiz-adv-x="559" unicode="&#283;" /><glyph d="M292 424Q260 424 241 408.5Q222 393 217 362L213 337H367L369 349Q375 388 356 406Q337 424 292 424ZM502 173 496 138Q483 63 424.5 25.5Q366 -12 264 -12Q120 -12 59.5 49Q-1 110 21 237L41 350Q59 450 123 501Q187 552 295 552Q429 552 490.5 485Q552 418 532 307L517 225H193L189 203Q181 157 200 137.5Q219 118 268 118Q299 118 315.5 128Q332 138 336 161L338 173ZM301 540ZM351 0ZM367.5 603 323.5 664H321.5L256.5 603H119.5L259.5 751H416.5L504.5 603ZM301 540Z" glyph-name="ecircumflex" horiz-adv-x="559" unicode="&#234;" /><glyph d="M292 424Q260 424 241 408.5Q222 393 217 362L213 337H367L369 349Q375 388 356 406Q337 424 292 424ZM502 173 496 138Q483 63 424.5 25.5Q366 -12 264 -12Q120 -12 59.5 49Q-1 110 21 237L41 350Q59 450 123 501Q187 552 295 552Q429 552 490.5 485Q552 418 532 307L517 225H193L189 203Q181 157 200 137.5Q219 118 268 118Q299 118 315.5 128Q332 138 336 161L338 173ZM301 540ZM351 0ZM311.5 730 288.5 602H135.5L158.5 730Q177.5 730 196.5 730Q215.5 730 234.5 730Q253.5 730 272.5 730Q291.5 730 311.5 730ZM511.5 730 488.5 602H335.5L358.5 730Q396.5 730 434.5 730Q472.5 730 511.5 730ZM301 540Z" glyph-name="edieresis" horiz-adv-x="559" unicode="&#235;" /><glyph d="M292 424Q260 424 241 408.5Q222 393 217 362L213 337H367L369 349Q375 388 356 406Q337 424 292 424ZM502 173 496 138Q483 63 424.5 25.5Q366 -12 264 -12Q120 -12 59.5 49Q-1 110 21 237L41 350Q59 450 123 501Q187 552 295 552Q429 552 490.5 485Q552 418 532 307L517 225H193L189 203Q181 157 200 137.5Q219 118 268 118Q299 118 315.5 128Q332 138 336 161L338 173ZM301 540ZM351 0ZM413.5 743 388.5 603H235.5L260.5 743Q271.5 743 284 743Q296.5 743 310.5 743Q323.5 743 336.5 743Q349.5 743 362.5 743Q376.5 743 389 743Q401.5 743 413.5 743ZM301 540Z" glyph-name="edotaccent" horiz-adv-x="559" unicode="&#279;" /><glyph d="M292 424Q260 424 241 408.5Q222 393 217 362L213 337H367L369 349Q375 388 356 406Q337 424 292 424ZM502 173 496 138Q483 63 424.5 25.5Q366 -12 264 -12Q120 -12 59.5 49Q-1 110 21 237L41 350Q59 450 123 501Q187 552 295 552Q429 552 490.5 485Q552 418 532 307L517 225H193L189 203Q181 157 200 137.5Q219 118 268 118Q299 118 315.5 128Q332 138 336 161L338 173ZM301 540ZM351 0ZM375 603H234L147 751H340ZM301 540Z" glyph-name="egrave" horiz-adv-x="559" unicode="&#232;" /><glyph d="M575 230Q575 123 501.5 55.5Q428 -12 297 -12Q160 -12 88 39Q16 90 16 184Q16 248 46.5 299Q77 350 133 379Q111 400 100 427Q89 454 89 485Q89 583 158 647.5Q227 712 347 712Q474 712 541 664Q608 616 608 527Q608 469 585 424.5Q562 380 519 353Q547 330 561 298.5Q575 267 575 230ZM265 498Q264 465 285.5 447.5Q307 430 349 430H351Q389 430 409.5 451.5Q430 473 430 510Q430 541 409 557Q388 573 347 573Q309 573 287.5 552.5Q266 532 265 498ZM390 217Q390 251 366.5 268Q343 285 296 285H294Q249 285 225.5 262Q202 239 202 197Q202 164 226 147Q250 130 297 130Q342 130 366 153Q390 176 390 217Z" glyph-name="eight" horiz-adv-x="627" unicode="8" /><glyph d="M277 113Q277 61 238 27.5Q199 -6 130 -6Q60 -6 21 22Q-18 50 -17 95Q-16 126 -1 148.5Q14 171 42 184Q29 194 22.5 208.5Q16 223 16 242Q16 290 53 323Q90 356 153 356Q218 356 253.5 330.5Q289 305 289 260Q289 232 277.5 211.5Q266 191 243 178Q260 166 268.5 150Q277 134 277 113ZM121 245Q121 233 129 226.5Q137 220 152 220H153Q168 220 175.5 228Q183 236 183 250Q183 261 174.5 268Q166 275 151 275Q137 275 129 266.5Q121 258 121 245ZM164 108Q164 122 155 129Q146 136 129 136H128Q112 136 104 127.5Q96 119 96 103Q96 90 105 82.5Q114 75 132 75Q147 75 155.5 84.5Q164 94 164 108Z" glyph-name="eight.denominator" horiz-adv-x="329" unicode="&#63069;" /><glyph d="M252 -27Q252 -79 213 -112.5Q174 -146 105 -146Q35 -146 -4 -118Q-43 -90 -42 -45Q-41 -14 -26 8.5Q-11 31 17 44Q4 54 -2.5 68.5Q-9 83 -9 102Q-9 150 28 183Q65 216 128 216Q193 216 228.5 190.5Q264 165 264 120Q264 92 252.5 71.5Q241 51 218 38Q235 26 243.5 10Q252 -6 252 -27ZM96 105Q96 93 104 86.5Q112 80 127 80H128Q143 80 150.5 88Q158 96 158 110Q158 121 149.5 128Q141 135 126 135Q112 135 104 126.5Q96 118 96 105ZM139 -32Q139 -18 130 -11Q121 -4 104 -4H103Q87 -4 79 -12.5Q71 -21 71 -37Q71 -50 80 -57.5Q89 -65 107 -65Q122 -65 130.5 -55.5Q139 -46 139 -32Z" glyph-name="eight.inferior" horiz-adv-x="329" unicode="&#8328;" /><glyph d="M338 463Q338 411 299 377.5Q260 344 191 344Q121 344 82 372Q43 400 44 445Q45 476 60 498.5Q75 521 103 534Q90 544 83.5 558.5Q77 573 77 592Q77 640 114 673Q151 706 214 706Q279 706 314.5 680.5Q350 655 350 610Q350 582 338.5 561.5Q327 541 304 528Q321 516 329.5 500Q338 484 338 463ZM182 595Q182 583 190 576.5Q198 570 213 570H214Q229 570 236.5 578Q244 586 244 600Q244 611 235.5 618Q227 625 212 625Q198 625 190 616.5Q182 608 182 595ZM225 458Q225 472 216 479Q207 486 190 486H189Q173 486 165 477.5Q157 469 157 453Q157 440 166 432.5Q175 425 193 425Q208 425 216.5 434.5Q225 444 225 458Z" glyph-name="eight.numerator" horiz-adv-x="329" unicode="&#63081;" /><glyph d="M363 603Q363 551 324 517.5Q285 484 216 484Q146 484 107 512Q68 540 69 585Q70 616 85 638.5Q100 661 128 674Q115 684 108.5 698.5Q102 713 102 732Q102 780 139 813Q176 846 239 846Q304 846 339.5 820.5Q375 795 375 750Q375 722 363.5 701.5Q352 681 329 668Q346 656 354.5 640Q363 624 363 603ZM207 735Q207 723 215 716.5Q223 710 238 710H239Q254 710 261.5 718Q269 726 269 740Q269 751 260.5 758Q252 765 237 765Q223 765 215 756.5Q207 748 207 735ZM250 598Q250 612 241 619Q232 626 215 626H214Q198 626 190 617.5Q182 609 182 593Q182 580 191 572.5Q200 565 218 565Q233 565 241.5 574.5Q250 584 250 598Z" glyph-name="eight.superior" horiz-adv-x="329" unicode="&#8312;" /><glyph d="M579 230Q579 123 505.5 55.5Q432 -12 301 -12Q164 -12 92 39Q20 90 20 184Q20 248 50.5 299Q81 350 137 379Q115 400 104 427Q93 454 93 485Q93 583 162 647.5Q231 712 351 712Q478 712 545 664Q612 616 612 527Q612 469 589 424.5Q566 380 523 353Q551 330 565 298.5Q579 267 579 230ZM269 498Q268 465 289.5 447.5Q311 430 353 430H355Q393 430 413.5 451.5Q434 473 434 510Q434 541 413 557Q392 573 351 573Q313 573 291.5 552.5Q270 532 269 498ZM394 217Q394 251 370.5 268Q347 285 300 285H298Q253 285 229.5 262Q206 239 206 197Q206 164 230 147Q254 130 301 130Q346 130 370 153Q394 176 394 217Z" glyph-name="eight.tab" horiz-adv-x="635" unicode="&#65304;" /><glyph d="M205 166 176 0H-5L24 166Q69 166 114.5 166Q160 166 205 166ZM-32.3447 73ZM506 166 477 0H296L325 166Q370 166 415.5 166Q461 166 506 166ZM268.6553 73ZM807 166 778 0H597L626 166Q671 166 716.5 166Q762 166 807 166ZM569.6553 73Z" glyph-name="ellipsis" horiz-adv-x="879" unicode="&#8230;" /><glyph d="M292 424Q260 424 241 408.5Q222 393 217 362L213 337H367L369 349Q375 388 356 406Q337 424 292 424ZM502 173 496 138Q483 63 424.5 25.5Q366 -12 264 -12Q120 -12 59.5 49Q-1 110 21 237L41 350Q59 450 123 501Q187 552 295 552Q429 552 490.5 485Q552 418 532 307L517 225H193L189 203Q181 157 200 137.5Q219 118 268 118Q299 118 315.5 128Q332 138 336 161L338 173ZM301 540ZM351 0ZM144 603 164 715H500L480 603ZM301 540Z" glyph-name="emacron" horiz-adv-x="559" unicode="&#275;" /><glyph d="M67 404H876L848 242H39Q46 283 53 323.5Q60 364 67 404Z" glyph-name="emdash" horiz-adv-x="909" unicode="&#8212;" /><glyph d="M67 404H576L548 242H39Q46 283 53 323.5Q60 364 67 404Z" glyph-name="endash" horiz-adv-x="609" unicode="&#8211;" /><glyph d="M340 -215Q288 -215 257 -187.5Q226 -160 226 -114Q226 -84 237.5 -58.5Q249 -33 271 -12H264Q120 -12 59.5 49Q-1 110 21 237L41 350Q59 450 123 501Q187 552 295 552Q429 552 490.5 485Q552 418 532 307L517 225H193L189 203Q181 157 200 137.5Q219 118 268 118Q299 118 315.5 128Q332 138 336 161L338 173H502L496 138Q489 97 468.5 68Q448 39 412 18Q388 4 376 -12Q364 -28 364 -45Q364 -64 377 -73Q390 -82 417 -82Q426 -82 434.5 -81Q443 -80 452 -78L434 -190Q416 -203 393.5 -209Q371 -215 340 -215ZM292 424Q260 424 241 408.5Q222 393 217 362L213 337H367L369 349Q375 388 356 406Q337 424 292 424Z" glyph-name="eogonek" horiz-adv-x="559" unicode="&#281;" /><glyph d="M71 544H538V390H71Q71 429 71 467.5Q71 506 71 544ZM71 309H538V155H71Q71 194 71 232.5Q71 271 71 309Z" glyph-name="equal" horiz-adv-x="604" unicode="=" /><glyph d="M407 622Q352 622 303 600Q254 578 218 537V414H600V529Q565 574 515.5 598Q466 622 407 622ZM618 196 699 138Q649 68 571.5 28Q494 -12 407 -12Q258 -12 152.5 94Q47 200 47 350Q47 500 152.5 606Q258 712 407 712Q565 712 666 602Q767 492 767 314H218V164Q255 124 304 102.5Q353 81 407 81Q472 81 527 111Q582 141 618 196Z" glyph-name="estimated" horiz-adv-x="781" unicode="&#8494;" /><glyph d="M277 133Q311 133 331 150.5Q351 168 357 203L378 323Q386 364 365 385.5Q344 407 295 407Q261 407 241 389.5Q221 372 215 337L194 217Q186 176 207 154.5Q228 133 277 133ZM558 343 533 200Q515 99 450.5 44.5Q386 -10 281 -10Q133 -10 66 51.5Q-1 113 19 224L39 340Q56 435 115 487.5Q174 540 268 540Q304 540 332.5 533Q361 526 381 512Q378 525 372.5 541.5Q367 558 357 583L279 561L255 645L315 662Q306 677 294 693Q282 709 265 730H443Q452 720 456.5 714.5Q461 709 465 703L528 721L553 637L513 626Q522 609 529.5 590Q537 571 543 550Q559 487 562.5 437.5Q566 388 558 343Z" glyph-name="eth" horiz-adv-x="591" unicode="&#240;" /><glyph d="M120 700H316L300 610Q292 561 269.5 465Q247 369 210 225H58Q73 369 84.5 465Q96 561 104 610ZM214 166 185 0H4L33 166Q78 166 123.5 166Q169 166 214 166Z" glyph-name="exclam" horiz-adv-x="297" unicode="!" /><glyph d="M161 -160H-35L-19 -70Q-11 -21 11.5 75Q34 171 71 315H223Q208 171 196.5 75Q185 -21 177 -70ZM67 374 96 540H277L248 374Q203 374 157.5 374Q112 374 67 374Z" glyph-name="exclamdown" horiz-adv-x="290" unicode="&#161;" /><glyph d="M420 538 397 404H280L210 0H34L105 404H42L65 538H129L133 562Q149 650 208.5 690Q268 730 377 730H460L437 600H370Q341 600 326 589.5Q311 579 307 555L304 538Z" glyph-name="f" horiz-adv-x="389" unicode="f" /><glyph d="M420 538 397 404H280L210 0H34L105 404H42L65 538H129L133 562Q149 650 208.5 690Q268 730 377 730H460L437 600H370Q341 600 326 589.5Q311 579 307 555L304 538ZM809 538 786 404H669L599 0H423L494 404H431L454 538H518L522 562Q538 650 597.5 690Q657 730 766 730H849L826 600H759Q730 600 715 589.5Q700 579 696 555L693 538Z" glyph-name="f_f" horiz-adv-x="778" unicode="&#64256;" /><glyph d="M420 538 397 404H280L210 0H34L105 404H42L65 538H129L133 562Q149 650 208.5 690Q268 730 377 730H460L437 600H370Q341 600 326 589.5Q311 579 307 555L304 538ZM809 538 786 404H669L599 0H423L494 404H431L454 538H518L522 562Q538 650 597.5 690Q657 730 766 730H849L826 600H759Q730 600 715 589.5Q700 579 696 555L693 538ZM1044 540 949 0H773L868 540ZM1078 730 1055 602H879L902 730ZM821 0Z" glyph-name="f_f_i" horiz-adv-x="1052" unicode="&#64259;" /><glyph d="M420 538 397 404H280L210 0H34L105 404H42L65 538H129L133 562Q149 650 208.5 690Q268 730 377 730H460L437 600H370Q341 600 326 589.5Q311 579 307 555L304 538ZM809 538 786 404H669L599 0H423L494 404H431L454 538H518L522 562Q538 650 597.5 690Q657 730 766 730H849L826 600H759Q730 600 715 589.5Q700 579 696 555L693 538ZM1078 730 949 0H773L902 730ZM861 0ZM987 730ZM1126 700ZM1046 350Z" glyph-name="f_f_l" horiz-adv-x="1052" unicode="&#64260;" /><glyph d="M420 538 397 404H280L210 0H34L105 404H42L65 538H129L133 562Q149 650 208.5 690Q268 730 377 730H460L437 600H370Q341 600 326 589.5Q311 579 307 555L304 538ZM655 540 560 0H384L479 540ZM689 730 666 602H490L513 730ZM432 0Z" glyph-name="fi" horiz-adv-x="663" unicode="&#64257;" /><glyph d="M284 296H55L126 700H600L572 540H284L268 450H305Q434 450 500.5 399.5Q567 349 567 253Q567 130 494 59Q421 -12 284 -12Q225 -12 176 0.5Q127 13 92 37Q46 68 26 114Q6 160 15 210L16 216H198L197 210Q191 176 212.5 159Q234 142 283 142Q331 142 356 165.5Q381 189 381 233Q381 264 356.5 280Q332 296 284 296Z" glyph-name="five" horiz-adv-x="607" unicode="5" /><glyph d="M120 139H1L38 350H289L274 259H138L132 227H138Q205 227 239.5 200.5Q274 174 274 123Q274 67 235 30.5Q196 -6 128 -6Q52 -6 14 23.5Q-24 53 -17 104L-16 111H95V105Q95 94 103 89Q111 84 127 84Q143 84 151 92Q159 100 159 114Q159 126 149 132.5Q139 139 120 139Z" glyph-name="five.denominator" horiz-adv-x="323" unicode="&#63066;" /><glyph d="M96 -1H-23L14 210H265L250 119H114L108 87H114Q181 87 215.5 60.5Q250 34 250 -17Q250 -73 211 -109.5Q172 -146 104 -146Q28 -146 -10 -116.5Q-48 -87 -41 -36L-40 -29H71V-35Q71 -46 79 -51Q87 -56 103 -56Q119 -56 127 -48Q135 -40 135 -26Q135 -14 125 -7.5Q115 -1 96 -1Z" glyph-name="five.inferior" horiz-adv-x="323" unicode="&#8325;" /><glyph d="M182 489H63L100 700H351L336 609H200L194 577H200Q267 577 301.5 550.5Q336 524 336 473Q336 417 297 380.5Q258 344 190 344Q114 344 76 373.5Q38 403 45 454L46 461H157V455Q157 444 165 439Q173 434 189 434Q205 434 213 442Q221 450 221 464Q221 476 211 482.5Q201 489 182 489Z" glyph-name="five.numerator" horiz-adv-x="323" unicode="&#63078;" /><glyph d="M207 629H88L125 840H376L361 749H225L219 717H225Q292 717 326.5 690.5Q361 664 361 613Q361 557 322 520.5Q283 484 215 484Q139 484 101 513.5Q63 543 70 594L71 601H182V595Q182 584 190 579Q198 574 214 574Q230 574 238 582Q246 590 246 604Q246 616 236 622.5Q226 629 207 629Z" glyph-name="five.superior" horiz-adv-x="323" unicode="&#8309;" /><glyph d="M298 296H69L140 700H614L586 540H298L282 450H319Q448 450 514.5 399.5Q581 349 581 253Q581 130 508 59Q435 -12 298 -12Q239 -12 190 0.5Q141 13 106 37Q60 68 40 114Q20 160 29 210L30 216H212L211 210Q205 176 226.5 159Q248 142 297 142Q345 142 370 165.5Q395 189 395 233Q395 264 370.5 280Q346 296 298 296Z" glyph-name="five.tab" horiz-adv-x="635" unicode="&#65301;" /><glyph d="M420 538 397 404H280L210 0H34L105 404H42L65 538H129L133 562Q149 650 208.5 690Q268 730 377 730H460L437 600H370Q341 600 326 589.5Q311 579 307 555L304 538ZM689 730 560 0H384L513 730ZM472 0ZM598 730ZM737 700ZM657 350Z" glyph-name="fl" horiz-adv-x="663" unicode="&#64258;" /><glyph d="M319 287 245 34Q214 -72 156.5 -114Q99 -156 -1 -156H-98L-74 -16H0Q29 -16 45 -4.5Q61 7 69 34L143 287H64L88 425H183L208 510Q239 616 296.5 658Q354 700 454 700H551L527 560H453Q424 560 408 548.5Q392 537 384 510L359 425H438L414 287Z" glyph-name="florin" horiz-adv-x="490" unicode="&#402;" /><glyph d="M208 700H394L222 326H394L460 700H646L522 0H336L366 166H3L30 324Z" glyph-name="four" horiz-adv-x="638" unicode="4" /><glyph d="M70 350H180L105 171H167L199 350H313L251 0H137L149 76H-24L-8 170Z" glyph-name="four.denominator" horiz-adv-x="339" unicode="&#63065;" /><glyph d="M46 210H156L81 31H143L175 210H289L227 -140H113L125 -64H-48L-32 30Z" glyph-name="four.inferior" horiz-adv-x="339" unicode="&#8324;" /><glyph d="M132 700H242L167 521H229L261 700H375L313 350H199L211 426H38L54 520Z" glyph-name="four.numerator" horiz-adv-x="339" unicode="&#63077;" /><glyph d="M157 840H267L192 661H254L286 840H400L338 490H224L236 566H63L79 660Z" glyph-name="four.superior" horiz-adv-x="339" unicode="&#8308;" /><glyph d="M207 700H393L221 326H393L459 700H645L521 0H335L365 166H2L29 324Z" glyph-name="four.tab" horiz-adv-x="635" unicode="&#65300;" /><glyph d="M323 700H440L-135 0H-252Z" glyph-name="fraction" horiz-adv-x="175" unicode="&#8260;" /><glyph d="M545 420 516 258H238L193 0H7L130 700H624L596 540H288L267 420ZM809 273 761 0H585L680 540H836L833 466Q867 513 919.5 534Q972 555 1037 548L1008 383H965Q895 383 857.5 356.5Q820 330 809 273ZM857.903 540ZM671.6864 0Z" glyph-name="franc" horiz-adv-x="1004" unicode="&#8355;" /><glyph d="M268 193Q307 193 332 213Q357 233 363 268L372 320Q379 359 358 380.5Q337 402 292 402Q261 402 239 382.5Q217 363 212 332L203 283Q195 240 212 216.5Q229 193 268 193ZM241 -190Q124 -190 58.5 -139.5Q-7 -89 -7 -9V-6H158V-9Q158 -30 179 -42.5Q200 -55 238 -55Q276 -55 294 -39.5Q312 -24 319 16L333 94Q306 68 274.5 55Q243 42 207 42Q113 42 61 105.5Q9 169 26 268L41 354Q57 444 115.5 498Q174 552 256 552Q307 552 349 533Q391 514 412 480L431 540H587L495 18Q476 -93 415 -141.5Q354 -190 241 -190ZM325 540Z" glyph-name="g" horiz-adv-x="595" unicode="g" /><glyph d="M268 193Q307 193 332 213Q357 233 363 268L372 320Q379 359 358 380.5Q337 402 292 402Q261 402 239 382.5Q217 363 212 332L203 283Q195 240 212 216.5Q229 193 268 193ZM241 -190Q124 -190 58.5 -139.5Q-7 -89 -7 -9V-6H158V-9Q158 -30 179 -42.5Q200 -55 238 -55Q276 -55 294 -39.5Q312 -24 319 16L333 94Q306 68 274.5 55Q243 42 207 42Q113 42 61 105.5Q9 169 26 268L41 354Q57 444 115.5 498Q174 552 256 552Q307 552 349 533Q391 514 412 480L431 540H587L495 18Q476 -93 415 -141.5Q354 -190 241 -190ZM325 540ZM408.5 741 409.5 750H517.5L516.5 741Q509.5 672 465.5 631.5Q421.5 591 354.5 591Q269.5 591 229.5 631Q189.5 671 204.5 741L206.5 750H314.5L312.5 741Q307.5 719 320 706Q332.5 693 358.5 693Q382.5 693 394 704.5Q405.5 716 408.5 741ZM325 540Z" glyph-name="gbreve" horiz-adv-x="595" unicode="&#287;" /><glyph d="M268 193Q307 193 332 213Q357 233 363 268L372 320Q379 359 358 380.5Q337 402 292 402Q261 402 239 382.5Q217 363 212 332L203 283Q195 240 212 216.5Q229 193 268 193ZM241 -190Q124 -190 58.5 -139.5Q-7 -89 -7 -9V-6H158V-9Q158 -30 179 -42.5Q200 -55 238 -55Q276 -55 294 -39.5Q312 -24 319 16L333 94Q306 68 274.5 55Q243 42 207 42Q113 42 61 105.5Q9 169 26 268L41 354Q57 444 115.5 498Q174 552 256 552Q307 552 349 533Q391 514 412 480L431 540H587L495 18Q476 -93 415 -141.5Q354 -190 241 -190ZM325 540ZM391.5 603 347.5 664H345.5L280.5 603H143.5L283.5 751H440.5L528.5 603ZM325 540Z" glyph-name="gcircumflex" horiz-adv-x="595" unicode="&#285;" /><glyph d="M268 193Q307 193 332 213Q357 233 363 268L372 320Q379 359 358 380.5Q337 402 292 402Q261 402 239 382.5Q217 363 212 332L203 283Q195 240 212 216.5Q229 193 268 193ZM241 -190Q124 -190 58.5 -139.5Q-7 -89 -7 -9V-6H158V-9Q158 -30 179 -42.5Q200 -55 238 -55Q276 -55 294 -39.5Q312 -24 319 16L333 94Q306 68 274.5 55Q243 42 207 42Q113 42 61 105.5Q9 169 26 268L41 354Q57 444 115.5 498Q174 552 256 552Q307 552 349 533Q391 514 412 480L431 540H587L495 18Q476 -93 415 -141.5Q354 -190 241 -190ZM325 540ZM437.5 743 412.5 603H259.5L284.5 743Q295.5 743 308 743Q320.5 743 334.5 743Q347.5 743 360.5 743Q373.5 743 386.5 743Q400.5 743 413 743Q425.5 743 437.5 743ZM325 540Z" glyph-name="gdotaccent" horiz-adv-x="595" unicode="&#289;" /><glyph d="M262 521 139 -180H-37L85 512Q104 619 173 680.5Q242 742 349 742Q465 742 529.5 692Q594 642 594 558Q594 494 567 448.5Q540 403 488 378Q530 356 551 320Q572 284 572 237Q572 130 502.5 65Q433 0 309 0H220L244 141H304Q348 141 371 167Q394 193 394 239Q394 276 369 295.5Q344 315 295 315H275L299 448H329Q373 448 395 470.5Q417 493 417 539Q417 568 398 584.5Q379 601 344 601Q311 601 290 580Q269 559 262 521Z" glyph-name="germandbls" horiz-adv-x="614" unicode="&#223;" /><glyph d="M382 603H241L154 751H347ZM308 540Z" glyph-name="grave" horiz-adv-x="500" unicode="`" /><glyph d="M292 748H135L59 896H266ZM214 700Z" glyph-name="grave.case" horiz-adv-x="250" /><glyph d="M545 282 78 72V254L353 347V349L78 442V624L545 414Z" glyph-name="greater" horiz-adv-x="564" unicode="&gt;" /><glyph d="M81 367 349 420V422L81 475V647L548 487V355L81 195ZM81 178H548V51H81Q81 83 81 114.5Q81 146 81 178Z" glyph-name="greaterequal" horiz-adv-x="608" unicode="&#8805;" /><glyph d="M133 65 16 265 204 465H347L173 265L276 65ZM368 65 251 265 439 465H582L408 265L511 65Z" glyph-name="guillemotleft" horiz-adv-x="590" unicode="&#171;" /><glyph d="M207 465 324 265 136 65H-7L167 265L64 465ZM443 465 560 265 372 65H229L403 265L300 465Z" glyph-name="guillemotright" horiz-adv-x="591" unicode="&#187;" /><glyph d="M133 65 16 265 204 465H347L173 265L276 65Z" glyph-name="guilsinglleft" horiz-adv-x="355" unicode="&#8249;" /><glyph d="M207 465 324 265 136 65H-7L167 265L64 465Z" glyph-name="guilsinglright" horiz-adv-x="355" unicode="&#8250;" /><glyph d="M318 396Q277 396 255 373Q233 350 223 296L171 0H-5L123 730H299L258 493Q284 522 320 537Q356 552 399 552Q486 552 533 490.5Q580 429 563 332L504 0H328L379 291Q389 346 374 371Q359 396 318 396ZM194.3593 730Z" glyph-name="h" horiz-adv-x="601" unicode="h" /><glyph d="M318 396Q277 396 255 373Q233 350 223 296L171 0H-5L97 581H36L52 676H114L123 730H299L290 676H381L365 581H273L258 493Q284 522 320 537Q356 552 399 552Q486 552 533 490.5Q580 429 563 332L504 0H328L379 291Q389 346 374 371Q359 396 318 396Z" glyph-name="hbar" horiz-adv-x="601" unicode="&#295;" /><glyph d="M318 396Q277 396 255 373Q233 350 223 296L171 0H-5L123 730H299L258 493Q284 522 320 537Q356 552 399 552Q486 552 533 490.5Q580 429 563 332L504 0H328L379 291Q389 346 374 371Q359 396 318 396ZM194.3593 730ZM260.8593 793 216.8593 854H214.8593L149.8593 793H12.8593L152.8593 941H309.8593L397.8593 793ZM194.3593 730Z" glyph-name="hcircumflex" horiz-adv-x="601" unicode="&#293;" /><glyph d="M107 751H304L176 603H29ZM356 751H553L399 603H252ZM214 540Z" glyph-name="hungarumlaut" horiz-adv-x="500" unicode="&#733;" /><glyph d="M-9 896H188L60 748H-87ZM240 896H437L283 748H136ZM103.2123 700Z" glyph-name="hungarumlaut.case" horiz-adv-x="250" /><glyph d="M68 407H377L347 239H38Q46 281 53.5 323Q61 365 68 407Z" glyph-name="hyphen" horiz-adv-x="409" unicode="-" /><glyph d="M-4 113 14 213H177L159 113Z" glyph-name="hyphen.denominator" horiz-adv-x="223" unicode="&#63019;" /><glyph d="M59 463 77 563H240L222 463Z" glyph-name="hyphen.numerator" horiz-adv-x="225" unicode="&#63024;" /><glyph d="M266 540 171 0H-5L90 540ZM300 730 277 602H101L124 730ZM43 0Z" glyph-name="i" horiz-adv-x="274" unicode="i" /><glyph d="M266 540 171 0H-5L90 540ZM178 540ZM205 751H397L258 603H118ZM178 540Z" glyph-name="iacute" horiz-adv-x="274" unicode="&#237;" /><glyph d="M266 540 171 0H-5L90 540ZM178 540ZM244.5 603 200.5 664H198.5L133.5 603H-3.5L136.5 751H293.5L381.5 603ZM178 540Z" glyph-name="icircumflex" horiz-adv-x="274" unicode="&#238;" /><glyph d="M266 540 171 0H-5L90 540ZM178 540ZM188.5 730 165.5 602H12.5L35.5 730Q54.5 730 73.5 730Q92.5 730 111.5 730Q130.5 730 149.5 730Q168.5 730 188.5 730ZM388.5 730 365.5 602H212.5L235.5 730Q273.5 730 311.5 730Q349.5 730 388.5 730ZM178 540Z" glyph-name="idieresis" horiz-adv-x="274" unicode="&#239;" /><glyph d="M266 540 171 0H-5L90 540ZM178 540ZM252 603H111L24 751H217ZM178 540Z" glyph-name="igrave" horiz-adv-x="274" unicode="&#236;" /><glyph d="M266 540 171 0H-5L90 540ZM300 730 277 602H101L124 730ZM43 0ZM242 -180H115L140 -37H198Q231 -37 248.5 -25Q266 -13 271 12L364 540H540L445 4Q430 -90 380 -135Q330 -180 242 -180ZM573 730 551 602H375L397 730Z" glyph-name="ij" horiz-adv-x="547" unicode="&#307;" /><glyph d="M266 540 171 0H-5L90 540ZM178 540ZM21 603 41 715H377L357 603ZM178 540Z" glyph-name="imacron" horiz-adv-x="274" unicode="&#299;" /><glyph d="M847 349Q847 250 789 192Q731 134 630 134Q579 134 534 161.5Q489 189 449 245Q407 191 360 163.5Q313 136 262 136Q161 136 103 194Q45 252 45 351Q45 450 103 508.5Q161 567 262 567Q315 567 361.5 541.5Q408 516 448 465Q486 514 532 539.5Q578 565 630 565Q732 565 789.5 507Q847 449 847 349ZM196 351Q196 322 213 303.5Q230 285 259 285Q287 285 314.5 302Q342 319 368 353Q343 385 316 401Q289 417 259 417Q230 417 213 398.5Q196 380 196 351ZM696 349Q696 378 679.5 396Q663 414 634 414Q608 414 584 399.5Q560 385 538 356Q562 320 585.5 302.5Q609 285 634 285Q662 285 679 303Q696 321 696 349Z" glyph-name="infinity" horiz-adv-x="877" unicode="&#8734;" /><glyph d="M268 530V34Q268 -63 205 -109.5Q142 -156 13 -156H-30V-16H23Q59 -16 75.5 -4Q92 8 92 34V530Q92 627 155 673.5Q218 720 347 720H390V580H337Q301 580 284.5 568Q268 556 268 530Z" glyph-name="integral" horiz-adv-x="369" unicode="&#8747;" /><glyph d="M302 730 279 602H103L126 730ZM148 -78 130 -190Q112 -203 89 -209Q66 -215 36 -215Q-16 -215 -47 -187.5Q-78 -160 -78 -114Q-78 -75 -58.5 -43.5Q-39 -12 -1 12L92 540H268L173 0H84Q73 -11 66.5 -24Q60 -37 60 -50Q60 -66 73 -74Q86 -82 113 -82Q122 -82 130.5 -81Q139 -80 148 -78Z" glyph-name="iogonek" horiz-adv-x="276" unicode="&#303;" /><glyph d="M266 540 171 0H-5L90 540ZM178 540ZM282 596Q261 596 242 600Q223 604 210 612L170 634Q159 640 150 642.5Q141 645 132 645Q112 645 100 637Q88 629 79 603H-12Q-7 671 32.5 715.5Q72 760 129 760Q147 760 164 755.5Q181 751 199 742L235 721Q247 714 257.5 711Q268 708 279 708Q297 708 309 719.5Q321 731 327 755H417Q412 681 376.5 638.5Q341 596 282 596ZM178 540Z" glyph-name="itilde" horiz-adv-x="274" unicode="&#297;" /><glyph d="M-32 -180H-159L-134 -37H-76Q-43 -37 -25.5 -25Q-8 -13 -3 12L90 540H266L171 4Q156 -90 106 -135Q56 -180 -32 -180ZM299 730 277 602H101L123 730Z" glyph-name="j" horiz-adv-x="273" unicode="j" /><glyph d="M-52 -180H-159L-134 -37H-76Q-43 -37 -25.5 -25Q-8 -13 -3 12L90 540H266L171 4Q155 -90 99.5 -135Q44 -180 -52 -180ZM174.4777 540ZM240.9777 603 196.9777 664H194.9777L129.9777 603H-7.0223L132.9777 751H289.9777L377.9777 603ZM174.4777 540Z" glyph-name="jcircumflex" horiz-adv-x="273" unicode="&#309;" /><glyph d="M255 187 193 128 171 0H-5L123 730H299L236 372L404 540H620L387 312L528 0H335ZM234.6407 0Z" glyph-name="k" horiz-adv-x="572" unicode="k" /><glyph d="M528 0H338L257 189L193 128L171 0H-5L90 540H266L237 373L404 540H620L387 312Z" glyph-name="kgreenlandic" horiz-adv-x="572" unicode="&#312;" /><glyph d="M300 730 171 0H-5L124 730ZM83 0ZM209 730ZM348 700ZM268 350Z" glyph-name="l" horiz-adv-x="274" unicode="l" /><glyph d="M300 730 171 0H-5L124 730ZM83 0ZM209 730ZM348 700ZM268 350ZM236 941H428L289 793H149ZM209 730Z" glyph-name="lacute" horiz-adv-x="274" unicode="&#314;" /><glyph d="M300 730 171 0H-5L124 730ZM83 0ZM209 730ZM348 700ZM268 350ZM354 730H476V686L407 521H317ZM346.2123 688Z" glyph-name="lcaron" horiz-adv-x="351.4057" unicode="&#318;" /><glyph d="M300 730 171 0H-5L124 730ZM83 0ZM209 730ZM348 700ZM268 350ZM497 443 468 277H287L316 443Q361 443 406.5 443Q452 443 497 443ZM259.6553 350Z" glyph-name="ldot" horiz-adv-x="490.3447" unicode="&#320;" /><glyph d="M34 282 501 72V254L226 347V349L501 442V624L34 414Z" glyph-name="less" horiz-adv-x="564" unicode="&lt;" /><glyph d="M517 367 249 420V422L517 475V647L50 487V355L517 195ZM517 178H50V51H517Q517 83 517 114.5Q517 146 517 178Z" glyph-name="lessequal" horiz-adv-x="582" unicode="&#8804;" /><glyph d="M300 730 171 0H-5L124 730ZM83 0ZM209 730ZM348 700ZM268 350ZM497 443 468 277H287L316 443Q361 443 406.5 443Q452 443 497 443ZM259.6553 350ZM790 730 661 0H485L614 730ZM573 0ZM699 730ZM838 700ZM758 350Z" glyph-name="lgeminada" horiz-adv-x="764.3447" /><glyph d="M275 145H591L565 0H-9L15 133L89 144L97 192H24L43 297H116L123 335H49L68 440H141L149 485Q167 589 237 650.5Q307 712 414 712Q558 712 624.5 645Q691 578 670 463L667 447H485L489 468Q496 505 475 527.5Q454 550 410 550Q378 550 358.5 530.5Q339 511 332 470L327 440H424L405 335H308L302 297H399L380 192H283Z" glyph-name="lira" horiz-adv-x="669" unicode="&#8356;" /><glyph d="M521 500V188H358V348H54V500Z" glyph-name="logicalnot" horiz-adv-x="579" unicode="&#172;" /><glyph d="M307 555 210 0H34L105 404H42L66 538H129L133 562Q149 650 208.5 690Q268 730 377 730H460L437 600H370Q341 600 326 589.5Q311 579 307 555Z" glyph-name="longs" horiz-adv-x="365" unicode="&#383;" /><glyph d="M675 148H721L695 0H629Q506 0 457.5 44.5Q409 89 427 199L463 404H397L421 538H487L510 670H686L663 538H783L759 404H639L602 197Q597 168 611.5 158Q626 148 675 148ZM532.6937 10ZM491.9305 0ZM729.0598 738ZM307 555 210 0H34L105 404H42L66 538H129L133 562Q149 650 208.5 690Q268 730 377 730H460L437 600H370Q341 600 326 589.5Q311 579 307 555Z" glyph-name="longs_t" horiz-adv-x="782" unicode="&#64261;" /><glyph d="M436 700 615 348 436 0H209L27 348L209 700ZM324 176H335L410 332L320 525H310L233 363Z" glyph-name="lozenge" horiz-adv-x="627" unicode="&#9674;" /><glyph d="M264 365 200 0H24L64 228L-14 175L9 309L88 363L153 730H329L288 499L367 553L344 419Z" glyph-name="lslash" horiz-adv-x="330" unicode="&#322;" /><glyph d="M316 396Q276 396 254 374.5Q232 353 224 305L170 0H-6L90 540H246L244 477Q270 513 309.5 532.5Q349 552 397 552Q449 552 490 526Q531 500 550 454Q576 501 622.5 526.5Q669 552 727 552Q812 552 859 490.5Q906 429 889 332L830 0H654L705 291Q715 345 700.5 370.5Q686 396 646 396Q607 396 584.5 374Q562 352 554 304L500 0H324L375 291Q385 345 370.5 370.5Q356 396 316 396Z" glyph-name="m" horiz-adv-x="927" unicode="m" /><glyph d="M93 603 113 715H449L429 603ZM250 540Z" glyph-name="macron" horiz-adv-x="500" unicode="&#175;" /><glyph d="M-2 773 18 885H354L334 773ZM153.2123 700Z" glyph-name="macron.case" horiz-adv-x="250" /><glyph d="M534 428V273H67Q67 312 67 350.5Q67 389 67 428Z" glyph-name="minus" horiz-adv-x="589" unicode="&#8722;" /><glyph d="M212 -12Q199 -12 187 -10.5Q175 -9 164 -6L148 -180H-28L98 540H274L221 239Q213 189 229.5 166.5Q246 144 289 144Q326 144 346 168Q366 192 378 259L428 540H604L508 0H352L354 60Q329 25 292.5 6.5Q256 -12 212 -12Z" glyph-name="mu" horiz-adv-x="620" unicode="&#181;" /><glyph d="M487 240 376 129 266 239 157 130 46 241 155 350 46 460 157 571 266 461 377 571 488 460 377 349Z" glyph-name="multiply" horiz-adv-x="517" unicode="&#215;" /><glyph d="M318 396Q277 396 254.5 374.5Q232 353 224 305L170 0H-6L90 540H246L244 477Q271 513 311 532.5Q351 552 399 552Q486 552 533 490.5Q580 429 563 332L504 0H328L379 291Q389 346 374 371Q359 396 318 396ZM330 540ZM250 0ZM69 581Z" glyph-name="n" horiz-adv-x="601" unicode="n" /><glyph d="M318 396Q277 396 254.5 374.5Q232 353 224 305L170 0H-6L90 540H246L244 477Q271 513 311 532.5Q351 552 399 552Q486 552 533 490.5Q580 429 563 332L504 0H328L379 291Q389 346 374 371Q359 396 318 396ZM330 540ZM250 0ZM69 581ZM357 751H549L410 603H270ZM330 540Z" glyph-name="nacute" horiz-adv-x="601" unicode="&#324;" /><glyph d="M318 396Q277 396 254.5 374.5Q232 353 224 305L170 0H-6L90 540H246L244 477Q271 513 311 532.5Q351 552 399 552Q486 552 533 490.5Q580 429 563 332L504 0H328L379 291Q389 346 374 371Q359 396 318 396ZM330 540ZM250 0ZM69 581ZM17.6025 791H186.6025V747L98.6025 582H-37.3975ZM69 581ZM116.6083 851Z" glyph-name="napostrophe" horiz-adv-x="601" unicode="&#329;" /><glyph d="M318 396Q277 396 254.5 374.5Q232 353 224 305L170 0H-6L90 540H246L244 477Q271 513 311 532.5Q351 552 399 552Q486 552 533 490.5Q580 429 563 332L504 0H328L379 291Q389 346 374 371Q359 396 318 396ZM330 540ZM250 0ZM69 581ZM311.5 751 354.5 690H356.5L422.5 751H559.5L419.5 603H262.5L174.5 751ZM330 540Z" glyph-name="ncaron" horiz-adv-x="601" unicode="&#328;" /><glyph d="M60 450Q60 563 134 637.5Q208 712 335 712Q487 712 557 640.5Q627 569 605 445L566 228Q545 108 477.5 48Q410 -12 296 -12Q159 -12 89.5 42Q20 96 28 188L29 201H209L208 188Q206 163 227 149Q248 135 288 135Q327 135 351 156.5Q375 178 382 221L395 294Q367 276 336 267.5Q305 259 270 259Q171 259 115.5 310.5Q60 362 60 450ZM429 495Q429 533 406 552Q383 571 338 571Q295 571 271.5 543.5Q248 516 248 471Q248 437 270.5 418.5Q293 400 336 400Q381 400 405 425.5Q429 451 429 495Z" glyph-name="nine" horiz-adv-x="624" unicode="9" /><glyph d="M4 223Q4 278 44 317Q84 356 151 356Q230 356 266 320.5Q302 285 291 223L273 118Q263 61 223 27.5Q183 -6 120 -6Q51 -6 16.5 21Q-18 48 -12 93L-11 102H99V99Q99 90 105 85.5Q111 81 123 81Q138 81 147 89.5Q156 98 159 115L163 138Q154 134 140.5 131.5Q127 129 113 129Q62 129 33 154.5Q4 180 4 223ZM182 248Q182 261 174 268.5Q166 276 151 276Q136 276 128 264.5Q120 253 120 234Q120 221 127.5 213.5Q135 206 150 206Q165 206 173.5 217.5Q182 229 182 248Z" glyph-name="nine.denominator" horiz-adv-x="329" unicode="&#63070;" /><glyph d="M-21 83Q-21 138 19 177Q59 216 126 216Q205 216 241 180.5Q277 145 266 83L248 -22Q238 -79 198 -112.5Q158 -146 95 -146Q26 -146 -8.5 -119Q-43 -92 -37 -47L-36 -38H74V-41Q74 -50 80 -54.5Q86 -59 98 -59Q113 -59 122 -50.5Q131 -42 134 -25L138 -2Q129 -6 115.5 -8.5Q102 -11 88 -11Q37 -11 8 14.5Q-21 40 -21 83ZM157 108Q157 121 149 128.5Q141 136 126 136Q111 136 103 124.5Q95 113 95 94Q95 81 102.5 73.5Q110 66 125 66Q140 66 148.5 77.5Q157 89 157 108Z" glyph-name="nine.inferior" horiz-adv-x="329" unicode="&#8329;" /><glyph d="M66 573Q66 628 106 667Q146 706 213 706Q292 706 328 670.5Q364 635 353 573L335 468Q325 411 285 377.5Q245 344 182 344Q113 344 78.5 371Q44 398 50 443L51 452H161V449Q161 440 167 435.5Q173 431 185 431Q200 431 209 439.5Q218 448 221 465L225 488Q216 484 202.5 481.5Q189 479 175 479Q124 479 95 504.5Q66 530 66 573ZM244 598Q244 611 236 618.5Q228 626 213 626Q198 626 190 614.5Q182 603 182 584Q182 571 189.5 563.5Q197 556 212 556Q227 556 235.5 567.5Q244 579 244 598Z" glyph-name="nine.numerator" horiz-adv-x="329" unicode="&#63082;" /><glyph d="M90 713Q90 768 130 807Q170 846 237 846Q316 846 352 810.5Q388 775 377 713L359 608Q349 551 309 517.5Q269 484 206 484Q137 484 102.5 511Q68 538 74 583L75 592H185V589Q185 580 191 575.5Q197 571 209 571Q224 571 233 579.5Q242 588 245 605L249 628Q240 624 226.5 621.5Q213 619 199 619Q148 619 119 644.5Q90 670 90 713ZM268 738Q268 751 260 758.5Q252 766 237 766Q222 766 214 754.5Q206 743 206 724Q206 711 213.5 703.5Q221 696 236 696Q251 696 259.5 707.5Q268 719 268 738Z" glyph-name="nine.superior" horiz-adv-x="329" unicode="&#8313;" /><glyph d="M65 450Q65 563 139 637.5Q213 712 340 712Q492 712 562 640.5Q632 569 610 445L571 228Q550 108 482.5 48Q415 -12 301 -12Q164 -12 94.5 42Q25 96 33 188L34 201H214L213 188Q211 163 232 149Q253 135 293 135Q332 135 356 156.5Q380 178 387 221L400 294Q372 276 341 267.5Q310 259 275 259Q176 259 120.5 310.5Q65 362 65 450ZM434 495Q434 533 411 552Q388 571 343 571Q300 571 276.5 543.5Q253 516 253 471Q253 437 275.5 418.5Q298 400 341 400Q386 400 410 425.5Q434 451 434 495Z" glyph-name="nine.tab" horiz-adv-x="635" unicode="&#65305;" /><glyph d="M538 313V156H270L236 91H99L133 156H71V313H215L254 388H71V545H337L370 609H508L474 545H538V388H392L353 313Z" glyph-name="notequal" horiz-adv-x="604" unicode="&#8800;" /><glyph d="M318 396Q277 396 254.5 374.5Q232 353 224 305L170 0H-6L90 540H246L244 477Q271 513 311 532.5Q351 552 399 552Q486 552 533 490.5Q580 429 563 332L504 0H328L379 291Q389 346 374 371Q359 396 318 396ZM330 540ZM250 0ZM69 581ZM434 596Q413 596 394 600Q375 604 362 612L322 634Q311 640 302 642.5Q293 645 284 645Q264 645 252 637Q240 629 231 603H140Q145 671 184.5 715.5Q224 760 281 760Q299 760 316 755.5Q333 751 351 742L387 721Q399 714 409.5 711Q420 708 431 708Q449 708 461 719.5Q473 731 479 755H569Q564 681 528.5 638.5Q493 596 434 596ZM330 540Z" glyph-name="ntilde" horiz-adv-x="601" unicode="&#241;" /><glyph d="M275 305H362L393 395H306ZM412 0H261L314 160H227L174 0H23L76 160H6L32 305H124L155 395H87L113 540H203L256 700H407L354 540H441L494 700H645L592 540H661L635 395H544L513 305H580L554 160H465Z" glyph-name="numbersign" horiz-adv-x="652" unicode="#" /><glyph d="M268 -12Q130 -12 65.5 54.5Q1 121 20 234L40 350Q58 450 123.5 501Q189 552 301 552Q440 552 504.5 486Q569 420 550 306L530 190Q512 89 446.5 38.5Q381 -12 268 -12ZM274 131Q309 131 329.5 149.5Q350 168 356 203L377 323Q384 366 363.5 387.5Q343 409 296 409Q261 409 240.5 390.5Q220 372 214 337L193 217Q186 174 206.5 152.5Q227 131 274 131ZM321 540Z" glyph-name="o" horiz-adv-x="582" unicode="o" /><glyph d="M268 -12Q130 -12 65.5 54.5Q1 121 20 234L40 350Q58 450 123.5 501Q189 552 301 552Q440 552 504.5 486Q569 420 550 306L530 190Q512 89 446.5 38.5Q381 -12 268 -12ZM274 131Q309 131 329.5 149.5Q350 168 356 203L377 323Q384 366 363.5 387.5Q343 409 296 409Q261 409 240.5 390.5Q220 372 214 337L193 217Q186 174 206.5 152.5Q227 131 274 131ZM321 540ZM348 751H540L401 603H261ZM321 540Z" glyph-name="oacute" horiz-adv-x="582" unicode="&#243;" /><glyph d="M268 -12Q130 -12 65.5 54.5Q1 121 20 234L40 350Q58 450 123.5 501Q189 552 301 552Q440 552 504.5 486Q569 420 550 306L530 190Q512 89 446.5 38.5Q381 -12 268 -12ZM274 131Q309 131 329.5 149.5Q350 168 356 203L377 323Q384 366 363.5 387.5Q343 409 296 409Q261 409 240.5 390.5Q220 372 214 337L193 217Q186 174 206.5 152.5Q227 131 274 131ZM321 540ZM404.5 741 405.5 750H513.5L512.5 741Q505.5 672 461.5 631.5Q417.5 591 350.5 591Q265.5 591 225.5 631Q185.5 671 200.5 741L202.5 750H310.5L308.5 741Q303.5 719 316 706Q328.5 693 354.5 693Q378.5 693 390 704.5Q401.5 716 404.5 741ZM321 540Z" glyph-name="obreve" horiz-adv-x="582" unicode="&#335;" /><glyph d="M268 -12Q130 -12 65.5 54.5Q1 121 20 234L40 350Q58 450 123.5 501Q189 552 301 552Q440 552 504.5 486Q569 420 550 306L530 190Q512 89 446.5 38.5Q381 -12 268 -12ZM274 131Q309 131 329.5 149.5Q350 168 356 203L377 323Q384 366 363.5 387.5Q343 409 296 409Q261 409 240.5 390.5Q220 372 214 337L193 217Q186 174 206.5 152.5Q227 131 274 131ZM321 540ZM387.5 603 343.5 664H341.5L276.5 603H139.5L279.5 751H436.5L524.5 603ZM321 540Z" glyph-name="ocircumflex" horiz-adv-x="582" unicode="&#244;" /><glyph d="M268 -12Q130 -12 65.5 54.5Q1 121 20 234L40 350Q58 450 123.5 501Q189 552 301 552Q440 552 504.5 486Q569 420 550 306L530 190Q512 89 446.5 38.5Q381 -12 268 -12ZM274 131Q309 131 329.5 149.5Q350 168 356 203L377 323Q384 366 363.5 387.5Q343 409 296 409Q261 409 240.5 390.5Q220 372 214 337L193 217Q186 174 206.5 152.5Q227 131 274 131ZM321 540ZM331.5 730 308.5 602H155.5L178.5 730Q197.5 730 216.5 730Q235.5 730 254.5 730Q273.5 730 292.5 730Q311.5 730 331.5 730ZM531.5 730 508.5 602H355.5L378.5 730Q416.5 730 454.5 730Q492.5 730 531.5 730ZM321 540Z" glyph-name="odieresis" horiz-adv-x="582" unicode="&#246;" /><glyph d="M634 424Q602 424 583 408.5Q564 393 559 362L555 337H709L711 349Q717 388 698 406Q679 424 634 424ZM276 131Q310 131 330.5 149.5Q351 168 357 203L378 323Q386 365 365.5 387Q345 409 296 409Q262 409 241.5 390.5Q221 372 215 337L194 217Q186 175 206.5 153Q227 131 276 131ZM844 173 838 138Q824 56 768 22Q712 -12 610 -12Q540 -12 492.5 4Q445 20 419 52Q393 20 355 4Q317 -12 268 -12Q125 -12 62.5 51Q0 114 21 234L41 350Q59 449 119.5 500.5Q180 552 280 552Q347 552 393.5 535.5Q440 519 467 487Q495 520 538 536Q581 552 641 552Q774 552 834 486Q894 420 874 307L859 225H535L531 203Q523 157 542 137.5Q561 118 610 118Q641 118 657.5 128Q674 138 678 161L680 173Z" glyph-name="oe" horiz-adv-x="901" unicode="&#339;" /><glyph d="M367 -82Q376 -82 384.5 -81Q393 -80 402 -78L384 -190Q366 -203 343.5 -209Q321 -215 290 -215Q238 -215 207 -187.5Q176 -160 176 -114Q176 -72 199 -38.5Q222 -5 267 20L355 13Q338 3 326 -14.5Q314 -32 314 -50Q314 -66 327 -74Q340 -82 367 -82ZM314.1919 0Z" glyph-name="ogonek" horiz-adv-x="500" unicode="&#731;" /><glyph d="M268 -12Q130 -12 65.5 54.5Q1 121 20 234L40 350Q58 450 123.5 501Q189 552 301 552Q440 552 504.5 486Q569 420 550 306L530 190Q512 89 446.5 38.5Q381 -12 268 -12ZM274 131Q309 131 329.5 149.5Q350 168 356 203L377 323Q384 366 363.5 387.5Q343 409 296 409Q261 409 240.5 390.5Q220 372 214 337L193 217Q186 174 206.5 152.5Q227 131 274 131ZM321 540ZM395 603H254L167 751H360ZM321 540Z" glyph-name="ograve" horiz-adv-x="582" unicode="&#242;" /><glyph d="M268 -12Q130 -12 65.5 54.5Q1 121 20 234L40 350Q58 450 123.5 501Q189 552 301 552Q440 552 504.5 486Q569 420 550 306L530 190Q512 89 446.5 38.5Q381 -12 268 -12ZM274 131Q309 131 329.5 149.5Q350 168 356 203L377 323Q384 366 363.5 387.5Q343 409 296 409Q261 409 240.5 390.5Q220 372 214 337L193 217Q186 174 206.5 152.5Q227 131 274 131ZM321 540ZM214 751H411L283 603H136ZM463 751H660L506 603H359ZM321 540Z" glyph-name="ohungarumlaut" horiz-adv-x="582" unicode="&#337;" /><glyph d="M268 -12Q130 -12 65.5 54.5Q1 121 20 234L40 350Q58 450 123.5 501Q189 552 301 552Q440 552 504.5 486Q569 420 550 306L530 190Q512 89 446.5 38.5Q381 -12 268 -12ZM274 131Q309 131 329.5 149.5Q350 168 356 203L377 323Q384 366 363.5 387.5Q343 409 296 409Q261 409 240.5 390.5Q220 372 214 337L193 217Q186 174 206.5 152.5Q227 131 274 131ZM321 540ZM164 603 184 715H520L500 603ZM321 540Z" glyph-name="omacron" horiz-adv-x="582" unicode="&#333;" /><glyph d="M78 492 108 663 325 700H461L363 160H523L495 0H-11L17 160H177L241 509Z" glyph-name="one" horiz-adv-x="559" unicode="1" /><glyph d="M13 229 31 331 137 349H220L172 95H243L226 0H-31L-14 95H57L85 236Z" glyph-name="one.denominator" horiz-adv-x="287" unicode="&#63062;" /><glyph d="M-11 89 7 191 113 209H196L148 -45H219L202 -140H-55L-38 -45H33L61 96Z" glyph-name="one.inferior" horiz-adv-x="287" unicode="&#8321;" /><glyph d="M75 579 93 681 199 699H282L234 445H305L288 350H31L48 445H119L147 586Z" glyph-name="one.numerator" horiz-adv-x="287" unicode="&#63074;" /><glyph d="M115 492 145 663 362 700H498L400 160H560L532 0H26L54 160H214L278 509Z" glyph-name="one.tab" horiz-adv-x="635" unicode="&#65297;" /><glyph d="M81 579 99 681 205 699H288L240 445H311L294 350H37L54 445H125L153 586ZM642 700H759L184 0H67ZM524 170 637 214Q646 218 650.5 224Q655 230 655 241Q655 251 648.5 256.5Q642 262 629 262Q614 262 606 254.5Q598 247 594 230L592 220H480L484 246Q492 294 531.5 325Q571 356 631 356Q698 356 734.5 328Q771 300 771 252Q771 212 746.5 182Q722 152 674 135L596 107Q584 103 580 100.5Q576 98 575 96L574 94H742L726 0H443L459 94Q464 122 479.5 140.5Q495 159 524 170Z" glyph-name="onehalf" horiz-adv-x="803" unicode="&#189;" /><glyph d="M81 579 99 681 205 699H288L240 445H311L294 350H37L54 445H125L153 586ZM642 700H759L184 0H67ZM550 350H660L585 171H647L679 350H793L731 0H617L629 76H456L472 170Z" glyph-name="onequarter" horiz-adv-x="818" unicode="&#188;" /><glyph d="M100 719 118 821 224 839H307L259 585H330L313 490H56L73 585H144L172 726Z" glyph-name="onesuperior" horiz-adv-x="287" unicode="&#185;" /><glyph d="M226 446Q251 446 266 462.5Q281 479 287 513L290 530Q297 572 286 589.5Q275 607 242 607Q220 607 209 595Q198 583 193 554L184 501Q179 473 189.5 459.5Q200 446 226 446ZM376 355H272L273 395Q257 372 233 359.5Q209 347 181 347Q121 347 88.5 388Q56 429 67 491L82 578Q92 638 128.5 672Q165 706 219 706Q253 706 280.5 692Q308 678 319 654L333 698H437Z" glyph-name="ordfeminine" horiz-adv-x="421" unicode="&#170;" /><glyph d="M228 347Q137 347 95.5 388Q54 429 67 503L80 577Q91 638 134 672Q177 706 248 706Q339 706 380 665.5Q421 625 408 551L395 477Q384 415 341 381Q298 347 228 347ZM229 438Q251 438 264 450Q277 462 281 486L294 562Q299 589 287 602Q275 615 247 615Q225 615 211.5 603Q198 591 194 568L181 492Q176 466 188.5 452Q201 438 229 438Z" glyph-name="ordmasculine" horiz-adv-x="400" unicode="&#186;" /><glyph d="M214 337 193 217Q191 207 191 199Q191 191 192 184L329 406Q322 408 314 408.5Q306 409 296 409Q261 409 240.5 390.5Q220 372 214 337ZM274 131Q309 131 329.5 149.5Q350 168 356 203L377 323Q378 330 378.5 337.5Q379 345 378 354L242 134Q249 133 257 132Q265 131 274 131ZM268 -12Q241 -12 216.5 -9.5Q192 -7 169 -1L145 -41H41L88 35Q44 67 27 118Q10 169 20 234L40 350Q58 450 123.5 501Q189 552 301 552Q329 552 354 549.5Q379 547 401 541L427 582H531L483 504Q526 472 543.5 421.5Q561 371 550 306L530 190Q512 89 446.5 38.5Q381 -12 268 -12ZM285 540Z" glyph-name="oslash" horiz-adv-x="582" unicode="&#248;" /><glyph d="M268 -12Q130 -12 65.5 54.5Q1 121 20 234L40 350Q58 450 123.5 501Q189 552 301 552Q440 552 504.5 486Q569 420 550 306L530 190Q512 89 446.5 38.5Q381 -12 268 -12ZM274 131Q309 131 329.5 149.5Q350 168 356 203L377 323Q384 366 363.5 387.5Q343 409 296 409Q261 409 240.5 390.5Q220 372 214 337L193 217Q186 174 206.5 152.5Q227 131 274 131ZM321 540ZM425 596Q404 596 385 600Q366 604 353 612L313 634Q302 640 293 642.5Q284 645 275 645Q255 645 243 637Q231 629 222 603H131Q136 671 175.5 715.5Q215 760 272 760Q290 760 307 755.5Q324 751 342 742L378 721Q390 714 400.5 711Q411 708 422 708Q440 708 452 719.5Q464 731 470 755H560Q555 681 519.5 638.5Q484 596 425 596ZM321 540Z" glyph-name="otilde" horiz-adv-x="582" unicode="&#245;" /><glyph d="M292 144Q323 144 345 163.5Q367 183 372 214L388 307Q395 350 378.5 373.5Q362 397 323 397Q281 397 257.5 375.5Q234 354 226 309L214 241Q205 193 225 168.5Q245 144 292 144ZM327 -12Q281 -12 241.5 4Q202 20 180 49L139 -180H-37L90 540H246L244 483Q272 517 307.5 534.5Q343 552 385 552Q478 552 530.5 488.5Q583 425 566 326L542 186Q526 96 467.5 42Q409 -12 327 -12Z" glyph-name="p" horiz-adv-x="596" unicode="p" /><glyph d="M429 0H243L294 289H289Q166 289 108 332.5Q50 376 50 470Q50 576 110.5 638Q171 700 282 700H553Z" glyph-name="paragraph" horiz-adv-x="548" unicode="&#182;" /><glyph d="M17 136 90 546Q110 660 170.5 711.5Q231 763 341 763H444L416 606H349Q317 606 296.5 576.5Q276 547 265 484L197 98Q190 61 214 43.5Q238 26 295 26H314L286 -131H283Q121 -131 56.5 -68Q-8 -5 17 136Z" glyph-name="parenleft" horiz-adv-x="392" unicode="(" /><glyph d="M-10 98 22 280Q32 336 69 365.5Q106 395 167 395H217L201 302H170Q155 302 146.5 293.5Q138 285 135 268L105 100Q100 72 108.5 59Q117 46 138 46H155L139 -47H129Q44 -47 10.5 -13Q-23 21 -10 98Z" glyph-name="parenleft.denominator" horiz-adv-x="220" unicode="&#63020;" /><glyph d="M-34 -41 -2 141Q8 197 45 226.5Q82 256 143 256H193L177 163H146Q131 163 122.5 154.5Q114 146 111 129L81 -39Q76 -67 84.5 -80Q93 -93 114 -93H131L115 -186H105Q20 -186 -13.5 -152Q-47 -118 -34 -41Z" glyph-name="parenleft.inferior" horiz-adv-x="220" unicode="&#8333;" /><glyph d="M52 451 84 633Q94 689 131 718.5Q168 748 229 748H279L263 655H232Q217 655 208.5 646.5Q200 638 197 621L167 453Q162 425 170.5 412Q179 399 200 399H217L201 306H191Q106 306 72.5 340Q39 374 52 451Z" glyph-name="parenleft.numerator" horiz-adv-x="220" unicode="&#63025;" /><glyph d="M77 592 109 774Q119 830 156 859.5Q193 889 254 889H304L288 796H257Q242 796 233.5 787.5Q225 779 222 762L192 594Q187 566 195.5 553Q204 540 225 540H242L226 447H216Q131 447 97.5 481Q64 515 77 592Z" glyph-name="parenleft.superior" horiz-adv-x="220" unicode="&#8317;" /><glyph d="M378 496 305 86Q285 -28 224.5 -79.5Q164 -131 54 -131H-49L-21 26H46Q78 26 98.5 55.5Q119 85 130 148L198 534Q205 571 181 588.5Q157 606 100 606H81L109 763H112Q274 763 338.5 700Q403 637 378 496Z" glyph-name="parenright" horiz-adv-x="392" unicode=")" /><glyph d="M183 250 151 68Q140 7 105 -20Q70 -47 6 -47H-44L-28 46H3Q18 46 26.5 54.5Q35 63 38 80L68 248Q73 276 64.5 289Q56 302 35 302H18L34 395H44Q126 395 161 359Q196 323 183 250Z" glyph-name="parenright.denominator" horiz-adv-x="220" unicode="&#63021;" /><glyph d="M159 111 127 -71Q116 -132 81 -159Q46 -186 -18 -186H-68L-52 -93H-21Q-6 -93 2.5 -84.5Q11 -76 14 -59L44 109Q49 137 40.5 150Q32 163 11 163H-6L10 256H20Q102 256 137 220Q172 184 159 111Z" glyph-name="parenright.inferior" horiz-adv-x="220" unicode="&#8334;" /><glyph d="M246 603 214 421Q203 360 168 333Q133 306 69 306H19L35 399H66Q81 399 89.5 407.5Q98 416 101 433L131 601Q136 629 127.5 642Q119 655 98 655H81L97 748H107Q189 748 224 712Q259 676 246 603Z" glyph-name="parenright.numerator" horiz-adv-x="220" unicode="&#63026;" /><glyph d="M271 744 239 562Q228 501 193 474Q158 447 94 447H44L60 540H91Q106 540 114.5 548.5Q123 557 126 574L156 742Q161 770 152.5 783Q144 796 123 796H106L122 889H132Q214 889 249 853Q284 817 271 744Z" glyph-name="parenright.superior" horiz-adv-x="220" unicode="&#8318;" /><glyph d="M258 133Q294 133 315.5 149.5Q337 166 342 198L350 243Q357 280 337 299.5Q317 319 271 319Q235 319 213.5 302.5Q192 286 186 253L178 208Q172 171 192 152Q212 133 258 133ZM560 433 516 184Q500 90 434 39Q368 -12 259 -12Q116 -12 50.5 51Q-15 114 5 224L13 268Q29 361 91 412.5Q153 464 254 464Q289 464 321.5 455.5Q354 447 383 430L388 455Q400 522 372 549.5Q344 577 269 577H160L184 712H257Q442 712 514 647Q586 582 560 433Z" glyph-name="partialdiff" horiz-adv-x="581" unicode="&#8706;" /><glyph d="M193 344Q257 344 294 374Q331 404 342 468L359 562Q370 625 332.5 665.5Q295 706 217 706Q154 706 117 675Q80 644 69 582L52 488Q41 426 79 385Q117 344 193 344ZM217 611Q235 611 241.5 600Q248 589 244 566L229 478Q226 458 218 449Q210 440 197 440Q177 440 170 450.5Q163 461 167 484L182 572Q185 592 194 601.5Q203 611 217 611ZM628 700H745L170 0H53ZM580 -6Q644 -6 681 24Q718 54 729 118L746 212Q757 275 719.5 315.5Q682 356 604 356Q541 356 504 325Q467 294 456 232L439 138Q428 76 466 35Q504 -6 580 -6ZM604 261Q622 261 628.5 250Q635 239 631 216L616 128Q613 108 605 99Q597 90 584 90Q564 90 557 100.5Q550 111 554 134L569 222Q572 242 581 251.5Q590 261 604 261Z" glyph-name="percent" horiz-adv-x="783" unicode="%" /><glyph d="M205 166 176 0H-5L24 166Q69 166 114.5 166Q160 166 205 166ZM-32.3447 73Z" glyph-name="period" horiz-adv-x="277" unicode="." /><glyph d="M103 95 87 0H-24L-8 95Z" glyph-name="period.denominator" horiz-adv-x="168" unicode="&#63072;" /><glyph d="M164 445 148 350H37L53 445Z" glyph-name="period.numerator" horiz-adv-x="167" unicode="&#63084;" /><glyph d="M254 443 225 277H44L73 443Q118 443 163.5 443Q209 443 254 443ZM16.6553 350Z" glyph-name="periodcentered" horiz-adv-x="280" unicode="&#183;" /><glyph d="M193 344Q257 344 294 374Q331 404 342 468L359 562Q370 625 332.5 665.5Q295 706 217 706Q154 706 117 675Q80 644 69 582L52 488Q41 426 79 385Q117 344 193 344ZM217 611Q235 611 241.5 600Q248 589 244 566L229 478Q226 458 218 449Q210 440 197 440Q177 440 170 450.5Q163 461 167 484L182 572Q185 592 194 601.5Q203 611 217 611ZM628 700H745L170 0H53ZM580 -6Q644 -6 681 24Q718 54 729 118L746 212Q757 275 719.5 315.5Q682 356 604 356Q541 356 504 325Q467 294 456 232L439 138Q428 76 466 35Q504 -6 580 -6ZM604 261Q622 261 628.5 250Q635 239 631 216L616 128Q613 108 605 99Q597 90 584 90Q564 90 557 100.5Q550 111 554 134L569 222Q572 242 581 251.5Q590 261 604 261ZM910 -6Q974 -6 1011 24Q1048 54 1059 118L1076 212Q1087 275 1049.5 315.5Q1012 356 934 356Q871 356 834 325Q797 294 786 232L769 138Q758 76 796 35Q834 -6 910 -6ZM934 261Q952 261 958.5 250Q965 239 961 216L946 128Q943 108 935 99Q927 90 914 90Q894 90 887 100.5Q880 111 884 134L899 222Q902 242 911 251.5Q920 261 934 261Z" glyph-name="perthousand" horiz-adv-x="1109" unicode="&#8240;" /><glyph d="M487 459Q487 501 457.5 522Q428 543 370 543H290L255 344H365Q425 344 456 373.5Q487 403 487 459ZM677 475Q677 343 596.5 265.5Q516 188 369 188H227L194 0H8L132 700H372Q522 700 599.5 642.5Q677 585 677 475ZM997 148H1043L1017 0H951Q828 0 779.5 44.5Q731 89 749 199L785 404H719L743 538H809L832 670H1008L985 538H1105L1081 404H961L924 197Q919 168 933.5 158Q948 148 997 148ZM854.6937 10ZM813.9305 0ZM1051.0598 738ZM1610 391 1608 376H1438L1440 388Q1443 407 1427 417.5Q1411 428 1378 428Q1349 428 1333 417.5Q1317 407 1317 389Q1317 375 1325.5 367Q1334 359 1356 354L1448 333Q1516 317 1549.5 279.5Q1583 242 1583 183Q1583 94 1518 41Q1453 -12 1335 -12Q1213 -12 1152.5 32.5Q1092 77 1104 149L1107 166H1280L1278 152Q1276 134 1292.5 125Q1309 116 1343 116Q1375 116 1392 127Q1409 138 1409 157Q1409 172 1400 181Q1391 190 1369 195L1287 215Q1219 232 1185 271Q1151 310 1151 370Q1151 451 1214.5 501.5Q1278 552 1384 552Q1504 552 1562 509.5Q1620 467 1610 391ZM1327.155 10ZM1393 540ZM1315.3917 0Z" glyph-name="peseta" horiz-adv-x="1633" unicode="&#8359;" /><glyph d="M649 540 553 0H367L435 385H248L180 0Q134 0 87.5 0Q41 0 -6 0L90 540Z" glyph-name="pi" horiz-adv-x="656" unicode="&#960;" /><glyph d="M348 117H191V275H37V426H191V584H348V426H504V275H348Z" glyph-name="plus" horiz-adv-x="526" unicode="+" /><glyph d="M213 519V644H370V519H526V372H370V247H213V372H59V519ZM59 203H526V56H59Z" glyph-name="plusminus" horiz-adv-x="587" unicode="&#177;" /><glyph d="M768 700 622 -126H436L554 545H289L171 -126Q79 -126 32 -126Q-15 -126 -15 -126L131 700Z" glyph-name="product" horiz-adv-x="760" unicode="&#8719;" /><glyph d="M586 540 459 -180H283L322 39Q296 14 264.5 1Q233 -12 198 -12Q105 -12 52.5 51.5Q0 115 17 214L41 354Q57 444 115.5 498Q174 552 256 552Q307 552 348.5 533Q390 514 411 480L430 540ZM259 143Q300 143 324 164.5Q348 186 356 230L368 297Q377 347 357.5 371.5Q338 396 290 396Q259 396 237.5 376.5Q216 357 211 326L195 233Q188 190 204.5 166.5Q221 143 259 143Z" glyph-name="q" horiz-adv-x="593" unicode="q" /><glyph d="M374 257 368 225H187L200 293Q207 329 231.5 353.5Q256 378 334 413Q359 424 373.5 431.5Q388 439 393 443Q407 453 413 466Q419 479 419 500Q419 529 395.5 544.5Q372 560 328 560Q286 560 261.5 541.5Q237 523 231 487L226 457H42L51 510Q66 599 140 655.5Q214 712 328 712Q454 712 529 659Q604 606 604 521Q604 460 571.5 409Q539 358 479 328Q475 326 426.5 303.5Q378 281 374 257ZM358 166 329 0H148L177 166Q222 166 267.5 166Q313 166 358 166Z" glyph-name="question" horiz-adv-x="585" unicode="?" /><glyph d="M197 282 203 314H384L371 246Q364 210 339.5 185.5Q315 161 237 126Q212 115 197.5 107.5Q183 100 178 96Q164 86 158 73Q152 60 152 39Q152 10 175.5 -5.5Q199 -21 243 -21Q285 -21 309.5 -2.5Q334 16 340 52L345 82H529L520 29Q505 -60 431 -116.5Q357 -173 243 -173Q117 -173 42 -120Q-33 -67 -33 18Q-33 79 -0.5 130Q32 181 92 211Q96 213 144.5 235.5Q193 258 197 282ZM213 373 242 539H423L394 373Q349 373 303.5 373Q258 373 213 373Z" glyph-name="questiondown" horiz-adv-x="583" unicode="&#191;" /><glyph d="M108 700H276L199 391H75ZM331 700H499L422 391H298Z" glyph-name="quotedbl" horiz-adv-x="470" unicode="&quot;" /><glyph d="M31.45 165.7H195.8V123.9L69.45 -143.05H-51.2ZM250.45 165.7H414.8V123.9L288.45 -143.05H167.8Z" glyph-name="quotedblbase" horiz-adv-x="486" unicode="&#8222;" /><glyph d="M215.45 391.3H51.1V433.1L177.45 700.05H298.1ZM434.45 391.3H270.1V433.1L396.45 700.05H517.1Z" glyph-name="quotedblleft" horiz-adv-x="485" unicode="&#8220;" /><glyph d="M138.55 699.7H302.9V657.9L176.55 390.95H55.9ZM357.55 699.7H521.9V657.9L395.55 390.95H274.9Z" glyph-name="quotedblright" horiz-adv-x="482" unicode="&#8221;" /><glyph d="M215.45 391.3H51.1V433.1L177.45 700.05H298.1Z" glyph-name="quoteleft" horiz-adv-x="266" unicode="&#8216;" /><glyph d="M138.55 699.7H302.9V657.9L176.55 390.95H55.9Z" glyph-name="quoteright" horiz-adv-x="263" unicode="&#8217;" /><glyph d="M31.45 165.7H195.8V123.9L69.45 -143.05H-51.2Z" glyph-name="quotesinglbase" horiz-adv-x="267" unicode="&#8218;" /><glyph d="M108 700H276L199 391H75Z" glyph-name="quotesingle" horiz-adv-x="247" unicode="'" /><glyph d="M219 273 171 0H-5L90 540H246L243 466Q277 513 329.5 534Q382 555 447 548L418 383H375Q305 383 267.5 356.5Q230 330 219 273ZM267.903 540ZM81.6864 0Z" glyph-name="r" horiz-adv-x="414" unicode="r" /><glyph d="M219 273 171 0H-5L90 540H246L243 466Q277 513 329.5 534Q382 555 447 548L418 383H375Q305 383 267.5 356.5Q230 330 219 273ZM267.903 540ZM81.6864 0ZM294.903 751H486.903L347.903 603H207.903ZM267.903 540Z" glyph-name="racute" horiz-adv-x="414" unicode="&#341;" /><glyph d="M146 385H44V540H289L355 291H370L498 700H692L446 0H278Z" glyph-name="radical" horiz-adv-x="647" unicode="&#8730;" /><glyph d="M219 273 171 0H-5L90 540H246L243 466Q277 513 329.5 534Q382 555 447 548L418 383H375Q305 383 267.5 356.5Q230 330 219 273ZM267.903 540ZM81.6864 0ZM249.403 751 292.403 690H294.403L360.403 751H497.403L357.403 603H200.403L112.403 751ZM267.903 540Z" glyph-name="rcaron" horiz-adv-x="414" unicode="&#345;" /><glyph d="M299 253Q205 253 138 320Q71 387 71 481Q71 576 137.5 643Q204 710 299 710Q394 710 461 643Q528 576 528 481Q528 386 461 319.5Q394 253 299 253ZM299 645Q231 645 183.5 597Q136 549 136 481Q136 414 184 366Q232 318 299 318Q367 318 414.5 365.5Q462 413 462 481Q462 549 414.5 597Q367 645 299 645ZM328 515Q328 526 321.5 531.5Q315 537 302 537H282V492H302Q315 492 321.5 497.5Q328 503 328 515ZM397 379H322L300 439H282V379H213V591H317Q357 591 378.5 571.5Q400 552 400 516Q400 494 392 477.5Q384 461 368 451Z" glyph-name="registered" horiz-adv-x="537" unicode="&#174;" /><glyph d="M123 714Q123 768 159 802.5Q195 837 250 837Q305 837 341 802.5Q377 768 377 714Q377 660 341 625.5Q305 591 250 591Q195 591 159 625.5Q123 660 123 714ZM212 714Q212 697 222.5 686.5Q233 676 250 676Q267 676 277.5 686.5Q288 697 288 714Q288 731 277.5 741.5Q267 752 250 752Q233 752 222.5 741.5Q212 731 212 714ZM219.3191 540Z" glyph-name="ring" horiz-adv-x="500" unicode="&#730;" /><glyph d="M43 861Q43 915 79 949.5Q115 984 170 984Q225 984 261 949.5Q297 915 297 861Q297 807 261 772.5Q225 738 170 738Q115 738 79 772.5Q43 807 43 861ZM128 861Q128 842 139.5 830.5Q151 819 170 819Q189 819 200.5 830.5Q212 842 212 861Q212 880 200.5 891.5Q189 903 170 903Q151 903 139.5 891.5Q128 880 128 861ZM153 700Z" glyph-name="ring.case" horiz-adv-x="250" /><glyph d="M503 391 501 376H331L333 388Q336 407 320 417.5Q304 428 271 428Q242 428 226 417.5Q210 407 210 389Q210 375 218.5 367Q227 359 249 354L341 333Q409 317 442.5 279.5Q476 242 476 183Q476 94 411 41Q346 -12 228 -12Q106 -12 45.5 32.5Q-15 77 -3 149L0 166H173L171 152Q169 134 185.5 125Q202 116 236 116Q268 116 285 127Q302 138 302 157Q302 172 293 181Q284 190 262 195L180 215Q112 232 78 271Q44 310 44 370Q44 451 107.5 501.5Q171 552 277 552Q397 552 455 509.5Q513 467 503 391ZM220.155 10ZM286 540ZM208.3917 0Z" glyph-name="s" horiz-adv-x="524" unicode="s" /><glyph d="M503 391 501 376H331L333 388Q336 407 320 417.5Q304 428 271 428Q242 428 226 417.5Q210 407 210 389Q210 375 218.5 367Q227 359 249 354L341 333Q409 317 442.5 279.5Q476 242 476 183Q476 94 411 41Q346 -12 228 -12Q106 -12 45.5 32.5Q-15 77 -3 149L0 166H173L171 152Q169 134 185.5 125Q202 116 236 116Q268 116 285 127Q302 138 302 157Q302 172 293 181Q284 190 262 195L180 215Q112 232 78 271Q44 310 44 370Q44 451 107.5 501.5Q171 552 277 552Q397 552 455 509.5Q513 467 503 391ZM220.155 10ZM286 540ZM208.3917 0ZM313 751H505L366 603H226ZM286 540Z" glyph-name="sacute" horiz-adv-x="524" unicode="&#347;" /><glyph d="M503 391 501 376H331L333 388Q336 407 320 417.5Q304 428 271 428Q242 428 226 417.5Q210 407 210 389Q210 375 218.5 367Q227 359 249 354L341 333Q409 317 442.5 279.5Q476 242 476 183Q476 94 411 41Q346 -12 228 -12Q106 -12 45.5 32.5Q-15 77 -3 149L0 166H173L171 152Q169 134 185.5 125Q202 116 236 116Q268 116 285 127Q302 138 302 157Q302 172 293 181Q284 190 262 195L180 215Q112 232 78 271Q44 310 44 370Q44 451 107.5 501.5Q171 552 277 552Q397 552 455 509.5Q513 467 503 391ZM220.155 10ZM286 540ZM208.3917 0ZM267.5 751 310.5 690H312.5L378.5 751H515.5L375.5 603H218.5L130.5 751ZM286 540Z" glyph-name="scaron" horiz-adv-x="524" unicode="&#353;" /><glyph d="M310 -126Q310 -190 276 -225.5Q242 -261 178 -261Q120 -261 89 -233Q58 -205 58 -157V-156H151V-157Q151 -164 156.5 -167.5Q162 -171 174 -171Q187 -171 193.5 -164Q200 -157 200 -143Q200 -133 193.5 -127Q187 -121 176 -121Q172 -121 168.5 -121.5Q165 -122 156 -127L89 -86L147 -6Q66 8 26.5 49.5Q-13 91 -3 149L0 166H173L171 152Q169 134 185.5 125Q202 116 236 116Q268 116 285 127Q302 138 302 157Q302 172 293 181Q284 190 262 195L180 215Q112 232 78 271Q44 310 44 370Q44 451 107.5 501.5Q171 552 277 552Q397 552 455 509.5Q513 467 503 391L501 376H331L333 388Q336 407 320 417.5Q304 428 271 428Q242 428 226 417.5Q210 407 210 389Q210 375 218.5 367Q227 359 249 354L341 333Q409 317 442.5 279.5Q476 242 476 183Q476 95 411.5 41.5Q347 -12 229 -12L212 -34H214Q256 -34 283 -60Q310 -86 310 -126Z" glyph-name="scedilla" horiz-adv-x="524" unicode="&#351;" /><glyph d="M503 391 501 376H331L333 388Q336 407 320 417.5Q304 428 271 428Q242 428 226 417.5Q210 407 210 389Q210 375 218.5 367Q227 359 249 354L341 333Q409 317 442.5 279.5Q476 242 476 183Q476 94 411 41Q346 -12 228 -12Q106 -12 45.5 32.5Q-15 77 -3 149L0 166H173L171 152Q169 134 185.5 125Q202 116 236 116Q268 116 285 127Q302 138 302 157Q302 172 293 181Q284 190 262 195L180 215Q112 232 78 271Q44 310 44 370Q44 451 107.5 501.5Q171 552 277 552Q397 552 455 509.5Q513 467 503 391ZM220.155 10ZM286 540ZM208.3917 0ZM352.5 603 308.5 664H306.5L241.5 603H104.5L244.5 751H401.5L489.5 603ZM286 540Z" glyph-name="scircumflex" horiz-adv-x="524" unicode="&#349;" /><glyph d="M296 38Q296 50 290 58Q284 66 264 74L166 114Q86 146 60.5 172.5Q35 199 35 233Q35 262 41.5 287Q48 312 61 333L333 219Q382 199 399.5 188.5Q417 178 429 165Q449 146 458.5 121Q468 96 468 64Q468 -26 403 -78.5Q338 -131 218 -131Q98 -131 37.5 -86Q-23 -41 -11 30L-8 47H163L161 33Q158 15 175 5Q192 -5 228 -5Q261 -5 278.5 6.5Q296 18 296 38ZM248 549Q248 537 255 528.5Q262 520 289 510L387 470Q467 438 492.5 411.5Q518 385 518 351Q518 322 511.5 297Q505 272 492 251L220 365Q173 385 154.5 397Q136 409 122 423Q103 444 93.5 470Q84 496 84 529Q84 605 149.5 658Q215 711 320 711Q437 711 495 667.5Q553 624 543 550L541 535H373L375 547Q378 567 361.5 578Q345 589 311 589Q281 589 264.5 578.5Q248 568 248 549Z" glyph-name="section" horiz-adv-x="553" unicode="&#167;" /><glyph d="M288 539 259 373H78L107 539Q152 539 197.5 539Q243 539 288 539ZM50.6553 446ZM42 166H215V122L82 -159H-45Z" glyph-name="semicolon" horiz-adv-x="299" unicode=";" /><glyph d="M58 540 86 700H612L587 559L217 0H19L375 540Z" glyph-name="seven" horiz-adv-x="560" unicode="7" /><glyph d="M2 259 18 350H296L281 267L107 0H-16L153 259Z" glyph-name="seven.denominator" horiz-adv-x="298" unicode="&#63068;" /><glyph d="M-23 119 -7 210H271L256 127L82 -140H-41L128 119Z" glyph-name="seven.inferior" horiz-adv-x="298" unicode="&#8327;" /><glyph d="M63 609 79 700H357L342 617L168 350H45L214 609Z" glyph-name="seven.numerator" horiz-adv-x="298" unicode="&#63080;" /><glyph d="M88 749 104 840H382L367 757L193 490H70L239 749Z" glyph-name="seven.superior" horiz-adv-x="298" unicode="&#8311;" /><glyph d="M95 540 123 700H649L624 559L254 0H56L412 540Z" glyph-name="seven.tab" horiz-adv-x="635" unicode="&#65303;" /><glyph d="M579 250Q579 137 506.5 62.5Q434 -12 308 -12Q152 -12 82 58.5Q12 129 34 255L73 472Q95 592 166.5 652Q238 712 358 712Q487 712 552.5 658Q618 604 611 512L610 499H430L431 512Q433 537 412 551Q391 565 351 565Q312 565 288 543.5Q264 522 257 479L244 406Q272 424 303 432.5Q334 441 369 441Q468 441 523.5 389.5Q579 338 579 250ZM210 205Q210 167 233 148Q256 129 301 129Q344 129 367.5 156.5Q391 184 391 229Q391 263 368.5 281.5Q346 300 303 300Q258 300 234 274.5Q210 249 210 205Z" glyph-name="six" horiz-adv-x="624" unicode="6" /><glyph d="M278 127Q278 72 238 33Q198 -6 131 -6Q52 -6 16 29.5Q-20 65 -9 127L9 232Q19 290 59 323Q99 356 162 356Q231 356 265.5 329Q300 302 294 257L293 248H183V251Q183 260 177 264.5Q171 269 159 269Q144 269 135 260.5Q126 252 123 235L119 212Q128 216 141.5 218.5Q155 221 169 221Q220 221 249 195.5Q278 170 278 127ZM100 102Q100 89 108 81.5Q116 74 131 74Q146 74 154 85.5Q162 97 162 116Q162 129 154.5 136.5Q147 144 132 144Q117 144 108.5 132.5Q100 121 100 102Z" glyph-name="six.denominator" horiz-adv-x="328" unicode="&#63067;" /><glyph d="M254 -13Q254 -68 214 -107Q174 -146 107 -146Q28 -146 -8 -110.5Q-44 -75 -33 -13L-15 92Q-5 150 35 183Q75 216 138 216Q207 216 241.5 189Q276 162 270 117L269 108H159V111Q159 120 153 124.5Q147 129 135 129Q120 129 111 120.5Q102 112 99 95L95 72Q104 76 117.5 78.5Q131 81 145 81Q196 81 225 55.5Q254 30 254 -13ZM76 -38Q76 -51 84 -58.5Q92 -66 107 -66Q122 -66 130 -54.5Q138 -43 138 -24Q138 -11 130.5 -3.5Q123 4 108 4Q93 4 84.5 -7.5Q76 -19 76 -38Z" glyph-name="six.inferior" horiz-adv-x="328" unicode="&#8326;" /><glyph d="M340 477Q340 422 300 383Q260 344 193 344Q114 344 78 379.5Q42 415 53 477L71 582Q81 640 121 673Q161 706 224 706Q293 706 327.5 679Q362 652 356 607L355 598H245V601Q245 610 239 614.5Q233 619 221 619Q206 619 197 610.5Q188 602 185 585L181 562Q190 566 203.5 568.5Q217 571 231 571Q282 571 311 545.5Q340 520 340 477ZM162 452Q162 439 170 431.5Q178 424 193 424Q208 424 216 435.5Q224 447 224 466Q224 479 216.5 486.5Q209 494 194 494Q179 494 170.5 482.5Q162 471 162 452Z" glyph-name="six.numerator" horiz-adv-x="328" unicode="&#63079;" /><glyph d="M365 617Q365 562 325 523Q285 484 218 484Q139 484 103 519.5Q67 555 78 617L96 722Q106 780 146 813Q186 846 249 846Q318 846 352.5 819Q387 792 381 747L380 738H270V741Q270 750 264 754.5Q258 759 246 759Q231 759 222 750.5Q213 742 210 725L206 702Q215 706 228.5 708.5Q242 711 256 711Q307 711 336 685.5Q365 660 365 617ZM187 592Q187 579 195 571.5Q203 564 218 564Q233 564 241 575.5Q249 587 249 606Q249 619 241.5 626.5Q234 634 219 634Q204 634 195.5 622.5Q187 611 187 592Z" glyph-name="six.superior" horiz-adv-x="328" unicode="&#8310;" /><glyph d="M586 250Q586 137 513.5 62.5Q441 -12 315 -12Q159 -12 89 58.5Q19 129 41 255L80 472Q102 592 173.5 652Q245 712 365 712Q494 712 559.5 658Q625 604 618 512L617 499H437L438 512Q440 537 419 551Q398 565 358 565Q319 565 295 543.5Q271 522 264 479L251 406Q279 424 310 432.5Q341 441 376 441Q475 441 530.5 389.5Q586 338 586 250ZM217 205Q217 167 240 148Q263 129 308 129Q351 129 374.5 156.5Q398 184 398 229Q398 263 375.5 281.5Q353 300 310 300Q265 300 241 274.5Q217 249 217 205Z" glyph-name="six.tab" horiz-adv-x="635" unicode="&#65302;" /><glyph d="M476 758H661L124 -126H-61Z" glyph-name="slash" horiz-adv-x="597" unicode="/" /><glyph glyph-name="space" horiz-adv-x="205" unicode=" " /><glyph d="M270 145H586L560 0H-14L10 133L84 144L103 254H32L55 383H126L144 485Q163 591 232 651.5Q301 712 409 712Q552 712 618.5 644.5Q685 577 665 463L662 447H480L484 468Q491 505 470 527.5Q449 550 405 550Q373 550 353.5 530.5Q334 511 327 470L312 383H441L418 254H289Z" glyph-name="sterling" horiz-adv-x="664" unicode="&#163;" /><glyph d="M357 535 438 332 429 281 263 39H530L501 -126H-60L-50 -73L231 311L78 654L86 700H647L618 535Z" glyph-name="summation" horiz-adv-x="613" unicode="&#8721;" /><glyph d="M306 148H352L326 0H260Q137 0 88.5 44.5Q40 89 58 199L94 404H28L52 538H118L141 670H317L294 538H414L390 404H270L233 197Q228 168 242.5 158Q257 148 306 148ZM163.6937 10ZM122.9305 0ZM360.0598 738Z" glyph-name="t" horiz-adv-x="403" unicode="t" /><glyph d="M308 148H354L328 0H262Q139 0 90.5 44Q42 88 60 199L67 238H8L26 343H85L96 404H30L54 538H120L143 670H319L296 538H416L392 404H272L261 343H365L347 238H242L235 197Q230 167 244.5 157.5Q259 148 308 148Z" glyph-name="tbar" horiz-adv-x="406" unicode="&#359;" /><glyph d="M306 148H352L326 0H260Q137 0 88.5 44.5Q40 89 58 199L94 404H28L52 538H118L141 670H317L294 538H414L390 404H270L233 197Q228 168 242.5 158Q257 148 306 148ZM163.6937 10ZM122.9305 0ZM360.0598 738ZM367.8475 780H489.8475V736L420.8475 571H330.8475ZM360.0598 738Z" glyph-name="tcaron" horiz-adv-x="403.4655" unicode="&#357;" /><glyph d="M292 144Q323 144 345 163.5Q367 183 372 214L388 307Q395 350 378.5 373.5Q362 397 323 397Q281 397 257.5 375Q234 353 225 305L214 244Q205 195 225 169.5Q245 144 292 144ZM327 -12Q281 -12 241.5 4Q202 20 180 49L142 -164H-34L124 730H300L259 500Q284 525 316.5 538.5Q349 552 385 552Q478 552 530.5 488.5Q583 425 566 326L542 186Q526 96 467.5 42Q409 -12 327 -12Z" glyph-name="thorn" horiz-adv-x="596" unicode="&#254;" /><glyph d="M561 218Q561 120 490 54Q419 -12 296 -12Q146 -12 72.5 49.5Q-1 111 14 217L15 224H196L195 212Q192 176 214 160Q236 144 285 144Q331 144 354.5 166Q378 188 378 230Q378 260 359.5 274Q341 288 303 288H217L242 430H338Q374 430 392.5 447.5Q411 465 411 499Q411 527 391.5 541.5Q372 556 334 556Q299 556 279.5 543.5Q260 531 257 507L254 484H72L78 525Q91 609 162.5 660.5Q234 712 348 712Q466 712 532.5 660Q599 608 599 521Q599 464 575.5 422Q552 380 506 353Q533 331 547 297.5Q561 264 561 218Z" glyph-name="three" horiz-adv-x="615" unicode="3" /><glyph d="M271 114Q271 62 232.5 28Q194 -6 126 -6Q50 -6 11.5 25.5Q-27 57 -19 104L-17 116H96L95 112Q92 100 99.5 92.5Q107 85 124 85Q141 85 149.5 92.5Q158 100 158 118Q158 130 150 136Q142 142 125 142H94L107 213H146Q159 213 166 220.5Q173 228 173 243Q173 253 166.5 258.5Q160 264 149 264Q139 264 132.5 260Q126 256 124 247L122 239H11L15 264Q22 305 58 330.5Q94 356 149 356Q211 356 247 329Q283 302 283 259Q283 232 271 210.5Q259 189 237 175Q254 164 262.5 148.5Q271 133 271 114Z" glyph-name="three.denominator" horiz-adv-x="323" unicode="&#63064;" /><glyph d="M246 -26Q246 -78 207.5 -112Q169 -146 101 -146Q25 -146 -13.5 -114.5Q-52 -83 -44 -36L-42 -24H71L70 -28Q67 -40 74.5 -47.5Q82 -55 99 -55Q116 -55 124.5 -47.5Q133 -40 133 -22Q133 -10 125 -4Q117 2 100 2H69L82 73H121Q134 73 141 80.5Q148 88 148 103Q148 113 141.5 118.5Q135 124 124 124Q114 124 107.5 120Q101 116 99 107L97 99H-14L-10 124Q-3 165 33 190.5Q69 216 124 216Q186 216 222 189Q258 162 258 119Q258 92 246 70.5Q234 49 212 35Q229 24 237.5 8.5Q246 -7 246 -26Z" glyph-name="three.inferior" horiz-adv-x="323" unicode="&#8323;" /><glyph d="M332 464Q332 412 293.5 378Q255 344 187 344Q111 344 72.5 375.5Q34 407 42 454L44 466H157L156 462Q153 450 160.5 442.5Q168 435 185 435Q202 435 210.5 442.5Q219 450 219 468Q219 480 211 486Q203 492 186 492H155L168 563H207Q220 563 227 570.5Q234 578 234 593Q234 603 227.5 608.5Q221 614 210 614Q200 614 193.5 610Q187 606 185 597L183 589H72L76 614Q83 655 119 680.5Q155 706 210 706Q272 706 308 679Q344 652 344 609Q344 582 332 560.5Q320 539 298 525Q315 514 323.5 498.5Q332 483 332 464Z" glyph-name="three.numerator" horiz-adv-x="323" unicode="&#63076;" /><glyph d="M570 218Q570 120 499 54Q428 -12 305 -12Q155 -12 81.5 49.5Q8 111 23 217L24 224H205L204 212Q201 176 223 160Q245 144 294 144Q340 144 363.5 166Q387 188 387 230Q387 260 368.5 274Q350 288 312 288H226L251 430H347Q383 430 401.5 447.5Q420 465 420 499Q420 527 400.5 541.5Q381 556 343 556Q308 556 288.5 543.5Q269 531 266 507L263 484H81L87 525Q100 609 171.5 660.5Q243 712 357 712Q475 712 541.5 660Q608 608 608 521Q608 464 584.5 422Q561 380 515 353Q542 331 556 297.5Q570 264 570 218Z" glyph-name="three.tab" horiz-adv-x="635" unicode="&#65299;" /><glyph d="M334 464Q334 412 295.5 378Q257 344 189 344Q113 344 74.5 375.5Q36 407 44 454L46 466H159L158 462Q155 450 162.5 442.5Q170 435 187 435Q204 435 212.5 442.5Q221 450 221 468Q221 480 213 486Q205 492 188 492H157L170 563H209Q222 563 229 570.5Q236 578 236 593Q236 603 229.5 608.5Q223 614 212 614Q202 614 195.5 610Q189 606 187 597L185 589H74L78 614Q85 655 121 680.5Q157 706 212 706Q274 706 310 679Q346 652 346 609Q346 582 334 560.5Q322 539 300 525Q317 514 325.5 498.5Q334 483 334 464ZM639 700H756L181 0H64ZM547 350H657L582 171H644L676 350H790L728 0H614L626 76H453L469 170Z" glyph-name="threequarters" horiz-adv-x="815" unicode="&#190;" /><glyph d="M357 604Q357 552 318.5 518Q280 484 212 484Q136 484 97.5 515.5Q59 547 67 594L69 606H182L181 602Q178 590 185.5 582.5Q193 575 210 575Q227 575 235.5 582.5Q244 590 244 608Q244 620 236 626Q228 632 211 632H180L193 703H232Q245 703 252 710.5Q259 718 259 733Q259 743 252.5 748.5Q246 754 235 754Q225 754 218.5 750Q212 746 210 737L208 729H97L101 754Q108 795 144 820.5Q180 846 235 846Q297 846 333 819Q369 792 369 749Q369 722 357 700.5Q345 679 323 665Q340 654 348.5 638.5Q357 623 357 604Z" glyph-name="threesuperior" horiz-adv-x="323" unicode="&#179;" /><glyph d="M353 596Q332 596 313 600Q294 604 281 612L241 634Q230 640 221 642.5Q212 645 203 645Q183 645 171 637Q159 629 150 603H59Q64 671 103.5 715.5Q143 760 200 760Q218 760 235 755.5Q252 751 270 742L306 721Q318 714 328.5 711Q339 708 350 708Q368 708 380 719.5Q392 731 398 755H488Q483 681 447.5 638.5Q412 596 353 596ZM249 540Z" glyph-name="tilde" horiz-adv-x="500" unicode="&#732;" /><glyph d="M256 741Q235 741 216 745Q197 749 184 757L144 779Q133 785 124 787.5Q115 790 106 790Q86 790 74 782Q62 774 53 748H-38Q-33 816 6.5 860.5Q46 905 103 905Q121 905 138 900.5Q155 896 173 887L209 866Q221 859 231.5 856Q242 853 253 853Q271 853 283 864.5Q295 876 301 900H391Q386 826 350.5 783.5Q315 741 256 741ZM151 700Z" glyph-name="tilde.case" horiz-adv-x="250" /><glyph d="M443 700V574H336V292H190V574H84V700ZM736 402H678L629 480V292H488V700H622L708 552L791 700H929V292H783V479Z" glyph-name="trademark" horiz-adv-x="969" unicode="&#8482;" /><glyph d="M152 329 379 418Q406 429 419 447Q432 465 432 492Q432 522 412 537Q392 552 352 552Q309 552 284 532.5Q259 513 254 477L250 450H68L77 502Q94 599 168.5 655.5Q243 712 363 712Q484 712 552 656.5Q620 601 620 510Q620 429 572 367.5Q524 306 446 278L275 215Q245 204 234 194Q223 184 219 167L217 159H557L529 0H-7L25 183Q34 235 66 271.5Q98 308 152 329Z" glyph-name="two" horiz-adv-x="624" unicode="2" /><glyph d="M53 170 166 214Q175 218 179.5 224Q184 230 184 241Q184 251 177.5 256.5Q171 262 158 262Q143 262 135 254.5Q127 247 123 230L121 220H9L13 246Q21 294 60.5 325Q100 356 160 356Q227 356 263.5 328Q300 300 300 252Q300 212 275.5 182Q251 152 203 135L125 107Q113 103 109 100.5Q105 98 104 96L103 94H271L255 0H-28L-12 94Q-7 122 8.5 140.5Q24 159 53 170Z" glyph-name="two.denominator" horiz-adv-x="332" unicode="&#63063;" /><glyph d="M28 30 141 74Q150 78 154.5 84Q159 90 159 101Q159 111 152.5 116.5Q146 122 133 122Q118 122 110 114.5Q102 107 98 90L96 80H-16L-12 106Q-4 154 35.5 185Q75 216 135 216Q202 216 238.5 188Q275 160 275 112Q275 72 250.5 42Q226 12 178 -5L100 -33Q88 -37 84 -39.5Q80 -42 79 -44L78 -46H246L230 -140H-53L-37 -46Q-32 -18 -16.5 0.5Q-1 19 28 30Z" glyph-name="two.inferior" horiz-adv-x="332" unicode="&#8322;" /><glyph d="M114 520 227 564Q236 568 240.5 574Q245 580 245 591Q245 601 238.5 606.5Q232 612 219 612Q204 612 196 604.5Q188 597 184 580L182 570H70L74 596Q82 644 121.5 675Q161 706 221 706Q288 706 324.5 678Q361 650 361 602Q361 562 336.5 532Q312 502 264 485L186 457Q174 453 170 450.5Q166 448 165 446L164 444H332L316 350H33L49 444Q54 472 69.5 490.5Q85 509 114 520Z" glyph-name="two.numerator" horiz-adv-x="332" unicode="&#63075;" /><glyph d="M157 329 384 418Q411 429 424 447Q437 465 437 492Q437 522 417 537Q397 552 357 552Q314 552 289 532.5Q264 513 259 477L255 450H73L82 502Q99 599 173.5 655.5Q248 712 368 712Q489 712 557 656.5Q625 601 625 510Q625 429 577 367.5Q529 306 451 278L280 215Q250 204 239 194Q228 184 224 167L222 159H562L534 0H-2L30 183Q39 235 71 271.5Q103 308 157 329Z" glyph-name="two.tab" horiz-adv-x="635" unicode="&#65298;" /><glyph d="M139 660 252 704Q261 708 265.5 714Q270 720 270 731Q270 741 263.5 746.5Q257 752 244 752Q229 752 221 744.5Q213 737 209 720L207 710H95L99 736Q107 784 146.5 815Q186 846 246 846Q313 846 349.5 818Q386 790 386 742Q386 702 361.5 672Q337 642 289 625L211 597Q199 593 195 590.5Q191 588 190 586L189 584H357L341 490H58L74 584Q79 612 94.5 630.5Q110 649 139 660Z" glyph-name="twosuperior" horiz-adv-x="332" unicode="&#178;" /><glyph d="M494 0H338L340 63Q314 27 274.5 7.5Q235 -12 187 -12Q102 -12 55 49.5Q8 111 25 208L84 540H260L209 249Q199 195 213.5 169.5Q228 144 268 144Q307 144 329 166Q351 188 360 237L414 540H590ZM337 540ZM392 0Z" glyph-name="u" horiz-adv-x="597" unicode="u" /><glyph d="M494 0H338L340 63Q314 27 274.5 7.5Q235 -12 187 -12Q102 -12 55 49.5Q8 111 25 208L84 540H260L209 249Q199 195 213.5 169.5Q228 144 268 144Q307 144 329 166Q351 188 360 237L414 540H590ZM337 540ZM392 0ZM364 751H556L417 603H277ZM337 540Z" glyph-name="uacute" horiz-adv-x="597" unicode="&#250;" /><glyph d="M494 0H338L340 63Q314 27 274.5 7.5Q235 -12 187 -12Q102 -12 55 49.5Q8 111 25 208L84 540H260L209 249Q199 195 213.5 169.5Q228 144 268 144Q307 144 329 166Q351 188 360 237L414 540H590ZM337 540ZM392 0ZM420.5 741 421.5 750H529.5L528.5 741Q521.5 672 477.5 631.5Q433.5 591 366.5 591Q281.5 591 241.5 631Q201.5 671 216.5 741L218.5 750H326.5L324.5 741Q319.5 719 332 706Q344.5 693 370.5 693Q394.5 693 406 704.5Q417.5 716 420.5 741ZM337 540Z" glyph-name="ubreve" horiz-adv-x="597" unicode="&#365;" /><glyph d="M494 0H338L340 63Q314 27 274.5 7.5Q235 -12 187 -12Q102 -12 55 49.5Q8 111 25 208L84 540H260L209 249Q199 195 213.5 169.5Q228 144 268 144Q307 144 329 166Q351 188 360 237L414 540H590ZM337 540ZM392 0ZM403.5 603 359.5 664H357.5L292.5 603H155.5L295.5 751H452.5L540.5 603ZM337 540Z" glyph-name="ucircumflex" horiz-adv-x="597" unicode="&#251;" /><glyph d="M494 0H338L340 63Q314 27 274.5 7.5Q235 -12 187 -12Q102 -12 55 49.5Q8 111 25 208L84 540H260L209 249Q199 195 213.5 169.5Q228 144 268 144Q307 144 329 166Q351 188 360 237L414 540H590ZM337 540ZM392 0ZM347.5 730 324.5 602H171.5L194.5 730Q213.5 730 232.5 730Q251.5 730 270.5 730Q289.5 730 308.5 730Q327.5 730 347.5 730ZM547.5 730 524.5 602H371.5L394.5 730Q432.5 730 470.5 730Q508.5 730 547.5 730ZM337 540Z" glyph-name="udieresis" horiz-adv-x="597" unicode="&#252;" /><glyph d="M494 0H338L340 63Q314 27 274.5 7.5Q235 -12 187 -12Q102 -12 55 49.5Q8 111 25 208L84 540H260L209 249Q199 195 213.5 169.5Q228 144 268 144Q307 144 329 166Q351 188 360 237L414 540H590ZM337 540ZM392 0ZM411 603H270L183 751H376ZM337 540Z" glyph-name="ugrave" horiz-adv-x="597" unicode="&#249;" /><glyph d="M494 0H338L340 63Q314 27 274.5 7.5Q235 -12 187 -12Q102 -12 55 49.5Q8 111 25 208L84 540H260L209 249Q199 195 213.5 169.5Q228 144 268 144Q307 144 329 166Q351 188 360 237L414 540H590ZM337 540ZM392 0ZM230 751H427L299 603H152ZM479 751H676L522 603H375ZM337 540Z" glyph-name="uhungarumlaut" horiz-adv-x="597" unicode="&#369;" /><glyph d="M494 0H338L340 63Q314 27 274.5 7.5Q235 -12 187 -12Q102 -12 55 49.5Q8 111 25 208L84 540H260L209 249Q199 195 213.5 169.5Q228 144 268 144Q307 144 329 166Q351 188 360 237L414 540H590ZM337 540ZM392 0ZM180 603 200 715H536L516 603ZM337 540Z" glyph-name="umacron" horiz-adv-x="597" unicode="&#363;" /><glyph d="M-60 -40H444L420 -172H-84Q-78 -139 -72 -106Q-66 -73 -60 -40Z" glyph-name="underscore" horiz-adv-x="505" unicode="_" /><glyph glyph-name="uni00A0" horiz-adv-x="205" unicode="&#160;" /><glyph d="M68 407H377L347 239H38Q46 281 53.5 323Q61 365 68 407Z" glyph-name="uni00AD" horiz-adv-x="409" unicode="&#173;" /><glyph d="M377 368H648L624 231Q602 112 525.5 50Q449 -12 323 -12Q158 -12 85.5 62Q13 136 37 275L72 475Q92 585 172.5 648.5Q253 712 380 712Q531 712 606.5 646Q682 580 663 476L661 465H477L479 476Q485 509 456 529.5Q427 550 369 550Q321 550 292 527Q263 504 255 460L220 260Q210 202 239 176Q268 150 337 150Q379 150 405 165.5Q431 181 436 209L440 232H353ZM397 700ZM306 0ZM206.9942 -60H375.9942V-104L287.9942 -269H151.9942ZM258.3917 -270ZM306 0Z" glyph-name="uni0122" horiz-adv-x="673" unicode="&#290;" /><glyph d="M268 193Q307 193 332 213Q357 233 363 268L372 320Q379 359 358 380.5Q337 402 292 402Q261 402 239 382.5Q217 363 212 332L203 283Q195 240 212 216.5Q229 193 268 193ZM241 -190Q124 -190 58.5 -139.5Q-7 -89 -7 -9V-6H158V-9Q158 -30 179 -42.5Q200 -55 238 -55Q276 -55 294 -39.5Q312 -24 319 16L333 94Q306 68 274.5 55Q243 42 207 42Q113 42 61 105.5Q9 169 26 268L41 354Q57 444 115.5 498Q174 552 256 552Q307 552 349 533Q391 514 412 480L431 540H587L495 18Q476 -93 415 -141.5Q354 -190 241 -190ZM325 540ZM423 595H254V639L343 804H479ZM325 540Z" glyph-name="uni0123" horiz-adv-x="595" unicode="&#291;" /><glyph d="M317 271 224 178 193 0H7L131 700H317L272 445L518 700H748L458 408L625 0H425ZM307.2856 0ZM208.2798 -60H377.2798V-104L289.2798 -269H153.2798ZM259.6773 -270ZM307.2856 0Z" glyph-name="uni0136" horiz-adv-x="675" unicode="&#310;" /><glyph d="M255 187 193 128 171 0H-5L123 730H299L236 372L404 540H620L387 312L528 0H335ZM234.6407 0ZM135.6349 -60H304.6349V-104L216.6349 -269H80.6349ZM187.0324 -270ZM234.6407 0Z" glyph-name="uni0137" horiz-adv-x="572" unicode="&#311;" /><glyph d="M501 0H7L130 700H316L221 162H529ZM197.2123 700ZM229.7834 0ZM363.2123 700ZM314 350ZM130.7776 -60H299.7776V-104L211.7776 -269H75.7776ZM182.1751 -270ZM229.7834 0Z" glyph-name="uni013B" horiz-adv-x="566" unicode="&#315;" /><glyph d="M300 730 171 0H-5L124 730ZM83 0ZM209 730ZM348 700ZM268 350ZM-16.0058 -60H152.9942V-104L64.9942 -269H-71.0058ZM35.3917 -270ZM83 0Z" glyph-name="uni013C" horiz-adv-x="274" unicode="&#316;" /><glyph d="M608 0H454L250 378L183 0H7L131 700H285L489 321L556 700H732ZM431.2144 700ZM307.7856 0ZM208.7798 -60H377.7798V-104L289.7798 -269H153.7798ZM260.1773 -270ZM307.7856 0Z" glyph-name="uni0145" horiz-adv-x="722" unicode="&#325;" /><glyph d="M318 396Q277 396 254.5 374.5Q232 353 224 305L170 0H-6L90 540H246L244 477Q271 513 311 532.5Q351 552 399 552Q486 552 533 490.5Q580 429 563 332L504 0H328L379 291Q389 346 374 371Q359 396 318 396ZM330 540ZM250 0ZM69 581ZM150.9942 -60H319.9942V-104L231.9942 -269H95.9942ZM202.3917 -270ZM250 0Z" glyph-name="uni0146" horiz-adv-x="601" unicode="&#326;" /><glyph d="M490 469Q490 508 461 526.5Q432 545 372 545H290L259 374H372Q431 374 460.5 398Q490 422 490 469ZM398 0 339 221H232L193 0H7L131 700H370Q522 700 600.5 643.5Q679 587 679 480Q679 399 637.5 336.5Q596 274 519 245L586 0ZM387 700ZM283.2856 0ZM184.2798 -60H353.2798V-104L265.2798 -269H129.2798ZM235.6773 -270ZM283.2856 0Z" glyph-name="uni0156" horiz-adv-x="682" unicode="&#342;" /><glyph d="M219 273 171 0H-5L90 540H246L243 466Q277 513 329.5 534Q382 555 447 548L418 383H375Q305 383 267.5 356.5Q230 330 219 273ZM267.903 540ZM81.6864 0ZM-17.3194 -60H151.6806V-104L63.6806 -269H-72.3194ZM34.0781 -270ZM81.6864 0Z" glyph-name="uni0157" horiz-adv-x="414" unicode="&#343;" /><glyph d="M355 -126Q355 -190 321 -225.5Q287 -261 223 -261Q165 -261 134 -233Q103 -205 103 -157V-156H196V-157Q196 -164 201.5 -167.5Q207 -171 219 -171Q232 -171 238.5 -164Q245 -157 245 -143Q245 -133 238.5 -127Q232 -121 221 -121Q217 -121 213.5 -121.5Q210 -122 201 -127L134 -86L196 0H156L250 538H54L82 700H663L635 538H436L342 0H283L257 -34H259Q301 -34 328 -60Q355 -86 355 -126Z" glyph-name="uni0162" horiz-adv-x="606" unicode="&#354;" /><glyph d="M257 -126Q257 -190 223 -225.5Q189 -261 125 -261Q67 -261 36 -233Q5 -205 5 -157V-156H98V-157Q98 -164 103.5 -167.5Q109 -171 121 -171Q134 -171 140.5 -164Q147 -157 147 -143Q147 -133 140.5 -127Q134 -121 123 -121Q119 -121 115.5 -121.5Q112 -122 103 -127L36 -86L121 25Q78 46 63.5 86Q49 126 61 199L97 404H31L55 538H121L144 670H320L297 538H417L393 404H273L236 197Q231 167 245.5 157.5Q260 148 309 148H355L329 0H263Q245 0 227 1Q209 2 191 5L159 -34H161Q203 -34 230 -60Q257 -86 257 -126Z" glyph-name="uni0163" horiz-adv-x="406" unicode="&#355;" /><glyph d="M637 502 635 484H450L451 498Q453 530 427.5 546.5Q402 563 349 563Q304 563 280.5 548Q257 533 257 505Q257 485 268.5 474Q280 463 312 455L437 423Q518 402 560.5 354Q603 306 603 234Q603 126 521.5 57Q440 -12 297 -12Q144 -12 70.5 44Q-3 100 10 202L12 218H197L196 205Q193 171 220 155Q247 139 304 139Q355 139 381.5 155.5Q408 172 408 202Q408 224 392 237.5Q376 251 338 261L221 291Q147 310 109.5 358Q72 406 72 481Q72 579 151 645.5Q230 712 360 712Q499 712 573 653Q647 594 637 502ZM280 10ZM367 700ZM278 0ZM178.9942 -60H347.9942V-104L259.9942 -269H123.9942ZM230.3917 -270ZM278 0Z" glyph-name="uni0218" horiz-adv-x="646.1446" unicode="&#536;" /><glyph d="M503 391 501 376H331L333 388Q336 407 320 417.5Q304 428 271 428Q242 428 226 417.5Q210 407 210 389Q210 375 218.5 367Q227 359 249 354L341 333Q409 317 442.5 279.5Q476 242 476 183Q476 94 411 41Q346 -12 228 -12Q106 -12 45.5 32.5Q-15 77 -3 149L0 166H173L171 152Q169 134 185.5 125Q202 116 236 116Q268 116 285 127Q302 138 302 157Q302 172 293 181Q284 190 262 195L180 215Q112 232 78 271Q44 310 44 370Q44 451 107.5 501.5Q171 552 277 552Q397 552 455 509.5Q513 467 503 391ZM220.155 10ZM286 540ZM208.3917 0ZM109.3859 -60H278.3859V-104L190.3859 -269H54.3859ZM160.7834 -270ZM208.3917 0Z" glyph-name="uni0219" horiz-adv-x="524" unicode="&#537;" /><glyph d="M663 700 635 538H436L342 0H156L250 538H54L82 700ZM259 10ZM367 700ZM247 0ZM147.9942 -60H316.9942V-104L228.9942 -269H92.9942ZM199.3917 -270ZM247 0Z" glyph-name="uni021A" horiz-adv-x="606" unicode="&#538;" /><glyph d="M306 148H352L326 0H260Q137 0 88.5 44.5Q40 89 58 199L94 404H28L52 538H118L141 670H317L294 538H414L390 404H270L233 197Q228 168 242.5 158Q257 148 306 148ZM163.6937 10ZM122.9305 0ZM360.0598 738ZM23.9247 -60H192.9247V-104L104.9247 -269H-31.0753ZM75.3222 -270ZM122.9305 0Z" glyph-name="uni021B" horiz-adv-x="403" unicode="&#539;" /><glyph d="M-52 -180H-159L-134 -37H-76Q-43 -37 -25.5 -25Q-8 -13 -3 12L90 540H266L171 4Q155 -90 99.5 -135Q44 -180 -52 -180ZM174.4777 540Z" glyph-name="uni0237" horiz-adv-x="273" unicode="&#567;" /><glyph d="M93 603 113 715H449L429 603ZM250 540Z" glyph-name="uni02C9" horiz-adv-x="500" unicode="&#713;" /><glyph d="M391 700 572 0H-18L164 700ZM275 505 195 145H359L280 505Z" glyph-name="uni0394" horiz-adv-x="607" unicode="&#916;" /><glyph d="M495 368 506 430Q517 491 486 520.5Q455 550 382 550Q327 550 295 524.5Q263 499 254 450L243 388Q231 320 249.5 290Q268 260 318 258L262 0H6L31 142H170L172 149Q99 170 70 234.5Q41 299 58 393L72 475Q91 585 171.5 648.5Q252 712 380 712Q555 712 634.5 636.5Q714 561 691 425L677 343Q664 271 615 220.5Q566 170 486 149L484 142H623L598 0H342L388 258Q432 258 459 285.5Q486 313 495 368Z" glyph-name="uni03A9" horiz-adv-x="710.5198" unicode="&#937;" /><glyph d="M204 -12Q191 -12 179 -10.5Q167 -9 156 -6L140 -180H-36L90 540H266L213 239Q205 189 221.5 166.5Q238 144 281 144Q318 144 338 168Q358 192 370 259L420 540H596L500 0H344L346 60Q321 25 284.5 6.5Q248 -12 204 -12Z" glyph-name="uni03BC" horiz-adv-x="603" unicode="&#956;" /><glyph d="M474 153 447 0H333Q198 0 135.5 46.5Q73 93 79 193Q59 187 49.5 184Q40 181 33 179L12 313Q45 323 66 329.5Q87 336 102 341L132 511Q149 605 208.5 658.5Q268 712 361 712Q458 712 510.5 669.5Q563 627 563 552Q563 457 490 383Q417 309 262 251L261 245Q252 194 271 173.5Q290 153 340 153ZM370 577Q345 577 329 556.5Q313 536 306 496L291 411Q354 441 385 470Q416 499 416 528Q416 551 404 564Q392 577 370 577Z" glyph-name="uni2113" horiz-adv-x="550" unicode="&#8467;" /><glyph d="M81 579 99 681 205 699H288L240 445H311L294 350H37L54 445H125L153 586ZM642 700H759L184 0H67ZM744 114Q744 62 705.5 28Q667 -6 599 -6Q523 -6 484.5 25.5Q446 57 454 104L456 116H569L568 112Q565 100 572.5 92.5Q580 85 597 85Q614 85 622.5 92.5Q631 100 631 118Q631 130 623 136Q615 142 598 142H567L580 213H619Q632 213 639 220.5Q646 228 646 243Q646 253 639.5 258.5Q633 264 622 264Q612 264 605.5 260Q599 256 597 247L595 239H484L488 264Q495 305 531 330.5Q567 356 622 356Q684 356 720 329Q756 302 756 259Q756 232 744 210.5Q732 189 710 175Q727 164 735.5 148.5Q744 133 744 114Z" glyph-name="uni2153" horiz-adv-x="795" unicode="&#8531;" /><glyph d="M118 520 231 564Q240 568 244.5 574Q249 580 249 591Q249 601 242.5 606.5Q236 612 223 612Q208 612 200 604.5Q192 597 188 580L186 570H74L78 596Q86 644 125.5 675Q165 706 225 706Q292 706 328.5 678Q365 650 365 602Q365 562 340.5 532Q316 502 268 485L190 457Q178 453 174 450.5Q170 448 169 446L168 444H336L320 350H37L53 444Q58 472 73.5 490.5Q89 509 118 520ZM667 700H784L209 0H92ZM769 114Q769 62 730.5 28Q692 -6 624 -6Q548 -6 509.5 25.5Q471 57 479 104L481 116H594L593 112Q590 100 597.5 92.5Q605 85 622 85Q639 85 647.5 92.5Q656 100 656 118Q656 130 648 136Q640 142 623 142H592L605 213H644Q657 213 664 220.5Q671 228 671 243Q671 253 664.5 258.5Q658 264 647 264Q637 264 630.5 260Q624 256 622 247L620 239H509L513 264Q520 305 556 330.5Q592 356 647 356Q709 356 745 329Q781 302 781 259Q781 232 769 210.5Q757 189 735 175Q752 164 760.5 148.5Q769 133 769 114Z" glyph-name="uni2154" horiz-adv-x="821" unicode="&#8532;" /><glyph d="M81 579 99 681 205 699H288L240 445H311L294 350H37L54 445H125L153 586ZM642 700H759L184 0H67ZM616 139H497L534 350H785L770 259H634L628 227H634Q701 227 735.5 200.5Q770 174 770 123Q770 67 731 30.5Q692 -6 624 -6Q548 -6 510 23.5Q472 53 479 104L480 111H591V105Q591 94 599 89Q607 84 623 84Q639 84 647 92Q655 100 655 114Q655 126 645 132.5Q635 139 616 139Z" glyph-name="uni2155" horiz-adv-x="820" unicode="&#8533;" /><glyph d="M117 520 230 564Q239 568 243.5 574Q248 580 248 591Q248 601 241.5 606.5Q235 612 222 612Q207 612 199 604.5Q191 597 187 580L185 570H73L77 596Q85 644 124.5 675Q164 706 224 706Q291 706 327.5 678Q364 650 364 602Q364 562 339.5 532Q315 502 267 485L189 457Q177 453 173 450.5Q169 448 168 446L167 444H335L319 350H36L52 444Q57 472 72.5 490.5Q88 509 117 520ZM671 700H788L213 0H96ZM645 139H526L563 350H814L799 259H663L657 227H663Q730 227 764.5 200.5Q799 174 799 123Q799 67 760 30.5Q721 -6 653 -6Q577 -6 539 23.5Q501 53 508 104L509 111H620V105Q620 94 628 89Q636 84 652 84Q668 84 676 92Q684 100 684 114Q684 126 674 132.5Q664 139 645 139Z" glyph-name="uni2156" horiz-adv-x="849" unicode="&#8534;" /><glyph d="M334 464Q334 412 295.5 378Q257 344 189 344Q113 344 74.5 375.5Q36 407 44 454L46 466H159L158 462Q155 450 162.5 442.5Q170 435 187 435Q204 435 212.5 442.5Q221 450 221 468Q221 480 213 486Q205 492 188 492H157L170 563H209Q222 563 229 570.5Q236 578 236 593Q236 603 229.5 608.5Q223 614 212 614Q202 614 195.5 610Q189 606 187 597L185 589H74L78 614Q85 655 121 680.5Q157 706 212 706Q274 706 310 679Q346 652 346 609Q346 582 334 560.5Q322 539 300 525Q317 514 325.5 498.5Q334 483 334 464ZM639 700H756L181 0H64ZM613 139H494L531 350H782L767 259H631L625 227H631Q698 227 732.5 200.5Q767 174 767 123Q767 67 728 30.5Q689 -6 621 -6Q545 -6 507 23.5Q469 53 476 104L477 111H588V105Q588 94 596 89Q604 84 620 84Q636 84 644 92Q652 100 652 114Q652 126 642 132.5Q632 139 613 139Z" glyph-name="uni2157" horiz-adv-x="817" unicode="&#8535;" /><glyph d="M132 700H242L167 521H229L261 700H375L313 350H199L211 426H38L54 520ZM662 700H779L204 0H87ZM636 139H517L554 350H805L790 259H654L648 227H654Q721 227 755.5 200.5Q790 174 790 123Q790 67 751 30.5Q712 -6 644 -6Q568 -6 530 23.5Q492 53 499 104L500 111H611V105Q611 94 619 89Q627 84 643 84Q659 84 667 92Q675 100 675 114Q675 126 665 132.5Q655 139 636 139Z" glyph-name="uni2158" horiz-adv-x="840" unicode="&#8536;" /><glyph d="M81 579 99 681 205 699H288L240 445H311L294 350H37L54 445H125L153 586ZM642 700H759L184 0H67ZM754 127Q754 72 714 33Q674 -6 607 -6Q528 -6 492 29.5Q456 65 467 127L485 232Q495 290 535 323Q575 356 638 356Q707 356 741.5 329Q776 302 770 257L769 248H659V251Q659 260 653 264.5Q647 269 635 269Q620 269 611 260.5Q602 252 599 235L595 212Q604 216 617.5 218.5Q631 221 645 221Q696 221 725 195.5Q754 170 754 127ZM576 102Q576 89 584 81.5Q592 74 607 74Q622 74 630 85.5Q638 97 638 116Q638 129 630.5 136.5Q623 144 608 144Q593 144 584.5 132.5Q576 121 576 102Z" glyph-name="uni2159" horiz-adv-x="805" unicode="&#8537;" /><glyph d="M182 489H63L100 700H351L336 609H200L194 577H200Q267 577 301.5 550.5Q336 524 336 473Q336 417 297 380.5Q258 344 190 344Q114 344 76 373.5Q38 403 45 454L46 461H157V455Q157 444 165 439Q173 434 189 434Q205 434 213 442Q221 450 221 464Q221 476 211 482.5Q201 489 182 489ZM637 700H754L179 0H62ZM749 127Q749 72 709 33Q669 -6 602 -6Q523 -6 487 29.5Q451 65 462 127L480 232Q490 290 530 323Q570 356 633 356Q702 356 736.5 329Q771 302 765 257L764 248H654V251Q654 260 648 264.5Q642 269 630 269Q615 269 606 260.5Q597 252 594 235L590 212Q599 216 612.5 218.5Q626 221 640 221Q691 221 720 195.5Q749 170 749 127ZM571 102Q571 89 579 81.5Q587 74 602 74Q617 74 625 85.5Q633 97 633 116Q633 129 625.5 136.5Q618 144 603 144Q588 144 579.5 132.5Q571 121 571 102Z" glyph-name="uni215A" horiz-adv-x="800" unicode="&#8538;" /><glyph d="M82 579 100 681 206 699H289L241 445H312L295 350H38L55 445H126L154 586ZM643 700H760L185 0H68ZM755 113Q755 61 716 27.5Q677 -6 608 -6Q538 -6 499 22Q460 50 461 95Q462 126 477 148.5Q492 171 520 184Q507 194 500.5 208.5Q494 223 494 242Q494 290 531 323Q568 356 631 356Q696 356 731.5 330.5Q767 305 767 260Q767 232 755.5 211.5Q744 191 721 178Q738 166 746.5 150Q755 134 755 113ZM599 245Q599 233 607 226.5Q615 220 630 220H631Q646 220 653.5 228Q661 236 661 250Q661 261 652.5 268Q644 275 629 275Q615 275 607 266.5Q599 258 599 245ZM642 108Q642 122 633 129Q624 136 607 136H606Q590 136 582 127.5Q574 119 574 103Q574 90 583 82.5Q592 75 610 75Q625 75 633.5 84.5Q642 94 642 108Z" glyph-name="uni215B" horiz-adv-x="807" unicode="&#8539;" /><glyph d="M335 464Q335 412 296.5 378Q258 344 190 344Q114 344 75.5 375.5Q37 407 45 454L47 466H160L159 462Q156 450 163.5 442.5Q171 435 188 435Q205 435 213.5 442.5Q222 450 222 468Q222 480 214 486Q206 492 189 492H158L171 563H210Q223 563 230 570.5Q237 578 237 593Q237 603 230.5 608.5Q224 614 213 614Q203 614 196.5 610Q190 606 188 597L186 589H75L79 614Q86 655 122 680.5Q158 706 213 706Q275 706 311 679Q347 652 347 609Q347 582 335 560.5Q323 539 301 525Q318 514 326.5 498.5Q335 483 335 464ZM640 700H757L182 0H65ZM752 113Q752 61 713 27.5Q674 -6 605 -6Q535 -6 496 22Q457 50 458 95Q459 126 474 148.5Q489 171 517 184Q504 194 497.5 208.5Q491 223 491 242Q491 290 528 323Q565 356 628 356Q693 356 728.5 330.5Q764 305 764 260Q764 232 752.5 211.5Q741 191 718 178Q735 166 743.5 150Q752 134 752 113ZM596 245Q596 233 604 226.5Q612 220 627 220H628Q643 220 650.5 228Q658 236 658 250Q658 261 649.5 268Q641 275 626 275Q612 275 604 266.5Q596 258 596 245ZM639 108Q639 122 630 129Q621 136 604 136H603Q587 136 579 127.5Q571 119 571 103Q571 90 580 82.5Q589 75 607 75Q622 75 630.5 84.5Q639 94 639 108Z" glyph-name="uni215C" horiz-adv-x="804" unicode="&#8540;" /><glyph d="M183 489H64L101 700H352L337 609H201L195 577H201Q268 577 302.5 550.5Q337 524 337 473Q337 417 298 380.5Q259 344 191 344Q115 344 77 373.5Q39 403 46 454L47 461H158V455Q158 444 166 439Q174 434 190 434Q206 434 214 442Q222 450 222 464Q222 476 212 482.5Q202 489 183 489ZM638 700H755L180 0H63ZM750 113Q750 61 711 27.5Q672 -6 603 -6Q533 -6 494 22Q455 50 456 95Q457 126 472 148.5Q487 171 515 184Q502 194 495.5 208.5Q489 223 489 242Q489 290 526 323Q563 356 626 356Q691 356 726.5 330.5Q762 305 762 260Q762 232 750.5 211.5Q739 191 716 178Q733 166 741.5 150Q750 134 750 113ZM594 245Q594 233 602 226.5Q610 220 625 220H626Q641 220 648.5 228Q656 236 656 250Q656 261 647.5 268Q639 275 624 275Q610 275 602 266.5Q594 258 594 245ZM637 108Q637 122 628 129Q619 136 602 136H601Q585 136 577 127.5Q569 119 569 103Q569 90 578 82.5Q587 75 605 75Q620 75 628.5 84.5Q637 94 637 108Z" glyph-name="uni215D" horiz-adv-x="802" unicode="&#8541;" /><glyph d="M70 609 86 700H364L349 617L175 350H52L221 609ZM610 700H727L152 0H35ZM722 113Q722 61 683 27.5Q644 -6 575 -6Q505 -6 466 22Q427 50 428 95Q429 126 444 148.5Q459 171 487 184Q474 194 467.5 208.5Q461 223 461 242Q461 290 498 323Q535 356 598 356Q663 356 698.5 330.5Q734 305 734 260Q734 232 722.5 211.5Q711 191 688 178Q705 166 713.5 150Q722 134 722 113ZM566 245Q566 233 574 226.5Q582 220 597 220H598Q613 220 620.5 228Q628 236 628 250Q628 261 619.5 268Q611 275 596 275Q582 275 574 266.5Q566 258 566 245ZM609 108Q609 122 600 129Q591 136 574 136H573Q557 136 549 127.5Q541 119 541 103Q541 90 550 82.5Q559 75 577 75Q592 75 600.5 84.5Q609 94 609 108Z" glyph-name="uni215E" horiz-adv-x="774" unicode="&#8542;" /><glyph d="M81 579 99 681 205 699H288L240 445H311L294 350H37L54 445H125L153 586ZM642 700H759L184 0H67Z" glyph-name="uni215F" horiz-adv-x="529" unicode="&#8543;" /><glyph d="M323 700H440L-135 0H-252Z" glyph-name="uni2215" horiz-adv-x="175" unicode="&#8725;" /><glyph d="M258 443 229 277H48L77 443Q122 443 167.5 443Q213 443 258 443ZM20.6553 350Z" glyph-name="uni2219" horiz-adv-x="288" unicode="&#8729;" /><glyph d="M718 320Q736 320 747 306Q758 292 758 269Q758 236 735.5 218.5Q713 201 671 201V161L674 129Q655 123 650.5 122Q646 121 642 121Q637 121 634 123Q631 125 631 129V204L606 201V198Q606 160 588.5 139.5Q571 119 538 119Q519 119 508 128.5Q497 138 497 153Q497 171 513.5 184Q530 197 567 206V248Q559 225 547 212.5Q535 200 521 200Q507 200 500 207.5Q493 215 493 231V234Q483 217 470 209Q457 201 440 201Q427 201 419 209Q411 217 411 231V332L382 330V334Q382 344 385 349Q388 354 394 354H411L408 384Q427 390 431.5 391Q436 392 440 392Q445 392 448 390Q451 388 451 384V355H498V352Q498 341 495 336Q492 331 486 331H451V245Q451 237 454 233Q457 229 464 229Q474 229 483.5 237Q493 245 493 255V280L490 313Q509 319 513.5 320Q518 321 522 321Q527 321 530 318.5Q533 316 533 312V246Q533 238 534.5 234.5Q536 231 540 231Q547 231 556.5 248Q566 265 566 279L564 313Q583 319 587.5 320Q592 321 595 321Q600 321 603 318.5Q606 316 606 312V213L631 216V277L628 313Q647 319 651.5 320Q656 321 660 321Q665 321 668 318.5Q671 316 671 312V272Q679 295 691 307.5Q703 320 718 320ZM359 321Q373 321 380 313Q387 305 387 289V240L390 208Q371 202 366.5 201Q362 200 359 200Q354 200 351 202Q348 204 348 208V274Q348 283 346 286.5Q344 290 340 290Q333 290 323.5 272.5Q314 255 314 242L316 208Q297 202 292.5 201Q288 200 285 200Q280 200 277 202Q274 204 274 208V274Q274 283 272 286.5Q270 290 266 290Q259 290 249.5 272.5Q240 255 240 242L243 208Q224 202 219.5 201Q215 200 211 200Q206 200 203 202Q200 204 200 208V277L197 313Q216 319 220.5 320Q225 321 229 321Q234 321 237 318.5Q240 316 240 312V272Q246 292 258 306.5Q270 321 285 321Q299 321 306.5 313Q314 305 314 289V272Q320 294 332 307.5Q344 321 359 321ZM1221 257Q1221 262 1221 287.5Q1221 313 1220 332L1191 330V334Q1191 344 1194 349Q1197 354 1203 354H1220L1217 384Q1236 390 1240.5 391Q1245 392 1249 392Q1254 392 1257 390Q1260 388 1260 384V355H1307V352Q1307 341 1304 336Q1301 331 1295 331H1260V241Q1260 233 1264 229.5Q1268 226 1276 226Q1282 226 1289 227Q1296 228 1310 231Q1330 235 1340.5 236Q1351 237 1361 237Q1383 237 1403 230.5Q1423 224 1423 213Q1423 200 1414.5 192.5Q1406 185 1396 185Q1394 185 1391 186Q1388 187 1380 192Q1361 202 1348.5 205.5Q1336 209 1325 209Q1321 209 1316 208.5Q1311 208 1299 206Q1281 203 1270 202Q1259 201 1249 201Q1232 201 1227 210.5Q1222 220 1221 257ZM1414 529H76V537H1414ZM1414 0H76V8H1414ZM1049 321Q1063 321 1070.5 313Q1078 305 1078 289V240L1080 208Q1061 202 1056.5 201Q1052 200 1049 200Q1044 200 1041 202Q1038 204 1038 208V275Q1038 283 1036 286.5Q1034 290 1030 290Q1023 290 1013.5 272.5Q1004 255 1004 242L1007 208Q988 202 983.5 201Q979 200 975 200Q970 200 967 202Q964 204 964 208V277L961 313Q980 319 984.5 320Q989 321 993 321Q998 321 1001 318.5Q1004 316 1004 312V272Q1013 296 1024 308.5Q1035 321 1049 321ZM182 290Q182 278 176 270Q170 262 157 258Q149 255 139 253.5Q129 252 113 252Q114 242 121 236Q128 230 139 230Q148 230 155.5 232Q163 234 171 239Q175 236 177 232Q179 228 179 223Q179 214 166.5 207Q154 200 132 200Q104 200 88 214.5Q72 229 72 253Q72 282 91 301.5Q110 321 141 321Q159 321 170.5 312Q182 303 182 290ZM881 290Q881 278 875 270Q869 262 856 258Q848 255 838 253.5Q828 252 812 252Q813 242 820 236Q827 230 838 230Q847 230 854.5 232Q862 234 870 239Q874 236 876 232Q878 228 878 223Q878 214 865.5 207Q853 200 831 200Q803 200 787 214.5Q771 229 771 253Q771 282 790 301.5Q809 321 840 321Q858 321 869.5 312Q881 303 881 290ZM1204 290Q1204 278 1198 270Q1192 262 1179 258Q1171 255 1161 253.5Q1151 252 1135 252Q1136 242 1143 236Q1150 230 1161 230Q1170 230 1177.5 232Q1185 234 1193 239Q1197 236 1199 232Q1201 228 1201 223Q1201 214 1188.5 207Q1176 200 1154 200Q1126 200 1110 214.5Q1094 229 1094 253Q1094 282 1113 301.5Q1132 321 1163 321Q1181 321 1192.5 312Q1204 303 1204 290ZM671 242V219Q694 222 705 235Q716 248 716 270Q716 280 712.5 285Q709 290 703 290Q691 290 681 272Q671 254 671 242ZM896 226Q896 236 903 243Q910 250 921 250Q932 250 939.5 243Q947 236 947 226Q947 216 939.5 209.5Q932 203 921 203Q910 203 903 209.5Q896 216 896 226ZM539 148Q551 148 558 159Q565 170 566 194Q547 190 536 181.5Q525 173 525 162Q525 155 529 151.5Q533 148 539 148ZM136 298Q127 298 120.5 288.5Q114 279 112 264Q128 264 138.5 269.5Q149 275 149 285Q149 291 145.5 294.5Q142 298 136 298ZM1158 298Q1149 298 1142.5 288.5Q1136 279 1134 264Q1150 264 1160.5 269.5Q1171 275 1171 285Q1171 291 1167.5 294.5Q1164 298 1158 298ZM835 298Q826 298 819.5 288.5Q813 279 811 264Q827 264 837.5 269.5Q848 275 848 285Q848 291 844.5 294.5Q841 298 835 298Z" glyph-name="uniF8FF" horiz-adv-x="1495" unicode="&#63743;" /><glyph d="M480 -78 462 -190Q444 -203 421 -209Q398 -215 368 -215Q316 -215 285 -187.5Q254 -160 254 -114Q254 -73 275.5 -40.5Q297 -8 339 16L340 63Q314 27 274.5 7.5Q235 -12 187 -12Q102 -12 55 49.5Q8 111 25 208L84 540H260L209 249Q199 195 213.5 169.5Q228 144 268 144Q307 144 329 166Q351 188 360 237L414 540H590L494 0H416Q405 -11 398.5 -24Q392 -37 392 -50Q392 -66 405 -74Q418 -82 445 -82Q454 -82 462.5 -81Q471 -80 480 -78Z" glyph-name="uogonek" horiz-adv-x="597" unicode="&#371;" /><glyph d="M494 0H338L340 63Q314 27 274.5 7.5Q235 -12 187 -12Q102 -12 55 49.5Q8 111 25 208L84 540H260L209 249Q199 195 213.5 169.5Q228 144 268 144Q307 144 329 166Q351 188 360 237L414 540H590ZM337 540ZM392 0ZM240.6809 714Q240.6809 768 276.6809 802.5Q312.6809 837 367.6809 837Q422.6809 837 458.6809 802.5Q494.6809 768 494.6809 714Q494.6809 660 458.6809 625.5Q422.6809 591 367.6809 591Q312.6809 591 276.6809 625.5Q240.6809 660 240.6809 714ZM329.6809 714Q329.6809 697 340.1809 686.5Q350.6809 676 367.6809 676Q384.6809 676 395.1809 686.5Q405.6809 697 405.6809 714Q405.6809 731 395.1809 741.5Q384.6809 752 367.6809 752Q350.6809 752 340.1809 741.5Q329.6809 731 329.6809 714ZM337 540Z" glyph-name="uring" horiz-adv-x="597" unicode="&#367;" /><glyph d="M494 0H338L340 63Q314 27 274.5 7.5Q235 -12 187 -12Q102 -12 55 49.5Q8 111 25 208L84 540H260L209 249Q199 195 213.5 169.5Q228 144 268 144Q307 144 329 166Q351 188 360 237L414 540H590ZM337 540ZM392 0ZM441 596Q420 596 401 600Q382 604 369 612L329 634Q318 640 309 642.5Q300 645 291 645Q271 645 259 637Q247 629 238 603H147Q152 671 191.5 715.5Q231 760 288 760Q306 760 323 755.5Q340 751 358 742L394 721Q406 714 416.5 711Q427 708 438 708Q456 708 468 719.5Q480 731 486 755H576Q571 681 535.5 638.5Q500 596 441 596ZM337 540Z" glyph-name="utilde" horiz-adv-x="597" unicode="&#361;" /><glyph d="M313 0H136L41 540H215L257 228L410 540H596Z" glyph-name="v" horiz-adv-x="555" unicode="v" /><glyph d="M269 0H92L44 540H215L226 233L363 540H542L570 234L690 540H874L634 0H457L417 306ZM457 540Z" glyph-name="w" horiz-adv-x="839" unicode="w" /><glyph d="M269 0H92L44 540H215L226 233L363 540H542L570 234L690 540H874L634 0H457L417 306ZM457 540ZM484 751H676L537 603H397ZM457 540Z" glyph-name="wacute" horiz-adv-x="839" unicode="&#7811;" /><glyph d="M269 0H92L44 540H215L226 233L363 540H542L570 234L690 540H874L634 0H457L417 306ZM457 540ZM523.5 603 479.5 664H477.5L412.5 603H275.5L415.5 751H572.5L660.5 603ZM457 540Z" glyph-name="wcircumflex" horiz-adv-x="839" unicode="&#373;" /><glyph d="M269 0H92L44 540H215L226 233L363 540H542L570 234L690 540H874L634 0H457L417 306ZM457 540ZM467.5 730 444.5 602H291.5L314.5 730Q333.5 730 352.5 730Q371.5 730 390.5 730Q409.5 730 428.5 730Q447.5 730 467.5 730ZM667.5 730 644.5 602H491.5L514.5 730Q552.5 730 590.5 730Q628.5 730 667.5 730ZM457 540Z" glyph-name="wdieresis" horiz-adv-x="839" unicode="&#7813;" /><glyph d="M269 0H92L44 540H215L226 233L363 540H542L570 234L690 540H874L634 0H457L417 306ZM457 540ZM531 603H390L303 751H496ZM457 540Z" glyph-name="wgrave" horiz-adv-x="839" unicode="&#7809;" /><glyph d="M479 0H296L238 142L139 0H-62L164 281L55 540H239L289 411L387 540H580L361 273Z" glyph-name="x" horiz-adv-x="536" unicode="x" /><glyph d="M598 540 209 -180H32L136 12L43 540H219L257 237L412 540ZM315 540Z" glyph-name="y" horiz-adv-x="554" unicode="y" /><glyph d="M598 540 209 -180H32L136 12L43 540H219L257 237L412 540ZM315 540ZM342 751H534L395 603H255ZM315 540Z" glyph-name="yacute" horiz-adv-x="554" unicode="&#253;" /><glyph d="M598 540 209 -180H32L136 12L43 540H219L257 237L412 540ZM315 540ZM381.5 603 337.5 664H335.5L270.5 603H133.5L273.5 751H430.5L518.5 603ZM315 540Z" glyph-name="ycircumflex" horiz-adv-x="554" unicode="&#375;" /><glyph d="M598 540 209 -180H32L136 12L43 540H219L257 237L412 540ZM315 540ZM325.5 730 302.5 602H149.5L172.5 730Q191.5 730 210.5 730Q229.5 730 248.5 730Q267.5 730 286.5 730Q305.5 730 325.5 730ZM525.5 730 502.5 602H349.5L372.5 730Q410.5 730 448.5 730Q486.5 730 525.5 730ZM315 540Z" glyph-name="ydieresis" horiz-adv-x="554" unicode="&#255;" /><glyph d="M573 279 555 174H405L374 0H188L219 174H63L81 279H224L211 317H88L107 422H176L82 700H273L350 438L524 700H727L532 422H599L580 317H459L432 279Z" glyph-name="yen" horiz-adv-x="673" unicode="&#165;" /><glyph d="M598 540 209 -180H32L136 12L43 540H219L257 237L412 540ZM315 540ZM389 603H248L161 751H354ZM315 540Z" glyph-name="ygrave" horiz-adv-x="554" unicode="&#7923;" /><glyph d="M63 405 87 540H510L487 413L219 135H459L435 0H-28L-5 128L262 405ZM285.1083 540Z" glyph-name="z" horiz-adv-x="513" unicode="z" /><glyph d="M63 405 87 540H510L487 413L219 135H459L435 0H-28L-5 128L262 405ZM285.1083 540ZM312.1083 751H504.1083L365.1083 603H225.1083ZM285.1083 540Z" glyph-name="zacute" horiz-adv-x="513" unicode="&#378;" /><glyph d="M63 405 87 540H510L487 413L219 135H459L435 0H-28L-5 128L262 405ZM285.1083 540ZM266.6083 751 309.6083 690H311.6083L377.6083 751H514.6083L374.6083 603H217.6083L129.6083 751ZM285.1083 540Z" glyph-name="zcaron" horiz-adv-x="513" unicode="&#382;" /><glyph d="M63 405 87 540H510L487 413L219 135H459L435 0H-28L-5 128L262 405ZM285.1083 540ZM397.6083 743 372.6083 603H219.6083L244.6083 743Q255.6083 743 268.1083 743Q280.6083 743 294.6083 743Q307.6083 743 320.6083 743Q333.6083 743 346.6083 743Q360.6083 743 373.1083 743Q385.6083 743 397.6083 743ZM285.1083 540Z" glyph-name="zdotaccent" horiz-adv-x="513" unicode="&#380;" /><glyph d="M577 218 614 432Q636 562 567.5 637Q499 712 349 712Q235 712 164 651.5Q93 591 74 482L37 268Q14 134 83 61Q152 -12 308 -12Q417 -12 488 50.5Q559 113 577 218ZM346 550Q397 550 418 521.5Q439 493 429 437L395 243Q387 198 365 174Q343 150 309 150Q255 150 233.5 178Q212 206 222 263L256 457Q264 503 287 526.5Q310 550 346 550Z" glyph-name="zero" horiz-adv-x="636" unicode="0" /><glyph d="M134 -6Q198 -6 235 24Q272 54 283 118L300 212Q311 275 273.5 315.5Q236 356 158 356Q95 356 58 325Q21 294 10 232L-7 138Q-18 76 20 35Q58 -6 134 -6ZM158 261Q176 261 182.5 250Q189 239 185 216L170 128Q167 108 159 99Q151 90 138 90Q118 90 111 100.5Q104 111 108 134L123 222Q126 242 135 251.5Q144 261 158 261Z" glyph-name="zero.denominator" horiz-adv-x="339" unicode="&#63061;" /><glyph d="M109 -146Q173 -146 210 -116Q247 -86 258 -22L275 72Q286 135 248.5 175.5Q211 216 133 216Q70 216 33 185Q-4 154 -15 92L-32 -2Q-43 -64 -5 -105Q33 -146 109 -146ZM133 121Q151 121 157.5 110Q164 99 160 76L145 -12Q142 -32 134 -41Q126 -50 113 -50Q93 -50 86 -39.5Q79 -29 83 -6L98 82Q101 102 110 111.5Q119 121 133 121Z" glyph-name="zero.inferior" horiz-adv-x="339" unicode="&#8320;" /><glyph d="M196 344Q260 344 297 374Q334 404 345 468L362 562Q373 625 335.5 665.5Q298 706 220 706Q157 706 120 675Q83 644 72 582L55 488Q44 426 82 385Q120 344 196 344ZM220 611Q238 611 244.5 600Q251 589 247 566L232 478Q229 458 221 449Q213 440 200 440Q180 440 173 450.5Q166 461 170 484L185 572Q188 592 197 601.5Q206 611 220 611Z" glyph-name="zero.numerator" horiz-adv-x="339" unicode="&#63073;" /><glyph d="M220 484Q284 484 321 514Q358 544 369 608L386 702Q397 765 359.5 805.5Q322 846 244 846Q181 846 144 815Q107 784 96 722L79 628Q68 566 106 525Q144 484 220 484ZM244 751Q262 751 268.5 740Q275 729 271 706L256 618Q253 598 245 589Q237 580 224 580Q204 580 197 590.5Q190 601 194 624L209 712Q212 732 221 741.5Q230 751 244 751Z" glyph-name="zero.superior" horiz-adv-x="339" unicode="&#8304;" /><glyph d="M577 218 614 432Q636 562 567.5 637Q499 712 349 712Q235 712 164 651.5Q93 591 74 482L37 268Q14 134 83 61Q152 -12 308 -12Q417 -12 488 50.5Q559 113 577 218ZM346 550Q397 550 418 521.5Q439 493 429 437L395 243Q387 198 365 174Q343 150 309 150Q255 150 233.5 178Q212 206 222 263L256 457Q264 503 287 526.5Q310 550 346 550Z" glyph-name="zero.tab" horiz-adv-x="635" unicode="&#65296;" /></font>
</defs>
</svg>
